<?xml version="1.0" encoding="UTF-8"?>
<svg width="30px" height="30px" version="1.1" viewBox="0 0 7.9375 7.9375" xmlns="http://www.w3.org/2000/svg"
     xmlns:cc="http://creativecommons.org/ns#" xmlns:dc="http://purl.org/dc/elements/1.1/"
     xmlns:rdf="http://www.w3.org/1999/02/22-rdf-syntax-ns#">
    <metadata>
        <rdf:RDF>
            <cc:Work rdf:about="">
                <dc:format>image/svg+xml</dc:format>
                <dc:type rdf:resource="http://purl.org/dc/dcmitype/StillImage"/>
                <dc:title/>
            </cc:Work>
        </rdf:RDF>
    </metadata>
    <g transform="translate(-140.31 -75.942)">
        <g transform="matrix(.25741 0 0 .25067 140.2 75.942)">
            <path d="m16.878 0.415c-0.854-0.565-1.968-0.552-2.809 0.034l-12.584 8.765c-0.671 0.468-1.071 1.233-1.071 2.052v9.444c0 0.84 0.421 1.623 1.122 2.086l12.79 8.455c0.836 0.553 1.922 0.553 2.758 0l13.044-8.618c0.7-0.463 1.122-1.246 1.122-2.086v-9.279c0-0.839-0.421-1.622-1.121-2.085zm9.743 10.23-4.821 3.237-4.521-3.288-0.029-6.467zm-12.642-6.512v6.329l-4.633 3.24-4.621-3.099zm-10.521 9.589 2.991 2.004-2.991 2.093zm10.6 13.493-9.331-6.258 4.661-3.258 4.67 3.133zm-1.772-11.541 3.021-2.113 3.519 2.313-3.119 2.095zm5.068 11.541v-6.385l4.463-2.991 4.805 3.159zm10.6-9.288-3.168-2.082 3.168-2.125z"/>
        </g>
    </g>
</svg>
