<?xml version="1.0" encoding="UTF-8"?>
<svg width="10.583mm" height="7.9375mm" version="1.1" viewBox="0 0 10.583 7.9375" xmlns="http://www.w3.org/2000/svg"
     xmlns:cc="http://creativecommons.org/ns#" xmlns:dc="http://purl.org/dc/elements/1.1/"
     xmlns:rdf="http://www.w3.org/1999/02/22-rdf-syntax-ns#">
    <metadata>
        <rdf:RDF>
            <cc:Work rdf:about="">
                <dc:format>image/svg+xml</dc:format>
                <dc:type rdf:resource="http://purl.org/dc/dcmitype/StillImage"/>
                <dc:title/>
            </cc:Work>
        </rdf:RDF>
    </metadata>
    <g transform="translate(65.503 11.735)">
        <g transform="matrix(.020671 0 0 .020671 -65.503 -13.058)">
            <rect x="64" y="64" width="384" height="384" fill="#eceff1"/>
            <polygon points="256 296.38 448 448 448 148.67" fill="#cfd8dc"/>
            <path d="m464 64h-16l-192 151.62-192-151.62h-16c-26.496 0-48 21.504-48 48v288c0 26.496 21.504 48 48 48h16v-299.33l192 147.68 192-147.71v299.36h16c26.496 0 48-21.504 48-48v-288c0-26.496-21.504-48-48-48z"
                  fill="#f44336"/>
        </g>
    </g>
</svg>
