<?xml version="1.0" encoding="UTF-8"?>
<svg width="7.9375mm" height="6.2839mm" version="1.1" viewBox="0 0 7.9375 6.2839" xmlns="http://www.w3.org/2000/svg" xmlns:cc="http://creativecommons.org/ns#" xmlns:dc="http://purl.org/dc/elements/1.1/" xmlns:rdf="http://www.w3.org/1999/02/22-rdf-syntax-ns#">
<metadata>
<rdf:RDF>
<cc:Work rdf:about="">
<dc:format>image/svg+xml</dc:format>
<dc:type rdf:resource="http://purl.org/dc/dcmitype/StillImage"/>
<dc:title/>
</cc:Work>
</rdf:RDF>
</metadata>
<g transform="translate(-64.447 -14.194)">
<path d="m71.751 14.932 0.63335-0.6059v-0.13262h-2.1941l-1.5637 3.892-1.779-3.892h-2.3006v0.13262l0.73984 0.89065c0.0721 0.06582 0.1098 0.16206 0.10021 0.25896v3.5001c0.02282 0.12601-0.01819 0.25565-0.10682 0.34726l-0.83344 1.01v0.13097h2.3631v-0.13262l-0.83344-1.0084c-0.090289-0.091942-0.13295-0.21927-0.11476-0.34726v-3.0275l2.0743 4.5174h0.2411l1.7836-4.5174v3.5987c0 0.09492 0 0.11443-0.06218 0.17661l-0.64162 0.62078v0.13295h3.1128v-0.13262l-0.61846-0.60556c-0.05424-0.04101-0.08235-0.1098-0.07078-0.17661v-4.4539c-0.01157-0.06714 0.01621-0.13593 0.07045-0.17661z" stroke-width=".33073"/>
</g>
</svg>
