<?xml version="1.0" encoding="UTF-8"?>
<svg width="6.6146mm" height="7.6729mm" version="1.1" viewBox="0 0 6.6146 7.6729" xmlns="http://www.w3.org/2000/svg"
     xmlns:cc="http://creativecommons.org/ns#" xmlns:dc="http://purl.org/dc/elements/1.1/"
     xmlns:rdf="http://www.w3.org/1999/02/22-rdf-syntax-ns#">
    <metadata>
        <rdf:RDF>
            <cc:Work rdf:about="">
                <dc:format>image/svg+xml</dc:format>
                <dc:type rdf:resource="http://purl.org/dc/dcmitype/StillImage"/>
                <dc:title/>
            </cc:Work>
        </rdf:RDF>
    </metadata>
    <g transform="translate(-61.825 -10.513)">
        <g transform="matrix(.13229 0 0 .13229 61.296 10.513)">
            <path d="M 32.595,58 H 7.405 C 5.525,58 4,56.475 4,54.595 V 3.405 C 4,1.525 5.525,0 7.405,0 H 32.594 C 34.475,0 36,1.525 36,3.405 V 54.594 C 36,56.475 34.475,58 32.595,58 Z"
                  fill="#424a60"/>
            <rect x="4" y="6" width="32" height="40" fill="#e7eced"/>
            <circle cx="20" cy="52" r="3" fill="#262b35"/>
            <path d="m20 4h-4c-0.553 0-1-0.447-1-1s0.447-1 1-1h4c0.553 0 1 0.447 1 1s-0.447 1-1 1z" fill="#262b35"/>
            <path d="m24 4h-1c-0.553 0-1-0.447-1-1s0.447-1 1-1h1c0.553 0 1 0.447 1 1s-0.447 1-1 1z" fill="#262b35"/>
            <polygon points="30 31 54 31 54 12 18 12 18 31 22 31 22 37" fill="#25ae88"/>
            <g fill="#57d8ab">
                <path d="m24 20h10c0.552 0 1-0.447 1-1s-0.448-1-1-1h-10c-0.552 0-1 0.447-1 1s0.448 1 1 1z"/>
                <path d="m48 23h-24c-0.552 0-1 0.447-1 1s0.448 1 1 1h24c0.552 0 1-0.447 1-1s-0.448-1-1-1z"/>
            </g>
        </g>
    </g>
</svg>
