<?xml version="1.0" encoding="UTF-8"?>
<svg width="6.6146mm" height="7.9375mm" version="1.1" viewBox="0 0 6.6146 7.9375" xmlns="http://www.w3.org/2000/svg"
     xmlns:cc="http://creativecommons.org/ns#" xmlns:dc="http://purl.org/dc/elements/1.1/"
     xmlns:rdf="http://www.w3.org/1999/02/22-rdf-syntax-ns#">
    <metadata>
        <rdf:RDF>
            <cc:Work rdf:about="">
                <dc:format>image/svg+xml</dc:format>
                <dc:type rdf:resource="http://purl.org/dc/dcmitype/StillImage"/>
                <dc:title/>
            </cc:Work>
        </rdf:RDF>
    </metadata>
    <g transform="translate(102.5 8.0327)">
        <g transform="matrix(.33073 0 0 .33073 -103.16 -8.0327)">
            <g fill="#ff9800">
                <path d="m6.444 14.839 10.338 2.196 0.433-2.089-10.338-2.212z"/>
                <path d="m6.215 17.571h10.566v2.127h-10.566z"/>
                <path d="m7.8 9.831 9.572 4.526 0.887-1.944-9.577-4.538z"/>
                <path d="m17.373 14.358-1e-3 -1e-3 -1e-3 1e-3z"/>
            </g>
            <path d="m2 15.429v8.571h18.992v-8.571h-2.113v6.428h-14.766v-6.428z" fill="#757575"/>
            <path d="m10.453 5.063 8.109 6.873 1.346-1.65-8.109-6.873z" fill="#ff9800"/>
            <path d="m22 8.587-6.302-8.587-1.691 1.286 6.302 8.587z" fill="#ff9800"/>
        </g>
    </g>
</svg>
