<?xml version="1.0" encoding="UTF-8"?>
<svg width="7.9375mm" height="7.9375mm" version="1.1" viewBox="0 0 7.9375 7.9375" xmlns="http://www.w3.org/2000/svg"
     xmlns:cc="http://creativecommons.org/ns#" xmlns:dc="http://purl.org/dc/elements/1.1/"
     xmlns:rdf="http://www.w3.org/1999/02/22-rdf-syntax-ns#">
    <metadata>
        <rdf:RDF>
            <cc:Work rdf:about="">
                <dc:format>image/svg+xml</dc:format>
                <dc:type rdf:resource="http://purl.org/dc/dcmitype/StillImage"/>
                <dc:title/>
            </cc:Work>
        </rdf:RDF>
    </metadata>
    <g transform="translate(-7.4766 47.126)">
        <g transform="matrix(.070747 0 0 .070747 7.4766 -47.126)">
            <circle cx="56.099" cy="56.098" r="56.098" fill="#55acee"/>
            <path d="m90.461 40.316c-2.404 1.066-4.99 1.787-7.702 2.109 2.769-1.659 4.894-4.284 5.897-7.417-2.591 1.537-5.462 2.652-8.515 3.253-2.446-2.605-5.931-4.233-9.79-4.233-7.404 0-13.409 6.005-13.409 13.409 0 1.051 0.119 2.074 0.349 3.056-11.144-0.559-21.025-5.897-27.639-14.012-1.154 1.98-1.816 4.285-1.816 6.742 0 4.651 2.369 8.757 5.965 11.161-2.197-0.069-4.266-0.672-6.073-1.679-1e-3 0.057-1e-3 0.114-1e-3 0.17 0 6.497 4.624 11.916 10.757 13.147-1.124 0.308-2.311 0.471-3.532 0.471-0.866 0-1.705-0.083-2.523-0.239 1.706 5.326 6.657 9.203 12.526 9.312-4.59 3.597-10.371 5.74-16.655 5.74-1.08 0-2.15-0.063-3.197-0.188 5.931 3.806 12.981 6.025 20.553 6.025 24.664 0 38.152-20.432 38.152-38.153 0-0.581-0.013-1.16-0.039-1.734 2.622-1.89 4.895-4.251 6.692-6.94z"
                  fill="#f1f2f2"/>
        </g>
    </g>
</svg>
