<?xml version="1.0" encoding="UTF-8"?>
<svg width="8.2939mm" height="7.9375mm" version="1.1" viewBox="0 0 8.2939 7.9375" xmlns="http://www.w3.org/2000/svg"
     xmlns:cc="http://creativecommons.org/ns#" xmlns:dc="http://purl.org/dc/elements/1.1/"
     xmlns:rdf="http://www.w3.org/1999/02/22-rdf-syntax-ns#">
    <metadata>
        <rdf:RDF>
            <cc:Work rdf:about="">
                <dc:format>image/svg+xml</dc:format>
                <dc:type rdf:resource="http://purl.org/dc/dcmitype/StillImage"/>
                <dc:title/>
            </cc:Work>
        </rdf:RDF>
    </metadata>
    <g transform="translate(80.377 10.362)">
        <g transform="matrix(.016199 0 0 .016199 -80.377 -10.54)">
            <circle cx="267" cy="256" r="245" fill="#69cdff"/>
            <rect x="185.72" y="358.53" width="78.71" height="41.23" fill="#445ea0"/>
            <rect x="185.72" y="358.53" width="19.842" height="41.23" fill="#2e4c89"/>
            <path d="m316.86 398.76h-189.3c-2.806 0-5.101 2.296-5.101 5.102v25.571c0 2.806 2.296 5.102 5.101 5.102h189.3z"
                  fill="#293d7c"/>
            <path d="m142.3 429.44v-25.571c0-2.806 2.296-5.102 5.102-5.102h-19.843c-2.806 0-5.101 2.296-5.101 5.102v25.571c0 2.806 2.296 5.102 5.101 5.102h19.842c-2.805 0-5.101-2.296-5.101-5.102z"
                  fill="#1a2b63"/>
            <path d="m445.05 58.964h-439.95c-2.806 0-5.102 2.296-5.102 5.102v290.36c0 2.807 2.296 5.102 5.102 5.102h311.75v-152.76c0-3.859 3.14-7 7-7h126.3v-135.7c0-2.806-2.296-5.102-5.102-5.102z"
                  fill="#293d7c"/>
            <path d="m22.396 308.51c0 1.684 1.377 3.06 3.061 3.06h291.4v-104.81c0-3.859 3.14-7 7-7h103.9v-90.77h-405.36z"
                  fill="#fff"/>
            <path d="m42.239 308.51v-199.52h-19.843v199.52c0 1.684 1.377 3.06 3.061 3.06h19.843c-1.684 0-3.061-1.377-3.061-3.06z"
                  fill="#d9eafc"/>
            <circle cx="225.08" cy="335.46" r="13.774" fill="#445ea0"/>
            <path d="m316.86 223.15h-53.424c-1.65 0-3 1.35-3 3v59.639c0 1.65 1.35 3 3 3h53.424z" fill="#c3ddf4"/>
            <path d="m280.27 285.78v-59.639c0-1.65 1.35-3 3-3h-19.842c-1.65 0-3 1.35-3 3v59.639c0 1.65 1.35 3 3 3h19.842c-1.65 0-3-1.35-3-3z"
                  fill="#aec1ed"/>
            <path d="m323.86 199.77h46.618v-65.382c0-2.75-2.25-5-5-5h-280.79c-2.75 0-5 2.25-5 5v66.525c0 2.75 2.25 5 5 5h232.23c0.424-3.456 3.373-6.143 6.941-6.143z"
                  fill="#c3ddf4"/>
            <path d="m99.524 200.91v-66.525c0-2.75 2.25-5 5-5h-19.842c-2.75 0-5 2.25-5 5v66.525c0 2.75 2.25 5 5 5h19.842c-2.75 0-5-2.25-5-5z"
                  fill="#aec1ed"/>
            <path d="m424.7 84.983h-399.24c-1.684 0-3.061 1.377-3.061 3.062v21.953h405.36v-21.953c0-1.685-1.378-3.062-3.061-3.062z"
                  fill="#ffaf10"/>
            <path d="m45.3 84.983h-19.843c-1.684 0-3.061 1.377-3.061 3.062v21.953h19.842v-21.953c1e-3 -1.685 1.378-3.062 3.062-3.062z"
                  fill="#ff9518"/>
            <g fill="#5dc1d8">
                <path d="m171.5 238.98h-84.17c-4.142 0-7.5-3.357-7.5-7.5s3.358-7.5 7.5-7.5h84.17c4.142 0 7.5 3.357 7.5 7.5s-3.358 7.5-7.5 7.5z"/>
                <path d="m171.5 263.47h-84.17c-4.142 0-7.5-3.357-7.5-7.5s3.358-7.5 7.5-7.5h84.17c4.142 0 7.5 3.357 7.5 7.5 0 4.142-3.358 7.5-7.5 7.5z"/>
                <path d="m171.5 287.95h-84.17c-4.142 0-7.5-3.357-7.5-7.5s3.358-7.5 7.5-7.5h84.17c4.142 0 7.5 3.357 7.5 7.5s-3.358 7.5-7.5 7.5z"/>
                <path d="m237.56 238.98h-43.326c-4.142 0-7.5-3.357-7.5-7.5s3.358-7.5 7.5-7.5h43.326c4.142 0 7.5 3.357 7.5 7.5s-3.358 7.5-7.5 7.5z"/>
                <path d="m237.56 263.47h-43.326c-4.142 0-7.5-3.357-7.5-7.5s3.358-7.5 7.5-7.5h43.326c4.142 0 7.5 3.357 7.5 7.5 0 4.142-3.358 7.5-7.5 7.5z"/>
                <path d="m237.56 287.95h-43.326c-4.142 0-7.5-3.357-7.5-7.5s3.358-7.5 7.5-7.5h43.326c4.142 0 7.5 3.357 7.5 7.5s-3.358 7.5-7.5 7.5z"/>
            </g>
            <path d="m504 198.77c4.4 0 8 3.6 8 8v241.77c0 4.4-3.6 8-8 8h-180.14c-4.4 0-8-3.6-8-8v-241.77c0-4.4 3.6-8 8-8z"
                  fill="#445ea0"/>
            <path d="m337.57 425.12c-2.75 0-5-2.25-5-5v-200.94c0-2.75 2.25-5 5-5h152.72c2.75 0 5 2.25 5 5v200.94c0 2.75-2.25 5-5 5z"
                  fill="#fff"/>
            <path d="m352.41 420.12v-200.94c0-2.75 2.25-5 5-5h-19.842c-2.75 0-5 2.25-5 5v200.94c0 2.75 2.25 5 5 5h19.842c-2.75 0-5-2.25-5-5z"
                  fill="#d9eafc"/>
            <path d="m404.57 445.12c-2.75 0-5-2.25-5-5v-1.945c0-2.75 2.25-5 5-5h18.723c2.75 0 5 2.25 5 5v1.945c0 2.75-2.25 5-5 5z"
                  fill="#445ea0"/>
            <path d="m495.29 233.47v-14.293c0-2.75-2.25-5-5-5h-152.72c-2.75 0-5 2.25-5 5v14.293z" fill="#ffaf10"/>
            <path d="m357.41 214.18h-19.842c-2.75 0-5 2.25-5 5v14.293h19.842v-14.293c0-2.75 2.25-5 5-5z"
                  fill="#ff9518"/>
            <g fill="#5dc1d8">
                <path d="m448.01 324.93h-68.169c-4.142 0-7.5-3.357-7.5-7.5s3.358-7.5 7.5-7.5h68.169c4.142 0 7.5 3.357 7.5 7.5 0 4.142-3.358 7.5-7.5 7.5z"/>
                <path d="m448.01 348.06h-68.169c-4.142 0-7.5-3.357-7.5-7.5 0-4.142 3.358-7.5 7.5-7.5h68.169c4.142 0 7.5 3.358 7.5 7.5 0 4.143-3.358 7.5-7.5 7.5z"/>
                <path d="m448.01 371.18h-68.169c-4.142 0-7.5-3.357-7.5-7.5 0-4.142 3.358-7.5 7.5-7.5h68.169c4.142 0 7.5 3.358 7.5 7.5 0 4.143-3.358 7.5-7.5 7.5z"/>
            </g>
            <path d="m479.76 292.26c0 2.75-2.25 5-5 5h-121.66c-2.75 0-5-2.25-5-5v-41.244c0-2.75 2.25-5 5-5h121.66c2.75 0 5 2.25 5 5z"
                  fill="#c3ddf4"/>
            <path d="m367.94 292.26v-41.244c0-2.75 2.25-5 5-5h-19.842c-2.75 0-5 2.25-5 5v41.244c0 2.75 2.25 5 5 5h19.842c-2.75 0-5-2.25-5-5z"
                  fill="#aec1ed"/>
            <path d="m461.76 409.42c0 2.75-2.25 5-5 5h-85.657c-2.75 0-5-2.25-5-5v-16.91c0-2.75 2.25-5 5-5h85.657c2.75 0 5 2.25 5 5z"
                  fill="#c3ddf4"/>
            <path d="m385.94 409.42v-16.91c0-2.75 2.25-5 5-5h-19.842c-2.75 0-5 2.25-5 5v16.91c0 2.75 2.25 5 5 5h19.842c-2.75 0-5-2.25-5-5z"
                  fill="#aec1ed"/>
        </g>
    </g>
</svg>
