<svg xmlns="http://www.w3.org/2000/svg" viewBox="0 0 800 400" width="800" height="400">
  <style>
    @keyframes drawLine {
      to { stroke-dashoffset: 0; }
    }
    @keyframes fadeInPoint {
      from { opacity: 0; }
      to { opacity: 1; }
    }
    .data-line-0 {
      stroke-dasharray: 1065;
      stroke-dashoffset: 1065;
      animation: drawLine 2s ease-out forwards;
    }
    .data-line-1 {
      stroke-dasharray: 1065;
      stroke-dashoffset: 1065;
      animation: drawLine 2s ease-out forwards;
    }
    .data-line-2 {
      stroke-dasharray: 1065;
      stroke-dashoffset: 1065;
      animation: drawLine 2s ease-out forwards;
    }
    .data-line-3 {
      stroke-dasharray: 1065;
      stroke-dashoffset: 1065;
      animation: drawLine 2s ease-out forwards;
    }
    .data-line-4 {
      stroke-dasharray: 1065;
      stroke-dashoffset: 1065;
      animation: drawLine 2s ease-out forwards;
    }
    .data-line-5 {
      stroke-dasharray: 1065;
      stroke-dashoffset: 1065;
      animation: drawLine 2s ease-out forwards;
    }
    .data-line-6 {
      stroke-dasharray: 1127;
      stroke-dashoffset: 1127;
      animation: drawLine 2s ease-out forwards;
    }
    .data-line-7 {
      stroke-dasharray: 1065;
      stroke-dashoffset: 1065;
      animation: drawLine 2s ease-out forwards;
    }
    .data-point {
      opacity: 0;
      animation: fadeInPoint 0.5s ease-out forwards;
    }
    .chart-bg { fill: #fff; }
    .chart-text { fill: #24292e; }
    .chart-muted { fill: #6a737d; }
    .chart-grid { stroke: #eee; }
    .chart-axis { stroke: #6a737d; }
    @media (prefers-color-scheme: dark) {
      .chart-bg { fill: #0d1117; }
      .chart-text { fill: #e6edf3; }
      .chart-muted { fill: #8b949e; }
      .chart-grid { stroke: #21262d; }
      .chart-axis { stroke: #8b949e; }
    }
  </style>
  <rect width="800" height="400" class="chart-bg" />
  <text x="400" y="14" text-anchor="middle" class="chart-text" font-size="16" font-weight="bold" font-family="-apple-system, BlinkMacSystemFont, 'Segoe UI', Helvetica, Arial, sans-serif">Top Repositories</text>
  <g class="legend">
    <rect x="-80" y="25" width="12" height="3" fill="#dfb317" />
    <line x1="-80" y1="26.5" x2="-68" y2="26.5" stroke="#dfb317" stroke-width="2" />
    <text x="-64" y="30" class="chart-text" font-size="10" font-family="-apple-system, BlinkMacSystemFont, 'Segoe UI', Helvetica, Arial, sans-serif">biancafiore</text>
    <rect x="40" y="25" width="12" height="3" fill="#28a745" />
    <line x1="40" y1="26.5" x2="52" y2="26.5" stroke="#28a745" stroke-width="2" />
    <text x="56" y="30" class="chart-text" font-size="10" font-family="-apple-system, BlinkMacSystemFont, 'Segoe UI', Helvetica, Arial, sans-serif">fbuireu</text>
    <rect x="160" y="25" width="12" height="3" fill="#e74c3c" />
    <line x1="160" y1="26.5" x2="172" y2="26.5" stroke="#e74c3c" stroke-width="2" />
    <text x="176" y="30" class="chart-text" font-size="10" font-family="-apple-system, BlinkMacSystemFont, 'Segoe UI', Helvetica, Arial, sans-serif">curriculum-vitae</text>
    <rect x="280" y="25" width="12" height="3" fill="#3498db" />
    <line x1="280" y1="26.5" x2="292" y2="26.5" stroke="#3498db" stroke-width="2" />
    <text x="296" y="30" class="chart-text" font-size="10" font-family="-apple-system, BlinkMacSystemFont, 'Segoe UI', Helvetica, Arial, sans-serif">fbuireu-cli</text>
    <rect x="400" y="25" width="12" height="3" fill="#9b59b6" />
    <line x1="400" y1="26.5" x2="412" y2="26.5" stroke="#9b59b6" stroke-width="2" />
    <text x="416" y="30" class="chart-text" font-size="10" font-family="-apple-system, BlinkMacSystemFont, 'Segoe UI', Helvetica, Arial, sans-serif">email-signature</text>
    <rect x="520" y="25" width="12" height="3" fill="#e67e22" />
    <line x1="520" y1="26.5" x2="532" y2="26.5" stroke="#e67e22" stroke-width="2" />
    <text x="536" y="30" class="chart-text" font-size="10" font-family="-apple-system, BlinkMacSystemFont, 'Segoe UI', Helvetica, Arial, sans-serif">forever-pto</text>
    <rect x="640" y="25" width="12" height="3" fill="#1abc9c" />
    <line x1="640" y1="26.5" x2="652" y2="26.5" stroke="#1abc9c" stroke-width="2" />
    <text x="656" y="30" class="chart-text" font-size="10" font-family="-apple-system, BlinkMacSystemFont, 'Segoe UI', Helvetica, Arial, sans-serif">github-star-tracker</text>
    <rect x="760" y="25" width="12" height="3" fill="#e84393" />
    <line x1="760" y1="26.5" x2="772" y2="26.5" stroke="#e84393" stroke-width="2" />
    <text x="776" y="30" class="chart-text" font-size="10" font-family="-apple-system, BlinkMacSystemFont, 'Segoe UI', Helvetica, Arial, sans-serif">hashnode-articles-backup</text>
  </g>
  <g class="grid">
    <line x1="60" y1="350" x2="770" y2="350" class="chart-grid" stroke-opacity="0.3" />
    <text x="52" y="354" text-anchor="end" class="chart-muted" font-size="11" font-family="-apple-system, BlinkMacSystemFont, 'Segoe UI', Helvetica, Arial, sans-serif">0</text>
    <line x1="60" y1="275" x2="770" y2="275" class="chart-grid" stroke-opacity="0.3" />
    <text x="52" y="279" text-anchor="end" class="chart-muted" font-size="11" font-family="-apple-system, BlinkMacSystemFont, 'Segoe UI', Helvetica, Arial, sans-serif">2</text>
    <line x1="60" y1="200" x2="770" y2="200" class="chart-grid" stroke-opacity="0.3" />
    <text x="52" y="204" text-anchor="end" class="chart-muted" font-size="11" font-family="-apple-system, BlinkMacSystemFont, 'Segoe UI', Helvetica, Arial, sans-serif">4</text>
    <line x1="60" y1="125" x2="770" y2="125" class="chart-grid" stroke-opacity="0.3" />
    <text x="52" y="129" text-anchor="end" class="chart-muted" font-size="11" font-family="-apple-system, BlinkMacSystemFont, 'Segoe UI', Helvetica, Arial, sans-serif">6</text>
    <line x1="60" y1="50" x2="770" y2="50" class="chart-grid" stroke-opacity="0.3" />
    <text x="52" y="54" text-anchor="end" class="chart-muted" font-size="11" font-family="-apple-system, BlinkMacSystemFont, 'Segoe UI', Helvetica, Arial, sans-serif">8</text>
  </g>
  <g class="milestones">
    
  </g>
  <g class="x-axis">
    <text x="60" y="370" text-anchor="middle" class="chart-muted" font-size="11" font-family="-apple-system, BlinkMacSystemFont, 'Segoe UI', Helvetica, Arial, sans-serif">Feb 13</text>
    <text x="148.75" y="370" text-anchor="middle" class="chart-muted" font-size="11" font-family="-apple-system, BlinkMacSystemFont, 'Segoe UI', Helvetica, Arial, sans-serif">Feb 13</text>
    <text x="237.5" y="370" text-anchor="middle" class="chart-muted" font-size="11" font-family="-apple-system, BlinkMacSystemFont, 'Segoe UI', Helvetica, Arial, sans-serif">Feb 13</text>
    <text x="326.25" y="370" text-anchor="middle" class="chart-muted" font-size="11" font-family="-apple-system, BlinkMacSystemFont, 'Segoe UI', Helvetica, Arial, sans-serif">Feb 13</text>
    <text x="415" y="370" text-anchor="middle" class="chart-muted" font-size="11" font-family="-apple-system, BlinkMacSystemFont, 'Segoe UI', Helvetica, Arial, sans-serif">Feb 14</text>
    <text x="503.75" y="370" text-anchor="middle" class="chart-muted" font-size="11" font-family="-apple-system, BlinkMacSystemFont, 'Segoe UI', Helvetica, Arial, sans-serif">Feb 15</text>
    <text x="592.5" y="370" text-anchor="middle" class="chart-muted" font-size="11" font-family="-apple-system, BlinkMacSystemFont, 'Segoe UI', Helvetica, Arial, sans-serif">Feb 15</text>
    <text x="681.25" y="370" text-anchor="middle" class="chart-muted" font-size="11" font-family="-apple-system, BlinkMacSystemFont, 'Segoe UI', Helvetica, Arial, sans-serif">Mar 1</text>
    <text x="770" y="370" text-anchor="middle" class="chart-muted" font-size="11" font-family="-apple-system, BlinkMacSystemFont, 'Segoe UI', Helvetica, Arial, sans-serif">Mar 15</text>
  </g>
  <line x1="60" y1="50" x2="60" y2="350" class="chart-axis" stroke-width="1" />
  <line x1="60" y1="350" x2="770" y2="350" class="chart-axis" stroke-width="1" />
  
  
  
  
  
  
  
  
  <path d="M60,87.5 C65.91666666666667,87.5 92.54166666666667,87.5 104.375,87.5 C116.20833333333333,87.5 136.91666666666666,87.5 148.75,87.5 C160.58333333333334,87.5 181.29166666666666,87.5 193.125,87.5 C204.95833333333334,87.5 225.66666666666666,87.5 237.5,87.5 C249.33333333333334,87.5 270.0416666666667,87.5 281.875,87.5 C293.7083333333333,87.5 314.4166666666667,87.5 326.25,87.5 C338.0833333333333,87.5 358.7916666666667,87.5 370.625,87.5 C382.4583333333333,87.5 403.1666666666667,87.5 415,87.5 C426.8333333333333,87.5 447.5416666666667,87.5 459.375,87.5 C471.2083333333333,87.5 491.9166666666667,87.5 503.75,87.5 C515.5833333333334,87.5 536.2916666666666,87.5 548.125,87.5 C559.9583333333334,87.5 580.6666666666666,87.5 592.5,87.5 C604.3333333333334,87.5 625.0416666666666,87.5 636.875,87.5 C648.7083333333334,87.5 669.4166666666666,87.5 681.25,87.5 C693.0833333333334,87.5 713.7916666666666,87.5 725.625,87.5 C737.4583333333334,87.5 764.0833333333334,87.5 770,87.5" fill="none" stroke="#dfb317" stroke-width="2.5" class="data-line-0" />
  <path d="M60,162.5 C65.91666666666667,162.5 92.54166666666667,162.5 104.375,162.5 C116.20833333333333,162.5 136.91666666666666,162.5 148.75,162.5 C160.58333333333334,162.5 181.29166666666666,162.5 193.125,162.5 C204.95833333333334,162.5 225.66666666666666,162.5 237.5,162.5 C249.33333333333334,162.5 270.0416666666667,162.5 281.875,162.5 C293.7083333333333,162.5 314.4166666666667,162.5 326.25,162.5 C338.0833333333333,162.5 358.7916666666667,162.5 370.625,162.5 C382.4583333333333,162.5 403.1666666666667,162.5 415,162.5 C426.8333333333333,162.5 447.5416666666667,162.5 459.375,162.5 C471.2083333333333,162.5 491.9166666666667,162.5 503.75,162.5 C515.5833333333334,162.5 536.2916666666666,162.5 548.125,162.5 C559.9583333333334,162.5 580.6666666666666,162.5 592.5,162.5 C604.3333333333334,162.5 625.0416666666666,162.5 636.875,162.5 C648.7083333333334,162.5 669.4166666666666,162.5 681.25,162.5 C693.0833333333334,162.5 713.7916666666666,162.5 725.625,162.5 C737.4583333333334,162.5 764.0833333333334,162.5 770,162.5" fill="none" stroke="#28a745" stroke-width="2.5" class="data-line-1" />
  <path d="M60,312.5 C65.91666666666667,312.5 92.54166666666667,312.5 104.375,312.5 C116.20833333333333,312.5 136.91666666666666,312.5 148.75,312.5 C160.58333333333334,312.5 181.29166666666666,312.5 193.125,312.5 C204.95833333333334,312.5 225.66666666666666,312.5 237.5,312.5 C249.33333333333334,312.5 270.0416666666667,312.5 281.875,312.5 C293.7083333333333,312.5 314.4166666666667,312.5 326.25,312.5 C338.0833333333333,312.5 358.7916666666667,312.5 370.625,312.5 C382.4583333333333,312.5 403.1666666666667,312.5 415,312.5 C426.8333333333333,312.5 447.5416666666667,312.5 459.375,312.5 C471.2083333333333,312.5 491.9166666666667,312.5 503.75,312.5 C515.5833333333334,312.5 536.2916666666666,312.5 548.125,312.5 C559.9583333333334,312.5 580.6666666666666,312.5 592.5,312.5 C604.3333333333334,312.5 625.0416666666666,312.5 636.875,312.5 C648.7083333333334,312.5 669.4166666666666,312.5 681.25,312.5 C693.0833333333334,312.5 713.7916666666666,312.5 725.625,312.5 C737.4583333333334,312.5 764.0833333333334,312.5 770,312.5" fill="none" stroke="#e74c3c" stroke-width="2.5" class="data-line-2" />
  <path d="M60,312.5 C65.91666666666667,312.5 92.54166666666667,312.5 104.375,312.5 C116.20833333333333,312.5 136.91666666666666,312.5 148.75,312.5 C160.58333333333334,312.5 181.29166666666666,312.5 193.125,312.5 C204.95833333333334,312.5 225.66666666666666,312.5 237.5,312.5 C249.33333333333334,312.5 270.0416666666667,312.5 281.875,312.5 C293.7083333333333,312.5 314.4166666666667,312.5 326.25,312.5 C338.0833333333333,312.5 358.7916666666667,312.5 370.625,312.5 C382.4583333333333,312.5 403.1666666666667,312.5 415,312.5 C426.8333333333333,312.5 447.5416666666667,312.5 459.375,312.5 C471.2083333333333,312.5 491.9166666666667,312.5 503.75,312.5 C515.5833333333334,312.5 536.2916666666666,312.5 548.125,312.5 C559.9583333333334,312.5 580.6666666666666,312.5 592.5,312.5 C604.3333333333334,312.5 625.0416666666666,312.5 636.875,312.5 C648.7083333333334,312.5 669.4166666666666,312.5 681.25,312.5 C693.0833333333334,312.5 713.7916666666666,312.5 725.625,312.5 C737.4583333333334,312.5 764.0833333333334,312.5 770,312.5" fill="none" stroke="#3498db" stroke-width="2.5" class="data-line-3" />
  <path d="M60,350 C65.91666666666667,350 92.54166666666667,350 104.375,350 C116.20833333333333,350 136.91666666666666,350 148.75,350 C160.58333333333334,350 181.29166666666666,350 193.125,350 C204.95833333333334,350 225.66666666666666,350 237.5,350 C249.33333333333334,350 270.0416666666667,350 281.875,350 C293.7083333333333,350 314.4166666666667,350 326.25,350 C338.0833333333333,350 358.7916666666667,350 370.625,350 C382.4583333333333,350 403.1666666666667,350 415,350 C426.8333333333333,350 447.5416666666667,350 459.375,350 C471.2083333333333,350 491.9166666666667,350 503.75,350 C515.5833333333334,350 536.2916666666666,350 548.125,350 C559.9583333333334,350 580.6666666666666,350 592.5,350 C604.3333333333334,350 625.0416666666666,350 636.875,350 C648.7083333333334,350 669.4166666666666,350 681.25,350 C693.0833333333334,350 713.7916666666666,350 725.625,350 C737.4583333333334,350 764.0833333333334,350 770,350" fill="none" stroke="#9b59b6" stroke-width="2.5" class="data-line-4" />
  <path d="M60,350 C65.91666666666667,350 92.54166666666667,350 104.375,350 C116.20833333333333,350 136.91666666666666,350 148.75,350 C160.58333333333334,350 181.29166666666666,350 193.125,350 C204.95833333333334,350 225.66666666666666,350 237.5,350 C249.33333333333334,350 270.0416666666667,350 281.875,350 C293.7083333333333,350 314.4166666666667,350 326.25,350 C338.0833333333333,350 358.7916666666667,350 370.625,350 C382.4583333333333,350 403.1666666666667,350 415,350 C426.8333333333333,350 447.5416666666667,350 459.375,350 C471.2083333333333,350 491.9166666666667,350 503.75,350 C515.5833333333334,350 536.2916666666666,350 548.125,350 C559.9583333333334,350 580.6666666666666,350 592.5,350 C604.3333333333334,350 625.0416666666666,350 636.875,350 C648.7083333333334,350 669.4166666666666,350 681.25,350 C693.0833333333334,350 713.7916666666666,350 725.625,350 C737.4583333333334,350 764.0833333333334,350 770,350" fill="none" stroke="#e67e22" stroke-width="2.5" class="data-line-5" />
  <path d="M60,312.5 C65.91666666666667,312.5 92.54166666666667,312.5 104.375,312.5 C116.20833333333333,312.5 136.91666666666666,312.5 148.75,312.5 C160.58333333333334,312.5 181.29166666666666,312.5 193.125,312.5 C204.95833333333334,312.5 225.66666666666666,312.5 237.5,312.5 C249.33333333333334,312.5 270.0416666666667,312.5 281.875,312.5 C293.7083333333333,312.5 314.4166666666667,312.5 326.25,312.5 C338.0833333333333,312.5 358.7916666666667,312.5 370.625,312.5 C382.4583333333333,312.5 403.1666666666667,312.5 415,312.5 C426.8333333333333,312.5 447.5416666666667,312.5 459.375,312.5 C471.2083333333333,312.5 491.9166666666667,307.5 503.75,312.5 C515.5833333333334,317.5 536.2916666666666,345 548.125,350 C559.9583333333334,355 580.6666666666666,355 592.5,350 C604.3333333333334,345 625.0416666666666,312.5 636.875,312.5 C648.7083333333334,312.5 669.4166666666666,345 681.25,350 C693.0833333333334,355 713.7916666666666,350 725.625,350 C737.4583333333334,350 764.0833333333334,350 770,350" fill="none" stroke="#1abc9c" stroke-width="2.5" class="data-line-6" />
  <path d="M60,350 C65.91666666666667,350 92.54166666666667,350 104.375,350 C116.20833333333333,350 136.91666666666666,350 148.75,350 C160.58333333333334,350 181.29166666666666,350 193.125,350 C204.95833333333334,350 225.66666666666666,350 237.5,350 C249.33333333333334,350 270.0416666666667,350 281.875,350 C293.7083333333333,350 314.4166666666667,350 326.25,350 C338.0833333333333,350 358.7916666666667,350 370.625,350 C382.4583333333333,350 403.1666666666667,350 415,350 C426.8333333333333,350 447.5416666666667,350 459.375,350 C471.2083333333333,350 491.9166666666667,350 503.75,350 C515.5833333333334,350 536.2916666666666,350 548.125,350 C559.9583333333334,350 580.6666666666666,350 592.5,350 C604.3333333333334,350 625.0416666666666,350 636.875,350 C648.7083333333334,350 669.4166666666666,350 681.25,350 C693.0833333333334,350 713.7916666666666,350 725.625,350 C737.4583333333334,350 764.0833333333334,350 770,350" fill="none" stroke="#e84393" stroke-width="2.5" class="data-line-7" />
  <g class="points">
    
    <circle cx="60" cy="87.5" r="4" fill="#dfb317" class="data-point" style="animation-delay: 1.50s" />
    <circle cx="104.375" cy="87.5" r="4" fill="#dfb317" class="data-point" style="animation-delay: 1.55s" />
    <circle cx="148.75" cy="87.5" r="4" fill="#dfb317" class="data-point" style="animation-delay: 1.60s" />
    <circle cx="193.125" cy="87.5" r="4" fill="#dfb317" class="data-point" style="animation-delay: 1.65s" />
    <circle cx="237.5" cy="87.5" r="4" fill="#dfb317" class="data-point" style="animation-delay: 1.70s" />
    <circle cx="281.875" cy="87.5" r="4" fill="#dfb317" class="data-point" style="animation-delay: 1.75s" />
    <circle cx="326.25" cy="87.5" r="4" fill="#dfb317" class="data-point" style="animation-delay: 1.80s" />
    <circle cx="370.625" cy="87.5" r="4" fill="#dfb317" class="data-point" style="animation-delay: 1.85s" />
    <circle cx="415" cy="87.5" r="4" fill="#dfb317" class="data-point" style="animation-delay: 1.90s" />
    <circle cx="459.375" cy="87.5" r="4" fill="#dfb317" class="data-point" style="animation-delay: 1.95s" />
    <circle cx="503.75" cy="87.5" r="4" fill="#dfb317" class="data-point" style="animation-delay: 2.00s" />
    <circle cx="548.125" cy="87.5" r="4" fill="#dfb317" class="data-point" style="animation-delay: 2.05s" />
    <circle cx="592.5" cy="87.5" r="4" fill="#dfb317" class="data-point" style="animation-delay: 2.10s" />
    <circle cx="636.875" cy="87.5" r="4" fill="#dfb317" class="data-point" style="animation-delay: 2.15s" />
    <circle cx="681.25" cy="87.5" r="4" fill="#dfb317" class="data-point" style="animation-delay: 2.20s" />
    <circle cx="725.625" cy="87.5" r="4" fill="#dfb317" class="data-point" style="animation-delay: 2.25s" />
    <circle cx="770" cy="87.5" r="4" fill="#dfb317" class="data-point" style="animation-delay: 2.30s" />
    
    <circle cx="60" cy="162.5" r="4" fill="#28a745" class="data-point" style="animation-delay: 1.50s" />
    <circle cx="104.375" cy="162.5" r="4" fill="#28a745" class="data-point" style="animation-delay: 1.55s" />
    <circle cx="148.75" cy="162.5" r="4" fill="#28a745" class="data-point" style="animation-delay: 1.60s" />
    <circle cx="193.125" cy="162.5" r="4" fill="#28a745" class="data-point" style="animation-delay: 1.65s" />
    <circle cx="237.5" cy="162.5" r="4" fill="#28a745" class="data-point" style="animation-delay: 1.70s" />
    <circle cx="281.875" cy="162.5" r="4" fill="#28a745" class="data-point" style="animation-delay: 1.75s" />
    <circle cx="326.25" cy="162.5" r="4" fill="#28a745" class="data-point" style="animation-delay: 1.80s" />
    <circle cx="370.625" cy="162.5" r="4" fill="#28a745" class="data-point" style="animation-delay: 1.85s" />
    <circle cx="415" cy="162.5" r="4" fill="#28a745" class="data-point" style="animation-delay: 1.90s" />
    <circle cx="459.375" cy="162.5" r="4" fill="#28a745" class="data-point" style="animation-delay: 1.95s" />
    <circle cx="503.75" cy="162.5" r="4" fill="#28a745" class="data-point" style="animation-delay: 2.00s" />
    <circle cx="548.125" cy="162.5" r="4" fill="#28a745" class="data-point" style="animation-delay: 2.05s" />
    <circle cx="592.5" cy="162.5" r="4" fill="#28a745" class="data-point" style="animation-delay: 2.10s" />
    <circle cx="636.875" cy="162.5" r="4" fill="#28a745" class="data-point" style="animation-delay: 2.15s" />
    <circle cx="681.25" cy="162.5" r="4" fill="#28a745" class="data-point" style="animation-delay: 2.20s" />
    <circle cx="725.625" cy="162.5" r="4" fill="#28a745" class="data-point" style="animation-delay: 2.25s" />
    <circle cx="770" cy="162.5" r="4" fill="#28a745" class="data-point" style="animation-delay: 2.30s" />
    
    <circle cx="60" cy="312.5" r="4" fill="#e74c3c" class="data-point" style="animation-delay: 1.50s" />
    <circle cx="104.375" cy="312.5" r="4" fill="#e74c3c" class="data-point" style="animation-delay: 1.55s" />
    <circle cx="148.75" cy="312.5" r="4" fill="#e74c3c" class="data-point" style="animation-delay: 1.60s" />
    <circle cx="193.125" cy="312.5" r="4" fill="#e74c3c" class="data-point" style="animation-delay: 1.65s" />
    <circle cx="237.5" cy="312.5" r="4" fill="#e74c3c" class="data-point" style="animation-delay: 1.70s" />
    <circle cx="281.875" cy="312.5" r="4" fill="#e74c3c" class="data-point" style="animation-delay: 1.75s" />
    <circle cx="326.25" cy="312.5" r="4" fill="#e74c3c" class="data-point" style="animation-delay: 1.80s" />
    <circle cx="370.625" cy="312.5" r="4" fill="#e74c3c" class="data-point" style="animation-delay: 1.85s" />
    <circle cx="415" cy="312.5" r="4" fill="#e74c3c" class="data-point" style="animation-delay: 1.90s" />
    <circle cx="459.375" cy="312.5" r="4" fill="#e74c3c" class="data-point" style="animation-delay: 1.95s" />
    <circle cx="503.75" cy="312.5" r="4" fill="#e74c3c" class="data-point" style="animation-delay: 2.00s" />
    <circle cx="548.125" cy="312.5" r="4" fill="#e74c3c" class="data-point" style="animation-delay: 2.05s" />
    <circle cx="592.5" cy="312.5" r="4" fill="#e74c3c" class="data-point" style="animation-delay: 2.10s" />
    <circle cx="636.875" cy="312.5" r="4" fill="#e74c3c" class="data-point" style="animation-delay: 2.15s" />
    <circle cx="681.25" cy="312.5" r="4" fill="#e74c3c" class="data-point" style="animation-delay: 2.20s" />
    <circle cx="725.625" cy="312.5" r="4" fill="#e74c3c" class="data-point" style="animation-delay: 2.25s" />
    <circle cx="770" cy="312.5" r="4" fill="#e74c3c" class="data-point" style="animation-delay: 2.30s" />
    
    <circle cx="60" cy="312.5" r="4" fill="#3498db" class="data-point" style="animation-delay: 1.50s" />
    <circle cx="104.375" cy="312.5" r="4" fill="#3498db" class="data-point" style="animation-delay: 1.55s" />
    <circle cx="148.75" cy="312.5" r="4" fill="#3498db" class="data-point" style="animation-delay: 1.60s" />
    <circle cx="193.125" cy="312.5" r="4" fill="#3498db" class="data-point" style="animation-delay: 1.65s" />
    <circle cx="237.5" cy="312.5" r="4" fill="#3498db" class="data-point" style="animation-delay: 1.70s" />
    <circle cx="281.875" cy="312.5" r="4" fill="#3498db" class="data-point" style="animation-delay: 1.75s" />
    <circle cx="326.25" cy="312.5" r="4" fill="#3498db" class="data-point" style="animation-delay: 1.80s" />
    <circle cx="370.625" cy="312.5" r="4" fill="#3498db" class="data-point" style="animation-delay: 1.85s" />
    <circle cx="415" cy="312.5" r="4" fill="#3498db" class="data-point" style="animation-delay: 1.90s" />
    <circle cx="459.375" cy="312.5" r="4" fill="#3498db" class="data-point" style="animation-delay: 1.95s" />
    <circle cx="503.75" cy="312.5" r="4" fill="#3498db" class="data-point" style="animation-delay: 2.00s" />
    <circle cx="548.125" cy="312.5" r="4" fill="#3498db" class="data-point" style="animation-delay: 2.05s" />
    <circle cx="592.5" cy="312.5" r="4" fill="#3498db" class="data-point" style="animation-delay: 2.10s" />
    <circle cx="636.875" cy="312.5" r="4" fill="#3498db" class="data-point" style="animation-delay: 2.15s" />
    <circle cx="681.25" cy="312.5" r="4" fill="#3498db" class="data-point" style="animation-delay: 2.20s" />
    <circle cx="725.625" cy="312.5" r="4" fill="#3498db" class="data-point" style="animation-delay: 2.25s" />
    <circle cx="770" cy="312.5" r="4" fill="#3498db" class="data-point" style="animation-delay: 2.30s" />
    
    <circle cx="60" cy="350" r="4" fill="#9b59b6" class="data-point" style="animation-delay: 1.50s" />
    <circle cx="104.375" cy="350" r="4" fill="#9b59b6" class="data-point" style="animation-delay: 1.55s" />
    <circle cx="148.75" cy="350" r="4" fill="#9b59b6" class="data-point" style="animation-delay: 1.60s" />
    <circle cx="193.125" cy="350" r="4" fill="#9b59b6" class="data-point" style="animation-delay: 1.65s" />
    <circle cx="237.5" cy="350" r="4" fill="#9b59b6" class="data-point" style="animation-delay: 1.70s" />
    <circle cx="281.875" cy="350" r="4" fill="#9b59b6" class="data-point" style="animation-delay: 1.75s" />
    <circle cx="326.25" cy="350" r="4" fill="#9b59b6" class="data-point" style="animation-delay: 1.80s" />
    <circle cx="370.625" cy="350" r="4" fill="#9b59b6" class="data-point" style="animation-delay: 1.85s" />
    <circle cx="415" cy="350" r="4" fill="#9b59b6" class="data-point" style="animation-delay: 1.90s" />
    <circle cx="459.375" cy="350" r="4" fill="#9b59b6" class="data-point" style="animation-delay: 1.95s" />
    <circle cx="503.75" cy="350" r="4" fill="#9b59b6" class="data-point" style="animation-delay: 2.00s" />
    <circle cx="548.125" cy="350" r="4" fill="#9b59b6" class="data-point" style="animation-delay: 2.05s" />
    <circle cx="592.5" cy="350" r="4" fill="#9b59b6" class="data-point" style="animation-delay: 2.10s" />
    <circle cx="636.875" cy="350" r="4" fill="#9b59b6" class="data-point" style="animation-delay: 2.15s" />
    <circle cx="681.25" cy="350" r="4" fill="#9b59b6" class="data-point" style="animation-delay: 2.20s" />
    <circle cx="725.625" cy="350" r="4" fill="#9b59b6" class="data-point" style="animation-delay: 2.25s" />
    <circle cx="770" cy="350" r="4" fill="#9b59b6" class="data-point" style="animation-delay: 2.30s" />
    
    <circle cx="60" cy="350" r="4" fill="#e67e22" class="data-point" style="animation-delay: 1.50s" />
    <circle cx="104.375" cy="350" r="4" fill="#e67e22" class="data-point" style="animation-delay: 1.55s" />
    <circle cx="148.75" cy="350" r="4" fill="#e67e22" class="data-point" style="animation-delay: 1.60s" />
    <circle cx="193.125" cy="350" r="4" fill="#e67e22" class="data-point" style="animation-delay: 1.65s" />
    <circle cx="237.5" cy="350" r="4" fill="#e67e22" class="data-point" style="animation-delay: 1.70s" />
    <circle cx="281.875" cy="350" r="4" fill="#e67e22" class="data-point" style="animation-delay: 1.75s" />
    <circle cx="326.25" cy="350" r="4" fill="#e67e22" class="data-point" style="animation-delay: 1.80s" />
    <circle cx="370.625" cy="350" r="4" fill="#e67e22" class="data-point" style="animation-delay: 1.85s" />
    <circle cx="415" cy="350" r="4" fill="#e67e22" class="data-point" style="animation-delay: 1.90s" />
    <circle cx="459.375" cy="350" r="4" fill="#e67e22" class="data-point" style="animation-delay: 1.95s" />
    <circle cx="503.75" cy="350" r="4" fill="#e67e22" class="data-point" style="animation-delay: 2.00s" />
    <circle cx="548.125" cy="350" r="4" fill="#e67e22" class="data-point" style="animation-delay: 2.05s" />
    <circle cx="592.5" cy="350" r="4" fill="#e67e22" class="data-point" style="animation-delay: 2.10s" />
    <circle cx="636.875" cy="350" r="4" fill="#e67e22" class="data-point" style="animation-delay: 2.15s" />
    <circle cx="681.25" cy="350" r="4" fill="#e67e22" class="data-point" style="animation-delay: 2.20s" />
    <circle cx="725.625" cy="350" r="4" fill="#e67e22" class="data-point" style="animation-delay: 2.25s" />
    <circle cx="770" cy="350" r="4" fill="#e67e22" class="data-point" style="animation-delay: 2.30s" />
    
    <circle cx="60" cy="312.5" r="4" fill="#1abc9c" class="data-point" style="animation-delay: 1.50s" />
    <circle cx="104.375" cy="312.5" r="4" fill="#1abc9c" class="data-point" style="animation-delay: 1.55s" />
    <circle cx="148.75" cy="312.5" r="4" fill="#1abc9c" class="data-point" style="animation-delay: 1.60s" />
    <circle cx="193.125" cy="312.5" r="4" fill="#1abc9c" class="data-point" style="animation-delay: 1.65s" />
    <circle cx="237.5" cy="312.5" r="4" fill="#1abc9c" class="data-point" style="animation-delay: 1.70s" />
    <circle cx="281.875" cy="312.5" r="4" fill="#1abc9c" class="data-point" style="animation-delay: 1.75s" />
    <circle cx="326.25" cy="312.5" r="4" fill="#1abc9c" class="data-point" style="animation-delay: 1.80s" />
    <circle cx="370.625" cy="312.5" r="4" fill="#1abc9c" class="data-point" style="animation-delay: 1.85s" />
    <circle cx="415" cy="312.5" r="4" fill="#1abc9c" class="data-point" style="animation-delay: 1.90s" />
    <circle cx="459.375" cy="312.5" r="4" fill="#1abc9c" class="data-point" style="animation-delay: 1.95s" />
    <circle cx="503.75" cy="312.5" r="4" fill="#1abc9c" class="data-point" style="animation-delay: 2.00s" />
    <circle cx="548.125" cy="350" r="4" fill="#1abc9c" class="data-point" style="animation-delay: 2.05s" />
    <circle cx="592.5" cy="350" r="4" fill="#1abc9c" class="data-point" style="animation-delay: 2.10s" />
    <circle cx="636.875" cy="312.5" r="4" fill="#1abc9c" class="data-point" style="animation-delay: 2.15s" />
    <circle cx="681.25" cy="350" r="4" fill="#1abc9c" class="data-point" style="animation-delay: 2.20s" />
    <circle cx="725.625" cy="350" r="4" fill="#1abc9c" class="data-point" style="animation-delay: 2.25s" />
    <circle cx="770" cy="350" r="4" fill="#1abc9c" class="data-point" style="animation-delay: 2.30s" />
    
    <circle cx="60" cy="350" r="4" fill="#e84393" class="data-point" style="animation-delay: 1.50s" />
    <circle cx="104.375" cy="350" r="4" fill="#e84393" class="data-point" style="animation-delay: 1.55s" />
    <circle cx="148.75" cy="350" r="4" fill="#e84393" class="data-point" style="animation-delay: 1.60s" />
    <circle cx="193.125" cy="350" r="4" fill="#e84393" class="data-point" style="animation-delay: 1.65s" />
    <circle cx="237.5" cy="350" r="4" fill="#e84393" class="data-point" style="animation-delay: 1.70s" />
    <circle cx="281.875" cy="350" r="4" fill="#e84393" class="data-point" style="animation-delay: 1.75s" />
    <circle cx="326.25" cy="350" r="4" fill="#e84393" class="data-point" style="animation-delay: 1.80s" />
    <circle cx="370.625" cy="350" r="4" fill="#e84393" class="data-point" style="animation-delay: 1.85s" />
    <circle cx="415" cy="350" r="4" fill="#e84393" class="data-point" style="animation-delay: 1.90s" />
    <circle cx="459.375" cy="350" r="4" fill="#e84393" class="data-point" style="animation-delay: 1.95s" />
    <circle cx="503.75" cy="350" r="4" fill="#e84393" class="data-point" style="animation-delay: 2.00s" />
    <circle cx="548.125" cy="350" r="4" fill="#e84393" class="data-point" style="animation-delay: 2.05s" />
    <circle cx="592.5" cy="350" r="4" fill="#e84393" class="data-point" style="animation-delay: 2.10s" />
    <circle cx="636.875" cy="350" r="4" fill="#e84393" class="data-point" style="animation-delay: 2.15s" />
    <circle cx="681.25" cy="350" r="4" fill="#e84393" class="data-point" style="animation-delay: 2.20s" />
    <circle cx="725.625" cy="350" r="4" fill="#e84393" class="data-point" style="animation-delay: 2.25s" />
    <circle cx="770" cy="350" r="4" fill="#e84393" class="data-point" style="animation-delay: 2.30s" />
  </g>
</svg>