<svg xmlns="http://www.w3.org/2000/svg" viewBox="0 0 800 400" width="800" height="400">
  <style>
    @keyframes drawLine {
      to { stroke-dashoffset: 0; }
    }
    @keyframes fadeInPoint {
      from { opacity: 0; }
      to { opacity: 1; }
    }
    .data-line-0 {
      stroke-dasharray: 1065;
      stroke-dashoffset: 1065;
      animation: drawLine 2s ease-out forwards;
    }
    .data-line-1 {
      stroke-dasharray: 1065;
      stroke-dashoffset: 1065;
      animation: drawLine 2s ease-out forwards;
    }
    .data-line-2 {
      stroke-dasharray: 1065;
      stroke-dashoffset: 1065;
      animation: drawLine 2s ease-out forwards;
    }
    .data-line-3 {
      stroke-dasharray: 1065;
      stroke-dashoffset: 1065;
      animation: drawLine 2s ease-out forwards;
    }
    .data-line-4 {
      stroke-dasharray: 1082;
      stroke-dashoffset: 1082;
      animation: drawLine 2s ease-out forwards;
    }
    .data-line-5 {
      stroke-dasharray: 1065;
      stroke-dashoffset: 1065;
      animation: drawLine 2s ease-out forwards;
    }
    .data-line-6 {
      stroke-dasharray: 1065;
      stroke-dashoffset: 1065;
      animation: drawLine 2s ease-out forwards;
    }
    .data-line-7 {
      stroke-dasharray: 1065;
      stroke-dashoffset: 1065;
      animation: drawLine 2s ease-out forwards;
    }
    .data-point {
      opacity: 0;
      animation: fadeInPoint 0.5s ease-out forwards;
    }
    .chart-bg { fill: #fff; }
    .chart-text { fill: #24292e; }
    .chart-muted { fill: #6a737d; }
    .chart-grid { stroke: #eee; }
    .chart-axis { stroke: #6a737d; }
    @media (prefers-color-scheme: dark) {
      .chart-bg { fill: #0d1117; }
      .chart-text { fill: #e6edf3; }
      .chart-muted { fill: #8b949e; }
      .chart-grid { stroke: #21262d; }
      .chart-axis { stroke: #8b949e; }
    }
  </style>
  <rect width="800" height="400" class="chart-bg" />
  <text x="400" y="14" text-anchor="middle" class="chart-text" font-size="16" font-weight="bold" font-family="-apple-system, BlinkMacSystemFont, 'Segoe UI', Helvetica, Arial, sans-serif">Top Repositories</text>
  <g class="legend">
    <rect x="-80" y="25" width="12" height="3" fill="#dfb317" />
    <line x1="-80" y1="26.5" x2="-68" y2="26.5" stroke="#dfb317" stroke-width="2" />
    <text x="-64" y="30" class="chart-text" font-size="10" font-family="-apple-system, BlinkMacSystemFont, 'Segoe UI', Helvetica, Arial, sans-serif">biancafiore</text>
    <rect x="40" y="25" width="12" height="3" fill="#28a745" />
    <line x1="40" y1="26.5" x2="52" y2="26.5" stroke="#28a745" stroke-width="2" />
    <text x="56" y="30" class="chart-text" font-size="10" font-family="-apple-system, BlinkMacSystemFont, 'Segoe UI', Helvetica, Arial, sans-serif">fbuireu</text>
    <rect x="160" y="25" width="12" height="3" fill="#e74c3c" />
    <line x1="160" y1="26.5" x2="172" y2="26.5" stroke="#e74c3c" stroke-width="2" />
    <text x="176" y="30" class="chart-text" font-size="10" font-family="-apple-system, BlinkMacSystemFont, 'Segoe UI', Helvetica, Arial, sans-serif">curriculum-vitae</text>
    <rect x="280" y="25" width="12" height="3" fill="#3498db" />
    <line x1="280" y1="26.5" x2="292" y2="26.5" stroke="#3498db" stroke-width="2" />
    <text x="296" y="30" class="chart-text" font-size="10" font-family="-apple-system, BlinkMacSystemFont, 'Segoe UI', Helvetica, Arial, sans-serif">fbuireu-cli</text>
    <rect x="400" y="25" width="12" height="3" fill="#9b59b6" />
    <line x1="400" y1="26.5" x2="412" y2="26.5" stroke="#9b59b6" stroke-width="2" />
    <text x="416" y="30" class="chart-text" font-size="10" font-family="-apple-system, BlinkMacSystemFont, 'Segoe UI', Helvetica, Arial, sans-serif">github-star-tracker</text>
    <rect x="520" y="25" width="12" height="3" fill="#e67e22" />
    <line x1="520" y1="26.5" x2="532" y2="26.5" stroke="#e67e22" stroke-width="2" />
    <text x="536" y="30" class="chart-text" font-size="10" font-family="-apple-system, BlinkMacSystemFont, 'Segoe UI', Helvetica, Arial, sans-serif">email-signature</text>
    <rect x="640" y="25" width="12" height="3" fill="#1abc9c" />
    <line x1="640" y1="26.5" x2="652" y2="26.5" stroke="#1abc9c" stroke-width="2" />
    <text x="656" y="30" class="chart-text" font-size="10" font-family="-apple-system, BlinkMacSystemFont, 'Segoe UI', Helvetica, Arial, sans-serif">forever-pto</text>
    <rect x="760" y="25" width="12" height="3" fill="#e84393" />
    <line x1="760" y1="26.5" x2="772" y2="26.5" stroke="#e84393" stroke-width="2" />
    <text x="776" y="30" class="chart-text" font-size="10" font-family="-apple-system, BlinkMacSystemFont, 'Segoe UI', Helvetica, Arial, sans-serif">hashnode-articles-backup</text>
  </g>
  <g class="grid">
    <line x1="60" y1="350" x2="770" y2="350" class="chart-grid" stroke-opacity="0.3" />
    <text x="52" y="354" text-anchor="end" class="chart-muted" font-size="11" font-family="-apple-system, BlinkMacSystemFont, 'Segoe UI', Helvetica, Arial, sans-serif">0</text>
    <line x1="60" y1="275" x2="770" y2="275" class="chart-grid" stroke-opacity="0.3" />
    <text x="52" y="279" text-anchor="end" class="chart-muted" font-size="11" font-family="-apple-system, BlinkMacSystemFont, 'Segoe UI', Helvetica, Arial, sans-serif">2</text>
    <line x1="60" y1="200" x2="770" y2="200" class="chart-grid" stroke-opacity="0.3" />
    <text x="52" y="204" text-anchor="end" class="chart-muted" font-size="11" font-family="-apple-system, BlinkMacSystemFont, 'Segoe UI', Helvetica, Arial, sans-serif">4</text>
    <line x1="60" y1="125" x2="770" y2="125" class="chart-grid" stroke-opacity="0.3" />
    <text x="52" y="129" text-anchor="end" class="chart-muted" font-size="11" font-family="-apple-system, BlinkMacSystemFont, 'Segoe UI', Helvetica, Arial, sans-serif">6</text>
    <line x1="60" y1="50" x2="770" y2="50" class="chart-grid" stroke-opacity="0.3" />
    <text x="52" y="54" text-anchor="end" class="chart-muted" font-size="11" font-family="-apple-system, BlinkMacSystemFont, 'Segoe UI', Helvetica, Arial, sans-serif">8</text>
  </g>
  <g class="milestones">
    
  </g>
  <g class="x-axis">
    <text x="60" y="370" text-anchor="middle" class="chart-muted" font-size="11" font-family="-apple-system, BlinkMacSystemFont, 'Segoe UI', Helvetica, Arial, sans-serif">Feb 13</text>
    <text x="178.33333333333331" y="370" text-anchor="middle" class="chart-muted" font-size="11" font-family="-apple-system, BlinkMacSystemFont, 'Segoe UI', Helvetica, Arial, sans-serif">Feb 13</text>
    <text x="296.66666666666663" y="370" text-anchor="middle" class="chart-muted" font-size="11" font-family="-apple-system, BlinkMacSystemFont, 'Segoe UI', Helvetica, Arial, sans-serif">Feb 13</text>
    <text x="415" y="370" text-anchor="middle" class="chart-muted" font-size="11" font-family="-apple-system, BlinkMacSystemFont, 'Segoe UI', Helvetica, Arial, sans-serif">Feb 13</text>
    <text x="533.3333333333333" y="370" text-anchor="middle" class="chart-muted" font-size="11" font-family="-apple-system, BlinkMacSystemFont, 'Segoe UI', Helvetica, Arial, sans-serif">Feb 14</text>
    <text x="651.6666666666667" y="370" text-anchor="middle" class="chart-muted" font-size="11" font-family="-apple-system, BlinkMacSystemFont, 'Segoe UI', Helvetica, Arial, sans-serif">Feb 15</text>
    <text x="770" y="370" text-anchor="middle" class="chart-muted" font-size="11" font-family="-apple-system, BlinkMacSystemFont, 'Segoe UI', Helvetica, Arial, sans-serif">Feb 15</text>
  </g>
  <line x1="60" y1="50" x2="60" y2="350" class="chart-axis" stroke-width="1" />
  <line x1="60" y1="350" x2="770" y2="350" class="chart-axis" stroke-width="1" />
  
  
  
  
  
  
  
  
  <path d="M60,87.5 C67.88888888888889,87.5 103.38888888888889,87.5 119.16666666666666,87.5 C134.94444444444443,87.5 162.55555555555554,87.5 178.33333333333331,87.5 C194.1111111111111,87.5 221.72222222222223,87.5 237.5,87.5 C253.27777777777777,87.5 280.88888888888886,87.5 296.66666666666663,87.5 C312.4444444444444,87.5 340.0555555555556,87.5 355.83333333333337,87.5 C371.61111111111114,87.5 399.22222222222223,87.5 415,87.5 C430.77777777777777,87.5 458.3888888888889,87.5 474.1666666666667,87.5 C489.94444444444446,87.5 517.5555555555554,87.5 533.3333333333333,87.5 C549.1111111111111,87.5 576.7222222222222,87.5 592.5,87.5 C608.2777777777778,87.5 635.888888888889,87.5 651.6666666666667,87.5 C667.4444444444445,87.5 695.0555555555555,87.5 710.8333333333333,87.5 C726.611111111111,87.5 762.1111111111111,87.5 770,87.5" fill="none" stroke="#dfb317" stroke-width="2.5" class="data-line-0" />
  <path d="M60,162.5 C67.88888888888889,162.5 103.38888888888889,162.5 119.16666666666666,162.5 C134.94444444444443,162.5 162.55555555555554,162.5 178.33333333333331,162.5 C194.1111111111111,162.5 221.72222222222223,162.5 237.5,162.5 C253.27777777777777,162.5 280.88888888888886,162.5 296.66666666666663,162.5 C312.4444444444444,162.5 340.0555555555556,162.5 355.83333333333337,162.5 C371.61111111111114,162.5 399.22222222222223,162.5 415,162.5 C430.77777777777777,162.5 458.3888888888889,162.5 474.1666666666667,162.5 C489.94444444444446,162.5 517.5555555555554,162.5 533.3333333333333,162.5 C549.1111111111111,162.5 576.7222222222222,162.5 592.5,162.5 C608.2777777777778,162.5 635.888888888889,162.5 651.6666666666667,162.5 C667.4444444444445,162.5 695.0555555555555,162.5 710.8333333333333,162.5 C726.611111111111,162.5 762.1111111111111,162.5 770,162.5" fill="none" stroke="#28a745" stroke-width="2.5" class="data-line-1" />
  <path d="M60,312.5 C67.88888888888889,312.5 103.38888888888889,312.5 119.16666666666666,312.5 C134.94444444444443,312.5 162.55555555555554,312.5 178.33333333333331,312.5 C194.1111111111111,312.5 221.72222222222223,312.5 237.5,312.5 C253.27777777777777,312.5 280.88888888888886,312.5 296.66666666666663,312.5 C312.4444444444444,312.5 340.0555555555556,312.5 355.83333333333337,312.5 C371.61111111111114,312.5 399.22222222222223,312.5 415,312.5 C430.77777777777777,312.5 458.3888888888889,312.5 474.1666666666667,312.5 C489.94444444444446,312.5 517.5555555555554,312.5 533.3333333333333,312.5 C549.1111111111111,312.5 576.7222222222222,312.5 592.5,312.5 C608.2777777777778,312.5 635.888888888889,312.5 651.6666666666667,312.5 C667.4444444444445,312.5 695.0555555555555,312.5 710.8333333333333,312.5 C726.611111111111,312.5 762.1111111111111,312.5 770,312.5" fill="none" stroke="#e74c3c" stroke-width="2.5" class="data-line-2" />
  <path d="M60,312.5 C67.88888888888889,312.5 103.38888888888889,312.5 119.16666666666666,312.5 C134.94444444444443,312.5 162.55555555555554,312.5 178.33333333333331,312.5 C194.1111111111111,312.5 221.72222222222223,312.5 237.5,312.5 C253.27777777777777,312.5 280.88888888888886,312.5 296.66666666666663,312.5 C312.4444444444444,312.5 340.0555555555556,312.5 355.83333333333337,312.5 C371.61111111111114,312.5 399.22222222222223,312.5 415,312.5 C430.77777777777777,312.5 458.3888888888889,312.5 474.1666666666667,312.5 C489.94444444444446,312.5 517.5555555555554,312.5 533.3333333333333,312.5 C549.1111111111111,312.5 576.7222222222222,312.5 592.5,312.5 C608.2777777777778,312.5 635.888888888889,312.5 651.6666666666667,312.5 C667.4444444444445,312.5 695.0555555555555,312.5 710.8333333333333,312.5 C726.611111111111,312.5 762.1111111111111,312.5 770,312.5" fill="none" stroke="#3498db" stroke-width="2.5" class="data-line-3" />
  <path d="M60,312.5 C67.88888888888889,312.5 103.38888888888889,312.5 119.16666666666666,312.5 C134.94444444444443,312.5 162.55555555555554,312.5 178.33333333333331,312.5 C194.1111111111111,312.5 221.72222222222223,312.5 237.5,312.5 C253.27777777777777,312.5 280.88888888888886,312.5 296.66666666666663,312.5 C312.4444444444444,312.5 340.0555555555556,312.5 355.83333333333337,312.5 C371.61111111111114,312.5 399.22222222222223,312.5 415,312.5 C430.77777777777777,312.5 458.3888888888889,312.5 474.1666666666667,312.5 C489.94444444444446,312.5 517.5555555555554,312.5 533.3333333333333,312.5 C549.1111111111111,312.5 576.7222222222222,312.5 592.5,312.5 C608.2777777777778,312.5 635.888888888889,307.5 651.6666666666667,312.5 C667.4444444444445,317.5 695.0555555555555,345 710.8333333333333,350 C726.611111111111,355 762.1111111111111,350 770,350" fill="none" stroke="#9b59b6" stroke-width="2.5" class="data-line-4" />
  <path d="M60,350 C67.88888888888889,350 103.38888888888889,350 119.16666666666666,350 C134.94444444444443,350 162.55555555555554,350 178.33333333333331,350 C194.1111111111111,350 221.72222222222223,350 237.5,350 C253.27777777777777,350 280.88888888888886,350 296.66666666666663,350 C312.4444444444444,350 340.0555555555556,350 355.83333333333337,350 C371.61111111111114,350 399.22222222222223,350 415,350 C430.77777777777777,350 458.3888888888889,350 474.1666666666667,350 C489.94444444444446,350 517.5555555555554,350 533.3333333333333,350 C549.1111111111111,350 576.7222222222222,350 592.5,350 C608.2777777777778,350 635.888888888889,350 651.6666666666667,350 C667.4444444444445,350 695.0555555555555,350 710.8333333333333,350 C726.611111111111,350 762.1111111111111,350 770,350" fill="none" stroke="#e67e22" stroke-width="2.5" class="data-line-5" />
  <path d="M60,350 C67.88888888888889,350 103.38888888888889,350 119.16666666666666,350 C134.94444444444443,350 162.55555555555554,350 178.33333333333331,350 C194.1111111111111,350 221.72222222222223,350 237.5,350 C253.27777777777777,350 280.88888888888886,350 296.66666666666663,350 C312.4444444444444,350 340.0555555555556,350 355.83333333333337,350 C371.61111111111114,350 399.22222222222223,350 415,350 C430.77777777777777,350 458.3888888888889,350 474.1666666666667,350 C489.94444444444446,350 517.5555555555554,350 533.3333333333333,350 C549.1111111111111,350 576.7222222222222,350 592.5,350 C608.2777777777778,350 635.888888888889,350 651.6666666666667,350 C667.4444444444445,350 695.0555555555555,350 710.8333333333333,350 C726.611111111111,350 762.1111111111111,350 770,350" fill="none" stroke="#1abc9c" stroke-width="2.5" class="data-line-6" />
  <path d="M60,350 C67.88888888888889,350 103.38888888888889,350 119.16666666666666,350 C134.94444444444443,350 162.55555555555554,350 178.33333333333331,350 C194.1111111111111,350 221.72222222222223,350 237.5,350 C253.27777777777777,350 280.88888888888886,350 296.66666666666663,350 C312.4444444444444,350 340.0555555555556,350 355.83333333333337,350 C371.61111111111114,350 399.22222222222223,350 415,350 C430.77777777777777,350 458.3888888888889,350 474.1666666666667,350 C489.94444444444446,350 517.5555555555554,350 533.3333333333333,350 C549.1111111111111,350 576.7222222222222,350 592.5,350 C608.2777777777778,350 635.888888888889,350 651.6666666666667,350 C667.4444444444445,350 695.0555555555555,350 710.8333333333333,350 C726.611111111111,350 762.1111111111111,350 770,350" fill="none" stroke="#e84393" stroke-width="2.5" class="data-line-7" />
  <g class="points">
    
    <circle cx="60" cy="87.5" r="4" fill="#dfb317" class="data-point" style="animation-delay: 1.50s" />
    <circle cx="119.16666666666666" cy="87.5" r="4" fill="#dfb317" class="data-point" style="animation-delay: 1.55s" />
    <circle cx="178.33333333333331" cy="87.5" r="4" fill="#dfb317" class="data-point" style="animation-delay: 1.60s" />
    <circle cx="237.5" cy="87.5" r="4" fill="#dfb317" class="data-point" style="animation-delay: 1.65s" />
    <circle cx="296.66666666666663" cy="87.5" r="4" fill="#dfb317" class="data-point" style="animation-delay: 1.70s" />
    <circle cx="355.83333333333337" cy="87.5" r="4" fill="#dfb317" class="data-point" style="animation-delay: 1.75s" />
    <circle cx="415" cy="87.5" r="4" fill="#dfb317" class="data-point" style="animation-delay: 1.80s" />
    <circle cx="474.1666666666667" cy="87.5" r="4" fill="#dfb317" class="data-point" style="animation-delay: 1.85s" />
    <circle cx="533.3333333333333" cy="87.5" r="4" fill="#dfb317" class="data-point" style="animation-delay: 1.90s" />
    <circle cx="592.5" cy="87.5" r="4" fill="#dfb317" class="data-point" style="animation-delay: 1.95s" />
    <circle cx="651.6666666666667" cy="87.5" r="4" fill="#dfb317" class="data-point" style="animation-delay: 2.00s" />
    <circle cx="710.8333333333333" cy="87.5" r="4" fill="#dfb317" class="data-point" style="animation-delay: 2.05s" />
    <circle cx="770" cy="87.5" r="4" fill="#dfb317" class="data-point" style="animation-delay: 2.10s" />
    
    <circle cx="60" cy="162.5" r="4" fill="#28a745" class="data-point" style="animation-delay: 1.50s" />
    <circle cx="119.16666666666666" cy="162.5" r="4" fill="#28a745" class="data-point" style="animation-delay: 1.55s" />
    <circle cx="178.33333333333331" cy="162.5" r="4" fill="#28a745" class="data-point" style="animation-delay: 1.60s" />
    <circle cx="237.5" cy="162.5" r="4" fill="#28a745" class="data-point" style="animation-delay: 1.65s" />
    <circle cx="296.66666666666663" cy="162.5" r="4" fill="#28a745" class="data-point" style="animation-delay: 1.70s" />
    <circle cx="355.83333333333337" cy="162.5" r="4" fill="#28a745" class="data-point" style="animation-delay: 1.75s" />
    <circle cx="415" cy="162.5" r="4" fill="#28a745" class="data-point" style="animation-delay: 1.80s" />
    <circle cx="474.1666666666667" cy="162.5" r="4" fill="#28a745" class="data-point" style="animation-delay: 1.85s" />
    <circle cx="533.3333333333333" cy="162.5" r="4" fill="#28a745" class="data-point" style="animation-delay: 1.90s" />
    <circle cx="592.5" cy="162.5" r="4" fill="#28a745" class="data-point" style="animation-delay: 1.95s" />
    <circle cx="651.6666666666667" cy="162.5" r="4" fill="#28a745" class="data-point" style="animation-delay: 2.00s" />
    <circle cx="710.8333333333333" cy="162.5" r="4" fill="#28a745" class="data-point" style="animation-delay: 2.05s" />
    <circle cx="770" cy="162.5" r="4" fill="#28a745" class="data-point" style="animation-delay: 2.10s" />
    
    <circle cx="60" cy="312.5" r="4" fill="#e74c3c" class="data-point" style="animation-delay: 1.50s" />
    <circle cx="119.16666666666666" cy="312.5" r="4" fill="#e74c3c" class="data-point" style="animation-delay: 1.55s" />
    <circle cx="178.33333333333331" cy="312.5" r="4" fill="#e74c3c" class="data-point" style="animation-delay: 1.60s" />
    <circle cx="237.5" cy="312.5" r="4" fill="#e74c3c" class="data-point" style="animation-delay: 1.65s" />
    <circle cx="296.66666666666663" cy="312.5" r="4" fill="#e74c3c" class="data-point" style="animation-delay: 1.70s" />
    <circle cx="355.83333333333337" cy="312.5" r="4" fill="#e74c3c" class="data-point" style="animation-delay: 1.75s" />
    <circle cx="415" cy="312.5" r="4" fill="#e74c3c" class="data-point" style="animation-delay: 1.80s" />
    <circle cx="474.1666666666667" cy="312.5" r="4" fill="#e74c3c" class="data-point" style="animation-delay: 1.85s" />
    <circle cx="533.3333333333333" cy="312.5" r="4" fill="#e74c3c" class="data-point" style="animation-delay: 1.90s" />
    <circle cx="592.5" cy="312.5" r="4" fill="#e74c3c" class="data-point" style="animation-delay: 1.95s" />
    <circle cx="651.6666666666667" cy="312.5" r="4" fill="#e74c3c" class="data-point" style="animation-delay: 2.00s" />
    <circle cx="710.8333333333333" cy="312.5" r="4" fill="#e74c3c" class="data-point" style="animation-delay: 2.05s" />
    <circle cx="770" cy="312.5" r="4" fill="#e74c3c" class="data-point" style="animation-delay: 2.10s" />
    
    <circle cx="60" cy="312.5" r="4" fill="#3498db" class="data-point" style="animation-delay: 1.50s" />
    <circle cx="119.16666666666666" cy="312.5" r="4" fill="#3498db" class="data-point" style="animation-delay: 1.55s" />
    <circle cx="178.33333333333331" cy="312.5" r="4" fill="#3498db" class="data-point" style="animation-delay: 1.60s" />
    <circle cx="237.5" cy="312.5" r="4" fill="#3498db" class="data-point" style="animation-delay: 1.65s" />
    <circle cx="296.66666666666663" cy="312.5" r="4" fill="#3498db" class="data-point" style="animation-delay: 1.70s" />
    <circle cx="355.83333333333337" cy="312.5" r="4" fill="#3498db" class="data-point" style="animation-delay: 1.75s" />
    <circle cx="415" cy="312.5" r="4" fill="#3498db" class="data-point" style="animation-delay: 1.80s" />
    <circle cx="474.1666666666667" cy="312.5" r="4" fill="#3498db" class="data-point" style="animation-delay: 1.85s" />
    <circle cx="533.3333333333333" cy="312.5" r="4" fill="#3498db" class="data-point" style="animation-delay: 1.90s" />
    <circle cx="592.5" cy="312.5" r="4" fill="#3498db" class="data-point" style="animation-delay: 1.95s" />
    <circle cx="651.6666666666667" cy="312.5" r="4" fill="#3498db" class="data-point" style="animation-delay: 2.00s" />
    <circle cx="710.8333333333333" cy="312.5" r="4" fill="#3498db" class="data-point" style="animation-delay: 2.05s" />
    <circle cx="770" cy="312.5" r="4" fill="#3498db" class="data-point" style="animation-delay: 2.10s" />
    
    <circle cx="60" cy="312.5" r="4" fill="#9b59b6" class="data-point" style="animation-delay: 1.50s" />
    <circle cx="119.16666666666666" cy="312.5" r="4" fill="#9b59b6" class="data-point" style="animation-delay: 1.55s" />
    <circle cx="178.33333333333331" cy="312.5" r="4" fill="#9b59b6" class="data-point" style="animation-delay: 1.60s" />
    <circle cx="237.5" cy="312.5" r="4" fill="#9b59b6" class="data-point" style="animation-delay: 1.65s" />
    <circle cx="296.66666666666663" cy="312.5" r="4" fill="#9b59b6" class="data-point" style="animation-delay: 1.70s" />
    <circle cx="355.83333333333337" cy="312.5" r="4" fill="#9b59b6" class="data-point" style="animation-delay: 1.75s" />
    <circle cx="415" cy="312.5" r="4" fill="#9b59b6" class="data-point" style="animation-delay: 1.80s" />
    <circle cx="474.1666666666667" cy="312.5" r="4" fill="#9b59b6" class="data-point" style="animation-delay: 1.85s" />
    <circle cx="533.3333333333333" cy="312.5" r="4" fill="#9b59b6" class="data-point" style="animation-delay: 1.90s" />
    <circle cx="592.5" cy="312.5" r="4" fill="#9b59b6" class="data-point" style="animation-delay: 1.95s" />
    <circle cx="651.6666666666667" cy="312.5" r="4" fill="#9b59b6" class="data-point" style="animation-delay: 2.00s" />
    <circle cx="710.8333333333333" cy="350" r="4" fill="#9b59b6" class="data-point" style="animation-delay: 2.05s" />
    <circle cx="770" cy="350" r="4" fill="#9b59b6" class="data-point" style="animation-delay: 2.10s" />
    
    <circle cx="60" cy="350" r="4" fill="#e67e22" class="data-point" style="animation-delay: 1.50s" />
    <circle cx="119.16666666666666" cy="350" r="4" fill="#e67e22" class="data-point" style="animation-delay: 1.55s" />
    <circle cx="178.33333333333331" cy="350" r="4" fill="#e67e22" class="data-point" style="animation-delay: 1.60s" />
    <circle cx="237.5" cy="350" r="4" fill="#e67e22" class="data-point" style="animation-delay: 1.65s" />
    <circle cx="296.66666666666663" cy="350" r="4" fill="#e67e22" class="data-point" style="animation-delay: 1.70s" />
    <circle cx="355.83333333333337" cy="350" r="4" fill="#e67e22" class="data-point" style="animation-delay: 1.75s" />
    <circle cx="415" cy="350" r="4" fill="#e67e22" class="data-point" style="animation-delay: 1.80s" />
    <circle cx="474.1666666666667" cy="350" r="4" fill="#e67e22" class="data-point" style="animation-delay: 1.85s" />
    <circle cx="533.3333333333333" cy="350" r="4" fill="#e67e22" class="data-point" style="animation-delay: 1.90s" />
    <circle cx="592.5" cy="350" r="4" fill="#e67e22" class="data-point" style="animation-delay: 1.95s" />
    <circle cx="651.6666666666667" cy="350" r="4" fill="#e67e22" class="data-point" style="animation-delay: 2.00s" />
    <circle cx="710.8333333333333" cy="350" r="4" fill="#e67e22" class="data-point" style="animation-delay: 2.05s" />
    <circle cx="770" cy="350" r="4" fill="#e67e22" class="data-point" style="animation-delay: 2.10s" />
    
    <circle cx="60" cy="350" r="4" fill="#1abc9c" class="data-point" style="animation-delay: 1.50s" />
    <circle cx="119.16666666666666" cy="350" r="4" fill="#1abc9c" class="data-point" style="animation-delay: 1.55s" />
    <circle cx="178.33333333333331" cy="350" r="4" fill="#1abc9c" class="data-point" style="animation-delay: 1.60s" />
    <circle cx="237.5" cy="350" r="4" fill="#1abc9c" class="data-point" style="animation-delay: 1.65s" />
    <circle cx="296.66666666666663" cy="350" r="4" fill="#1abc9c" class="data-point" style="animation-delay: 1.70s" />
    <circle cx="355.83333333333337" cy="350" r="4" fill="#1abc9c" class="data-point" style="animation-delay: 1.75s" />
    <circle cx="415" cy="350" r="4" fill="#1abc9c" class="data-point" style="animation-delay: 1.80s" />
    <circle cx="474.1666666666667" cy="350" r="4" fill="#1abc9c" class="data-point" style="animation-delay: 1.85s" />
    <circle cx="533.3333333333333" cy="350" r="4" fill="#1abc9c" class="data-point" style="animation-delay: 1.90s" />
    <circle cx="592.5" cy="350" r="4" fill="#1abc9c" class="data-point" style="animation-delay: 1.95s" />
    <circle cx="651.6666666666667" cy="350" r="4" fill="#1abc9c" class="data-point" style="animation-delay: 2.00s" />
    <circle cx="710.8333333333333" cy="350" r="4" fill="#1abc9c" class="data-point" style="animation-delay: 2.05s" />
    <circle cx="770" cy="350" r="4" fill="#1abc9c" class="data-point" style="animation-delay: 2.10s" />
    
    <circle cx="60" cy="350" r="4" fill="#e84393" class="data-point" style="animation-delay: 1.50s" />
    <circle cx="119.16666666666666" cy="350" r="4" fill="#e84393" class="data-point" style="animation-delay: 1.55s" />
    <circle cx="178.33333333333331" cy="350" r="4" fill="#e84393" class="data-point" style="animation-delay: 1.60s" />
    <circle cx="237.5" cy="350" r="4" fill="#e84393" class="data-point" style="animation-delay: 1.65s" />
    <circle cx="296.66666666666663" cy="350" r="4" fill="#e84393" class="data-point" style="animation-delay: 1.70s" />
    <circle cx="355.83333333333337" cy="350" r="4" fill="#e84393" class="data-point" style="animation-delay: 1.75s" />
    <circle cx="415" cy="350" r="4" fill="#e84393" class="data-point" style="animation-delay: 1.80s" />
    <circle cx="474.1666666666667" cy="350" r="4" fill="#e84393" class="data-point" style="animation-delay: 1.85s" />
    <circle cx="533.3333333333333" cy="350" r="4" fill="#e84393" class="data-point" style="animation-delay: 1.90s" />
    <circle cx="592.5" cy="350" r="4" fill="#e84393" class="data-point" style="animation-delay: 1.95s" />
    <circle cx="651.6666666666667" cy="350" r="4" fill="#e84393" class="data-point" style="animation-delay: 2.00s" />
    <circle cx="710.8333333333333" cy="350" r="4" fill="#e84393" class="data-point" style="animation-delay: 2.05s" />
    <circle cx="770" cy="350" r="4" fill="#e84393" class="data-point" style="animation-delay: 2.10s" />
  </g>
</svg>