<svg xmlns="http://www.w3.org/2000/svg" viewBox="0 0 800 400" width="800" height="400">
  <style>
    @keyframes drawLine {
      to { stroke-dashoffset: 0; }
    }
    @keyframes fadeInPoint {
      from { opacity: 0; }
      to { opacity: 1; }
    }
    .data-line-0 {
      stroke-dasharray: 1065;
      stroke-dashoffset: 1065;
      animation: drawLine 2s ease-out forwards;
    }
    .data-line-1 {
      stroke-dasharray: 1065;
      stroke-dashoffset: 1065;
      animation: drawLine 2s ease-out forwards;
    }
    .data-line-2 {
      stroke-dasharray: 1065;
      stroke-dashoffset: 1065;
      animation: drawLine 2s ease-out forwards;
    }
    .data-line-3 {
      stroke-dasharray: 1065;
      stroke-dashoffset: 1065;
      animation: drawLine 2s ease-out forwards;
    }
    .data-line-4 {
      stroke-dasharray: 1138;
      stroke-dashoffset: 1138;
      animation: drawLine 2s ease-out forwards;
    }
    .data-line-5 {
      stroke-dasharray: 1065;
      stroke-dashoffset: 1065;
      animation: drawLine 2s ease-out forwards;
    }
    .data-line-6 {
      stroke-dasharray: 1065;
      stroke-dashoffset: 1065;
      animation: drawLine 2s ease-out forwards;
    }
    .data-line-7 {
      stroke-dasharray: 1065;
      stroke-dashoffset: 1065;
      animation: drawLine 2s ease-out forwards;
    }
    .data-line-8 {
      stroke-dasharray: 1065;
      stroke-dashoffset: 1065;
      animation: drawLine 2s ease-out forwards;
    }
    .data-point {
      opacity: 0;
      animation: fadeInPoint 0.5s ease-out forwards;
    }
    .chart-bg { fill: #fff; }
    .chart-text { fill: #24292e; }
    .chart-muted { fill: #6a737d; }
    .chart-grid { stroke: #eee; }
    .chart-axis { stroke: #6a737d; }
    @media (prefers-color-scheme: dark) {
      .chart-bg { fill: #0d1117; }
      .chart-text { fill: #e6edf3; }
      .chart-muted { fill: #8b949e; }
      .chart-grid { stroke: #21262d; }
      .chart-axis { stroke: #8b949e; }
    }
  </style>
  <rect width="800" height="400" class="chart-bg" />
  <text x="400" y="14" text-anchor="middle" class="chart-text" font-size="16" font-weight="bold" font-family="-apple-system, BlinkMacSystemFont, 'Segoe UI', Helvetica, Arial, sans-serif">Top Repositories</text>
  <g class="legend">
    <rect x="-140" y="25" width="12" height="3" fill="#dfb317" />
    <line x1="-140" y1="26.5" x2="-128" y2="26.5" stroke="#dfb317" stroke-width="2" />
    <text x="-124" y="30" class="chart-text" font-size="10" font-family="-apple-system, BlinkMacSystemFont, 'Segoe UI', Helvetica, Arial, sans-serif">biancafiore</text>
    <rect x="-20" y="25" width="12" height="3" fill="#28a745" />
    <line x1="-20" y1="26.5" x2="-8" y2="26.5" stroke="#28a745" stroke-width="2" />
    <text x="-4" y="30" class="chart-text" font-size="10" font-family="-apple-system, BlinkMacSystemFont, 'Segoe UI', Helvetica, Arial, sans-serif">fbuireu</text>
    <rect x="100" y="25" width="12" height="3" fill="#e74c3c" />
    <line x1="100" y1="26.5" x2="112" y2="26.5" stroke="#e74c3c" stroke-width="2" />
    <text x="116" y="30" class="chart-text" font-size="10" font-family="-apple-system, BlinkMacSystemFont, 'Segoe UI', Helvetica, Arial, sans-serif">curriculum-vitae</text>
    <rect x="220" y="25" width="12" height="3" fill="#3498db" />
    <line x1="220" y1="26.5" x2="232" y2="26.5" stroke="#3498db" stroke-width="2" />
    <text x="236" y="30" class="chart-text" font-size="10" font-family="-apple-system, BlinkMacSystemFont, 'Segoe UI', Helvetica, Arial, sans-serif">fbuireu-cli</text>
    <rect x="340" y="25" width="12" height="3" fill="#9b59b6" />
    <line x1="340" y1="26.5" x2="352" y2="26.5" stroke="#9b59b6" stroke-width="2" />
    <text x="356" y="30" class="chart-text" font-size="10" font-family="-apple-system, BlinkMacSystemFont, 'Segoe UI', Helvetica, Arial, sans-serif">github-star-tracker</text>
    <rect x="460" y="25" width="12" height="3" fill="#e67e22" />
    <line x1="460" y1="26.5" x2="472" y2="26.5" stroke="#e67e22" stroke-width="2" />
    <text x="476" y="30" class="chart-text" font-size="10" font-family="-apple-system, BlinkMacSystemFont, 'Segoe UI', Helvetica, Arial, sans-serif">email-signature</text>
    <rect x="580" y="25" width="12" height="3" fill="#1abc9c" />
    <line x1="580" y1="26.5" x2="592" y2="26.5" stroke="#1abc9c" stroke-width="2" />
    <text x="596" y="30" class="chart-text" font-size="10" font-family="-apple-system, BlinkMacSystemFont, 'Segoe UI', Helvetica, Arial, sans-serif">forever-pto</text>
    <rect x="700" y="25" width="12" height="3" fill="#e84393" />
    <line x1="700" y1="26.5" x2="712" y2="26.5" stroke="#e84393" stroke-width="2" />
    <text x="716" y="30" class="chart-text" font-size="10" font-family="-apple-system, BlinkMacSystemFont, 'Segoe UI', Helvetica, Arial, sans-serif">hashnode-articles-backup</text>
    <rect x="820" y="25" width="12" height="3" fill="#795548" />
    <line x1="820" y1="26.5" x2="832" y2="26.5" stroke="#795548" stroke-width="2" />
    <text x="836" y="30" class="chart-text" font-size="10" font-family="-apple-system, BlinkMacSystemFont, 'Segoe UI', Helvetica, Arial, sans-serif">syncropharma</text>
  </g>
  <g class="grid">
    <line x1="60" y1="350" x2="770" y2="350" class="chart-grid" stroke-opacity="0.3" />
    <text x="52" y="354" text-anchor="end" class="chart-muted" font-size="11" font-family="-apple-system, BlinkMacSystemFont, 'Segoe UI', Helvetica, Arial, sans-serif">0</text>
    <line x1="60" y1="275" x2="770" y2="275" class="chart-grid" stroke-opacity="0.3" />
    <text x="52" y="279" text-anchor="end" class="chart-muted" font-size="11" font-family="-apple-system, BlinkMacSystemFont, 'Segoe UI', Helvetica, Arial, sans-serif">2</text>
    <line x1="60" y1="200" x2="770" y2="200" class="chart-grid" stroke-opacity="0.3" />
    <text x="52" y="204" text-anchor="end" class="chart-muted" font-size="11" font-family="-apple-system, BlinkMacSystemFont, 'Segoe UI', Helvetica, Arial, sans-serif">4</text>
    <line x1="60" y1="125" x2="770" y2="125" class="chart-grid" stroke-opacity="0.3" />
    <text x="52" y="129" text-anchor="end" class="chart-muted" font-size="11" font-family="-apple-system, BlinkMacSystemFont, 'Segoe UI', Helvetica, Arial, sans-serif">6</text>
    <line x1="60" y1="50" x2="770" y2="50" class="chart-grid" stroke-opacity="0.3" />
    <text x="52" y="54" text-anchor="end" class="chart-muted" font-size="11" font-family="-apple-system, BlinkMacSystemFont, 'Segoe UI', Helvetica, Arial, sans-serif">8</text>
  </g>
  <g class="milestones">
    
  </g>
  <g class="x-axis">
    <text x="60" y="370" text-anchor="middle" class="chart-muted" font-size="11" font-family="-apple-system, BlinkMacSystemFont, 'Segoe UI', Helvetica, Arial, sans-serif">Feb 13</text>
    <text x="166.5" y="370" text-anchor="middle" class="chart-muted" font-size="11" font-family="-apple-system, BlinkMacSystemFont, 'Segoe UI', Helvetica, Arial, sans-serif">Feb 13</text>
    <text x="273" y="370" text-anchor="middle" class="chart-muted" font-size="11" font-family="-apple-system, BlinkMacSystemFont, 'Segoe UI', Helvetica, Arial, sans-serif">Feb 13</text>
    <text x="379.5" y="370" text-anchor="middle" class="chart-muted" font-size="11" font-family="-apple-system, BlinkMacSystemFont, 'Segoe UI', Helvetica, Arial, sans-serif">Feb 14</text>
    <text x="486" y="370" text-anchor="middle" class="chart-muted" font-size="11" font-family="-apple-system, BlinkMacSystemFont, 'Segoe UI', Helvetica, Arial, sans-serif">Feb 15</text>
    <text x="592.5" y="370" text-anchor="middle" class="chart-muted" font-size="11" font-family="-apple-system, BlinkMacSystemFont, 'Segoe UI', Helvetica, Arial, sans-serif">Mar 8</text>
    <text x="699" y="370" text-anchor="middle" class="chart-muted" font-size="11" font-family="-apple-system, BlinkMacSystemFont, 'Segoe UI', Helvetica, Arial, sans-serif">Mar 29</text>
    <text x="770" y="370" text-anchor="middle" class="chart-muted" font-size="11" font-family="-apple-system, BlinkMacSystemFont, 'Segoe UI', Helvetica, Arial, sans-serif">Apr 12</text>
  </g>
  <line x1="60" y1="50" x2="60" y2="350" class="chart-axis" stroke-width="1" />
  <line x1="60" y1="350" x2="770" y2="350" class="chart-axis" stroke-width="1" />
  
  
  
  
  
  
  
  
  
  <path d="M60,87.5 C64.73333333333333,87.5 86.03333333333333,87.5 95.5,87.5 C104.96666666666667,87.5 121.53333333333333,87.5 131,87.5 C140.46666666666667,87.5 157.03333333333333,87.5 166.5,87.5 C175.96666666666667,87.5 192.53333333333333,87.5 202,87.5 C211.46666666666667,87.5 228.03333333333333,87.5 237.5,87.5 C246.96666666666667,87.5 263.53333333333336,87.5 273,87.5 C282.46666666666664,87.5 299.03333333333336,87.5 308.5,87.5 C317.96666666666664,87.5 334.53333333333336,87.5 344,87.5 C353.46666666666664,87.5 370.03333333333336,87.5 379.5,87.5 C388.96666666666664,87.5 405.5333333333333,87.5 415,87.5 C424.4666666666667,87.5 441.0333333333334,87.5 450.50000000000006,87.5 C459.9666666666667,87.5 476.53333333333336,87.5 486,87.5 C495.46666666666664,87.5 512.0333333333333,87.5 521.5,87.5 C530.9666666666667,87.5 547.5333333333333,87.5 557,87.5 C566.4666666666667,87.5 583.0333333333333,87.5 592.5,87.5 C601.9666666666667,87.5 618.5333333333333,87.5 628,87.5 C637.4666666666667,87.5 654.0333333333333,87.5 663.5,87.5 C672.9666666666667,87.5 689.5333333333333,87.5 699,87.5 C708.4666666666667,87.5 725.0333333333333,87.5 734.5,87.5 C743.9666666666667,87.5 765.2666666666667,87.5 770,87.5" fill="none" stroke="#dfb317" stroke-width="2.5" class="data-line-0" />
  <path d="M60,162.5 C64.73333333333333,162.5 86.03333333333333,162.5 95.5,162.5 C104.96666666666667,162.5 121.53333333333333,162.5 131,162.5 C140.46666666666667,162.5 157.03333333333333,162.5 166.5,162.5 C175.96666666666667,162.5 192.53333333333333,162.5 202,162.5 C211.46666666666667,162.5 228.03333333333333,162.5 237.5,162.5 C246.96666666666667,162.5 263.53333333333336,162.5 273,162.5 C282.46666666666664,162.5 299.03333333333336,162.5 308.5,162.5 C317.96666666666664,162.5 334.53333333333336,162.5 344,162.5 C353.46666666666664,162.5 370.03333333333336,162.5 379.5,162.5 C388.96666666666664,162.5 405.5333333333333,162.5 415,162.5 C424.4666666666667,162.5 441.0333333333334,162.5 450.50000000000006,162.5 C459.9666666666667,162.5 476.53333333333336,162.5 486,162.5 C495.46666666666664,162.5 512.0333333333333,162.5 521.5,162.5 C530.9666666666667,162.5 547.5333333333333,162.5 557,162.5 C566.4666666666667,162.5 583.0333333333333,162.5 592.5,162.5 C601.9666666666667,162.5 618.5333333333333,162.5 628,162.5 C637.4666666666667,162.5 654.0333333333333,162.5 663.5,162.5 C672.9666666666667,162.5 689.5333333333333,162.5 699,162.5 C708.4666666666667,162.5 725.0333333333333,162.5 734.5,162.5 C743.9666666666667,162.5 765.2666666666667,162.5 770,162.5" fill="none" stroke="#28a745" stroke-width="2.5" class="data-line-1" />
  <path d="M60,312.5 C64.73333333333333,312.5 86.03333333333333,312.5 95.5,312.5 C104.96666666666667,312.5 121.53333333333333,312.5 131,312.5 C140.46666666666667,312.5 157.03333333333333,312.5 166.5,312.5 C175.96666666666667,312.5 192.53333333333333,312.5 202,312.5 C211.46666666666667,312.5 228.03333333333333,312.5 237.5,312.5 C246.96666666666667,312.5 263.53333333333336,312.5 273,312.5 C282.46666666666664,312.5 299.03333333333336,312.5 308.5,312.5 C317.96666666666664,312.5 334.53333333333336,312.5 344,312.5 C353.46666666666664,312.5 370.03333333333336,312.5 379.5,312.5 C388.96666666666664,312.5 405.5333333333333,312.5 415,312.5 C424.4666666666667,312.5 441.0333333333334,312.5 450.50000000000006,312.5 C459.9666666666667,312.5 476.53333333333336,312.5 486,312.5 C495.46666666666664,312.5 512.0333333333333,312.5 521.5,312.5 C530.9666666666667,312.5 547.5333333333333,312.5 557,312.5 C566.4666666666667,312.5 583.0333333333333,312.5 592.5,312.5 C601.9666666666667,312.5 618.5333333333333,312.5 628,312.5 C637.4666666666667,312.5 654.0333333333333,312.5 663.5,312.5 C672.9666666666667,312.5 689.5333333333333,312.5 699,312.5 C708.4666666666667,312.5 725.0333333333333,312.5 734.5,312.5 C743.9666666666667,312.5 765.2666666666667,312.5 770,312.5" fill="none" stroke="#e74c3c" stroke-width="2.5" class="data-line-2" />
  <path d="M60,312.5 C64.73333333333333,312.5 86.03333333333333,312.5 95.5,312.5 C104.96666666666667,312.5 121.53333333333333,312.5 131,312.5 C140.46666666666667,312.5 157.03333333333333,312.5 166.5,312.5 C175.96666666666667,312.5 192.53333333333333,312.5 202,312.5 C211.46666666666667,312.5 228.03333333333333,312.5 237.5,312.5 C246.96666666666667,312.5 263.53333333333336,312.5 273,312.5 C282.46666666666664,312.5 299.03333333333336,312.5 308.5,312.5 C317.96666666666664,312.5 334.53333333333336,312.5 344,312.5 C353.46666666666664,312.5 370.03333333333336,312.5 379.5,312.5 C388.96666666666664,312.5 405.5333333333333,312.5 415,312.5 C424.4666666666667,312.5 441.0333333333334,312.5 450.50000000000006,312.5 C459.9666666666667,312.5 476.53333333333336,312.5 486,312.5 C495.46666666666664,312.5 512.0333333333333,312.5 521.5,312.5 C530.9666666666667,312.5 547.5333333333333,312.5 557,312.5 C566.4666666666667,312.5 583.0333333333333,312.5 592.5,312.5 C601.9666666666667,312.5 618.5333333333333,312.5 628,312.5 C637.4666666666667,312.5 654.0333333333333,312.5 663.5,312.5 C672.9666666666667,312.5 689.5333333333333,312.5 699,312.5 C708.4666666666667,312.5 725.0333333333333,312.5 734.5,312.5 C743.9666666666667,312.5 765.2666666666667,312.5 770,312.5" fill="none" stroke="#3498db" stroke-width="2.5" class="data-line-3" />
  <path d="M60,312.5 C64.73333333333333,312.5 86.03333333333333,312.5 95.5,312.5 C104.96666666666667,312.5 121.53333333333333,312.5 131,312.5 C140.46666666666667,312.5 157.03333333333333,312.5 166.5,312.5 C175.96666666666667,312.5 192.53333333333333,312.5 202,312.5 C211.46666666666667,312.5 228.03333333333333,312.5 237.5,312.5 C246.96666666666667,312.5 263.53333333333336,312.5 273,312.5 C282.46666666666664,312.5 299.03333333333336,312.5 308.5,312.5 C317.96666666666664,312.5 334.53333333333336,312.5 344,312.5 C353.46666666666664,312.5 370.03333333333336,312.5 379.5,312.5 C388.96666666666664,312.5 405.5333333333333,307.5 415,312.5 C424.4666666666667,317.5 441.0333333333334,345 450.50000000000006,350 C459.9666666666667,355 476.53333333333336,355 486,350 C495.46666666666664,345 512.0333333333333,312.5 521.5,312.5 C530.9666666666667,312.5 547.5333333333333,345 557,350 C566.4666666666667,355 583.0333333333333,350 592.5,350 C601.9666666666667,350 618.5333333333333,350 628,350 C637.4666666666667,350 654.0333333333333,350 663.5,350 C672.9666666666667,350 689.5333333333333,350 699,350 C708.4666666666667,350 725.0333333333333,350 734.5,350 C743.9666666666667,350 765.2666666666667,350 770,350" fill="none" stroke="#9b59b6" stroke-width="2.5" class="data-line-4" />
  <path d="M60,350 C64.73333333333333,350 86.03333333333333,350 95.5,350 C104.96666666666667,350 121.53333333333333,350 131,350 C140.46666666666667,350 157.03333333333333,350 166.5,350 C175.96666666666667,350 192.53333333333333,350 202,350 C211.46666666666667,350 228.03333333333333,350 237.5,350 C246.96666666666667,350 263.53333333333336,350 273,350 C282.46666666666664,350 299.03333333333336,350 308.5,350 C317.96666666666664,350 334.53333333333336,350 344,350 C353.46666666666664,350 370.03333333333336,350 379.5,350 C388.96666666666664,350 405.5333333333333,350 415,350 C424.4666666666667,350 441.0333333333334,350 450.50000000000006,350 C459.9666666666667,350 476.53333333333336,350 486,350 C495.46666666666664,350 512.0333333333333,350 521.5,350 C530.9666666666667,350 547.5333333333333,350 557,350 C566.4666666666667,350 583.0333333333333,350 592.5,350 C601.9666666666667,350 618.5333333333333,350 628,350 C637.4666666666667,350 654.0333333333333,350 663.5,350 C672.9666666666667,350 689.5333333333333,350 699,350 C708.4666666666667,350 725.0333333333333,350 734.5,350 C743.9666666666667,350 765.2666666666667,350 770,350" fill="none" stroke="#e67e22" stroke-width="2.5" class="data-line-5" />
  <path d="M60,350 C64.73333333333333,350 86.03333333333333,350 95.5,350 C104.96666666666667,350 121.53333333333333,350 131,350 C140.46666666666667,350 157.03333333333333,350 166.5,350 C175.96666666666667,350 192.53333333333333,350 202,350 C211.46666666666667,350 228.03333333333333,350 237.5,350 C246.96666666666667,350 263.53333333333336,350 273,350 C282.46666666666664,350 299.03333333333336,350 308.5,350 C317.96666666666664,350 334.53333333333336,350 344,350 C353.46666666666664,350 370.03333333333336,350 379.5,350 C388.96666666666664,350 405.5333333333333,350 415,350 C424.4666666666667,350 441.0333333333334,350 450.50000000000006,350 C459.9666666666667,350 476.53333333333336,350 486,350 C495.46666666666664,350 512.0333333333333,350 521.5,350 C530.9666666666667,350 547.5333333333333,350 557,350 C566.4666666666667,350 583.0333333333333,350 592.5,350 C601.9666666666667,350 618.5333333333333,350 628,350 C637.4666666666667,350 654.0333333333333,350 663.5,350 C672.9666666666667,350 689.5333333333333,350 699,350 C708.4666666666667,350 725.0333333333333,350 734.5,350 C743.9666666666667,350 765.2666666666667,350 770,350" fill="none" stroke="#1abc9c" stroke-width="2.5" class="data-line-6" />
  <path d="M60,350 C64.73333333333333,350 86.03333333333333,350 95.5,350 C104.96666666666667,350 121.53333333333333,350 131,350 C140.46666666666667,350 157.03333333333333,350 166.5,350 C175.96666666666667,350 192.53333333333333,350 202,350 C211.46666666666667,350 228.03333333333333,350 237.5,350 C246.96666666666667,350 263.53333333333336,350 273,350 C282.46666666666664,350 299.03333333333336,350 308.5,350 C317.96666666666664,350 334.53333333333336,350 344,350 C353.46666666666664,350 370.03333333333336,350 379.5,350 C388.96666666666664,350 405.5333333333333,350 415,350 C424.4666666666667,350 441.0333333333334,350 450.50000000000006,350 C459.9666666666667,350 476.53333333333336,350 486,350 C495.46666666666664,350 512.0333333333333,350 521.5,350 C530.9666666666667,350 547.5333333333333,350 557,350 C566.4666666666667,350 583.0333333333333,350 592.5,350 C601.9666666666667,350 618.5333333333333,350 628,350 C637.4666666666667,350 654.0333333333333,350 663.5,350 C672.9666666666667,350 689.5333333333333,350 699,350 C708.4666666666667,350 725.0333333333333,350 734.5,350 C743.9666666666667,350 765.2666666666667,350 770,350" fill="none" stroke="#e84393" stroke-width="2.5" class="data-line-7" />
  <path d="M60,350 C64.73333333333333,350 86.03333333333333,350 95.5,350 C104.96666666666667,350 121.53333333333333,350 131,350 C140.46666666666667,350 157.03333333333333,350 166.5,350 C175.96666666666667,350 192.53333333333333,350 202,350 C211.46666666666667,350 228.03333333333333,350 237.5,350 C246.96666666666667,350 263.53333333333336,350 273,350 C282.46666666666664,350 299.03333333333336,350 308.5,350 C317.96666666666664,350 334.53333333333336,350 344,350 C353.46666666666664,350 370.03333333333336,350 379.5,350 C388.96666666666664,350 405.5333333333333,350 415,350 C424.4666666666667,350 441.0333333333334,350 450.50000000000006,350 C459.9666666666667,350 476.53333333333336,350 486,350 C495.46666666666664,350 512.0333333333333,350 521.5,350 C530.9666666666667,350 547.5333333333333,350 557,350 C566.4666666666667,350 583.0333333333333,350 592.5,350 C601.9666666666667,350 618.5333333333333,350 628,350 C637.4666666666667,350 654.0333333333333,350 663.5,350 C672.9666666666667,350 689.5333333333333,350 699,350 C708.4666666666667,350 725.0333333333333,350 734.5,350 C743.9666666666667,350 765.2666666666667,350 770,350" fill="none" stroke="#795548" stroke-width="2.5" class="data-line-8" />
  <g class="points">
    
    <circle cx="60" cy="87.5" r="4" fill="#dfb317" class="data-point" style="animation-delay: 1.50s" />
    <circle cx="95.5" cy="87.5" r="4" fill="#dfb317" class="data-point" style="animation-delay: 1.55s" />
    <circle cx="131" cy="87.5" r="4" fill="#dfb317" class="data-point" style="animation-delay: 1.60s" />
    <circle cx="166.5" cy="87.5" r="4" fill="#dfb317" class="data-point" style="animation-delay: 1.65s" />
    <circle cx="202" cy="87.5" r="4" fill="#dfb317" class="data-point" style="animation-delay: 1.70s" />
    <circle cx="237.5" cy="87.5" r="4" fill="#dfb317" class="data-point" style="animation-delay: 1.75s" />
    <circle cx="273" cy="87.5" r="4" fill="#dfb317" class="data-point" style="animation-delay: 1.80s" />
    <circle cx="308.5" cy="87.5" r="4" fill="#dfb317" class="data-point" style="animation-delay: 1.85s" />
    <circle cx="344" cy="87.5" r="4" fill="#dfb317" class="data-point" style="animation-delay: 1.90s" />
    <circle cx="379.5" cy="87.5" r="4" fill="#dfb317" class="data-point" style="animation-delay: 1.95s" />
    <circle cx="415" cy="87.5" r="4" fill="#dfb317" class="data-point" style="animation-delay: 2.00s" />
    <circle cx="450.50000000000006" cy="87.5" r="4" fill="#dfb317" class="data-point" style="animation-delay: 2.05s" />
    <circle cx="486" cy="87.5" r="4" fill="#dfb317" class="data-point" style="animation-delay: 2.10s" />
    <circle cx="521.5" cy="87.5" r="4" fill="#dfb317" class="data-point" style="animation-delay: 2.15s" />
    <circle cx="557" cy="87.5" r="4" fill="#dfb317" class="data-point" style="animation-delay: 2.20s" />
    <circle cx="592.5" cy="87.5" r="4" fill="#dfb317" class="data-point" style="animation-delay: 2.25s" />
    <circle cx="628" cy="87.5" r="4" fill="#dfb317" class="data-point" style="animation-delay: 2.30s" />
    <circle cx="663.5" cy="87.5" r="4" fill="#dfb317" class="data-point" style="animation-delay: 2.35s" />
    <circle cx="699" cy="87.5" r="4" fill="#dfb317" class="data-point" style="animation-delay: 2.40s" />
    <circle cx="734.5" cy="87.5" r="4" fill="#dfb317" class="data-point" style="animation-delay: 2.45s" />
    <circle cx="770" cy="87.5" r="4" fill="#dfb317" class="data-point" style="animation-delay: 2.50s" />
    
    <circle cx="60" cy="162.5" r="4" fill="#28a745" class="data-point" style="animation-delay: 1.50s" />
    <circle cx="95.5" cy="162.5" r="4" fill="#28a745" class="data-point" style="animation-delay: 1.55s" />
    <circle cx="131" cy="162.5" r="4" fill="#28a745" class="data-point" style="animation-delay: 1.60s" />
    <circle cx="166.5" cy="162.5" r="4" fill="#28a745" class="data-point" style="animation-delay: 1.65s" />
    <circle cx="202" cy="162.5" r="4" fill="#28a745" class="data-point" style="animation-delay: 1.70s" />
    <circle cx="237.5" cy="162.5" r="4" fill="#28a745" class="data-point" style="animation-delay: 1.75s" />
    <circle cx="273" cy="162.5" r="4" fill="#28a745" class="data-point" style="animation-delay: 1.80s" />
    <circle cx="308.5" cy="162.5" r="4" fill="#28a745" class="data-point" style="animation-delay: 1.85s" />
    <circle cx="344" cy="162.5" r="4" fill="#28a745" class="data-point" style="animation-delay: 1.90s" />
    <circle cx="379.5" cy="162.5" r="4" fill="#28a745" class="data-point" style="animation-delay: 1.95s" />
    <circle cx="415" cy="162.5" r="4" fill="#28a745" class="data-point" style="animation-delay: 2.00s" />
    <circle cx="450.50000000000006" cy="162.5" r="4" fill="#28a745" class="data-point" style="animation-delay: 2.05s" />
    <circle cx="486" cy="162.5" r="4" fill="#28a745" class="data-point" style="animation-delay: 2.10s" />
    <circle cx="521.5" cy="162.5" r="4" fill="#28a745" class="data-point" style="animation-delay: 2.15s" />
    <circle cx="557" cy="162.5" r="4" fill="#28a745" class="data-point" style="animation-delay: 2.20s" />
    <circle cx="592.5" cy="162.5" r="4" fill="#28a745" class="data-point" style="animation-delay: 2.25s" />
    <circle cx="628" cy="162.5" r="4" fill="#28a745" class="data-point" style="animation-delay: 2.30s" />
    <circle cx="663.5" cy="162.5" r="4" fill="#28a745" class="data-point" style="animation-delay: 2.35s" />
    <circle cx="699" cy="162.5" r="4" fill="#28a745" class="data-point" style="animation-delay: 2.40s" />
    <circle cx="734.5" cy="162.5" r="4" fill="#28a745" class="data-point" style="animation-delay: 2.45s" />
    <circle cx="770" cy="162.5" r="4" fill="#28a745" class="data-point" style="animation-delay: 2.50s" />
    
    <circle cx="60" cy="312.5" r="4" fill="#e74c3c" class="data-point" style="animation-delay: 1.50s" />
    <circle cx="95.5" cy="312.5" r="4" fill="#e74c3c" class="data-point" style="animation-delay: 1.55s" />
    <circle cx="131" cy="312.5" r="4" fill="#e74c3c" class="data-point" style="animation-delay: 1.60s" />
    <circle cx="166.5" cy="312.5" r="4" fill="#e74c3c" class="data-point" style="animation-delay: 1.65s" />
    <circle cx="202" cy="312.5" r="4" fill="#e74c3c" class="data-point" style="animation-delay: 1.70s" />
    <circle cx="237.5" cy="312.5" r="4" fill="#e74c3c" class="data-point" style="animation-delay: 1.75s" />
    <circle cx="273" cy="312.5" r="4" fill="#e74c3c" class="data-point" style="animation-delay: 1.80s" />
    <circle cx="308.5" cy="312.5" r="4" fill="#e74c3c" class="data-point" style="animation-delay: 1.85s" />
    <circle cx="344" cy="312.5" r="4" fill="#e74c3c" class="data-point" style="animation-delay: 1.90s" />
    <circle cx="379.5" cy="312.5" r="4" fill="#e74c3c" class="data-point" style="animation-delay: 1.95s" />
    <circle cx="415" cy="312.5" r="4" fill="#e74c3c" class="data-point" style="animation-delay: 2.00s" />
    <circle cx="450.50000000000006" cy="312.5" r="4" fill="#e74c3c" class="data-point" style="animation-delay: 2.05s" />
    <circle cx="486" cy="312.5" r="4" fill="#e74c3c" class="data-point" style="animation-delay: 2.10s" />
    <circle cx="521.5" cy="312.5" r="4" fill="#e74c3c" class="data-point" style="animation-delay: 2.15s" />
    <circle cx="557" cy="312.5" r="4" fill="#e74c3c" class="data-point" style="animation-delay: 2.20s" />
    <circle cx="592.5" cy="312.5" r="4" fill="#e74c3c" class="data-point" style="animation-delay: 2.25s" />
    <circle cx="628" cy="312.5" r="4" fill="#e74c3c" class="data-point" style="animation-delay: 2.30s" />
    <circle cx="663.5" cy="312.5" r="4" fill="#e74c3c" class="data-point" style="animation-delay: 2.35s" />
    <circle cx="699" cy="312.5" r="4" fill="#e74c3c" class="data-point" style="animation-delay: 2.40s" />
    <circle cx="734.5" cy="312.5" r="4" fill="#e74c3c" class="data-point" style="animation-delay: 2.45s" />
    <circle cx="770" cy="312.5" r="4" fill="#e74c3c" class="data-point" style="animation-delay: 2.50s" />
    
    <circle cx="60" cy="312.5" r="4" fill="#3498db" class="data-point" style="animation-delay: 1.50s" />
    <circle cx="95.5" cy="312.5" r="4" fill="#3498db" class="data-point" style="animation-delay: 1.55s" />
    <circle cx="131" cy="312.5" r="4" fill="#3498db" class="data-point" style="animation-delay: 1.60s" />
    <circle cx="166.5" cy="312.5" r="4" fill="#3498db" class="data-point" style="animation-delay: 1.65s" />
    <circle cx="202" cy="312.5" r="4" fill="#3498db" class="data-point" style="animation-delay: 1.70s" />
    <circle cx="237.5" cy="312.5" r="4" fill="#3498db" class="data-point" style="animation-delay: 1.75s" />
    <circle cx="273" cy="312.5" r="4" fill="#3498db" class="data-point" style="animation-delay: 1.80s" />
    <circle cx="308.5" cy="312.5" r="4" fill="#3498db" class="data-point" style="animation-delay: 1.85s" />
    <circle cx="344" cy="312.5" r="4" fill="#3498db" class="data-point" style="animation-delay: 1.90s" />
    <circle cx="379.5" cy="312.5" r="4" fill="#3498db" class="data-point" style="animation-delay: 1.95s" />
    <circle cx="415" cy="312.5" r="4" fill="#3498db" class="data-point" style="animation-delay: 2.00s" />
    <circle cx="450.50000000000006" cy="312.5" r="4" fill="#3498db" class="data-point" style="animation-delay: 2.05s" />
    <circle cx="486" cy="312.5" r="4" fill="#3498db" class="data-point" style="animation-delay: 2.10s" />
    <circle cx="521.5" cy="312.5" r="4" fill="#3498db" class="data-point" style="animation-delay: 2.15s" />
    <circle cx="557" cy="312.5" r="4" fill="#3498db" class="data-point" style="animation-delay: 2.20s" />
    <circle cx="592.5" cy="312.5" r="4" fill="#3498db" class="data-point" style="animation-delay: 2.25s" />
    <circle cx="628" cy="312.5" r="4" fill="#3498db" class="data-point" style="animation-delay: 2.30s" />
    <circle cx="663.5" cy="312.5" r="4" fill="#3498db" class="data-point" style="animation-delay: 2.35s" />
    <circle cx="699" cy="312.5" r="4" fill="#3498db" class="data-point" style="animation-delay: 2.40s" />
    <circle cx="734.5" cy="312.5" r="4" fill="#3498db" class="data-point" style="animation-delay: 2.45s" />
    <circle cx="770" cy="312.5" r="4" fill="#3498db" class="data-point" style="animation-delay: 2.50s" />
    
    <circle cx="60" cy="312.5" r="4" fill="#9b59b6" class="data-point" style="animation-delay: 1.50s" />
    <circle cx="95.5" cy="312.5" r="4" fill="#9b59b6" class="data-point" style="animation-delay: 1.55s" />
    <circle cx="131" cy="312.5" r="4" fill="#9b59b6" class="data-point" style="animation-delay: 1.60s" />
    <circle cx="166.5" cy="312.5" r="4" fill="#9b59b6" class="data-point" style="animation-delay: 1.65s" />
    <circle cx="202" cy="312.5" r="4" fill="#9b59b6" class="data-point" style="animation-delay: 1.70s" />
    <circle cx="237.5" cy="312.5" r="4" fill="#9b59b6" class="data-point" style="animation-delay: 1.75s" />
    <circle cx="273" cy="312.5" r="4" fill="#9b59b6" class="data-point" style="animation-delay: 1.80s" />
    <circle cx="308.5" cy="312.5" r="4" fill="#9b59b6" class="data-point" style="animation-delay: 1.85s" />
    <circle cx="344" cy="312.5" r="4" fill="#9b59b6" class="data-point" style="animation-delay: 1.90s" />
    <circle cx="379.5" cy="312.5" r="4" fill="#9b59b6" class="data-point" style="animation-delay: 1.95s" />
    <circle cx="415" cy="312.5" r="4" fill="#9b59b6" class="data-point" style="animation-delay: 2.00s" />
    <circle cx="450.50000000000006" cy="350" r="4" fill="#9b59b6" class="data-point" style="animation-delay: 2.05s" />
    <circle cx="486" cy="350" r="4" fill="#9b59b6" class="data-point" style="animation-delay: 2.10s" />
    <circle cx="521.5" cy="312.5" r="4" fill="#9b59b6" class="data-point" style="animation-delay: 2.15s" />
    <circle cx="557" cy="350" r="4" fill="#9b59b6" class="data-point" style="animation-delay: 2.20s" />
    <circle cx="592.5" cy="350" r="4" fill="#9b59b6" class="data-point" style="animation-delay: 2.25s" />
    <circle cx="628" cy="350" r="4" fill="#9b59b6" class="data-point" style="animation-delay: 2.30s" />
    <circle cx="663.5" cy="350" r="4" fill="#9b59b6" class="data-point" style="animation-delay: 2.35s" />
    <circle cx="699" cy="350" r="4" fill="#9b59b6" class="data-point" style="animation-delay: 2.40s" />
    <circle cx="734.5" cy="350" r="4" fill="#9b59b6" class="data-point" style="animation-delay: 2.45s" />
    <circle cx="770" cy="350" r="4" fill="#9b59b6" class="data-point" style="animation-delay: 2.50s" />
    
    <circle cx="60" cy="350" r="4" fill="#e67e22" class="data-point" style="animation-delay: 1.50s" />
    <circle cx="95.5" cy="350" r="4" fill="#e67e22" class="data-point" style="animation-delay: 1.55s" />
    <circle cx="131" cy="350" r="4" fill="#e67e22" class="data-point" style="animation-delay: 1.60s" />
    <circle cx="166.5" cy="350" r="4" fill="#e67e22" class="data-point" style="animation-delay: 1.65s" />
    <circle cx="202" cy="350" r="4" fill="#e67e22" class="data-point" style="animation-delay: 1.70s" />
    <circle cx="237.5" cy="350" r="4" fill="#e67e22" class="data-point" style="animation-delay: 1.75s" />
    <circle cx="273" cy="350" r="4" fill="#e67e22" class="data-point" style="animation-delay: 1.80s" />
    <circle cx="308.5" cy="350" r="4" fill="#e67e22" class="data-point" style="animation-delay: 1.85s" />
    <circle cx="344" cy="350" r="4" fill="#e67e22" class="data-point" style="animation-delay: 1.90s" />
    <circle cx="379.5" cy="350" r="4" fill="#e67e22" class="data-point" style="animation-delay: 1.95s" />
    <circle cx="415" cy="350" r="4" fill="#e67e22" class="data-point" style="animation-delay: 2.00s" />
    <circle cx="450.50000000000006" cy="350" r="4" fill="#e67e22" class="data-point" style="animation-delay: 2.05s" />
    <circle cx="486" cy="350" r="4" fill="#e67e22" class="data-point" style="animation-delay: 2.10s" />
    <circle cx="521.5" cy="350" r="4" fill="#e67e22" class="data-point" style="animation-delay: 2.15s" />
    <circle cx="557" cy="350" r="4" fill="#e67e22" class="data-point" style="animation-delay: 2.20s" />
    <circle cx="592.5" cy="350" r="4" fill="#e67e22" class="data-point" style="animation-delay: 2.25s" />
    <circle cx="628" cy="350" r="4" fill="#e67e22" class="data-point" style="animation-delay: 2.30s" />
    <circle cx="663.5" cy="350" r="4" fill="#e67e22" class="data-point" style="animation-delay: 2.35s" />
    <circle cx="699" cy="350" r="4" fill="#e67e22" class="data-point" style="animation-delay: 2.40s" />
    <circle cx="734.5" cy="350" r="4" fill="#e67e22" class="data-point" style="animation-delay: 2.45s" />
    <circle cx="770" cy="350" r="4" fill="#e67e22" class="data-point" style="animation-delay: 2.50s" />
    
    <circle cx="60" cy="350" r="4" fill="#1abc9c" class="data-point" style="animation-delay: 1.50s" />
    <circle cx="95.5" cy="350" r="4" fill="#1abc9c" class="data-point" style="animation-delay: 1.55s" />
    <circle cx="131" cy="350" r="4" fill="#1abc9c" class="data-point" style="animation-delay: 1.60s" />
    <circle cx="166.5" cy="350" r="4" fill="#1abc9c" class="data-point" style="animation-delay: 1.65s" />
    <circle cx="202" cy="350" r="4" fill="#1abc9c" class="data-point" style="animation-delay: 1.70s" />
    <circle cx="237.5" cy="350" r="4" fill="#1abc9c" class="data-point" style="animation-delay: 1.75s" />
    <circle cx="273" cy="350" r="4" fill="#1abc9c" class="data-point" style="animation-delay: 1.80s" />
    <circle cx="308.5" cy="350" r="4" fill="#1abc9c" class="data-point" style="animation-delay: 1.85s" />
    <circle cx="344" cy="350" r="4" fill="#1abc9c" class="data-point" style="animation-delay: 1.90s" />
    <circle cx="379.5" cy="350" r="4" fill="#1abc9c" class="data-point" style="animation-delay: 1.95s" />
    <circle cx="415" cy="350" r="4" fill="#1abc9c" class="data-point" style="animation-delay: 2.00s" />
    <circle cx="450.50000000000006" cy="350" r="4" fill="#1abc9c" class="data-point" style="animation-delay: 2.05s" />
    <circle cx="486" cy="350" r="4" fill="#1abc9c" class="data-point" style="animation-delay: 2.10s" />
    <circle cx="521.5" cy="350" r="4" fill="#1abc9c" class="data-point" style="animation-delay: 2.15s" />
    <circle cx="557" cy="350" r="4" fill="#1abc9c" class="data-point" style="animation-delay: 2.20s" />
    <circle cx="592.5" cy="350" r="4" fill="#1abc9c" class="data-point" style="animation-delay: 2.25s" />
    <circle cx="628" cy="350" r="4" fill="#1abc9c" class="data-point" style="animation-delay: 2.30s" />
    <circle cx="663.5" cy="350" r="4" fill="#1abc9c" class="data-point" style="animation-delay: 2.35s" />
    <circle cx="699" cy="350" r="4" fill="#1abc9c" class="data-point" style="animation-delay: 2.40s" />
    <circle cx="734.5" cy="350" r="4" fill="#1abc9c" class="data-point" style="animation-delay: 2.45s" />
    <circle cx="770" cy="350" r="4" fill="#1abc9c" class="data-point" style="animation-delay: 2.50s" />
    
    <circle cx="60" cy="350" r="4" fill="#e84393" class="data-point" style="animation-delay: 1.50s" />
    <circle cx="95.5" cy="350" r="4" fill="#e84393" class="data-point" style="animation-delay: 1.55s" />
    <circle cx="131" cy="350" r="4" fill="#e84393" class="data-point" style="animation-delay: 1.60s" />
    <circle cx="166.5" cy="350" r="4" fill="#e84393" class="data-point" style="animation-delay: 1.65s" />
    <circle cx="202" cy="350" r="4" fill="#e84393" class="data-point" style="animation-delay: 1.70s" />
    <circle cx="237.5" cy="350" r="4" fill="#e84393" class="data-point" style="animation-delay: 1.75s" />
    <circle cx="273" cy="350" r="4" fill="#e84393" class="data-point" style="animation-delay: 1.80s" />
    <circle cx="308.5" cy="350" r="4" fill="#e84393" class="data-point" style="animation-delay: 1.85s" />
    <circle cx="344" cy="350" r="4" fill="#e84393" class="data-point" style="animation-delay: 1.90s" />
    <circle cx="379.5" cy="350" r="4" fill="#e84393" class="data-point" style="animation-delay: 1.95s" />
    <circle cx="415" cy="350" r="4" fill="#e84393" class="data-point" style="animation-delay: 2.00s" />
    <circle cx="450.50000000000006" cy="350" r="4" fill="#e84393" class="data-point" style="animation-delay: 2.05s" />
    <circle cx="486" cy="350" r="4" fill="#e84393" class="data-point" style="animation-delay: 2.10s" />
    <circle cx="521.5" cy="350" r="4" fill="#e84393" class="data-point" style="animation-delay: 2.15s" />
    <circle cx="557" cy="350" r="4" fill="#e84393" class="data-point" style="animation-delay: 2.20s" />
    <circle cx="592.5" cy="350" r="4" fill="#e84393" class="data-point" style="animation-delay: 2.25s" />
    <circle cx="628" cy="350" r="4" fill="#e84393" class="data-point" style="animation-delay: 2.30s" />
    <circle cx="663.5" cy="350" r="4" fill="#e84393" class="data-point" style="animation-delay: 2.35s" />
    <circle cx="699" cy="350" r="4" fill="#e84393" class="data-point" style="animation-delay: 2.40s" />
    <circle cx="734.5" cy="350" r="4" fill="#e84393" class="data-point" style="animation-delay: 2.45s" />
    <circle cx="770" cy="350" r="4" fill="#e84393" class="data-point" style="animation-delay: 2.50s" />
    
    <circle cx="60" cy="350" r="4" fill="#795548" class="data-point" style="animation-delay: 1.50s" />
    <circle cx="95.5" cy="350" r="4" fill="#795548" class="data-point" style="animation-delay: 1.55s" />
    <circle cx="131" cy="350" r="4" fill="#795548" class="data-point" style="animation-delay: 1.60s" />
    <circle cx="166.5" cy="350" r="4" fill="#795548" class="data-point" style="animation-delay: 1.65s" />
    <circle cx="202" cy="350" r="4" fill="#795548" class="data-point" style="animation-delay: 1.70s" />
    <circle cx="237.5" cy="350" r="4" fill="#795548" class="data-point" style="animation-delay: 1.75s" />
    <circle cx="273" cy="350" r="4" fill="#795548" class="data-point" style="animation-delay: 1.80s" />
    <circle cx="308.5" cy="350" r="4" fill="#795548" class="data-point" style="animation-delay: 1.85s" />
    <circle cx="344" cy="350" r="4" fill="#795548" class="data-point" style="animation-delay: 1.90s" />
    <circle cx="379.5" cy="350" r="4" fill="#795548" class="data-point" style="animation-delay: 1.95s" />
    <circle cx="415" cy="350" r="4" fill="#795548" class="data-point" style="animation-delay: 2.00s" />
    <circle cx="450.50000000000006" cy="350" r="4" fill="#795548" class="data-point" style="animation-delay: 2.05s" />
    <circle cx="486" cy="350" r="4" fill="#795548" class="data-point" style="animation-delay: 2.10s" />
    <circle cx="521.5" cy="350" r="4" fill="#795548" class="data-point" style="animation-delay: 2.15s" />
    <circle cx="557" cy="350" r="4" fill="#795548" class="data-point" style="animation-delay: 2.20s" />
    <circle cx="592.5" cy="350" r="4" fill="#795548" class="data-point" style="animation-delay: 2.25s" />
    <circle cx="628" cy="350" r="4" fill="#795548" class="data-point" style="animation-delay: 2.30s" />
    <circle cx="663.5" cy="350" r="4" fill="#795548" class="data-point" style="animation-delay: 2.35s" />
    <circle cx="699" cy="350" r="4" fill="#795548" class="data-point" style="animation-delay: 2.40s" />
    <circle cx="734.5" cy="350" r="4" fill="#795548" class="data-point" style="animation-delay: 2.45s" />
    <circle cx="770" cy="350" r="4" fill="#795548" class="data-point" style="animation-delay: 2.50s" />
  </g>
</svg>