<svg xmlns="http://www.w3.org/2000/svg" viewBox="0 0 800 400" width="800" height="400">
  <style>
    @keyframes drawLine {
      to { stroke-dashoffset: 0; }
    }
    @keyframes fadeInPoint {
      from { opacity: 0; }
      to { opacity: 1; }
    }
    .data-line-0 {
      stroke-dasharray: 1065;
      stroke-dashoffset: 1065;
      animation: drawLine 2s ease-out forwards;
    }
    .data-line-1 {
      stroke-dasharray: 1065;
      stroke-dashoffset: 1065;
      animation: drawLine 2s ease-out forwards;
    }
    .data-line-2 {
      stroke-dasharray: 1065;
      stroke-dashoffset: 1065;
      animation: drawLine 2s ease-out forwards;
    }
    .data-line-3 {
      stroke-dasharray: 1065;
      stroke-dashoffset: 1065;
      animation: drawLine 2s ease-out forwards;
    }
    .data-line-4 {
      stroke-dasharray: 1065;
      stroke-dashoffset: 1065;
      animation: drawLine 2s ease-out forwards;
    }
    .data-line-5 {
      stroke-dasharray: 1065;
      stroke-dashoffset: 1065;
      animation: drawLine 2s ease-out forwards;
    }
    .data-line-6 {
      stroke-dasharray: 1133;
      stroke-dashoffset: 1133;
      animation: drawLine 2s ease-out forwards;
    }
    .data-line-7 {
      stroke-dasharray: 1065;
      stroke-dashoffset: 1065;
      animation: drawLine 2s ease-out forwards;
    }
    .data-point {
      opacity: 0;
      animation: fadeInPoint 0.5s ease-out forwards;
    }
    .chart-bg { fill: #fff; }
    .chart-text { fill: #24292e; }
    .chart-muted { fill: #6a737d; }
    .chart-grid { stroke: #eee; }
    .chart-axis { stroke: #6a737d; }
    @media (prefers-color-scheme: dark) {
      .chart-bg { fill: #0d1117; }
      .chart-text { fill: #e6edf3; }
      .chart-muted { fill: #8b949e; }
      .chart-grid { stroke: #21262d; }
      .chart-axis { stroke: #8b949e; }
    }
  </style>
  <rect width="800" height="400" class="chart-bg" />
  <text x="400" y="14" text-anchor="middle" class="chart-text" font-size="16" font-weight="bold" font-family="-apple-system, BlinkMacSystemFont, 'Segoe UI', Helvetica, Arial, sans-serif">Top Repositories</text>
  <g class="legend">
    <rect x="-80" y="25" width="12" height="3" fill="#dfb317" />
    <line x1="-80" y1="26.5" x2="-68" y2="26.5" stroke="#dfb317" stroke-width="2" />
    <text x="-64" y="30" class="chart-text" font-size="10" font-family="-apple-system, BlinkMacSystemFont, 'Segoe UI', Helvetica, Arial, sans-serif">biancafiore</text>
    <rect x="40" y="25" width="12" height="3" fill="#28a745" />
    <line x1="40" y1="26.5" x2="52" y2="26.5" stroke="#28a745" stroke-width="2" />
    <text x="56" y="30" class="chart-text" font-size="10" font-family="-apple-system, BlinkMacSystemFont, 'Segoe UI', Helvetica, Arial, sans-serif">fbuireu</text>
    <rect x="160" y="25" width="12" height="3" fill="#e74c3c" />
    <line x1="160" y1="26.5" x2="172" y2="26.5" stroke="#e74c3c" stroke-width="2" />
    <text x="176" y="30" class="chart-text" font-size="10" font-family="-apple-system, BlinkMacSystemFont, 'Segoe UI', Helvetica, Arial, sans-serif">curriculum-vitae</text>
    <rect x="280" y="25" width="12" height="3" fill="#3498db" />
    <line x1="280" y1="26.5" x2="292" y2="26.5" stroke="#3498db" stroke-width="2" />
    <text x="296" y="30" class="chart-text" font-size="10" font-family="-apple-system, BlinkMacSystemFont, 'Segoe UI', Helvetica, Arial, sans-serif">fbuireu-cli</text>
    <rect x="400" y="25" width="12" height="3" fill="#9b59b6" />
    <line x1="400" y1="26.5" x2="412" y2="26.5" stroke="#9b59b6" stroke-width="2" />
    <text x="416" y="30" class="chart-text" font-size="10" font-family="-apple-system, BlinkMacSystemFont, 'Segoe UI', Helvetica, Arial, sans-serif">email-signature</text>
    <rect x="520" y="25" width="12" height="3" fill="#e67e22" />
    <line x1="520" y1="26.5" x2="532" y2="26.5" stroke="#e67e22" stroke-width="2" />
    <text x="536" y="30" class="chart-text" font-size="10" font-family="-apple-system, BlinkMacSystemFont, 'Segoe UI', Helvetica, Arial, sans-serif">forever-pto</text>
    <rect x="640" y="25" width="12" height="3" fill="#1abc9c" />
    <line x1="640" y1="26.5" x2="652" y2="26.5" stroke="#1abc9c" stroke-width="2" />
    <text x="656" y="30" class="chart-text" font-size="10" font-family="-apple-system, BlinkMacSystemFont, 'Segoe UI', Helvetica, Arial, sans-serif">github-star-tracker</text>
    <rect x="760" y="25" width="12" height="3" fill="#e84393" />
    <line x1="760" y1="26.5" x2="772" y2="26.5" stroke="#e84393" stroke-width="2" />
    <text x="776" y="30" class="chart-text" font-size="10" font-family="-apple-system, BlinkMacSystemFont, 'Segoe UI', Helvetica, Arial, sans-serif">hashnode-articles-backup</text>
  </g>
  <g class="grid">
    <line x1="60" y1="350" x2="770" y2="350" class="chart-grid" stroke-opacity="0.3" />
    <text x="52" y="354" text-anchor="end" class="chart-muted" font-size="11" font-family="-apple-system, BlinkMacSystemFont, 'Segoe UI', Helvetica, Arial, sans-serif">0</text>
    <line x1="60" y1="275" x2="770" y2="275" class="chart-grid" stroke-opacity="0.3" />
    <text x="52" y="279" text-anchor="end" class="chart-muted" font-size="11" font-family="-apple-system, BlinkMacSystemFont, 'Segoe UI', Helvetica, Arial, sans-serif">2</text>
    <line x1="60" y1="200" x2="770" y2="200" class="chart-grid" stroke-opacity="0.3" />
    <text x="52" y="204" text-anchor="end" class="chart-muted" font-size="11" font-family="-apple-system, BlinkMacSystemFont, 'Segoe UI', Helvetica, Arial, sans-serif">4</text>
    <line x1="60" y1="125" x2="770" y2="125" class="chart-grid" stroke-opacity="0.3" />
    <text x="52" y="129" text-anchor="end" class="chart-muted" font-size="11" font-family="-apple-system, BlinkMacSystemFont, 'Segoe UI', Helvetica, Arial, sans-serif">6</text>
    <line x1="60" y1="50" x2="770" y2="50" class="chart-grid" stroke-opacity="0.3" />
    <text x="52" y="54" text-anchor="end" class="chart-muted" font-size="11" font-family="-apple-system, BlinkMacSystemFont, 'Segoe UI', Helvetica, Arial, sans-serif">8</text>
  </g>
  <g class="milestones">
    
  </g>
  <g class="x-axis">
    <text x="60" y="370" text-anchor="middle" class="chart-muted" font-size="11" font-family="-apple-system, BlinkMacSystemFont, 'Segoe UI', Helvetica, Arial, sans-serif">Feb 13</text>
    <text x="138.88888888888889" y="370" text-anchor="middle" class="chart-muted" font-size="11" font-family="-apple-system, BlinkMacSystemFont, 'Segoe UI', Helvetica, Arial, sans-serif">Feb 13</text>
    <text x="217.77777777777777" y="370" text-anchor="middle" class="chart-muted" font-size="11" font-family="-apple-system, BlinkMacSystemFont, 'Segoe UI', Helvetica, Arial, sans-serif">Feb 13</text>
    <text x="296.66666666666663" y="370" text-anchor="middle" class="chart-muted" font-size="11" font-family="-apple-system, BlinkMacSystemFont, 'Segoe UI', Helvetica, Arial, sans-serif">Feb 13</text>
    <text x="375.55555555555554" y="370" text-anchor="middle" class="chart-muted" font-size="11" font-family="-apple-system, BlinkMacSystemFont, 'Segoe UI', Helvetica, Arial, sans-serif">Feb 14</text>
    <text x="454.44444444444446" y="370" text-anchor="middle" class="chart-muted" font-size="11" font-family="-apple-system, BlinkMacSystemFont, 'Segoe UI', Helvetica, Arial, sans-serif">Feb 15</text>
    <text x="533.3333333333333" y="370" text-anchor="middle" class="chart-muted" font-size="11" font-family="-apple-system, BlinkMacSystemFont, 'Segoe UI', Helvetica, Arial, sans-serif">Feb 15</text>
    <text x="612.2222222222223" y="370" text-anchor="middle" class="chart-muted" font-size="11" font-family="-apple-system, BlinkMacSystemFont, 'Segoe UI', Helvetica, Arial, sans-serif">Mar 1</text>
    <text x="691.1111111111111" y="370" text-anchor="middle" class="chart-muted" font-size="11" font-family="-apple-system, BlinkMacSystemFont, 'Segoe UI', Helvetica, Arial, sans-serif">Mar 15</text>
    <text x="770" y="370" text-anchor="middle" class="chart-muted" font-size="11" font-family="-apple-system, BlinkMacSystemFont, 'Segoe UI', Helvetica, Arial, sans-serif">Mar 29</text>
  </g>
  <line x1="60" y1="50" x2="60" y2="350" class="chart-axis" stroke-width="1" />
  <line x1="60" y1="350" x2="770" y2="350" class="chart-axis" stroke-width="1" />
  
  
  
  
  
  
  
  
  <path d="M60,87.5 C65.25925925925927,87.5 88.92592592592592,87.5 99.44444444444444,87.5 C109.96296296296296,87.5 128.37037037037038,87.5 138.88888888888889,87.5 C149.4074074074074,87.5 167.81481481481478,87.5 178.33333333333331,87.5 C188.85185185185185,87.5 207.25925925925924,87.5 217.77777777777777,87.5 C228.2962962962963,87.5 246.70370370370372,87.5 257.22222222222223,87.5 C267.74074074074076,87.5 286.1481481481481,87.5 296.66666666666663,87.5 C307.18518518518516,87.5 325.5925925925926,87.5 336.11111111111114,87.5 C346.6296296296297,87.5 365.037037037037,87.5 375.55555555555554,87.5 C386.0740740740741,87.5 404.48148148148147,87.5 415,87.5 C425.51851851851853,87.5 443.9259259259259,87.5 454.44444444444446,87.5 C464.962962962963,87.5 483.3703703703704,87.5 493.8888888888889,87.5 C504.40740740740745,87.5 522.8148148148148,87.5 533.3333333333333,87.5 C543.8518518518517,87.5 562.2592592592591,87.5 572.7777777777777,87.5 C583.2962962962963,87.5 601.7037037037037,87.5 612.2222222222223,87.5 C622.7407407407409,87.5 641.1481481481483,87.5 651.6666666666667,87.5 C662.1851851851852,87.5 680.5925925925926,87.5 691.1111111111111,87.5 C701.6296296296296,87.5 720.0370370370371,87.5 730.5555555555555,87.5 C741.074074074074,87.5 764.7407407407408,87.5 770,87.5" fill="none" stroke="#dfb317" stroke-width="2.5" class="data-line-0" />
  <path d="M60,162.5 C65.25925925925927,162.5 88.92592592592592,162.5 99.44444444444444,162.5 C109.96296296296296,162.5 128.37037037037038,162.5 138.88888888888889,162.5 C149.4074074074074,162.5 167.81481481481478,162.5 178.33333333333331,162.5 C188.85185185185185,162.5 207.25925925925924,162.5 217.77777777777777,162.5 C228.2962962962963,162.5 246.70370370370372,162.5 257.22222222222223,162.5 C267.74074074074076,162.5 286.1481481481481,162.5 296.66666666666663,162.5 C307.18518518518516,162.5 325.5925925925926,162.5 336.11111111111114,162.5 C346.6296296296297,162.5 365.037037037037,162.5 375.55555555555554,162.5 C386.0740740740741,162.5 404.48148148148147,162.5 415,162.5 C425.51851851851853,162.5 443.9259259259259,162.5 454.44444444444446,162.5 C464.962962962963,162.5 483.3703703703704,162.5 493.8888888888889,162.5 C504.40740740740745,162.5 522.8148148148148,162.5 533.3333333333333,162.5 C543.8518518518517,162.5 562.2592592592591,162.5 572.7777777777777,162.5 C583.2962962962963,162.5 601.7037037037037,162.5 612.2222222222223,162.5 C622.7407407407409,162.5 641.1481481481483,162.5 651.6666666666667,162.5 C662.1851851851852,162.5 680.5925925925926,162.5 691.1111111111111,162.5 C701.6296296296296,162.5 720.0370370370371,162.5 730.5555555555555,162.5 C741.074074074074,162.5 764.7407407407408,162.5 770,162.5" fill="none" stroke="#28a745" stroke-width="2.5" class="data-line-1" />
  <path d="M60,312.5 C65.25925925925927,312.5 88.92592592592592,312.5 99.44444444444444,312.5 C109.96296296296296,312.5 128.37037037037038,312.5 138.88888888888889,312.5 C149.4074074074074,312.5 167.81481481481478,312.5 178.33333333333331,312.5 C188.85185185185185,312.5 207.25925925925924,312.5 217.77777777777777,312.5 C228.2962962962963,312.5 246.70370370370372,312.5 257.22222222222223,312.5 C267.74074074074076,312.5 286.1481481481481,312.5 296.66666666666663,312.5 C307.18518518518516,312.5 325.5925925925926,312.5 336.11111111111114,312.5 C346.6296296296297,312.5 365.037037037037,312.5 375.55555555555554,312.5 C386.0740740740741,312.5 404.48148148148147,312.5 415,312.5 C425.51851851851853,312.5 443.9259259259259,312.5 454.44444444444446,312.5 C464.962962962963,312.5 483.3703703703704,312.5 493.8888888888889,312.5 C504.40740740740745,312.5 522.8148148148148,312.5 533.3333333333333,312.5 C543.8518518518517,312.5 562.2592592592591,312.5 572.7777777777777,312.5 C583.2962962962963,312.5 601.7037037037037,312.5 612.2222222222223,312.5 C622.7407407407409,312.5 641.1481481481483,312.5 651.6666666666667,312.5 C662.1851851851852,312.5 680.5925925925926,312.5 691.1111111111111,312.5 C701.6296296296296,312.5 720.0370370370371,312.5 730.5555555555555,312.5 C741.074074074074,312.5 764.7407407407408,312.5 770,312.5" fill="none" stroke="#e74c3c" stroke-width="2.5" class="data-line-2" />
  <path d="M60,312.5 C65.25925925925927,312.5 88.92592592592592,312.5 99.44444444444444,312.5 C109.96296296296296,312.5 128.37037037037038,312.5 138.88888888888889,312.5 C149.4074074074074,312.5 167.81481481481478,312.5 178.33333333333331,312.5 C188.85185185185185,312.5 207.25925925925924,312.5 217.77777777777777,312.5 C228.2962962962963,312.5 246.70370370370372,312.5 257.22222222222223,312.5 C267.74074074074076,312.5 286.1481481481481,312.5 296.66666666666663,312.5 C307.18518518518516,312.5 325.5925925925926,312.5 336.11111111111114,312.5 C346.6296296296297,312.5 365.037037037037,312.5 375.55555555555554,312.5 C386.0740740740741,312.5 404.48148148148147,312.5 415,312.5 C425.51851851851853,312.5 443.9259259259259,312.5 454.44444444444446,312.5 C464.962962962963,312.5 483.3703703703704,312.5 493.8888888888889,312.5 C504.40740740740745,312.5 522.8148148148148,312.5 533.3333333333333,312.5 C543.8518518518517,312.5 562.2592592592591,312.5 572.7777777777777,312.5 C583.2962962962963,312.5 601.7037037037037,312.5 612.2222222222223,312.5 C622.7407407407409,312.5 641.1481481481483,312.5 651.6666666666667,312.5 C662.1851851851852,312.5 680.5925925925926,312.5 691.1111111111111,312.5 C701.6296296296296,312.5 720.0370370370371,312.5 730.5555555555555,312.5 C741.074074074074,312.5 764.7407407407408,312.5 770,312.5" fill="none" stroke="#3498db" stroke-width="2.5" class="data-line-3" />
  <path d="M60,350 C65.25925925925927,350 88.92592592592592,350 99.44444444444444,350 C109.96296296296296,350 128.37037037037038,350 138.88888888888889,350 C149.4074074074074,350 167.81481481481478,350 178.33333333333331,350 C188.85185185185185,350 207.25925925925924,350 217.77777777777777,350 C228.2962962962963,350 246.70370370370372,350 257.22222222222223,350 C267.74074074074076,350 286.1481481481481,350 296.66666666666663,350 C307.18518518518516,350 325.5925925925926,350 336.11111111111114,350 C346.6296296296297,350 365.037037037037,350 375.55555555555554,350 C386.0740740740741,350 404.48148148148147,350 415,350 C425.51851851851853,350 443.9259259259259,350 454.44444444444446,350 C464.962962962963,350 483.3703703703704,350 493.8888888888889,350 C504.40740740740745,350 522.8148148148148,350 533.3333333333333,350 C543.8518518518517,350 562.2592592592591,350 572.7777777777777,350 C583.2962962962963,350 601.7037037037037,350 612.2222222222223,350 C622.7407407407409,350 641.1481481481483,350 651.6666666666667,350 C662.1851851851852,350 680.5925925925926,350 691.1111111111111,350 C701.6296296296296,350 720.0370370370371,350 730.5555555555555,350 C741.074074074074,350 764.7407407407408,350 770,350" fill="none" stroke="#9b59b6" stroke-width="2.5" class="data-line-4" />
  <path d="M60,350 C65.25925925925927,350 88.92592592592592,350 99.44444444444444,350 C109.96296296296296,350 128.37037037037038,350 138.88888888888889,350 C149.4074074074074,350 167.81481481481478,350 178.33333333333331,350 C188.85185185185185,350 207.25925925925924,350 217.77777777777777,350 C228.2962962962963,350 246.70370370370372,350 257.22222222222223,350 C267.74074074074076,350 286.1481481481481,350 296.66666666666663,350 C307.18518518518516,350 325.5925925925926,350 336.11111111111114,350 C346.6296296296297,350 365.037037037037,350 375.55555555555554,350 C386.0740740740741,350 404.48148148148147,350 415,350 C425.51851851851853,350 443.9259259259259,350 454.44444444444446,350 C464.962962962963,350 483.3703703703704,350 493.8888888888889,350 C504.40740740740745,350 522.8148148148148,350 533.3333333333333,350 C543.8518518518517,350 562.2592592592591,350 572.7777777777777,350 C583.2962962962963,350 601.7037037037037,350 612.2222222222223,350 C622.7407407407409,350 641.1481481481483,350 651.6666666666667,350 C662.1851851851852,350 680.5925925925926,350 691.1111111111111,350 C701.6296296296296,350 720.0370370370371,350 730.5555555555555,350 C741.074074074074,350 764.7407407407408,350 770,350" fill="none" stroke="#e67e22" stroke-width="2.5" class="data-line-5" />
  <path d="M60,312.5 C65.25925925925927,312.5 88.92592592592592,312.5 99.44444444444444,312.5 C109.96296296296296,312.5 128.37037037037038,312.5 138.88888888888889,312.5 C149.4074074074074,312.5 167.81481481481478,312.5 178.33333333333331,312.5 C188.85185185185185,312.5 207.25925925925924,312.5 217.77777777777777,312.5 C228.2962962962963,312.5 246.70370370370372,312.5 257.22222222222223,312.5 C267.74074074074076,312.5 286.1481481481481,312.5 296.66666666666663,312.5 C307.18518518518516,312.5 325.5925925925926,312.5 336.11111111111114,312.5 C346.6296296296297,312.5 365.037037037037,312.5 375.55555555555554,312.5 C386.0740740740741,312.5 404.48148148148147,312.5 415,312.5 C425.51851851851853,312.5 443.9259259259259,307.5 454.44444444444446,312.5 C464.962962962963,317.5 483.3703703703704,345 493.8888888888889,350 C504.40740740740745,355 522.8148148148148,355 533.3333333333333,350 C543.8518518518517,345 562.2592592592591,312.5 572.7777777777777,312.5 C583.2962962962963,312.5 601.7037037037037,345 612.2222222222223,350 C622.7407407407409,355 641.1481481481483,350 651.6666666666667,350 C662.1851851851852,350 680.5925925925926,350 691.1111111111111,350 C701.6296296296296,350 720.0370370370371,350 730.5555555555555,350 C741.074074074074,350 764.7407407407408,350 770,350" fill="none" stroke="#1abc9c" stroke-width="2.5" class="data-line-6" />
  <path d="M60,350 C65.25925925925927,350 88.92592592592592,350 99.44444444444444,350 C109.96296296296296,350 128.37037037037038,350 138.88888888888889,350 C149.4074074074074,350 167.81481481481478,350 178.33333333333331,350 C188.85185185185185,350 207.25925925925924,350 217.77777777777777,350 C228.2962962962963,350 246.70370370370372,350 257.22222222222223,350 C267.74074074074076,350 286.1481481481481,350 296.66666666666663,350 C307.18518518518516,350 325.5925925925926,350 336.11111111111114,350 C346.6296296296297,350 365.037037037037,350 375.55555555555554,350 C386.0740740740741,350 404.48148148148147,350 415,350 C425.51851851851853,350 443.9259259259259,350 454.44444444444446,350 C464.962962962963,350 483.3703703703704,350 493.8888888888889,350 C504.40740740740745,350 522.8148148148148,350 533.3333333333333,350 C543.8518518518517,350 562.2592592592591,350 572.7777777777777,350 C583.2962962962963,350 601.7037037037037,350 612.2222222222223,350 C622.7407407407409,350 641.1481481481483,350 651.6666666666667,350 C662.1851851851852,350 680.5925925925926,350 691.1111111111111,350 C701.6296296296296,350 720.0370370370371,350 730.5555555555555,350 C741.074074074074,350 764.7407407407408,350 770,350" fill="none" stroke="#e84393" stroke-width="2.5" class="data-line-7" />
  <g class="points">
    
    <circle cx="60" cy="87.5" r="4" fill="#dfb317" class="data-point" style="animation-delay: 1.50s" />
    <circle cx="99.44444444444444" cy="87.5" r="4" fill="#dfb317" class="data-point" style="animation-delay: 1.55s" />
    <circle cx="138.88888888888889" cy="87.5" r="4" fill="#dfb317" class="data-point" style="animation-delay: 1.60s" />
    <circle cx="178.33333333333331" cy="87.5" r="4" fill="#dfb317" class="data-point" style="animation-delay: 1.65s" />
    <circle cx="217.77777777777777" cy="87.5" r="4" fill="#dfb317" class="data-point" style="animation-delay: 1.70s" />
    <circle cx="257.22222222222223" cy="87.5" r="4" fill="#dfb317" class="data-point" style="animation-delay: 1.75s" />
    <circle cx="296.66666666666663" cy="87.5" r="4" fill="#dfb317" class="data-point" style="animation-delay: 1.80s" />
    <circle cx="336.11111111111114" cy="87.5" r="4" fill="#dfb317" class="data-point" style="animation-delay: 1.85s" />
    <circle cx="375.55555555555554" cy="87.5" r="4" fill="#dfb317" class="data-point" style="animation-delay: 1.90s" />
    <circle cx="415" cy="87.5" r="4" fill="#dfb317" class="data-point" style="animation-delay: 1.95s" />
    <circle cx="454.44444444444446" cy="87.5" r="4" fill="#dfb317" class="data-point" style="animation-delay: 2.00s" />
    <circle cx="493.8888888888889" cy="87.5" r="4" fill="#dfb317" class="data-point" style="animation-delay: 2.05s" />
    <circle cx="533.3333333333333" cy="87.5" r="4" fill="#dfb317" class="data-point" style="animation-delay: 2.10s" />
    <circle cx="572.7777777777777" cy="87.5" r="4" fill="#dfb317" class="data-point" style="animation-delay: 2.15s" />
    <circle cx="612.2222222222223" cy="87.5" r="4" fill="#dfb317" class="data-point" style="animation-delay: 2.20s" />
    <circle cx="651.6666666666667" cy="87.5" r="4" fill="#dfb317" class="data-point" style="animation-delay: 2.25s" />
    <circle cx="691.1111111111111" cy="87.5" r="4" fill="#dfb317" class="data-point" style="animation-delay: 2.30s" />
    <circle cx="730.5555555555555" cy="87.5" r="4" fill="#dfb317" class="data-point" style="animation-delay: 2.35s" />
    <circle cx="770" cy="87.5" r="4" fill="#dfb317" class="data-point" style="animation-delay: 2.40s" />
    
    <circle cx="60" cy="162.5" r="4" fill="#28a745" class="data-point" style="animation-delay: 1.50s" />
    <circle cx="99.44444444444444" cy="162.5" r="4" fill="#28a745" class="data-point" style="animation-delay: 1.55s" />
    <circle cx="138.88888888888889" cy="162.5" r="4" fill="#28a745" class="data-point" style="animation-delay: 1.60s" />
    <circle cx="178.33333333333331" cy="162.5" r="4" fill="#28a745" class="data-point" style="animation-delay: 1.65s" />
    <circle cx="217.77777777777777" cy="162.5" r="4" fill="#28a745" class="data-point" style="animation-delay: 1.70s" />
    <circle cx="257.22222222222223" cy="162.5" r="4" fill="#28a745" class="data-point" style="animation-delay: 1.75s" />
    <circle cx="296.66666666666663" cy="162.5" r="4" fill="#28a745" class="data-point" style="animation-delay: 1.80s" />
    <circle cx="336.11111111111114" cy="162.5" r="4" fill="#28a745" class="data-point" style="animation-delay: 1.85s" />
    <circle cx="375.55555555555554" cy="162.5" r="4" fill="#28a745" class="data-point" style="animation-delay: 1.90s" />
    <circle cx="415" cy="162.5" r="4" fill="#28a745" class="data-point" style="animation-delay: 1.95s" />
    <circle cx="454.44444444444446" cy="162.5" r="4" fill="#28a745" class="data-point" style="animation-delay: 2.00s" />
    <circle cx="493.8888888888889" cy="162.5" r="4" fill="#28a745" class="data-point" style="animation-delay: 2.05s" />
    <circle cx="533.3333333333333" cy="162.5" r="4" fill="#28a745" class="data-point" style="animation-delay: 2.10s" />
    <circle cx="572.7777777777777" cy="162.5" r="4" fill="#28a745" class="data-point" style="animation-delay: 2.15s" />
    <circle cx="612.2222222222223" cy="162.5" r="4" fill="#28a745" class="data-point" style="animation-delay: 2.20s" />
    <circle cx="651.6666666666667" cy="162.5" r="4" fill="#28a745" class="data-point" style="animation-delay: 2.25s" />
    <circle cx="691.1111111111111" cy="162.5" r="4" fill="#28a745" class="data-point" style="animation-delay: 2.30s" />
    <circle cx="730.5555555555555" cy="162.5" r="4" fill="#28a745" class="data-point" style="animation-delay: 2.35s" />
    <circle cx="770" cy="162.5" r="4" fill="#28a745" class="data-point" style="animation-delay: 2.40s" />
    
    <circle cx="60" cy="312.5" r="4" fill="#e74c3c" class="data-point" style="animation-delay: 1.50s" />
    <circle cx="99.44444444444444" cy="312.5" r="4" fill="#e74c3c" class="data-point" style="animation-delay: 1.55s" />
    <circle cx="138.88888888888889" cy="312.5" r="4" fill="#e74c3c" class="data-point" style="animation-delay: 1.60s" />
    <circle cx="178.33333333333331" cy="312.5" r="4" fill="#e74c3c" class="data-point" style="animation-delay: 1.65s" />
    <circle cx="217.77777777777777" cy="312.5" r="4" fill="#e74c3c" class="data-point" style="animation-delay: 1.70s" />
    <circle cx="257.22222222222223" cy="312.5" r="4" fill="#e74c3c" class="data-point" style="animation-delay: 1.75s" />
    <circle cx="296.66666666666663" cy="312.5" r="4" fill="#e74c3c" class="data-point" style="animation-delay: 1.80s" />
    <circle cx="336.11111111111114" cy="312.5" r="4" fill="#e74c3c" class="data-point" style="animation-delay: 1.85s" />
    <circle cx="375.55555555555554" cy="312.5" r="4" fill="#e74c3c" class="data-point" style="animation-delay: 1.90s" />
    <circle cx="415" cy="312.5" r="4" fill="#e74c3c" class="data-point" style="animation-delay: 1.95s" />
    <circle cx="454.44444444444446" cy="312.5" r="4" fill="#e74c3c" class="data-point" style="animation-delay: 2.00s" />
    <circle cx="493.8888888888889" cy="312.5" r="4" fill="#e74c3c" class="data-point" style="animation-delay: 2.05s" />
    <circle cx="533.3333333333333" cy="312.5" r="4" fill="#e74c3c" class="data-point" style="animation-delay: 2.10s" />
    <circle cx="572.7777777777777" cy="312.5" r="4" fill="#e74c3c" class="data-point" style="animation-delay: 2.15s" />
    <circle cx="612.2222222222223" cy="312.5" r="4" fill="#e74c3c" class="data-point" style="animation-delay: 2.20s" />
    <circle cx="651.6666666666667" cy="312.5" r="4" fill="#e74c3c" class="data-point" style="animation-delay: 2.25s" />
    <circle cx="691.1111111111111" cy="312.5" r="4" fill="#e74c3c" class="data-point" style="animation-delay: 2.30s" />
    <circle cx="730.5555555555555" cy="312.5" r="4" fill="#e74c3c" class="data-point" style="animation-delay: 2.35s" />
    <circle cx="770" cy="312.5" r="4" fill="#e74c3c" class="data-point" style="animation-delay: 2.40s" />
    
    <circle cx="60" cy="312.5" r="4" fill="#3498db" class="data-point" style="animation-delay: 1.50s" />
    <circle cx="99.44444444444444" cy="312.5" r="4" fill="#3498db" class="data-point" style="animation-delay: 1.55s" />
    <circle cx="138.88888888888889" cy="312.5" r="4" fill="#3498db" class="data-point" style="animation-delay: 1.60s" />
    <circle cx="178.33333333333331" cy="312.5" r="4" fill="#3498db" class="data-point" style="animation-delay: 1.65s" />
    <circle cx="217.77777777777777" cy="312.5" r="4" fill="#3498db" class="data-point" style="animation-delay: 1.70s" />
    <circle cx="257.22222222222223" cy="312.5" r="4" fill="#3498db" class="data-point" style="animation-delay: 1.75s" />
    <circle cx="296.66666666666663" cy="312.5" r="4" fill="#3498db" class="data-point" style="animation-delay: 1.80s" />
    <circle cx="336.11111111111114" cy="312.5" r="4" fill="#3498db" class="data-point" style="animation-delay: 1.85s" />
    <circle cx="375.55555555555554" cy="312.5" r="4" fill="#3498db" class="data-point" style="animation-delay: 1.90s" />
    <circle cx="415" cy="312.5" r="4" fill="#3498db" class="data-point" style="animation-delay: 1.95s" />
    <circle cx="454.44444444444446" cy="312.5" r="4" fill="#3498db" class="data-point" style="animation-delay: 2.00s" />
    <circle cx="493.8888888888889" cy="312.5" r="4" fill="#3498db" class="data-point" style="animation-delay: 2.05s" />
    <circle cx="533.3333333333333" cy="312.5" r="4" fill="#3498db" class="data-point" style="animation-delay: 2.10s" />
    <circle cx="572.7777777777777" cy="312.5" r="4" fill="#3498db" class="data-point" style="animation-delay: 2.15s" />
    <circle cx="612.2222222222223" cy="312.5" r="4" fill="#3498db" class="data-point" style="animation-delay: 2.20s" />
    <circle cx="651.6666666666667" cy="312.5" r="4" fill="#3498db" class="data-point" style="animation-delay: 2.25s" />
    <circle cx="691.1111111111111" cy="312.5" r="4" fill="#3498db" class="data-point" style="animation-delay: 2.30s" />
    <circle cx="730.5555555555555" cy="312.5" r="4" fill="#3498db" class="data-point" style="animation-delay: 2.35s" />
    <circle cx="770" cy="312.5" r="4" fill="#3498db" class="data-point" style="animation-delay: 2.40s" />
    
    <circle cx="60" cy="350" r="4" fill="#9b59b6" class="data-point" style="animation-delay: 1.50s" />
    <circle cx="99.44444444444444" cy="350" r="4" fill="#9b59b6" class="data-point" style="animation-delay: 1.55s" />
    <circle cx="138.88888888888889" cy="350" r="4" fill="#9b59b6" class="data-point" style="animation-delay: 1.60s" />
    <circle cx="178.33333333333331" cy="350" r="4" fill="#9b59b6" class="data-point" style="animation-delay: 1.65s" />
    <circle cx="217.77777777777777" cy="350" r="4" fill="#9b59b6" class="data-point" style="animation-delay: 1.70s" />
    <circle cx="257.22222222222223" cy="350" r="4" fill="#9b59b6" class="data-point" style="animation-delay: 1.75s" />
    <circle cx="296.66666666666663" cy="350" r="4" fill="#9b59b6" class="data-point" style="animation-delay: 1.80s" />
    <circle cx="336.11111111111114" cy="350" r="4" fill="#9b59b6" class="data-point" style="animation-delay: 1.85s" />
    <circle cx="375.55555555555554" cy="350" r="4" fill="#9b59b6" class="data-point" style="animation-delay: 1.90s" />
    <circle cx="415" cy="350" r="4" fill="#9b59b6" class="data-point" style="animation-delay: 1.95s" />
    <circle cx="454.44444444444446" cy="350" r="4" fill="#9b59b6" class="data-point" style="animation-delay: 2.00s" />
    <circle cx="493.8888888888889" cy="350" r="4" fill="#9b59b6" class="data-point" style="animation-delay: 2.05s" />
    <circle cx="533.3333333333333" cy="350" r="4" fill="#9b59b6" class="data-point" style="animation-delay: 2.10s" />
    <circle cx="572.7777777777777" cy="350" r="4" fill="#9b59b6" class="data-point" style="animation-delay: 2.15s" />
    <circle cx="612.2222222222223" cy="350" r="4" fill="#9b59b6" class="data-point" style="animation-delay: 2.20s" />
    <circle cx="651.6666666666667" cy="350" r="4" fill="#9b59b6" class="data-point" style="animation-delay: 2.25s" />
    <circle cx="691.1111111111111" cy="350" r="4" fill="#9b59b6" class="data-point" style="animation-delay: 2.30s" />
    <circle cx="730.5555555555555" cy="350" r="4" fill="#9b59b6" class="data-point" style="animation-delay: 2.35s" />
    <circle cx="770" cy="350" r="4" fill="#9b59b6" class="data-point" style="animation-delay: 2.40s" />
    
    <circle cx="60" cy="350" r="4" fill="#e67e22" class="data-point" style="animation-delay: 1.50s" />
    <circle cx="99.44444444444444" cy="350" r="4" fill="#e67e22" class="data-point" style="animation-delay: 1.55s" />
    <circle cx="138.88888888888889" cy="350" r="4" fill="#e67e22" class="data-point" style="animation-delay: 1.60s" />
    <circle cx="178.33333333333331" cy="350" r="4" fill="#e67e22" class="data-point" style="animation-delay: 1.65s" />
    <circle cx="217.77777777777777" cy="350" r="4" fill="#e67e22" class="data-point" style="animation-delay: 1.70s" />
    <circle cx="257.22222222222223" cy="350" r="4" fill="#e67e22" class="data-point" style="animation-delay: 1.75s" />
    <circle cx="296.66666666666663" cy="350" r="4" fill="#e67e22" class="data-point" style="animation-delay: 1.80s" />
    <circle cx="336.11111111111114" cy="350" r="4" fill="#e67e22" class="data-point" style="animation-delay: 1.85s" />
    <circle cx="375.55555555555554" cy="350" r="4" fill="#e67e22" class="data-point" style="animation-delay: 1.90s" />
    <circle cx="415" cy="350" r="4" fill="#e67e22" class="data-point" style="animation-delay: 1.95s" />
    <circle cx="454.44444444444446" cy="350" r="4" fill="#e67e22" class="data-point" style="animation-delay: 2.00s" />
    <circle cx="493.8888888888889" cy="350" r="4" fill="#e67e22" class="data-point" style="animation-delay: 2.05s" />
    <circle cx="533.3333333333333" cy="350" r="4" fill="#e67e22" class="data-point" style="animation-delay: 2.10s" />
    <circle cx="572.7777777777777" cy="350" r="4" fill="#e67e22" class="data-point" style="animation-delay: 2.15s" />
    <circle cx="612.2222222222223" cy="350" r="4" fill="#e67e22" class="data-point" style="animation-delay: 2.20s" />
    <circle cx="651.6666666666667" cy="350" r="4" fill="#e67e22" class="data-point" style="animation-delay: 2.25s" />
    <circle cx="691.1111111111111" cy="350" r="4" fill="#e67e22" class="data-point" style="animation-delay: 2.30s" />
    <circle cx="730.5555555555555" cy="350" r="4" fill="#e67e22" class="data-point" style="animation-delay: 2.35s" />
    <circle cx="770" cy="350" r="4" fill="#e67e22" class="data-point" style="animation-delay: 2.40s" />
    
    <circle cx="60" cy="312.5" r="4" fill="#1abc9c" class="data-point" style="animation-delay: 1.50s" />
    <circle cx="99.44444444444444" cy="312.5" r="4" fill="#1abc9c" class="data-point" style="animation-delay: 1.55s" />
    <circle cx="138.88888888888889" cy="312.5" r="4" fill="#1abc9c" class="data-point" style="animation-delay: 1.60s" />
    <circle cx="178.33333333333331" cy="312.5" r="4" fill="#1abc9c" class="data-point" style="animation-delay: 1.65s" />
    <circle cx="217.77777777777777" cy="312.5" r="4" fill="#1abc9c" class="data-point" style="animation-delay: 1.70s" />
    <circle cx="257.22222222222223" cy="312.5" r="4" fill="#1abc9c" class="data-point" style="animation-delay: 1.75s" />
    <circle cx="296.66666666666663" cy="312.5" r="4" fill="#1abc9c" class="data-point" style="animation-delay: 1.80s" />
    <circle cx="336.11111111111114" cy="312.5" r="4" fill="#1abc9c" class="data-point" style="animation-delay: 1.85s" />
    <circle cx="375.55555555555554" cy="312.5" r="4" fill="#1abc9c" class="data-point" style="animation-delay: 1.90s" />
    <circle cx="415" cy="312.5" r="4" fill="#1abc9c" class="data-point" style="animation-delay: 1.95s" />
    <circle cx="454.44444444444446" cy="312.5" r="4" fill="#1abc9c" class="data-point" style="animation-delay: 2.00s" />
    <circle cx="493.8888888888889" cy="350" r="4" fill="#1abc9c" class="data-point" style="animation-delay: 2.05s" />
    <circle cx="533.3333333333333" cy="350" r="4" fill="#1abc9c" class="data-point" style="animation-delay: 2.10s" />
    <circle cx="572.7777777777777" cy="312.5" r="4" fill="#1abc9c" class="data-point" style="animation-delay: 2.15s" />
    <circle cx="612.2222222222223" cy="350" r="4" fill="#1abc9c" class="data-point" style="animation-delay: 2.20s" />
    <circle cx="651.6666666666667" cy="350" r="4" fill="#1abc9c" class="data-point" style="animation-delay: 2.25s" />
    <circle cx="691.1111111111111" cy="350" r="4" fill="#1abc9c" class="data-point" style="animation-delay: 2.30s" />
    <circle cx="730.5555555555555" cy="350" r="4" fill="#1abc9c" class="data-point" style="animation-delay: 2.35s" />
    <circle cx="770" cy="350" r="4" fill="#1abc9c" class="data-point" style="animation-delay: 2.40s" />
    
    <circle cx="60" cy="350" r="4" fill="#e84393" class="data-point" style="animation-delay: 1.50s" />
    <circle cx="99.44444444444444" cy="350" r="4" fill="#e84393" class="data-point" style="animation-delay: 1.55s" />
    <circle cx="138.88888888888889" cy="350" r="4" fill="#e84393" class="data-point" style="animation-delay: 1.60s" />
    <circle cx="178.33333333333331" cy="350" r="4" fill="#e84393" class="data-point" style="animation-delay: 1.65s" />
    <circle cx="217.77777777777777" cy="350" r="4" fill="#e84393" class="data-point" style="animation-delay: 1.70s" />
    <circle cx="257.22222222222223" cy="350" r="4" fill="#e84393" class="data-point" style="animation-delay: 1.75s" />
    <circle cx="296.66666666666663" cy="350" r="4" fill="#e84393" class="data-point" style="animation-delay: 1.80s" />
    <circle cx="336.11111111111114" cy="350" r="4" fill="#e84393" class="data-point" style="animation-delay: 1.85s" />
    <circle cx="375.55555555555554" cy="350" r="4" fill="#e84393" class="data-point" style="animation-delay: 1.90s" />
    <circle cx="415" cy="350" r="4" fill="#e84393" class="data-point" style="animation-delay: 1.95s" />
    <circle cx="454.44444444444446" cy="350" r="4" fill="#e84393" class="data-point" style="animation-delay: 2.00s" />
    <circle cx="493.8888888888889" cy="350" r="4" fill="#e84393" class="data-point" style="animation-delay: 2.05s" />
    <circle cx="533.3333333333333" cy="350" r="4" fill="#e84393" class="data-point" style="animation-delay: 2.10s" />
    <circle cx="572.7777777777777" cy="350" r="4" fill="#e84393" class="data-point" style="animation-delay: 2.15s" />
    <circle cx="612.2222222222223" cy="350" r="4" fill="#e84393" class="data-point" style="animation-delay: 2.20s" />
    <circle cx="651.6666666666667" cy="350" r="4" fill="#e84393" class="data-point" style="animation-delay: 2.25s" />
    <circle cx="691.1111111111111" cy="350" r="4" fill="#e84393" class="data-point" style="animation-delay: 2.30s" />
    <circle cx="730.5555555555555" cy="350" r="4" fill="#e84393" class="data-point" style="animation-delay: 2.35s" />
    <circle cx="770" cy="350" r="4" fill="#e84393" class="data-point" style="animation-delay: 2.40s" />
  </g>
</svg>