<svg xmlns="http://www.w3.org/2000/svg" viewBox="0 0 800 400" width="800" height="400">
  <style>
    @keyframes drawLine {
      to { stroke-dashoffset: 0; }
    }
    @keyframes fadeInPoint {
      from { opacity: 0; }
      to { opacity: 1; }
    }
    .data-line-0 {
      stroke-dasharray: 1065;
      stroke-dashoffset: 1065;
      animation: drawLine 2s ease-out forwards;
    }
    .data-line-1 {
      stroke-dasharray: 1065;
      stroke-dashoffset: 1065;
      animation: drawLine 2s ease-out forwards;
    }
    .data-line-2 {
      stroke-dasharray: 1065;
      stroke-dashoffset: 1065;
      animation: drawLine 2s ease-out forwards;
    }
    .data-line-3 {
      stroke-dasharray: 1065;
      stroke-dashoffset: 1065;
      animation: drawLine 2s ease-out forwards;
    }
    .data-line-4 {
      stroke-dasharray: 1065;
      stroke-dashoffset: 1065;
      animation: drawLine 2s ease-out forwards;
    }
    .data-line-5 {
      stroke-dasharray: 1065;
      stroke-dashoffset: 1065;
      animation: drawLine 2s ease-out forwards;
    }
    .data-line-6 {
      stroke-dasharray: 1081;
      stroke-dashoffset: 1081;
      animation: drawLine 2s ease-out forwards;
    }
    .data-line-7 {
      stroke-dasharray: 1065;
      stroke-dashoffset: 1065;
      animation: drawLine 2s ease-out forwards;
    }
    .data-point {
      opacity: 0;
      animation: fadeInPoint 0.5s ease-out forwards;
    }
  </style>
  <rect width="800" height="400" fill="#fff" />
  <text x="400" y="14" text-anchor="middle" fill="#24292e" font-size="16" font-weight="bold" font-family="-apple-system, BlinkMacSystemFont, 'Segoe UI', Helvetica, Arial, sans-serif">Top Repositories</text>
  <g class="legend">
    <rect x="-80" y="25" width="12" height="3" fill="#dfb317" />
    <line x1="-80" y1="26.5" x2="-68" y2="26.5" stroke="#dfb317" stroke-width="2" />
    <text x="-64" y="30" fill="#24292e" font-size="10" font-family="-apple-system, BlinkMacSystemFont, 'Segoe UI', Helvetica, Arial, sans-serif">biancafiore</text>
    <rect x="40" y="25" width="12" height="3" fill="#28a745" />
    <line x1="40" y1="26.5" x2="52" y2="26.5" stroke="#28a745" stroke-width="2" />
    <text x="56" y="30" fill="#24292e" font-size="10" font-family="-apple-system, BlinkMacSystemFont, 'Segoe UI', Helvetica, Arial, sans-serif">fbuireu</text>
    <rect x="160" y="25" width="12" height="3" fill="#e74c3c" />
    <line x1="160" y1="26.5" x2="172" y2="26.5" stroke="#e74c3c" stroke-width="2" />
    <text x="176" y="30" fill="#24292e" font-size="10" font-family="-apple-system, BlinkMacSystemFont, 'Segoe UI', Helvetica, Arial, sans-serif">curriculum-vitae</text>
    <rect x="280" y="25" width="12" height="3" fill="#3498db" />
    <line x1="280" y1="26.5" x2="292" y2="26.5" stroke="#3498db" stroke-width="2" />
    <text x="296" y="30" fill="#24292e" font-size="10" font-family="-apple-system, BlinkMacSystemFont, 'Segoe UI', Helvetica, Arial, sans-serif">fbuireu-cli</text>
    <rect x="400" y="25" width="12" height="3" fill="#9b59b6" />
    <line x1="400" y1="26.5" x2="412" y2="26.5" stroke="#9b59b6" stroke-width="2" />
    <text x="416" y="30" fill="#24292e" font-size="10" font-family="-apple-system, BlinkMacSystemFont, 'Segoe UI', Helvetica, Arial, sans-serif">email-signature</text>
    <rect x="520" y="25" width="12" height="3" fill="#e67e22" />
    <line x1="520" y1="26.5" x2="532" y2="26.5" stroke="#e67e22" stroke-width="2" />
    <text x="536" y="30" fill="#24292e" font-size="10" font-family="-apple-system, BlinkMacSystemFont, 'Segoe UI', Helvetica, Arial, sans-serif">forever-pto</text>
    <rect x="640" y="25" width="12" height="3" fill="#1abc9c" />
    <line x1="640" y1="26.5" x2="652" y2="26.5" stroke="#1abc9c" stroke-width="2" />
    <text x="656" y="30" fill="#24292e" font-size="10" font-family="-apple-system, BlinkMacSystemFont, 'Segoe UI', Helvetica, Arial, sans-serif">github-star-tracker</text>
    <rect x="760" y="25" width="12" height="3" fill="#e84393" />
    <line x1="760" y1="26.5" x2="772" y2="26.5" stroke="#e84393" stroke-width="2" />
    <text x="776" y="30" fill="#24292e" font-size="10" font-family="-apple-system, BlinkMacSystemFont, 'Segoe UI', Helvetica, Arial, sans-serif">hashnode-articles-backup</text>
  </g>
  <g class="grid">
    <line x1="60" y1="350" x2="770" y2="350" stroke="#eee" stroke-opacity="0.3" />
    <text x="52" y="354" text-anchor="end" fill="#6a737d" font-size="11" font-family="-apple-system, BlinkMacSystemFont, 'Segoe UI', Helvetica, Arial, sans-serif">0</text>
    <line x1="60" y1="275" x2="770" y2="275" stroke="#eee" stroke-opacity="0.3" />
    <text x="52" y="279" text-anchor="end" fill="#6a737d" font-size="11" font-family="-apple-system, BlinkMacSystemFont, 'Segoe UI', Helvetica, Arial, sans-serif">2</text>
    <line x1="60" y1="200" x2="770" y2="200" stroke="#eee" stroke-opacity="0.3" />
    <text x="52" y="204" text-anchor="end" fill="#6a737d" font-size="11" font-family="-apple-system, BlinkMacSystemFont, 'Segoe UI', Helvetica, Arial, sans-serif">4</text>
    <line x1="60" y1="125" x2="770" y2="125" stroke="#eee" stroke-opacity="0.3" />
    <text x="52" y="129" text-anchor="end" fill="#6a737d" font-size="11" font-family="-apple-system, BlinkMacSystemFont, 'Segoe UI', Helvetica, Arial, sans-serif">6</text>
    <line x1="60" y1="50" x2="770" y2="50" stroke="#eee" stroke-opacity="0.3" />
    <text x="52" y="54" text-anchor="end" fill="#6a737d" font-size="11" font-family="-apple-system, BlinkMacSystemFont, 'Segoe UI', Helvetica, Arial, sans-serif">8</text>
  </g>
  <g class="milestones">
    
  </g>
  <g class="x-axis">
    <text x="60" y="370" text-anchor="middle" fill="#6a737d" font-size="11" font-family="-apple-system, BlinkMacSystemFont, 'Segoe UI', Helvetica, Arial, sans-serif">Feb 13</text>
    <text x="189.0909090909091" y="370" text-anchor="middle" fill="#6a737d" font-size="11" font-family="-apple-system, BlinkMacSystemFont, 'Segoe UI', Helvetica, Arial, sans-serif">Feb 13</text>
    <text x="318.1818181818182" y="370" text-anchor="middle" fill="#6a737d" font-size="11" font-family="-apple-system, BlinkMacSystemFont, 'Segoe UI', Helvetica, Arial, sans-serif">Feb 13</text>
    <text x="447.27272727272725" y="370" text-anchor="middle" fill="#6a737d" font-size="11" font-family="-apple-system, BlinkMacSystemFont, 'Segoe UI', Helvetica, Arial, sans-serif">Feb 13</text>
    <text x="576.3636363636364" y="370" text-anchor="middle" fill="#6a737d" font-size="11" font-family="-apple-system, BlinkMacSystemFont, 'Segoe UI', Helvetica, Arial, sans-serif">Feb 14</text>
    <text x="705.4545454545454" y="370" text-anchor="middle" fill="#6a737d" font-size="11" font-family="-apple-system, BlinkMacSystemFont, 'Segoe UI', Helvetica, Arial, sans-serif">Feb 15</text>
    <text x="770" y="370" text-anchor="middle" fill="#6a737d" font-size="11" font-family="-apple-system, BlinkMacSystemFont, 'Segoe UI', Helvetica, Arial, sans-serif">Feb 15</text>
  </g>
  <line x1="60" y1="50" x2="60" y2="350" stroke="#6a737d" stroke-width="1" />
  <line x1="60" y1="350" x2="770" y2="350" stroke="#6a737d" stroke-width="1" />
  
  
  
  
  
  
  
  
  <path d="M60,87.5 C68.60606060606061,87.5 107.33333333333333,87.5 124.54545454545455,87.5 C141.75757575757575,87.5 171.87878787878788,87.5 189.0909090909091,87.5 C206.3030303030303,87.5 236.4242424242424,87.5 253.63636363636363,87.5 C270.8484848484848,87.5 300.969696969697,87.5 318.1818181818182,87.5 C335.3939393939394,87.5 365.5151515151515,87.5 382.7272727272727,87.5 C399.9393939393939,87.5 430.060606060606,87.5 447.27272727272725,87.5 C464.4848484848485,87.5 494.6060606060606,87.5 511.8181818181818,87.5 C529.030303030303,87.5 559.1515151515151,87.5 576.3636363636364,87.5 C593.5757575757576,87.5 623.6969696969697,87.5 640.909090909091,87.5 C658.1212121212122,87.5 688.2424242424241,87.5 705.4545454545454,87.5 C722.6666666666666,87.5 761.3939393939394,87.5 770,87.5" fill="none" stroke="#dfb317" stroke-width="2.5" class="data-line-0" />
  <path d="M60,162.5 C68.60606060606061,162.5 107.33333333333333,162.5 124.54545454545455,162.5 C141.75757575757575,162.5 171.87878787878788,162.5 189.0909090909091,162.5 C206.3030303030303,162.5 236.4242424242424,162.5 253.63636363636363,162.5 C270.8484848484848,162.5 300.969696969697,162.5 318.1818181818182,162.5 C335.3939393939394,162.5 365.5151515151515,162.5 382.7272727272727,162.5 C399.9393939393939,162.5 430.060606060606,162.5 447.27272727272725,162.5 C464.4848484848485,162.5 494.6060606060606,162.5 511.8181818181818,162.5 C529.030303030303,162.5 559.1515151515151,162.5 576.3636363636364,162.5 C593.5757575757576,162.5 623.6969696969697,162.5 640.909090909091,162.5 C658.1212121212122,162.5 688.2424242424241,162.5 705.4545454545454,162.5 C722.6666666666666,162.5 761.3939393939394,162.5 770,162.5" fill="none" stroke="#28a745" stroke-width="2.5" class="data-line-1" />
  <path d="M60,312.5 C68.60606060606061,312.5 107.33333333333333,312.5 124.54545454545455,312.5 C141.75757575757575,312.5 171.87878787878788,312.5 189.0909090909091,312.5 C206.3030303030303,312.5 236.4242424242424,312.5 253.63636363636363,312.5 C270.8484848484848,312.5 300.969696969697,312.5 318.1818181818182,312.5 C335.3939393939394,312.5 365.5151515151515,312.5 382.7272727272727,312.5 C399.9393939393939,312.5 430.060606060606,312.5 447.27272727272725,312.5 C464.4848484848485,312.5 494.6060606060606,312.5 511.8181818181818,312.5 C529.030303030303,312.5 559.1515151515151,312.5 576.3636363636364,312.5 C593.5757575757576,312.5 623.6969696969697,312.5 640.909090909091,312.5 C658.1212121212122,312.5 688.2424242424241,312.5 705.4545454545454,312.5 C722.6666666666666,312.5 761.3939393939394,312.5 770,312.5" fill="none" stroke="#e74c3c" stroke-width="2.5" class="data-line-2" />
  <path d="M60,312.5 C68.60606060606061,312.5 107.33333333333333,312.5 124.54545454545455,312.5 C141.75757575757575,312.5 171.87878787878788,312.5 189.0909090909091,312.5 C206.3030303030303,312.5 236.4242424242424,312.5 253.63636363636363,312.5 C270.8484848484848,312.5 300.969696969697,312.5 318.1818181818182,312.5 C335.3939393939394,312.5 365.5151515151515,312.5 382.7272727272727,312.5 C399.9393939393939,312.5 430.060606060606,312.5 447.27272727272725,312.5 C464.4848484848485,312.5 494.6060606060606,312.5 511.8181818181818,312.5 C529.030303030303,312.5 559.1515151515151,312.5 576.3636363636364,312.5 C593.5757575757576,312.5 623.6969696969697,312.5 640.909090909091,312.5 C658.1212121212122,312.5 688.2424242424241,312.5 705.4545454545454,312.5 C722.6666666666666,312.5 761.3939393939394,312.5 770,312.5" fill="none" stroke="#3498db" stroke-width="2.5" class="data-line-3" />
  <path d="M60,350 C68.60606060606061,350 107.33333333333333,350 124.54545454545455,350 C141.75757575757575,350 171.87878787878788,350 189.0909090909091,350 C206.3030303030303,350 236.4242424242424,350 253.63636363636363,350 C270.8484848484848,350 300.969696969697,350 318.1818181818182,350 C335.3939393939394,350 365.5151515151515,350 382.7272727272727,350 C399.9393939393939,350 430.060606060606,350 447.27272727272725,350 C464.4848484848485,350 494.6060606060606,350 511.8181818181818,350 C529.030303030303,350 559.1515151515151,350 576.3636363636364,350 C593.5757575757576,350 623.6969696969697,350 640.909090909091,350 C658.1212121212122,350 688.2424242424241,350 705.4545454545454,350 C722.6666666666666,350 761.3939393939394,350 770,350" fill="none" stroke="#9b59b6" stroke-width="2.5" class="data-line-4" />
  <path d="M60,350 C68.60606060606061,350 107.33333333333333,350 124.54545454545455,350 C141.75757575757575,350 171.87878787878788,350 189.0909090909091,350 C206.3030303030303,350 236.4242424242424,350 253.63636363636363,350 C270.8484848484848,350 300.969696969697,350 318.1818181818182,350 C335.3939393939394,350 365.5151515151515,350 382.7272727272727,350 C399.9393939393939,350 430.060606060606,350 447.27272727272725,350 C464.4848484848485,350 494.6060606060606,350 511.8181818181818,350 C529.030303030303,350 559.1515151515151,350 576.3636363636364,350 C593.5757575757576,350 623.6969696969697,350 640.909090909091,350 C658.1212121212122,350 688.2424242424241,350 705.4545454545454,350 C722.6666666666666,350 761.3939393939394,350 770,350" fill="none" stroke="#e67e22" stroke-width="2.5" class="data-line-5" />
  <path d="M60,312.5 C68.60606060606061,312.5 107.33333333333333,312.5 124.54545454545455,312.5 C141.75757575757575,312.5 171.87878787878788,312.5 189.0909090909091,312.5 C206.3030303030303,312.5 236.4242424242424,312.5 253.63636363636363,312.5 C270.8484848484848,312.5 300.969696969697,312.5 318.1818181818182,312.5 C335.3939393939394,312.5 365.5151515151515,312.5 382.7272727272727,312.5 C399.9393939393939,312.5 430.060606060606,312.5 447.27272727272725,312.5 C464.4848484848485,312.5 494.6060606060606,312.5 511.8181818181818,312.5 C529.030303030303,312.5 559.1515151515151,312.5 576.3636363636364,312.5 C593.5757575757576,312.5 623.6969696969697,312.5 640.909090909091,312.5 C658.1212121212122,312.5 688.2424242424241,307.5 705.4545454545454,312.5 C722.6666666666666,317.5 761.3939393939394,345 770,350" fill="none" stroke="#1abc9c" stroke-width="2.5" class="data-line-6" />
  <path d="M60,350 C68.60606060606061,350 107.33333333333333,350 124.54545454545455,350 C141.75757575757575,350 171.87878787878788,350 189.0909090909091,350 C206.3030303030303,350 236.4242424242424,350 253.63636363636363,350 C270.8484848484848,350 300.969696969697,350 318.1818181818182,350 C335.3939393939394,350 365.5151515151515,350 382.7272727272727,350 C399.9393939393939,350 430.060606060606,350 447.27272727272725,350 C464.4848484848485,350 494.6060606060606,350 511.8181818181818,350 C529.030303030303,350 559.1515151515151,350 576.3636363636364,350 C593.5757575757576,350 623.6969696969697,350 640.909090909091,350 C658.1212121212122,350 688.2424242424241,350 705.4545454545454,350 C722.6666666666666,350 761.3939393939394,350 770,350" fill="none" stroke="#e84393" stroke-width="2.5" class="data-line-7" />
  <g class="points">
    
    <circle cx="60" cy="87.5" r="4" fill="#dfb317" class="data-point" style="animation-delay: 1.50s" />
    <circle cx="124.54545454545455" cy="87.5" r="4" fill="#dfb317" class="data-point" style="animation-delay: 1.55s" />
    <circle cx="189.0909090909091" cy="87.5" r="4" fill="#dfb317" class="data-point" style="animation-delay: 1.60s" />
    <circle cx="253.63636363636363" cy="87.5" r="4" fill="#dfb317" class="data-point" style="animation-delay: 1.65s" />
    <circle cx="318.1818181818182" cy="87.5" r="4" fill="#dfb317" class="data-point" style="animation-delay: 1.70s" />
    <circle cx="382.7272727272727" cy="87.5" r="4" fill="#dfb317" class="data-point" style="animation-delay: 1.75s" />
    <circle cx="447.27272727272725" cy="87.5" r="4" fill="#dfb317" class="data-point" style="animation-delay: 1.80s" />
    <circle cx="511.8181818181818" cy="87.5" r="4" fill="#dfb317" class="data-point" style="animation-delay: 1.85s" />
    <circle cx="576.3636363636364" cy="87.5" r="4" fill="#dfb317" class="data-point" style="animation-delay: 1.90s" />
    <circle cx="640.909090909091" cy="87.5" r="4" fill="#dfb317" class="data-point" style="animation-delay: 1.95s" />
    <circle cx="705.4545454545454" cy="87.5" r="4" fill="#dfb317" class="data-point" style="animation-delay: 2.00s" />
    <circle cx="770" cy="87.5" r="4" fill="#dfb317" class="data-point" style="animation-delay: 2.05s" />
    
    <circle cx="60" cy="162.5" r="4" fill="#28a745" class="data-point" style="animation-delay: 1.50s" />
    <circle cx="124.54545454545455" cy="162.5" r="4" fill="#28a745" class="data-point" style="animation-delay: 1.55s" />
    <circle cx="189.0909090909091" cy="162.5" r="4" fill="#28a745" class="data-point" style="animation-delay: 1.60s" />
    <circle cx="253.63636363636363" cy="162.5" r="4" fill="#28a745" class="data-point" style="animation-delay: 1.65s" />
    <circle cx="318.1818181818182" cy="162.5" r="4" fill="#28a745" class="data-point" style="animation-delay: 1.70s" />
    <circle cx="382.7272727272727" cy="162.5" r="4" fill="#28a745" class="data-point" style="animation-delay: 1.75s" />
    <circle cx="447.27272727272725" cy="162.5" r="4" fill="#28a745" class="data-point" style="animation-delay: 1.80s" />
    <circle cx="511.8181818181818" cy="162.5" r="4" fill="#28a745" class="data-point" style="animation-delay: 1.85s" />
    <circle cx="576.3636363636364" cy="162.5" r="4" fill="#28a745" class="data-point" style="animation-delay: 1.90s" />
    <circle cx="640.909090909091" cy="162.5" r="4" fill="#28a745" class="data-point" style="animation-delay: 1.95s" />
    <circle cx="705.4545454545454" cy="162.5" r="4" fill="#28a745" class="data-point" style="animation-delay: 2.00s" />
    <circle cx="770" cy="162.5" r="4" fill="#28a745" class="data-point" style="animation-delay: 2.05s" />
    
    <circle cx="60" cy="312.5" r="4" fill="#e74c3c" class="data-point" style="animation-delay: 1.50s" />
    <circle cx="124.54545454545455" cy="312.5" r="4" fill="#e74c3c" class="data-point" style="animation-delay: 1.55s" />
    <circle cx="189.0909090909091" cy="312.5" r="4" fill="#e74c3c" class="data-point" style="animation-delay: 1.60s" />
    <circle cx="253.63636363636363" cy="312.5" r="4" fill="#e74c3c" class="data-point" style="animation-delay: 1.65s" />
    <circle cx="318.1818181818182" cy="312.5" r="4" fill="#e74c3c" class="data-point" style="animation-delay: 1.70s" />
    <circle cx="382.7272727272727" cy="312.5" r="4" fill="#e74c3c" class="data-point" style="animation-delay: 1.75s" />
    <circle cx="447.27272727272725" cy="312.5" r="4" fill="#e74c3c" class="data-point" style="animation-delay: 1.80s" />
    <circle cx="511.8181818181818" cy="312.5" r="4" fill="#e74c3c" class="data-point" style="animation-delay: 1.85s" />
    <circle cx="576.3636363636364" cy="312.5" r="4" fill="#e74c3c" class="data-point" style="animation-delay: 1.90s" />
    <circle cx="640.909090909091" cy="312.5" r="4" fill="#e74c3c" class="data-point" style="animation-delay: 1.95s" />
    <circle cx="705.4545454545454" cy="312.5" r="4" fill="#e74c3c" class="data-point" style="animation-delay: 2.00s" />
    <circle cx="770" cy="312.5" r="4" fill="#e74c3c" class="data-point" style="animation-delay: 2.05s" />
    
    <circle cx="60" cy="312.5" r="4" fill="#3498db" class="data-point" style="animation-delay: 1.50s" />
    <circle cx="124.54545454545455" cy="312.5" r="4" fill="#3498db" class="data-point" style="animation-delay: 1.55s" />
    <circle cx="189.0909090909091" cy="312.5" r="4" fill="#3498db" class="data-point" style="animation-delay: 1.60s" />
    <circle cx="253.63636363636363" cy="312.5" r="4" fill="#3498db" class="data-point" style="animation-delay: 1.65s" />
    <circle cx="318.1818181818182" cy="312.5" r="4" fill="#3498db" class="data-point" style="animation-delay: 1.70s" />
    <circle cx="382.7272727272727" cy="312.5" r="4" fill="#3498db" class="data-point" style="animation-delay: 1.75s" />
    <circle cx="447.27272727272725" cy="312.5" r="4" fill="#3498db" class="data-point" style="animation-delay: 1.80s" />
    <circle cx="511.8181818181818" cy="312.5" r="4" fill="#3498db" class="data-point" style="animation-delay: 1.85s" />
    <circle cx="576.3636363636364" cy="312.5" r="4" fill="#3498db" class="data-point" style="animation-delay: 1.90s" />
    <circle cx="640.909090909091" cy="312.5" r="4" fill="#3498db" class="data-point" style="animation-delay: 1.95s" />
    <circle cx="705.4545454545454" cy="312.5" r="4" fill="#3498db" class="data-point" style="animation-delay: 2.00s" />
    <circle cx="770" cy="312.5" r="4" fill="#3498db" class="data-point" style="animation-delay: 2.05s" />
    
    <circle cx="60" cy="350" r="4" fill="#9b59b6" class="data-point" style="animation-delay: 1.50s" />
    <circle cx="124.54545454545455" cy="350" r="4" fill="#9b59b6" class="data-point" style="animation-delay: 1.55s" />
    <circle cx="189.0909090909091" cy="350" r="4" fill="#9b59b6" class="data-point" style="animation-delay: 1.60s" />
    <circle cx="253.63636363636363" cy="350" r="4" fill="#9b59b6" class="data-point" style="animation-delay: 1.65s" />
    <circle cx="318.1818181818182" cy="350" r="4" fill="#9b59b6" class="data-point" style="animation-delay: 1.70s" />
    <circle cx="382.7272727272727" cy="350" r="4" fill="#9b59b6" class="data-point" style="animation-delay: 1.75s" />
    <circle cx="447.27272727272725" cy="350" r="4" fill="#9b59b6" class="data-point" style="animation-delay: 1.80s" />
    <circle cx="511.8181818181818" cy="350" r="4" fill="#9b59b6" class="data-point" style="animation-delay: 1.85s" />
    <circle cx="576.3636363636364" cy="350" r="4" fill="#9b59b6" class="data-point" style="animation-delay: 1.90s" />
    <circle cx="640.909090909091" cy="350" r="4" fill="#9b59b6" class="data-point" style="animation-delay: 1.95s" />
    <circle cx="705.4545454545454" cy="350" r="4" fill="#9b59b6" class="data-point" style="animation-delay: 2.00s" />
    <circle cx="770" cy="350" r="4" fill="#9b59b6" class="data-point" style="animation-delay: 2.05s" />
    
    <circle cx="60" cy="350" r="4" fill="#e67e22" class="data-point" style="animation-delay: 1.50s" />
    <circle cx="124.54545454545455" cy="350" r="4" fill="#e67e22" class="data-point" style="animation-delay: 1.55s" />
    <circle cx="189.0909090909091" cy="350" r="4" fill="#e67e22" class="data-point" style="animation-delay: 1.60s" />
    <circle cx="253.63636363636363" cy="350" r="4" fill="#e67e22" class="data-point" style="animation-delay: 1.65s" />
    <circle cx="318.1818181818182" cy="350" r="4" fill="#e67e22" class="data-point" style="animation-delay: 1.70s" />
    <circle cx="382.7272727272727" cy="350" r="4" fill="#e67e22" class="data-point" style="animation-delay: 1.75s" />
    <circle cx="447.27272727272725" cy="350" r="4" fill="#e67e22" class="data-point" style="animation-delay: 1.80s" />
    <circle cx="511.8181818181818" cy="350" r="4" fill="#e67e22" class="data-point" style="animation-delay: 1.85s" />
    <circle cx="576.3636363636364" cy="350" r="4" fill="#e67e22" class="data-point" style="animation-delay: 1.90s" />
    <circle cx="640.909090909091" cy="350" r="4" fill="#e67e22" class="data-point" style="animation-delay: 1.95s" />
    <circle cx="705.4545454545454" cy="350" r="4" fill="#e67e22" class="data-point" style="animation-delay: 2.00s" />
    <circle cx="770" cy="350" r="4" fill="#e67e22" class="data-point" style="animation-delay: 2.05s" />
    
    <circle cx="60" cy="312.5" r="4" fill="#1abc9c" class="data-point" style="animation-delay: 1.50s" />
    <circle cx="124.54545454545455" cy="312.5" r="4" fill="#1abc9c" class="data-point" style="animation-delay: 1.55s" />
    <circle cx="189.0909090909091" cy="312.5" r="4" fill="#1abc9c" class="data-point" style="animation-delay: 1.60s" />
    <circle cx="253.63636363636363" cy="312.5" r="4" fill="#1abc9c" class="data-point" style="animation-delay: 1.65s" />
    <circle cx="318.1818181818182" cy="312.5" r="4" fill="#1abc9c" class="data-point" style="animation-delay: 1.70s" />
    <circle cx="382.7272727272727" cy="312.5" r="4" fill="#1abc9c" class="data-point" style="animation-delay: 1.75s" />
    <circle cx="447.27272727272725" cy="312.5" r="4" fill="#1abc9c" class="data-point" style="animation-delay: 1.80s" />
    <circle cx="511.8181818181818" cy="312.5" r="4" fill="#1abc9c" class="data-point" style="animation-delay: 1.85s" />
    <circle cx="576.3636363636364" cy="312.5" r="4" fill="#1abc9c" class="data-point" style="animation-delay: 1.90s" />
    <circle cx="640.909090909091" cy="312.5" r="4" fill="#1abc9c" class="data-point" style="animation-delay: 1.95s" />
    <circle cx="705.4545454545454" cy="312.5" r="4" fill="#1abc9c" class="data-point" style="animation-delay: 2.00s" />
    <circle cx="770" cy="350" r="4" fill="#1abc9c" class="data-point" style="animation-delay: 2.05s" />
    
    <circle cx="60" cy="350" r="4" fill="#e84393" class="data-point" style="animation-delay: 1.50s" />
    <circle cx="124.54545454545455" cy="350" r="4" fill="#e84393" class="data-point" style="animation-delay: 1.55s" />
    <circle cx="189.0909090909091" cy="350" r="4" fill="#e84393" class="data-point" style="animation-delay: 1.60s" />
    <circle cx="253.63636363636363" cy="350" r="4" fill="#e84393" class="data-point" style="animation-delay: 1.65s" />
    <circle cx="318.1818181818182" cy="350" r="4" fill="#e84393" class="data-point" style="animation-delay: 1.70s" />
    <circle cx="382.7272727272727" cy="350" r="4" fill="#e84393" class="data-point" style="animation-delay: 1.75s" />
    <circle cx="447.27272727272725" cy="350" r="4" fill="#e84393" class="data-point" style="animation-delay: 1.80s" />
    <circle cx="511.8181818181818" cy="350" r="4" fill="#e84393" class="data-point" style="animation-delay: 1.85s" />
    <circle cx="576.3636363636364" cy="350" r="4" fill="#e84393" class="data-point" style="animation-delay: 1.90s" />
    <circle cx="640.909090909091" cy="350" r="4" fill="#e84393" class="data-point" style="animation-delay: 1.95s" />
    <circle cx="705.4545454545454" cy="350" r="4" fill="#e84393" class="data-point" style="animation-delay: 2.00s" />
    <circle cx="770" cy="350" r="4" fill="#e84393" class="data-point" style="animation-delay: 2.05s" />
  </g>
</svg>