<svg xmlns="http://www.w3.org/2000/svg" viewBox="0 0 800 400" width="800" height="400">
  <style>
    @keyframes drawLine {
      to { stroke-dashoffset: 0; }
    }
    @keyframes fadeInPoint {
      from { opacity: 0; }
      to { opacity: 1; }
    }
    .data-line-0 {
      stroke-dasharray: 1065;
      stroke-dashoffset: 1065;
      animation: drawLine 2s ease-out forwards;
    }
    .data-line-1 {
      stroke-dasharray: 1065;
      stroke-dashoffset: 1065;
      animation: drawLine 2s ease-out forwards;
    }
    .data-line-2 {
      stroke-dasharray: 1065;
      stroke-dashoffset: 1065;
      animation: drawLine 2s ease-out forwards;
    }
    .data-line-3 {
      stroke-dasharray: 1065;
      stroke-dashoffset: 1065;
      animation: drawLine 2s ease-out forwards;
    }
    .data-line-4 {
      stroke-dasharray: 1065;
      stroke-dashoffset: 1065;
      animation: drawLine 2s ease-out forwards;
    }
    .data-line-5 {
      stroke-dasharray: 1065;
      stroke-dashoffset: 1065;
      animation: drawLine 2s ease-out forwards;
    }
    .data-line-6 {
      stroke-dasharray: 1121;
      stroke-dashoffset: 1121;
      animation: drawLine 2s ease-out forwards;
    }
    .data-line-7 {
      stroke-dasharray: 1065;
      stroke-dashoffset: 1065;
      animation: drawLine 2s ease-out forwards;
    }
    .data-point {
      opacity: 0;
      animation: fadeInPoint 0.5s ease-out forwards;
    }
    .chart-bg { fill: #fff; }
    .chart-text { fill: #24292e; }
    .chart-muted { fill: #6a737d; }
    .chart-grid { stroke: #eee; }
    .chart-axis { stroke: #6a737d; }
    @media (prefers-color-scheme: dark) {
      .chart-bg { fill: #0d1117; }
      .chart-text { fill: #e6edf3; }
      .chart-muted { fill: #8b949e; }
      .chart-grid { stroke: #21262d; }
      .chart-axis { stroke: #8b949e; }
    }
  </style>
  <rect width="800" height="400" class="chart-bg" />
  <text x="400" y="14" text-anchor="middle" class="chart-text" font-size="16" font-weight="bold" font-family="-apple-system, BlinkMacSystemFont, 'Segoe UI', Helvetica, Arial, sans-serif">Top Repositories</text>
  <g class="legend">
    <rect x="-80" y="25" width="12" height="3" fill="#dfb317" />
    <line x1="-80" y1="26.5" x2="-68" y2="26.5" stroke="#dfb317" stroke-width="2" />
    <text x="-64" y="30" class="chart-text" font-size="10" font-family="-apple-system, BlinkMacSystemFont, 'Segoe UI', Helvetica, Arial, sans-serif">biancafiore</text>
    <rect x="40" y="25" width="12" height="3" fill="#28a745" />
    <line x1="40" y1="26.5" x2="52" y2="26.5" stroke="#28a745" stroke-width="2" />
    <text x="56" y="30" class="chart-text" font-size="10" font-family="-apple-system, BlinkMacSystemFont, 'Segoe UI', Helvetica, Arial, sans-serif">fbuireu</text>
    <rect x="160" y="25" width="12" height="3" fill="#e74c3c" />
    <line x1="160" y1="26.5" x2="172" y2="26.5" stroke="#e74c3c" stroke-width="2" />
    <text x="176" y="30" class="chart-text" font-size="10" font-family="-apple-system, BlinkMacSystemFont, 'Segoe UI', Helvetica, Arial, sans-serif">curriculum-vitae</text>
    <rect x="280" y="25" width="12" height="3" fill="#3498db" />
    <line x1="280" y1="26.5" x2="292" y2="26.5" stroke="#3498db" stroke-width="2" />
    <text x="296" y="30" class="chart-text" font-size="10" font-family="-apple-system, BlinkMacSystemFont, 'Segoe UI', Helvetica, Arial, sans-serif">fbuireu-cli</text>
    <rect x="400" y="25" width="12" height="3" fill="#9b59b6" />
    <line x1="400" y1="26.5" x2="412" y2="26.5" stroke="#9b59b6" stroke-width="2" />
    <text x="416" y="30" class="chart-text" font-size="10" font-family="-apple-system, BlinkMacSystemFont, 'Segoe UI', Helvetica, Arial, sans-serif">email-signature</text>
    <rect x="520" y="25" width="12" height="3" fill="#e67e22" />
    <line x1="520" y1="26.5" x2="532" y2="26.5" stroke="#e67e22" stroke-width="2" />
    <text x="536" y="30" class="chart-text" font-size="10" font-family="-apple-system, BlinkMacSystemFont, 'Segoe UI', Helvetica, Arial, sans-serif">forever-pto</text>
    <rect x="640" y="25" width="12" height="3" fill="#1abc9c" />
    <line x1="640" y1="26.5" x2="652" y2="26.5" stroke="#1abc9c" stroke-width="2" />
    <text x="656" y="30" class="chart-text" font-size="10" font-family="-apple-system, BlinkMacSystemFont, 'Segoe UI', Helvetica, Arial, sans-serif">github-star-tracker</text>
    <rect x="760" y="25" width="12" height="3" fill="#e84393" />
    <line x1="760" y1="26.5" x2="772" y2="26.5" stroke="#e84393" stroke-width="2" />
    <text x="776" y="30" class="chart-text" font-size="10" font-family="-apple-system, BlinkMacSystemFont, 'Segoe UI', Helvetica, Arial, sans-serif">hashnode-articles-backup</text>
  </g>
  <g class="grid">
    <line x1="60" y1="350" x2="770" y2="350" class="chart-grid" stroke-opacity="0.3" />
    <text x="52" y="354" text-anchor="end" class="chart-muted" font-size="11" font-family="-apple-system, BlinkMacSystemFont, 'Segoe UI', Helvetica, Arial, sans-serif">0</text>
    <line x1="60" y1="275" x2="770" y2="275" class="chart-grid" stroke-opacity="0.3" />
    <text x="52" y="279" text-anchor="end" class="chart-muted" font-size="11" font-family="-apple-system, BlinkMacSystemFont, 'Segoe UI', Helvetica, Arial, sans-serif">2</text>
    <line x1="60" y1="200" x2="770" y2="200" class="chart-grid" stroke-opacity="0.3" />
    <text x="52" y="204" text-anchor="end" class="chart-muted" font-size="11" font-family="-apple-system, BlinkMacSystemFont, 'Segoe UI', Helvetica, Arial, sans-serif">4</text>
    <line x1="60" y1="125" x2="770" y2="125" class="chart-grid" stroke-opacity="0.3" />
    <text x="52" y="129" text-anchor="end" class="chart-muted" font-size="11" font-family="-apple-system, BlinkMacSystemFont, 'Segoe UI', Helvetica, Arial, sans-serif">6</text>
    <line x1="60" y1="50" x2="770" y2="50" class="chart-grid" stroke-opacity="0.3" />
    <text x="52" y="54" text-anchor="end" class="chart-muted" font-size="11" font-family="-apple-system, BlinkMacSystemFont, 'Segoe UI', Helvetica, Arial, sans-serif">8</text>
  </g>
  <g class="milestones">
    
  </g>
  <g class="x-axis">
    <text x="60" y="370" text-anchor="middle" class="chart-muted" font-size="11" font-family="-apple-system, BlinkMacSystemFont, 'Segoe UI', Helvetica, Arial, sans-serif">Feb 13</text>
    <text x="161.42857142857142" y="370" text-anchor="middle" class="chart-muted" font-size="11" font-family="-apple-system, BlinkMacSystemFont, 'Segoe UI', Helvetica, Arial, sans-serif">Feb 13</text>
    <text x="262.85714285714283" y="370" text-anchor="middle" class="chart-muted" font-size="11" font-family="-apple-system, BlinkMacSystemFont, 'Segoe UI', Helvetica, Arial, sans-serif">Feb 13</text>
    <text x="364.2857142857143" y="370" text-anchor="middle" class="chart-muted" font-size="11" font-family="-apple-system, BlinkMacSystemFont, 'Segoe UI', Helvetica, Arial, sans-serif">Feb 13</text>
    <text x="465.71428571428567" y="370" text-anchor="middle" class="chart-muted" font-size="11" font-family="-apple-system, BlinkMacSystemFont, 'Segoe UI', Helvetica, Arial, sans-serif">Feb 14</text>
    <text x="567.1428571428571" y="370" text-anchor="middle" class="chart-muted" font-size="11" font-family="-apple-system, BlinkMacSystemFont, 'Segoe UI', Helvetica, Arial, sans-serif">Feb 15</text>
    <text x="668.5714285714286" y="370" text-anchor="middle" class="chart-muted" font-size="11" font-family="-apple-system, BlinkMacSystemFont, 'Segoe UI', Helvetica, Arial, sans-serif">Feb 15</text>
    <text x="770" y="370" text-anchor="middle" class="chart-muted" font-size="11" font-family="-apple-system, BlinkMacSystemFont, 'Segoe UI', Helvetica, Arial, sans-serif">Mar 1</text>
  </g>
  <line x1="60" y1="50" x2="60" y2="350" class="chart-axis" stroke-width="1" />
  <line x1="60" y1="350" x2="770" y2="350" class="chart-axis" stroke-width="1" />
  
  
  
  
  
  
  
  
  <path d="M60,87.5 C66.76190476190476,87.5 97.19047619047619,87.5 110.71428571428571,87.5 C124.23809523809523,87.5 147.9047619047619,87.5 161.42857142857142,87.5 C174.95238095238093,87.5 198.61904761904762,87.5 212.14285714285714,87.5 C225.66666666666666,87.5 249.33333333333331,87.5 262.85714285714283,87.5 C276.38095238095235,87.5 300.04761904761904,87.5 313.57142857142856,87.5 C327.0952380952381,87.5 350.76190476190476,87.5 364.2857142857143,87.5 C377.8095238095238,87.5 401.4761904761905,87.5 415,87.5 C428.5238095238095,87.5 452.19047619047615,87.5 465.71428571428567,87.5 C479.2380952380952,87.5 502.9047619047619,87.5 516.4285714285714,87.5 C529.952380952381,87.5 553.6190476190476,87.5 567.1428571428571,87.5 C580.6666666666666,87.5 604.3333333333334,87.5 617.8571428571429,87.5 C631.3809523809524,87.5 655.047619047619,87.5 668.5714285714286,87.5 C682.0952380952381,87.5 705.7619047619048,87.5 719.2857142857143,87.5 C732.8095238095239,87.5 763.2380952380953,87.5 770,87.5" fill="none" stroke="#dfb317" stroke-width="2.5" class="data-line-0" />
  <path d="M60,162.5 C66.76190476190476,162.5 97.19047619047619,162.5 110.71428571428571,162.5 C124.23809523809523,162.5 147.9047619047619,162.5 161.42857142857142,162.5 C174.95238095238093,162.5 198.61904761904762,162.5 212.14285714285714,162.5 C225.66666666666666,162.5 249.33333333333331,162.5 262.85714285714283,162.5 C276.38095238095235,162.5 300.04761904761904,162.5 313.57142857142856,162.5 C327.0952380952381,162.5 350.76190476190476,162.5 364.2857142857143,162.5 C377.8095238095238,162.5 401.4761904761905,162.5 415,162.5 C428.5238095238095,162.5 452.19047619047615,162.5 465.71428571428567,162.5 C479.2380952380952,162.5 502.9047619047619,162.5 516.4285714285714,162.5 C529.952380952381,162.5 553.6190476190476,162.5 567.1428571428571,162.5 C580.6666666666666,162.5 604.3333333333334,162.5 617.8571428571429,162.5 C631.3809523809524,162.5 655.047619047619,162.5 668.5714285714286,162.5 C682.0952380952381,162.5 705.7619047619048,162.5 719.2857142857143,162.5 C732.8095238095239,162.5 763.2380952380953,162.5 770,162.5" fill="none" stroke="#28a745" stroke-width="2.5" class="data-line-1" />
  <path d="M60,312.5 C66.76190476190476,312.5 97.19047619047619,312.5 110.71428571428571,312.5 C124.23809523809523,312.5 147.9047619047619,312.5 161.42857142857142,312.5 C174.95238095238093,312.5 198.61904761904762,312.5 212.14285714285714,312.5 C225.66666666666666,312.5 249.33333333333331,312.5 262.85714285714283,312.5 C276.38095238095235,312.5 300.04761904761904,312.5 313.57142857142856,312.5 C327.0952380952381,312.5 350.76190476190476,312.5 364.2857142857143,312.5 C377.8095238095238,312.5 401.4761904761905,312.5 415,312.5 C428.5238095238095,312.5 452.19047619047615,312.5 465.71428571428567,312.5 C479.2380952380952,312.5 502.9047619047619,312.5 516.4285714285714,312.5 C529.952380952381,312.5 553.6190476190476,312.5 567.1428571428571,312.5 C580.6666666666666,312.5 604.3333333333334,312.5 617.8571428571429,312.5 C631.3809523809524,312.5 655.047619047619,312.5 668.5714285714286,312.5 C682.0952380952381,312.5 705.7619047619048,312.5 719.2857142857143,312.5 C732.8095238095239,312.5 763.2380952380953,312.5 770,312.5" fill="none" stroke="#e74c3c" stroke-width="2.5" class="data-line-2" />
  <path d="M60,312.5 C66.76190476190476,312.5 97.19047619047619,312.5 110.71428571428571,312.5 C124.23809523809523,312.5 147.9047619047619,312.5 161.42857142857142,312.5 C174.95238095238093,312.5 198.61904761904762,312.5 212.14285714285714,312.5 C225.66666666666666,312.5 249.33333333333331,312.5 262.85714285714283,312.5 C276.38095238095235,312.5 300.04761904761904,312.5 313.57142857142856,312.5 C327.0952380952381,312.5 350.76190476190476,312.5 364.2857142857143,312.5 C377.8095238095238,312.5 401.4761904761905,312.5 415,312.5 C428.5238095238095,312.5 452.19047619047615,312.5 465.71428571428567,312.5 C479.2380952380952,312.5 502.9047619047619,312.5 516.4285714285714,312.5 C529.952380952381,312.5 553.6190476190476,312.5 567.1428571428571,312.5 C580.6666666666666,312.5 604.3333333333334,312.5 617.8571428571429,312.5 C631.3809523809524,312.5 655.047619047619,312.5 668.5714285714286,312.5 C682.0952380952381,312.5 705.7619047619048,312.5 719.2857142857143,312.5 C732.8095238095239,312.5 763.2380952380953,312.5 770,312.5" fill="none" stroke="#3498db" stroke-width="2.5" class="data-line-3" />
  <path d="M60,350 C66.76190476190476,350 97.19047619047619,350 110.71428571428571,350 C124.23809523809523,350 147.9047619047619,350 161.42857142857142,350 C174.95238095238093,350 198.61904761904762,350 212.14285714285714,350 C225.66666666666666,350 249.33333333333331,350 262.85714285714283,350 C276.38095238095235,350 300.04761904761904,350 313.57142857142856,350 C327.0952380952381,350 350.76190476190476,350 364.2857142857143,350 C377.8095238095238,350 401.4761904761905,350 415,350 C428.5238095238095,350 452.19047619047615,350 465.71428571428567,350 C479.2380952380952,350 502.9047619047619,350 516.4285714285714,350 C529.952380952381,350 553.6190476190476,350 567.1428571428571,350 C580.6666666666666,350 604.3333333333334,350 617.8571428571429,350 C631.3809523809524,350 655.047619047619,350 668.5714285714286,350 C682.0952380952381,350 705.7619047619048,350 719.2857142857143,350 C732.8095238095239,350 763.2380952380953,350 770,350" fill="none" stroke="#9b59b6" stroke-width="2.5" class="data-line-4" />
  <path d="M60,350 C66.76190476190476,350 97.19047619047619,350 110.71428571428571,350 C124.23809523809523,350 147.9047619047619,350 161.42857142857142,350 C174.95238095238093,350 198.61904761904762,350 212.14285714285714,350 C225.66666666666666,350 249.33333333333331,350 262.85714285714283,350 C276.38095238095235,350 300.04761904761904,350 313.57142857142856,350 C327.0952380952381,350 350.76190476190476,350 364.2857142857143,350 C377.8095238095238,350 401.4761904761905,350 415,350 C428.5238095238095,350 452.19047619047615,350 465.71428571428567,350 C479.2380952380952,350 502.9047619047619,350 516.4285714285714,350 C529.952380952381,350 553.6190476190476,350 567.1428571428571,350 C580.6666666666666,350 604.3333333333334,350 617.8571428571429,350 C631.3809523809524,350 655.047619047619,350 668.5714285714286,350 C682.0952380952381,350 705.7619047619048,350 719.2857142857143,350 C732.8095238095239,350 763.2380952380953,350 770,350" fill="none" stroke="#e67e22" stroke-width="2.5" class="data-line-5" />
  <path d="M60,312.5 C66.76190476190476,312.5 97.19047619047619,312.5 110.71428571428571,312.5 C124.23809523809523,312.5 147.9047619047619,312.5 161.42857142857142,312.5 C174.95238095238093,312.5 198.61904761904762,312.5 212.14285714285714,312.5 C225.66666666666666,312.5 249.33333333333331,312.5 262.85714285714283,312.5 C276.38095238095235,312.5 300.04761904761904,312.5 313.57142857142856,312.5 C327.0952380952381,312.5 350.76190476190476,312.5 364.2857142857143,312.5 C377.8095238095238,312.5 401.4761904761905,312.5 415,312.5 C428.5238095238095,312.5 452.19047619047615,312.5 465.71428571428567,312.5 C479.2380952380952,312.5 502.9047619047619,312.5 516.4285714285714,312.5 C529.952380952381,312.5 553.6190476190476,307.5 567.1428571428571,312.5 C580.6666666666666,317.5 604.3333333333334,345 617.8571428571429,350 C631.3809523809524,355 655.047619047619,355 668.5714285714286,350 C682.0952380952381,345 705.7619047619048,312.5 719.2857142857143,312.5 C732.8095238095239,312.5 763.2380952380953,345 770,350" fill="none" stroke="#1abc9c" stroke-width="2.5" class="data-line-6" />
  <path d="M60,350 C66.76190476190476,350 97.19047619047619,350 110.71428571428571,350 C124.23809523809523,350 147.9047619047619,350 161.42857142857142,350 C174.95238095238093,350 198.61904761904762,350 212.14285714285714,350 C225.66666666666666,350 249.33333333333331,350 262.85714285714283,350 C276.38095238095235,350 300.04761904761904,350 313.57142857142856,350 C327.0952380952381,350 350.76190476190476,350 364.2857142857143,350 C377.8095238095238,350 401.4761904761905,350 415,350 C428.5238095238095,350 452.19047619047615,350 465.71428571428567,350 C479.2380952380952,350 502.9047619047619,350 516.4285714285714,350 C529.952380952381,350 553.6190476190476,350 567.1428571428571,350 C580.6666666666666,350 604.3333333333334,350 617.8571428571429,350 C631.3809523809524,350 655.047619047619,350 668.5714285714286,350 C682.0952380952381,350 705.7619047619048,350 719.2857142857143,350 C732.8095238095239,350 763.2380952380953,350 770,350" fill="none" stroke="#e84393" stroke-width="2.5" class="data-line-7" />
  <g class="points">
    
    <circle cx="60" cy="87.5" r="4" fill="#dfb317" class="data-point" style="animation-delay: 1.50s" />
    <circle cx="110.71428571428571" cy="87.5" r="4" fill="#dfb317" class="data-point" style="animation-delay: 1.55s" />
    <circle cx="161.42857142857142" cy="87.5" r="4" fill="#dfb317" class="data-point" style="animation-delay: 1.60s" />
    <circle cx="212.14285714285714" cy="87.5" r="4" fill="#dfb317" class="data-point" style="animation-delay: 1.65s" />
    <circle cx="262.85714285714283" cy="87.5" r="4" fill="#dfb317" class="data-point" style="animation-delay: 1.70s" />
    <circle cx="313.57142857142856" cy="87.5" r="4" fill="#dfb317" class="data-point" style="animation-delay: 1.75s" />
    <circle cx="364.2857142857143" cy="87.5" r="4" fill="#dfb317" class="data-point" style="animation-delay: 1.80s" />
    <circle cx="415" cy="87.5" r="4" fill="#dfb317" class="data-point" style="animation-delay: 1.85s" />
    <circle cx="465.71428571428567" cy="87.5" r="4" fill="#dfb317" class="data-point" style="animation-delay: 1.90s" />
    <circle cx="516.4285714285714" cy="87.5" r="4" fill="#dfb317" class="data-point" style="animation-delay: 1.95s" />
    <circle cx="567.1428571428571" cy="87.5" r="4" fill="#dfb317" class="data-point" style="animation-delay: 2.00s" />
    <circle cx="617.8571428571429" cy="87.5" r="4" fill="#dfb317" class="data-point" style="animation-delay: 2.05s" />
    <circle cx="668.5714285714286" cy="87.5" r="4" fill="#dfb317" class="data-point" style="animation-delay: 2.10s" />
    <circle cx="719.2857142857143" cy="87.5" r="4" fill="#dfb317" class="data-point" style="animation-delay: 2.15s" />
    <circle cx="770" cy="87.5" r="4" fill="#dfb317" class="data-point" style="animation-delay: 2.20s" />
    
    <circle cx="60" cy="162.5" r="4" fill="#28a745" class="data-point" style="animation-delay: 1.50s" />
    <circle cx="110.71428571428571" cy="162.5" r="4" fill="#28a745" class="data-point" style="animation-delay: 1.55s" />
    <circle cx="161.42857142857142" cy="162.5" r="4" fill="#28a745" class="data-point" style="animation-delay: 1.60s" />
    <circle cx="212.14285714285714" cy="162.5" r="4" fill="#28a745" class="data-point" style="animation-delay: 1.65s" />
    <circle cx="262.85714285714283" cy="162.5" r="4" fill="#28a745" class="data-point" style="animation-delay: 1.70s" />
    <circle cx="313.57142857142856" cy="162.5" r="4" fill="#28a745" class="data-point" style="animation-delay: 1.75s" />
    <circle cx="364.2857142857143" cy="162.5" r="4" fill="#28a745" class="data-point" style="animation-delay: 1.80s" />
    <circle cx="415" cy="162.5" r="4" fill="#28a745" class="data-point" style="animation-delay: 1.85s" />
    <circle cx="465.71428571428567" cy="162.5" r="4" fill="#28a745" class="data-point" style="animation-delay: 1.90s" />
    <circle cx="516.4285714285714" cy="162.5" r="4" fill="#28a745" class="data-point" style="animation-delay: 1.95s" />
    <circle cx="567.1428571428571" cy="162.5" r="4" fill="#28a745" class="data-point" style="animation-delay: 2.00s" />
    <circle cx="617.8571428571429" cy="162.5" r="4" fill="#28a745" class="data-point" style="animation-delay: 2.05s" />
    <circle cx="668.5714285714286" cy="162.5" r="4" fill="#28a745" class="data-point" style="animation-delay: 2.10s" />
    <circle cx="719.2857142857143" cy="162.5" r="4" fill="#28a745" class="data-point" style="animation-delay: 2.15s" />
    <circle cx="770" cy="162.5" r="4" fill="#28a745" class="data-point" style="animation-delay: 2.20s" />
    
    <circle cx="60" cy="312.5" r="4" fill="#e74c3c" class="data-point" style="animation-delay: 1.50s" />
    <circle cx="110.71428571428571" cy="312.5" r="4" fill="#e74c3c" class="data-point" style="animation-delay: 1.55s" />
    <circle cx="161.42857142857142" cy="312.5" r="4" fill="#e74c3c" class="data-point" style="animation-delay: 1.60s" />
    <circle cx="212.14285714285714" cy="312.5" r="4" fill="#e74c3c" class="data-point" style="animation-delay: 1.65s" />
    <circle cx="262.85714285714283" cy="312.5" r="4" fill="#e74c3c" class="data-point" style="animation-delay: 1.70s" />
    <circle cx="313.57142857142856" cy="312.5" r="4" fill="#e74c3c" class="data-point" style="animation-delay: 1.75s" />
    <circle cx="364.2857142857143" cy="312.5" r="4" fill="#e74c3c" class="data-point" style="animation-delay: 1.80s" />
    <circle cx="415" cy="312.5" r="4" fill="#e74c3c" class="data-point" style="animation-delay: 1.85s" />
    <circle cx="465.71428571428567" cy="312.5" r="4" fill="#e74c3c" class="data-point" style="animation-delay: 1.90s" />
    <circle cx="516.4285714285714" cy="312.5" r="4" fill="#e74c3c" class="data-point" style="animation-delay: 1.95s" />
    <circle cx="567.1428571428571" cy="312.5" r="4" fill="#e74c3c" class="data-point" style="animation-delay: 2.00s" />
    <circle cx="617.8571428571429" cy="312.5" r="4" fill="#e74c3c" class="data-point" style="animation-delay: 2.05s" />
    <circle cx="668.5714285714286" cy="312.5" r="4" fill="#e74c3c" class="data-point" style="animation-delay: 2.10s" />
    <circle cx="719.2857142857143" cy="312.5" r="4" fill="#e74c3c" class="data-point" style="animation-delay: 2.15s" />
    <circle cx="770" cy="312.5" r="4" fill="#e74c3c" class="data-point" style="animation-delay: 2.20s" />
    
    <circle cx="60" cy="312.5" r="4" fill="#3498db" class="data-point" style="animation-delay: 1.50s" />
    <circle cx="110.71428571428571" cy="312.5" r="4" fill="#3498db" class="data-point" style="animation-delay: 1.55s" />
    <circle cx="161.42857142857142" cy="312.5" r="4" fill="#3498db" class="data-point" style="animation-delay: 1.60s" />
    <circle cx="212.14285714285714" cy="312.5" r="4" fill="#3498db" class="data-point" style="animation-delay: 1.65s" />
    <circle cx="262.85714285714283" cy="312.5" r="4" fill="#3498db" class="data-point" style="animation-delay: 1.70s" />
    <circle cx="313.57142857142856" cy="312.5" r="4" fill="#3498db" class="data-point" style="animation-delay: 1.75s" />
    <circle cx="364.2857142857143" cy="312.5" r="4" fill="#3498db" class="data-point" style="animation-delay: 1.80s" />
    <circle cx="415" cy="312.5" r="4" fill="#3498db" class="data-point" style="animation-delay: 1.85s" />
    <circle cx="465.71428571428567" cy="312.5" r="4" fill="#3498db" class="data-point" style="animation-delay: 1.90s" />
    <circle cx="516.4285714285714" cy="312.5" r="4" fill="#3498db" class="data-point" style="animation-delay: 1.95s" />
    <circle cx="567.1428571428571" cy="312.5" r="4" fill="#3498db" class="data-point" style="animation-delay: 2.00s" />
    <circle cx="617.8571428571429" cy="312.5" r="4" fill="#3498db" class="data-point" style="animation-delay: 2.05s" />
    <circle cx="668.5714285714286" cy="312.5" r="4" fill="#3498db" class="data-point" style="animation-delay: 2.10s" />
    <circle cx="719.2857142857143" cy="312.5" r="4" fill="#3498db" class="data-point" style="animation-delay: 2.15s" />
    <circle cx="770" cy="312.5" r="4" fill="#3498db" class="data-point" style="animation-delay: 2.20s" />
    
    <circle cx="60" cy="350" r="4" fill="#9b59b6" class="data-point" style="animation-delay: 1.50s" />
    <circle cx="110.71428571428571" cy="350" r="4" fill="#9b59b6" class="data-point" style="animation-delay: 1.55s" />
    <circle cx="161.42857142857142" cy="350" r="4" fill="#9b59b6" class="data-point" style="animation-delay: 1.60s" />
    <circle cx="212.14285714285714" cy="350" r="4" fill="#9b59b6" class="data-point" style="animation-delay: 1.65s" />
    <circle cx="262.85714285714283" cy="350" r="4" fill="#9b59b6" class="data-point" style="animation-delay: 1.70s" />
    <circle cx="313.57142857142856" cy="350" r="4" fill="#9b59b6" class="data-point" style="animation-delay: 1.75s" />
    <circle cx="364.2857142857143" cy="350" r="4" fill="#9b59b6" class="data-point" style="animation-delay: 1.80s" />
    <circle cx="415" cy="350" r="4" fill="#9b59b6" class="data-point" style="animation-delay: 1.85s" />
    <circle cx="465.71428571428567" cy="350" r="4" fill="#9b59b6" class="data-point" style="animation-delay: 1.90s" />
    <circle cx="516.4285714285714" cy="350" r="4" fill="#9b59b6" class="data-point" style="animation-delay: 1.95s" />
    <circle cx="567.1428571428571" cy="350" r="4" fill="#9b59b6" class="data-point" style="animation-delay: 2.00s" />
    <circle cx="617.8571428571429" cy="350" r="4" fill="#9b59b6" class="data-point" style="animation-delay: 2.05s" />
    <circle cx="668.5714285714286" cy="350" r="4" fill="#9b59b6" class="data-point" style="animation-delay: 2.10s" />
    <circle cx="719.2857142857143" cy="350" r="4" fill="#9b59b6" class="data-point" style="animation-delay: 2.15s" />
    <circle cx="770" cy="350" r="4" fill="#9b59b6" class="data-point" style="animation-delay: 2.20s" />
    
    <circle cx="60" cy="350" r="4" fill="#e67e22" class="data-point" style="animation-delay: 1.50s" />
    <circle cx="110.71428571428571" cy="350" r="4" fill="#e67e22" class="data-point" style="animation-delay: 1.55s" />
    <circle cx="161.42857142857142" cy="350" r="4" fill="#e67e22" class="data-point" style="animation-delay: 1.60s" />
    <circle cx="212.14285714285714" cy="350" r="4" fill="#e67e22" class="data-point" style="animation-delay: 1.65s" />
    <circle cx="262.85714285714283" cy="350" r="4" fill="#e67e22" class="data-point" style="animation-delay: 1.70s" />
    <circle cx="313.57142857142856" cy="350" r="4" fill="#e67e22" class="data-point" style="animation-delay: 1.75s" />
    <circle cx="364.2857142857143" cy="350" r="4" fill="#e67e22" class="data-point" style="animation-delay: 1.80s" />
    <circle cx="415" cy="350" r="4" fill="#e67e22" class="data-point" style="animation-delay: 1.85s" />
    <circle cx="465.71428571428567" cy="350" r="4" fill="#e67e22" class="data-point" style="animation-delay: 1.90s" />
    <circle cx="516.4285714285714" cy="350" r="4" fill="#e67e22" class="data-point" style="animation-delay: 1.95s" />
    <circle cx="567.1428571428571" cy="350" r="4" fill="#e67e22" class="data-point" style="animation-delay: 2.00s" />
    <circle cx="617.8571428571429" cy="350" r="4" fill="#e67e22" class="data-point" style="animation-delay: 2.05s" />
    <circle cx="668.5714285714286" cy="350" r="4" fill="#e67e22" class="data-point" style="animation-delay: 2.10s" />
    <circle cx="719.2857142857143" cy="350" r="4" fill="#e67e22" class="data-point" style="animation-delay: 2.15s" />
    <circle cx="770" cy="350" r="4" fill="#e67e22" class="data-point" style="animation-delay: 2.20s" />
    
    <circle cx="60" cy="312.5" r="4" fill="#1abc9c" class="data-point" style="animation-delay: 1.50s" />
    <circle cx="110.71428571428571" cy="312.5" r="4" fill="#1abc9c" class="data-point" style="animation-delay: 1.55s" />
    <circle cx="161.42857142857142" cy="312.5" r="4" fill="#1abc9c" class="data-point" style="animation-delay: 1.60s" />
    <circle cx="212.14285714285714" cy="312.5" r="4" fill="#1abc9c" class="data-point" style="animation-delay: 1.65s" />
    <circle cx="262.85714285714283" cy="312.5" r="4" fill="#1abc9c" class="data-point" style="animation-delay: 1.70s" />
    <circle cx="313.57142857142856" cy="312.5" r="4" fill="#1abc9c" class="data-point" style="animation-delay: 1.75s" />
    <circle cx="364.2857142857143" cy="312.5" r="4" fill="#1abc9c" class="data-point" style="animation-delay: 1.80s" />
    <circle cx="415" cy="312.5" r="4" fill="#1abc9c" class="data-point" style="animation-delay: 1.85s" />
    <circle cx="465.71428571428567" cy="312.5" r="4" fill="#1abc9c" class="data-point" style="animation-delay: 1.90s" />
    <circle cx="516.4285714285714" cy="312.5" r="4" fill="#1abc9c" class="data-point" style="animation-delay: 1.95s" />
    <circle cx="567.1428571428571" cy="312.5" r="4" fill="#1abc9c" class="data-point" style="animation-delay: 2.00s" />
    <circle cx="617.8571428571429" cy="350" r="4" fill="#1abc9c" class="data-point" style="animation-delay: 2.05s" />
    <circle cx="668.5714285714286" cy="350" r="4" fill="#1abc9c" class="data-point" style="animation-delay: 2.10s" />
    <circle cx="719.2857142857143" cy="312.5" r="4" fill="#1abc9c" class="data-point" style="animation-delay: 2.15s" />
    <circle cx="770" cy="350" r="4" fill="#1abc9c" class="data-point" style="animation-delay: 2.20s" />
    
    <circle cx="60" cy="350" r="4" fill="#e84393" class="data-point" style="animation-delay: 1.50s" />
    <circle cx="110.71428571428571" cy="350" r="4" fill="#e84393" class="data-point" style="animation-delay: 1.55s" />
    <circle cx="161.42857142857142" cy="350" r="4" fill="#e84393" class="data-point" style="animation-delay: 1.60s" />
    <circle cx="212.14285714285714" cy="350" r="4" fill="#e84393" class="data-point" style="animation-delay: 1.65s" />
    <circle cx="262.85714285714283" cy="350" r="4" fill="#e84393" class="data-point" style="animation-delay: 1.70s" />
    <circle cx="313.57142857142856" cy="350" r="4" fill="#e84393" class="data-point" style="animation-delay: 1.75s" />
    <circle cx="364.2857142857143" cy="350" r="4" fill="#e84393" class="data-point" style="animation-delay: 1.80s" />
    <circle cx="415" cy="350" r="4" fill="#e84393" class="data-point" style="animation-delay: 1.85s" />
    <circle cx="465.71428571428567" cy="350" r="4" fill="#e84393" class="data-point" style="animation-delay: 1.90s" />
    <circle cx="516.4285714285714" cy="350" r="4" fill="#e84393" class="data-point" style="animation-delay: 1.95s" />
    <circle cx="567.1428571428571" cy="350" r="4" fill="#e84393" class="data-point" style="animation-delay: 2.00s" />
    <circle cx="617.8571428571429" cy="350" r="4" fill="#e84393" class="data-point" style="animation-delay: 2.05s" />
    <circle cx="668.5714285714286" cy="350" r="4" fill="#e84393" class="data-point" style="animation-delay: 2.10s" />
    <circle cx="719.2857142857143" cy="350" r="4" fill="#e84393" class="data-point" style="animation-delay: 2.15s" />
    <circle cx="770" cy="350" r="4" fill="#e84393" class="data-point" style="animation-delay: 2.20s" />
  </g>
</svg>