<svg xmlns="http://www.w3.org/2000/svg" viewBox="0 0 800 400" width="800" height="400">
  <style>
    @keyframes drawLine {
      to { stroke-dashoffset: 0; }
    }
    @keyframes fadeInPoint {
      from { opacity: 0; }
      to { opacity: 1; }
    }
    .data-line-0 {
      stroke-dasharray: 1065;
      stroke-dashoffset: 1065;
      animation: drawLine 2s ease-out forwards;
    }
    .data-point {
      opacity: 0;
      animation: fadeInPoint 0.5s ease-out forwards;
    }
    .chart-bg { fill: #fff; }
    .chart-text { fill: #24292e; }
    .chart-muted { fill: #6a737d; }
    .chart-grid { stroke: #eee; }
    .chart-axis { stroke: #6a737d; }
    @media (prefers-color-scheme: dark) {
      .chart-bg { fill: #0d1117; }
      .chart-text { fill: #e6edf3; }
      .chart-muted { fill: #8b949e; }
      .chart-grid { stroke: #21262d; }
      .chart-axis { stroke: #8b949e; }
    }
  </style>
  <rect width="800" height="400" class="chart-bg" />
  <text x="400" y="34" text-anchor="middle" class="chart-text" font-size="16" font-weight="bold" font-family="-apple-system, BlinkMacSystemFont, 'Segoe UI', Helvetica, Arial, sans-serif">fbuireu/fbuireu-cli Star History</text>
  
  <g class="grid">
    <line x1="60" y1="350" x2="770" y2="350" class="chart-grid" stroke-opacity="0.3" />
    <text x="52" y="354" text-anchor="end" class="chart-muted" font-size="11" font-family="-apple-system, BlinkMacSystemFont, 'Segoe UI', Helvetica, Arial, sans-serif">0</text>
    <line x1="60" y1="200" x2="770" y2="200" class="chart-grid" stroke-opacity="0.3" />
    <text x="52" y="204" text-anchor="end" class="chart-muted" font-size="11" font-family="-apple-system, BlinkMacSystemFont, 'Segoe UI', Helvetica, Arial, sans-serif">1</text>
    <line x1="60" y1="200" x2="770" y2="200" class="chart-grid" stroke-opacity="0.3" />
    <text x="52" y="204" text-anchor="end" class="chart-muted" font-size="11" font-family="-apple-system, BlinkMacSystemFont, 'Segoe UI', Helvetica, Arial, sans-serif">1</text>
    <line x1="60" y1="50" x2="770" y2="50" class="chart-grid" stroke-opacity="0.3" />
    <text x="52" y="54" text-anchor="end" class="chart-muted" font-size="11" font-family="-apple-system, BlinkMacSystemFont, 'Segoe UI', Helvetica, Arial, sans-serif">2</text>
    <line x1="60" y1="50" x2="770" y2="50" class="chart-grid" stroke-opacity="0.3" />
    <text x="52" y="54" text-anchor="end" class="chart-muted" font-size="11" font-family="-apple-system, BlinkMacSystemFont, 'Segoe UI', Helvetica, Arial, sans-serif">2</text>
  </g>
  <g class="milestones">
    
  </g>
  <g class="x-axis">
    <text x="60" y="370" text-anchor="middle" class="chart-muted" font-size="11" font-family="-apple-system, BlinkMacSystemFont, 'Segoe UI', Helvetica, Arial, sans-serif">Feb 13</text>
    <text x="166.5" y="370" text-anchor="middle" class="chart-muted" font-size="11" font-family="-apple-system, BlinkMacSystemFont, 'Segoe UI', Helvetica, Arial, sans-serif">Feb 13</text>
    <text x="273" y="370" text-anchor="middle" class="chart-muted" font-size="11" font-family="-apple-system, BlinkMacSystemFont, 'Segoe UI', Helvetica, Arial, sans-serif">Feb 13</text>
    <text x="379.5" y="370" text-anchor="middle" class="chart-muted" font-size="11" font-family="-apple-system, BlinkMacSystemFont, 'Segoe UI', Helvetica, Arial, sans-serif">Feb 14</text>
    <text x="486" y="370" text-anchor="middle" class="chart-muted" font-size="11" font-family="-apple-system, BlinkMacSystemFont, 'Segoe UI', Helvetica, Arial, sans-serif">Feb 15</text>
    <text x="592.5" y="370" text-anchor="middle" class="chart-muted" font-size="11" font-family="-apple-system, BlinkMacSystemFont, 'Segoe UI', Helvetica, Arial, sans-serif">Mar 8</text>
    <text x="699" y="370" text-anchor="middle" class="chart-muted" font-size="11" font-family="-apple-system, BlinkMacSystemFont, 'Segoe UI', Helvetica, Arial, sans-serif">Mar 29</text>
    <text x="770" y="370" text-anchor="middle" class="chart-muted" font-size="11" font-family="-apple-system, BlinkMacSystemFont, 'Segoe UI', Helvetica, Arial, sans-serif">Apr 12</text>
  </g>
  <line x1="60" y1="50" x2="60" y2="350" class="chart-axis" stroke-width="1" />
  <line x1="60" y1="350" x2="770" y2="350" class="chart-axis" stroke-width="1" />
  <path d="M60,200 C64.73333333333333,200 86.03333333333333,200 95.5,200 C104.96666666666667,200 121.53333333333333,200 131,200 C140.46666666666667,200 157.03333333333333,200 166.5,200 C175.96666666666667,200 192.53333333333333,200 202,200 C211.46666666666667,200 228.03333333333333,200 237.5,200 C246.96666666666667,200 263.53333333333336,200 273,200 C282.46666666666664,200 299.03333333333336,200 308.5,200 C317.96666666666664,200 334.53333333333336,200 344,200 C353.46666666666664,200 370.03333333333336,200 379.5,200 C388.96666666666664,200 405.5333333333333,200 415,200 C424.4666666666667,200 441.0333333333334,200 450.50000000000006,200 C459.9666666666667,200 476.53333333333336,200 486,200 C495.46666666666664,200 512.0333333333333,200 521.5,200 C530.9666666666667,200 547.5333333333333,200 557,200 C566.4666666666667,200 583.0333333333333,200 592.5,200 C601.9666666666667,200 618.5333333333333,200 628,200 C637.4666666666667,200 654.0333333333333,200 663.5,200 C672.9666666666667,200 689.5333333333333,200 699,200 C708.4666666666667,200 725.0333333333333,200 734.5,200 C743.9666666666667,200 765.2666666666667,200 770,200 L770,350 L60,350 Z" fill="#dfb317" fill-opacity="0.1" />
  <path d="M60,200 C64.73333333333333,200 86.03333333333333,200 95.5,200 C104.96666666666667,200 121.53333333333333,200 131,200 C140.46666666666667,200 157.03333333333333,200 166.5,200 C175.96666666666667,200 192.53333333333333,200 202,200 C211.46666666666667,200 228.03333333333333,200 237.5,200 C246.96666666666667,200 263.53333333333336,200 273,200 C282.46666666666664,200 299.03333333333336,200 308.5,200 C317.96666666666664,200 334.53333333333336,200 344,200 C353.46666666666664,200 370.03333333333336,200 379.5,200 C388.96666666666664,200 405.5333333333333,200 415,200 C424.4666666666667,200 441.0333333333334,200 450.50000000000006,200 C459.9666666666667,200 476.53333333333336,200 486,200 C495.46666666666664,200 512.0333333333333,200 521.5,200 C530.9666666666667,200 547.5333333333333,200 557,200 C566.4666666666667,200 583.0333333333333,200 592.5,200 C601.9666666666667,200 618.5333333333333,200 628,200 C637.4666666666667,200 654.0333333333333,200 663.5,200 C672.9666666666667,200 689.5333333333333,200 699,200 C708.4666666666667,200 725.0333333333333,200 734.5,200 C743.9666666666667,200 765.2666666666667,200 770,200" fill="none" stroke="#dfb317" stroke-width="2.5" class="data-line-0" />
  <g class="points">
    
    <circle cx="60" cy="200" r="4" fill="#dfb317" class="data-point" style="animation-delay: 1.50s" />
    <circle cx="95.5" cy="200" r="4" fill="#dfb317" class="data-point" style="animation-delay: 1.55s" />
    <circle cx="131" cy="200" r="4" fill="#dfb317" class="data-point" style="animation-delay: 1.60s" />
    <circle cx="166.5" cy="200" r="4" fill="#dfb317" class="data-point" style="animation-delay: 1.65s" />
    <circle cx="202" cy="200" r="4" fill="#dfb317" class="data-point" style="animation-delay: 1.70s" />
    <circle cx="237.5" cy="200" r="4" fill="#dfb317" class="data-point" style="animation-delay: 1.75s" />
    <circle cx="273" cy="200" r="4" fill="#dfb317" class="data-point" style="animation-delay: 1.80s" />
    <circle cx="308.5" cy="200" r="4" fill="#dfb317" class="data-point" style="animation-delay: 1.85s" />
    <circle cx="344" cy="200" r="4" fill="#dfb317" class="data-point" style="animation-delay: 1.90s" />
    <circle cx="379.5" cy="200" r="4" fill="#dfb317" class="data-point" style="animation-delay: 1.95s" />
    <circle cx="415" cy="200" r="4" fill="#dfb317" class="data-point" style="animation-delay: 2.00s" />
    <circle cx="450.50000000000006" cy="200" r="4" fill="#dfb317" class="data-point" style="animation-delay: 2.05s" />
    <circle cx="486" cy="200" r="4" fill="#dfb317" class="data-point" style="animation-delay: 2.10s" />
    <circle cx="521.5" cy="200" r="4" fill="#dfb317" class="data-point" style="animation-delay: 2.15s" />
    <circle cx="557" cy="200" r="4" fill="#dfb317" class="data-point" style="animation-delay: 2.20s" />
    <circle cx="592.5" cy="200" r="4" fill="#dfb317" class="data-point" style="animation-delay: 2.25s" />
    <circle cx="628" cy="200" r="4" fill="#dfb317" class="data-point" style="animation-delay: 2.30s" />
    <circle cx="663.5" cy="200" r="4" fill="#dfb317" class="data-point" style="animation-delay: 2.35s" />
    <circle cx="699" cy="200" r="4" fill="#dfb317" class="data-point" style="animation-delay: 2.40s" />
    <circle cx="734.5" cy="200" r="4" fill="#dfb317" class="data-point" style="animation-delay: 2.45s" />
    <circle cx="770" cy="200" r="4" fill="#dfb317" class="data-point" style="animation-delay: 2.50s" />
  </g>
</svg>