<svg xmlns="http://www.w3.org/2000/svg" viewBox="0 0 800 400" width="800" height="400">
  <style>
    @keyframes drawLine {
      to { stroke-dashoffset: 0; }
    }
    @keyframes fadeInPoint {
      from { opacity: 0; }
      to { opacity: 1; }
    }
    .data-line-0 {
      stroke-dasharray: 1799;
      stroke-dashoffset: 1799;
      animation: drawLine 2s ease-out forwards;
    }
    .data-point {
      opacity: 0;
      animation: fadeInPoint 0.5s ease-out forwards;
    }
    .chart-bg { fill: #fff; }
    .chart-text { fill: #24292e; }
    .chart-muted { fill: #6a737d; }
    .chart-grid { stroke: #eee; }
    .chart-axis { stroke: #6a737d; }
    @media (prefers-color-scheme: dark) {
      .chart-bg { fill: #0d1117; }
      .chart-text { fill: #e6edf3; }
      .chart-muted { fill: #8b949e; }
      .chart-grid { stroke: #21262d; }
      .chart-axis { stroke: #8b949e; }
    }
  </style>
  <rect width="800" height="400" class="chart-bg" />
  <text x="400" y="34" text-anchor="middle" class="chart-text" font-size="16" font-weight="bold" font-family="-apple-system, BlinkMacSystemFont, 'Segoe UI', Helvetica, Arial, sans-serif">fbuireu/github-star-tracker Star History</text>
  
  <g class="grid">
    <line x1="60" y1="350" x2="770" y2="350" class="chart-grid" stroke-opacity="0.3" />
    <text x="52" y="354" text-anchor="end" class="chart-muted" font-size="11" font-family="-apple-system, BlinkMacSystemFont, 'Segoe UI', Helvetica, Arial, sans-serif">0</text>
    <line x1="60" y1="200" x2="770" y2="200" class="chart-grid" stroke-opacity="0.3" />
    <text x="52" y="204" text-anchor="end" class="chart-muted" font-size="11" font-family="-apple-system, BlinkMacSystemFont, 'Segoe UI', Helvetica, Arial, sans-serif">1</text>
    <line x1="60" y1="200" x2="770" y2="200" class="chart-grid" stroke-opacity="0.3" />
    <text x="52" y="204" text-anchor="end" class="chart-muted" font-size="11" font-family="-apple-system, BlinkMacSystemFont, 'Segoe UI', Helvetica, Arial, sans-serif">1</text>
    <line x1="60" y1="50" x2="770" y2="50" class="chart-grid" stroke-opacity="0.3" />
    <text x="52" y="54" text-anchor="end" class="chart-muted" font-size="11" font-family="-apple-system, BlinkMacSystemFont, 'Segoe UI', Helvetica, Arial, sans-serif">2</text>
    <line x1="60" y1="50" x2="770" y2="50" class="chart-grid" stroke-opacity="0.3" />
    <text x="52" y="54" text-anchor="end" class="chart-muted" font-size="11" font-family="-apple-system, BlinkMacSystemFont, 'Segoe UI', Helvetica, Arial, sans-serif">2</text>
  </g>
  <g class="milestones">
    
  </g>
  <g class="x-axis">
    <text x="60" y="370" text-anchor="middle" class="chart-muted" font-size="11" font-family="-apple-system, BlinkMacSystemFont, 'Segoe UI', Helvetica, Arial, sans-serif">Feb 13</text>
    <text x="152.6086956521739" y="370" text-anchor="middle" class="chart-muted" font-size="11" font-family="-apple-system, BlinkMacSystemFont, 'Segoe UI', Helvetica, Arial, sans-serif">Feb 13</text>
    <text x="245.2173913043478" y="370" text-anchor="middle" class="chart-muted" font-size="11" font-family="-apple-system, BlinkMacSystemFont, 'Segoe UI', Helvetica, Arial, sans-serif">Feb 13</text>
    <text x="337.82608695652175" y="370" text-anchor="middle" class="chart-muted" font-size="11" font-family="-apple-system, BlinkMacSystemFont, 'Segoe UI', Helvetica, Arial, sans-serif">Feb 14</text>
    <text x="430.4347826086956" y="370" text-anchor="middle" class="chart-muted" font-size="11" font-family="-apple-system, BlinkMacSystemFont, 'Segoe UI', Helvetica, Arial, sans-serif">Feb 15</text>
    <text x="523.0434782608695" y="370" text-anchor="middle" class="chart-muted" font-size="11" font-family="-apple-system, BlinkMacSystemFont, 'Segoe UI', Helvetica, Arial, sans-serif">Mar 8</text>
    <text x="615.6521739130435" y="370" text-anchor="middle" class="chart-muted" font-size="11" font-family="-apple-system, BlinkMacSystemFont, 'Segoe UI', Helvetica, Arial, sans-serif">Mar 29</text>
    <text x="708.2608695652174" y="370" text-anchor="middle" class="chart-muted" font-size="11" font-family="-apple-system, BlinkMacSystemFont, 'Segoe UI', Helvetica, Arial, sans-serif">Apr 19</text>
    <text x="770" y="370" text-anchor="middle" class="chart-muted" font-size="11" font-family="-apple-system, BlinkMacSystemFont, 'Segoe UI', Helvetica, Arial, sans-serif">May 3</text>
  </g>
  <line x1="60" y1="50" x2="60" y2="350" class="chart-axis" stroke-width="1" />
  <line x1="60" y1="350" x2="770" y2="350" class="chart-axis" stroke-width="1" />
  <path d="M60,200 C64.11594202898551,200 82.6376811594203,200 90.86956521739131,200 C99.10144927536233,200 113.5072463768116,200 121.73913043478261,200 C129.97101449275362,200 144.37681159420288,200 152.6086956521739,200 C160.84057971014494,200 175.2463768115942,200 183.47826086956522,200 C191.71014492753625,200 206.11594202898553,200 214.34782608695653,200 C222.57971014492753,200 236.9855072463768,200 245.2173913043478,200 C253.44927536231882,200 267.8550724637681,200 276.0869565217391,200 C284.3188405797101,200 298.72463768115944,200 306.95652173913044,200 C315.18840579710144,200 329.59420289855075,200 337.82608695652175,200 C346.05797101449275,200 360.46376811594206,180 368.69565217391306,200 C376.92753623188406,220 391.33333333333337,330 399.5652173913044,350 C407.7971014492754,370 422.2028985507246,370 430.4347826086956,350 C438.66666666666663,330 453.07246376811594,200 461.30434782608694,200 C469.53623188405794,200 483.9420289855073,330 492.1739130434783,350 C500.4057971014493,370 514.8115942028985,350 523.0434782608695,350 C531.2753623188405,350 545.6811594202899,350 553.9130434782609,350 C562.1449275362319,350 576.5507246376811,350 584.7826086956521,350 C593.0144927536231,350 607.4202898550725,350 615.6521739130435,350 C623.8840579710145,350 638.2898550724638,350 646.5217391304348,350 C654.7536231884058,350 669.1594202898551,370 677.3913043478261,350 C685.6231884057971,330 700.0289855072464,220 708.2608695652174,200 C716.4927536231884,180 730.8985507246377,200 739.1304347826087,200 C747.3623188405797,200 765.8840579710145,200 770,200 L770,350 L60,350 Z" fill="#dfb317" fill-opacity="0.1" />
  <path d="M60,200 C64.11594202898551,200 82.6376811594203,200 90.86956521739131,200 C99.10144927536233,200 113.5072463768116,200 121.73913043478261,200 C129.97101449275362,200 144.37681159420288,200 152.6086956521739,200 C160.84057971014494,200 175.2463768115942,200 183.47826086956522,200 C191.71014492753625,200 206.11594202898553,200 214.34782608695653,200 C222.57971014492753,200 236.9855072463768,200 245.2173913043478,200 C253.44927536231882,200 267.8550724637681,200 276.0869565217391,200 C284.3188405797101,200 298.72463768115944,200 306.95652173913044,200 C315.18840579710144,200 329.59420289855075,200 337.82608695652175,200 C346.05797101449275,200 360.46376811594206,180 368.69565217391306,200 C376.92753623188406,220 391.33333333333337,330 399.5652173913044,350 C407.7971014492754,370 422.2028985507246,370 430.4347826086956,350 C438.66666666666663,330 453.07246376811594,200 461.30434782608694,200 C469.53623188405794,200 483.9420289855073,330 492.1739130434783,350 C500.4057971014493,370 514.8115942028985,350 523.0434782608695,350 C531.2753623188405,350 545.6811594202899,350 553.9130434782609,350 C562.1449275362319,350 576.5507246376811,350 584.7826086956521,350 C593.0144927536231,350 607.4202898550725,350 615.6521739130435,350 C623.8840579710145,350 638.2898550724638,350 646.5217391304348,350 C654.7536231884058,350 669.1594202898551,370 677.3913043478261,350 C685.6231884057971,330 700.0289855072464,220 708.2608695652174,200 C716.4927536231884,180 730.8985507246377,200 739.1304347826087,200 C747.3623188405797,200 765.8840579710145,200 770,200" fill="none" stroke="#dfb317" stroke-width="2.5" class="data-line-0" />
  <g class="points">
    
    <circle cx="60" cy="200" r="4" fill="#dfb317" class="data-point" style="animation-delay: 1.50s" />
    <circle cx="90.86956521739131" cy="200" r="4" fill="#dfb317" class="data-point" style="animation-delay: 1.55s" />
    <circle cx="121.73913043478261" cy="200" r="4" fill="#dfb317" class="data-point" style="animation-delay: 1.60s" />
    <circle cx="152.6086956521739" cy="200" r="4" fill="#dfb317" class="data-point" style="animation-delay: 1.65s" />
    <circle cx="183.47826086956522" cy="200" r="4" fill="#dfb317" class="data-point" style="animation-delay: 1.70s" />
    <circle cx="214.34782608695653" cy="200" r="4" fill="#dfb317" class="data-point" style="animation-delay: 1.75s" />
    <circle cx="245.2173913043478" cy="200" r="4" fill="#dfb317" class="data-point" style="animation-delay: 1.80s" />
    <circle cx="276.0869565217391" cy="200" r="4" fill="#dfb317" class="data-point" style="animation-delay: 1.85s" />
    <circle cx="306.95652173913044" cy="200" r="4" fill="#dfb317" class="data-point" style="animation-delay: 1.90s" />
    <circle cx="337.82608695652175" cy="200" r="4" fill="#dfb317" class="data-point" style="animation-delay: 1.95s" />
    <circle cx="368.69565217391306" cy="200" r="4" fill="#dfb317" class="data-point" style="animation-delay: 2.00s" />
    <circle cx="399.5652173913044" cy="350" r="4" fill="#dfb317" class="data-point" style="animation-delay: 2.05s" />
    <circle cx="430.4347826086956" cy="350" r="4" fill="#dfb317" class="data-point" style="animation-delay: 2.10s" />
    <circle cx="461.30434782608694" cy="200" r="4" fill="#dfb317" class="data-point" style="animation-delay: 2.15s" />
    <circle cx="492.1739130434783" cy="350" r="4" fill="#dfb317" class="data-point" style="animation-delay: 2.20s" />
    <circle cx="523.0434782608695" cy="350" r="4" fill="#dfb317" class="data-point" style="animation-delay: 2.25s" />
    <circle cx="553.9130434782609" cy="350" r="4" fill="#dfb317" class="data-point" style="animation-delay: 2.30s" />
    <circle cx="584.7826086956521" cy="350" r="4" fill="#dfb317" class="data-point" style="animation-delay: 2.35s" />
    <circle cx="615.6521739130435" cy="350" r="4" fill="#dfb317" class="data-point" style="animation-delay: 2.40s" />
    <circle cx="646.5217391304348" cy="350" r="4" fill="#dfb317" class="data-point" style="animation-delay: 2.45s" />
    <circle cx="677.3913043478261" cy="350" r="4" fill="#dfb317" class="data-point" style="animation-delay: 2.50s" />
    <circle cx="708.2608695652174" cy="200" r="4" fill="#dfb317" class="data-point" style="animation-delay: 2.55s" />
    <circle cx="739.1304347826087" cy="200" r="4" fill="#dfb317" class="data-point" style="animation-delay: 2.60s" />
    <circle cx="770" cy="200" r="4" fill="#dfb317" class="data-point" style="animation-delay: 2.65s" />
  </g>
</svg>