<svg xmlns="http://www.w3.org/2000/svg" viewBox="0 0 800 400" width="800" height="400">
  <style>
    @keyframes drawLine {
      to { stroke-dashoffset: 0; }
    }
    @keyframes fadeInPoint {
      from { opacity: 0; }
      to { opacity: 1; }
    }
    .data-line-0 {
      stroke-dasharray: 1065;
      stroke-dashoffset: 1065;
      animation: drawLine 2s ease-out forwards;
    }
    .data-point {
      opacity: 0;
      animation: fadeInPoint 0.5s ease-out forwards;
    }
    .chart-bg { fill: #fff; }
    .chart-text { fill: #24292e; }
    .chart-muted { fill: #6a737d; }
    .chart-grid { stroke: #eee; }
    .chart-axis { stroke: #6a737d; }
    @media (prefers-color-scheme: dark) {
      .chart-bg { fill: #0d1117; }
      .chart-text { fill: #e6edf3; }
      .chart-muted { fill: #8b949e; }
      .chart-grid { stroke: #21262d; }
      .chart-axis { stroke: #8b949e; }
    }
  </style>
  <rect width="800" height="400" class="chart-bg" />
  <text x="400" y="34" text-anchor="middle" class="chart-text" font-size="16" font-weight="bold" font-family="-apple-system, BlinkMacSystemFont, 'Segoe UI', Helvetica, Arial, sans-serif">fbuireu/curriculum-vitae Star History</text>
  
  <g class="grid">
    <line x1="60" y1="350" x2="770" y2="350" class="chart-grid" stroke-opacity="0.3" />
    <text x="52" y="354" text-anchor="end" class="chart-muted" font-size="11" font-family="-apple-system, BlinkMacSystemFont, 'Segoe UI', Helvetica, Arial, sans-serif">0</text>
    <line x1="60" y1="200" x2="770" y2="200" class="chart-grid" stroke-opacity="0.3" />
    <text x="52" y="204" text-anchor="end" class="chart-muted" font-size="11" font-family="-apple-system, BlinkMacSystemFont, 'Segoe UI', Helvetica, Arial, sans-serif">1</text>
    <line x1="60" y1="200" x2="770" y2="200" class="chart-grid" stroke-opacity="0.3" />
    <text x="52" y="204" text-anchor="end" class="chart-muted" font-size="11" font-family="-apple-system, BlinkMacSystemFont, 'Segoe UI', Helvetica, Arial, sans-serif">1</text>
    <line x1="60" y1="50" x2="770" y2="50" class="chart-grid" stroke-opacity="0.3" />
    <text x="52" y="54" text-anchor="end" class="chart-muted" font-size="11" font-family="-apple-system, BlinkMacSystemFont, 'Segoe UI', Helvetica, Arial, sans-serif">2</text>
    <line x1="60" y1="50" x2="770" y2="50" class="chart-grid" stroke-opacity="0.3" />
    <text x="52" y="54" text-anchor="end" class="chart-muted" font-size="11" font-family="-apple-system, BlinkMacSystemFont, 'Segoe UI', Helvetica, Arial, sans-serif">2</text>
  </g>
  <g class="milestones">
    
  </g>
  <g class="x-axis">
    <text x="60" y="370" text-anchor="middle" class="chart-muted" font-size="11" font-family="-apple-system, BlinkMacSystemFont, 'Segoe UI', Helvetica, Arial, sans-serif">Feb 13</text>
    <text x="148.75" y="370" text-anchor="middle" class="chart-muted" font-size="11" font-family="-apple-system, BlinkMacSystemFont, 'Segoe UI', Helvetica, Arial, sans-serif">Feb 13</text>
    <text x="237.5" y="370" text-anchor="middle" class="chart-muted" font-size="11" font-family="-apple-system, BlinkMacSystemFont, 'Segoe UI', Helvetica, Arial, sans-serif">Feb 13</text>
    <text x="326.25" y="370" text-anchor="middle" class="chart-muted" font-size="11" font-family="-apple-system, BlinkMacSystemFont, 'Segoe UI', Helvetica, Arial, sans-serif">Feb 14</text>
    <text x="415" y="370" text-anchor="middle" class="chart-muted" font-size="11" font-family="-apple-system, BlinkMacSystemFont, 'Segoe UI', Helvetica, Arial, sans-serif">Feb 15</text>
    <text x="503.75" y="370" text-anchor="middle" class="chart-muted" font-size="11" font-family="-apple-system, BlinkMacSystemFont, 'Segoe UI', Helvetica, Arial, sans-serif">Mar 8</text>
    <text x="592.5" y="370" text-anchor="middle" class="chart-muted" font-size="11" font-family="-apple-system, BlinkMacSystemFont, 'Segoe UI', Helvetica, Arial, sans-serif">Mar 29</text>
    <text x="681.25" y="370" text-anchor="middle" class="chart-muted" font-size="11" font-family="-apple-system, BlinkMacSystemFont, 'Segoe UI', Helvetica, Arial, sans-serif">Apr 19</text>
    <text x="770" y="370" text-anchor="middle" class="chart-muted" font-size="11" font-family="-apple-system, BlinkMacSystemFont, 'Segoe UI', Helvetica, Arial, sans-serif">May 10</text>
  </g>
  <line x1="60" y1="50" x2="60" y2="350" class="chart-axis" stroke-width="1" />
  <line x1="60" y1="350" x2="770" y2="350" class="chart-axis" stroke-width="1" />
  <path d="M60,200 C63.94444444444444,200 81.69444444444444,200 89.58333333333333,200 C97.47222222222221,200 111.27777777777777,200 119.16666666666666,200 C127.05555555555554,200 140.86111111111111,200 148.75,200 C156.63888888888889,200 170.44444444444443,200 178.33333333333331,200 C186.2222222222222,200 200.0277777777778,200 207.91666666666669,200 C215.80555555555557,200 229.61111111111111,200 237.5,200 C245.38888888888889,200 259.1944444444445,200 267.08333333333337,200 C274.97222222222223,200 288.77777777777777,200 296.66666666666663,200 C304.5555555555555,200 318.3611111111111,200 326.25,200 C334.1388888888889,200 347.9444444444445,200 355.83333333333337,200 C363.72222222222223,200 377.52777777777777,200 385.41666666666663,200 C393.3055555555555,200 407.1111111111111,200 415,200 C422.8888888888889,200 436.6944444444444,200 444.5833333333333,200 C452.47222222222223,200 466.27777777777777,200 474.1666666666667,200 C482.0555555555556,200 495.86111111111114,200 503.75,200 C511.63888888888886,200 525.4444444444443,200 533.3333333333333,200 C541.2222222222222,200 555.0277777777778,200 562.9166666666667,200 C570.8055555555557,200 584.6111111111111,200 592.5,200 C600.3888888888889,200 614.1944444444443,200 622.0833333333333,200 C629.9722222222222,200 643.7777777777778,200 651.6666666666667,200 C659.5555555555557,200 673.3611111111111,200 681.25,200 C689.1388888888889,200 702.9444444444443,200 710.8333333333333,200 C718.7222222222222,200 732.5277777777778,200 740.4166666666667,200 C748.3055555555557,200 766.0555555555555,200 770,200 L770,350 L60,350 Z" fill="#dfb317" fill-opacity="0.1" />
  <path d="M60,200 C63.94444444444444,200 81.69444444444444,200 89.58333333333333,200 C97.47222222222221,200 111.27777777777777,200 119.16666666666666,200 C127.05555555555554,200 140.86111111111111,200 148.75,200 C156.63888888888889,200 170.44444444444443,200 178.33333333333331,200 C186.2222222222222,200 200.0277777777778,200 207.91666666666669,200 C215.80555555555557,200 229.61111111111111,200 237.5,200 C245.38888888888889,200 259.1944444444445,200 267.08333333333337,200 C274.97222222222223,200 288.77777777777777,200 296.66666666666663,200 C304.5555555555555,200 318.3611111111111,200 326.25,200 C334.1388888888889,200 347.9444444444445,200 355.83333333333337,200 C363.72222222222223,200 377.52777777777777,200 385.41666666666663,200 C393.3055555555555,200 407.1111111111111,200 415,200 C422.8888888888889,200 436.6944444444444,200 444.5833333333333,200 C452.47222222222223,200 466.27777777777777,200 474.1666666666667,200 C482.0555555555556,200 495.86111111111114,200 503.75,200 C511.63888888888886,200 525.4444444444443,200 533.3333333333333,200 C541.2222222222222,200 555.0277777777778,200 562.9166666666667,200 C570.8055555555557,200 584.6111111111111,200 592.5,200 C600.3888888888889,200 614.1944444444443,200 622.0833333333333,200 C629.9722222222222,200 643.7777777777778,200 651.6666666666667,200 C659.5555555555557,200 673.3611111111111,200 681.25,200 C689.1388888888889,200 702.9444444444443,200 710.8333333333333,200 C718.7222222222222,200 732.5277777777778,200 740.4166666666667,200 C748.3055555555557,200 766.0555555555555,200 770,200" fill="none" stroke="#dfb317" stroke-width="2.5" class="data-line-0" />
  <g class="points">
    
    <circle cx="60" cy="200" r="4" fill="#dfb317" class="data-point" style="animation-delay: 1.50s" />
    <circle cx="89.58333333333333" cy="200" r="4" fill="#dfb317" class="data-point" style="animation-delay: 1.55s" />
    <circle cx="119.16666666666666" cy="200" r="4" fill="#dfb317" class="data-point" style="animation-delay: 1.60s" />
    <circle cx="148.75" cy="200" r="4" fill="#dfb317" class="data-point" style="animation-delay: 1.65s" />
    <circle cx="178.33333333333331" cy="200" r="4" fill="#dfb317" class="data-point" style="animation-delay: 1.70s" />
    <circle cx="207.91666666666669" cy="200" r="4" fill="#dfb317" class="data-point" style="animation-delay: 1.75s" />
    <circle cx="237.5" cy="200" r="4" fill="#dfb317" class="data-point" style="animation-delay: 1.80s" />
    <circle cx="267.08333333333337" cy="200" r="4" fill="#dfb317" class="data-point" style="animation-delay: 1.85s" />
    <circle cx="296.66666666666663" cy="200" r="4" fill="#dfb317" class="data-point" style="animation-delay: 1.90s" />
    <circle cx="326.25" cy="200" r="4" fill="#dfb317" class="data-point" style="animation-delay: 1.95s" />
    <circle cx="355.83333333333337" cy="200" r="4" fill="#dfb317" class="data-point" style="animation-delay: 2.00s" />
    <circle cx="385.41666666666663" cy="200" r="4" fill="#dfb317" class="data-point" style="animation-delay: 2.05s" />
    <circle cx="415" cy="200" r="4" fill="#dfb317" class="data-point" style="animation-delay: 2.10s" />
    <circle cx="444.5833333333333" cy="200" r="4" fill="#dfb317" class="data-point" style="animation-delay: 2.15s" />
    <circle cx="474.1666666666667" cy="200" r="4" fill="#dfb317" class="data-point" style="animation-delay: 2.20s" />
    <circle cx="503.75" cy="200" r="4" fill="#dfb317" class="data-point" style="animation-delay: 2.25s" />
    <circle cx="533.3333333333333" cy="200" r="4" fill="#dfb317" class="data-point" style="animation-delay: 2.30s" />
    <circle cx="562.9166666666667" cy="200" r="4" fill="#dfb317" class="data-point" style="animation-delay: 2.35s" />
    <circle cx="592.5" cy="200" r="4" fill="#dfb317" class="data-point" style="animation-delay: 2.40s" />
    <circle cx="622.0833333333333" cy="200" r="4" fill="#dfb317" class="data-point" style="animation-delay: 2.45s" />
    <circle cx="651.6666666666667" cy="200" r="4" fill="#dfb317" class="data-point" style="animation-delay: 2.50s" />
    <circle cx="681.25" cy="200" r="4" fill="#dfb317" class="data-point" style="animation-delay: 2.55s" />
    <circle cx="710.8333333333333" cy="200" r="4" fill="#dfb317" class="data-point" style="animation-delay: 2.60s" />
    <circle cx="740.4166666666667" cy="200" r="4" fill="#dfb317" class="data-point" style="animation-delay: 2.65s" />
    <circle cx="770" cy="200" r="4" fill="#dfb317" class="data-point" style="animation-delay: 2.70s" />
  </g>
</svg>