<svg xmlns="http://www.w3.org/2000/svg" viewBox="0 0 800 400" width="800" height="400">
  <style>
    @keyframes drawLine {
      to { stroke-dashoffset: 0; }
    }
    @keyframes fadeInPoint {
      from { opacity: 0; }
      to { opacity: 1; }
    }
    .data-line-0 {
      stroke-dasharray: 1065;
      stroke-dashoffset: 1065;
      animation: drawLine 2s ease-out forwards;
    }
    .data-point {
      opacity: 0;
      animation: fadeInPoint 0.5s ease-out forwards;
    }
    .chart-bg { fill: #fff; }
    .chart-text { fill: #24292e; }
    .chart-muted { fill: #6a737d; }
    .chart-grid { stroke: #eee; }
    .chart-axis { stroke: #6a737d; }
    @media (prefers-color-scheme: dark) {
      .chart-bg { fill: #0d1117; }
      .chart-text { fill: #e6edf3; }
      .chart-muted { fill: #8b949e; }
      .chart-grid { stroke: #21262d; }
      .chart-axis { stroke: #8b949e; }
    }
  </style>
  <rect width="800" height="400" class="chart-bg" />
  <text x="400" y="34" text-anchor="middle" class="chart-text" font-size="16" font-weight="bold" font-family="-apple-system, BlinkMacSystemFont, 'Segoe UI', Helvetica, Arial, sans-serif">fbuireu/hashnode-articles-backup Star History</text>
  
  <g class="grid">
    <line x1="60" y1="350" x2="770" y2="350" class="chart-grid" stroke-opacity="0.3" />
    <text x="52" y="354" text-anchor="end" class="chart-muted" font-size="11" font-family="-apple-system, BlinkMacSystemFont, 'Segoe UI', Helvetica, Arial, sans-serif">0</text>
    <line x1="60" y1="350" x2="770" y2="350" class="chart-grid" stroke-opacity="0.3" />
    <text x="52" y="354" text-anchor="end" class="chart-muted" font-size="11" font-family="-apple-system, BlinkMacSystemFont, 'Segoe UI', Helvetica, Arial, sans-serif">0</text>
    <line x1="60" y1="350" x2="770" y2="350" class="chart-grid" stroke-opacity="0.3" />
    <text x="52" y="354" text-anchor="end" class="chart-muted" font-size="11" font-family="-apple-system, BlinkMacSystemFont, 'Segoe UI', Helvetica, Arial, sans-serif">0</text>
    <line x1="60" y1="50" x2="770" y2="50" class="chart-grid" stroke-opacity="0.3" />
    <text x="52" y="54" text-anchor="end" class="chart-muted" font-size="11" font-family="-apple-system, BlinkMacSystemFont, 'Segoe UI', Helvetica, Arial, sans-serif">1</text>
    <line x1="60" y1="50" x2="770" y2="50" class="chart-grid" stroke-opacity="0.3" />
    <text x="52" y="54" text-anchor="end" class="chart-muted" font-size="11" font-family="-apple-system, BlinkMacSystemFont, 'Segoe UI', Helvetica, Arial, sans-serif">1</text>
    <line x1="60" y1="50" x2="770" y2="50" class="chart-grid" stroke-opacity="0.3" />
    <text x="52" y="54" text-anchor="end" class="chart-muted" font-size="11" font-family="-apple-system, BlinkMacSystemFont, 'Segoe UI', Helvetica, Arial, sans-serif">1</text>
  </g>
  <g class="milestones">
    
  </g>
  <g class="x-axis">
    <text x="60" y="370" text-anchor="middle" class="chart-muted" font-size="11" font-family="-apple-system, BlinkMacSystemFont, 'Segoe UI', Helvetica, Arial, sans-serif">Feb 13</text>
    <text x="161.42857142857142" y="370" text-anchor="middle" class="chart-muted" font-size="11" font-family="-apple-system, BlinkMacSystemFont, 'Segoe UI', Helvetica, Arial, sans-serif">Feb 13</text>
    <text x="262.85714285714283" y="370" text-anchor="middle" class="chart-muted" font-size="11" font-family="-apple-system, BlinkMacSystemFont, 'Segoe UI', Helvetica, Arial, sans-serif">Feb 13</text>
    <text x="364.2857142857143" y="370" text-anchor="middle" class="chart-muted" font-size="11" font-family="-apple-system, BlinkMacSystemFont, 'Segoe UI', Helvetica, Arial, sans-serif">Feb 14</text>
    <text x="465.71428571428567" y="370" text-anchor="middle" class="chart-muted" font-size="11" font-family="-apple-system, BlinkMacSystemFont, 'Segoe UI', Helvetica, Arial, sans-serif">Feb 15</text>
    <text x="567.1428571428571" y="370" text-anchor="middle" class="chart-muted" font-size="11" font-family="-apple-system, BlinkMacSystemFont, 'Segoe UI', Helvetica, Arial, sans-serif">Mar 8</text>
    <text x="668.5714285714286" y="370" text-anchor="middle" class="chart-muted" font-size="11" font-family="-apple-system, BlinkMacSystemFont, 'Segoe UI', Helvetica, Arial, sans-serif">Mar 29</text>
    <text x="770" y="370" text-anchor="middle" class="chart-muted" font-size="11" font-family="-apple-system, BlinkMacSystemFont, 'Segoe UI', Helvetica, Arial, sans-serif">Apr 19</text>
  </g>
  <line x1="60" y1="50" x2="60" y2="350" class="chart-axis" stroke-width="1" />
  <line x1="60" y1="350" x2="770" y2="350" class="chart-axis" stroke-width="1" />
  <path d="M60,350 C64.5079365079365,350 84.7936507936508,350 93.80952380952381,350 C102.82539682539682,350 118.60317460317461,350 127.61904761904762,350 C136.63492063492063,350 152.4126984126984,350 161.42857142857142,350 C170.44444444444443,350 186.22222222222223,350 195.23809523809524,350 C204.25396825396825,350 220.03174603174602,350 229.04761904761904,350 C238.06349206349205,350 253.84126984126982,350 262.85714285714283,350 C271.87301587301585,350 287.6507936507936,350 296.66666666666663,350 C305.68253968253964,350 321.46031746031747,350 330.4761904761905,350 C339.4920634920635,350 355.26984126984127,350 364.2857142857143,350 C373.3015873015873,350 389.07936507936506,350 398.0952380952381,350 C407.1111111111111,350 422.8888888888889,350 431.9047619047619,350 C440.92063492063494,350 456.69841269841265,350 465.71428571428567,350 C474.7301587301587,350 490.5079365079365,350 499.5238095238095,350 C508.53968253968253,350 524.3174603174602,350 533.3333333333333,350 C542.3492063492063,350 558.1269841269841,350 567.1428571428571,350 C576.1587301587301,350 591.936507936508,350 600.952380952381,350 C609.968253968254,350 625.7460317460318,350 634.7619047619048,350 C643.7777777777778,350 659.5555555555555,350 668.5714285714286,350 C677.5873015873016,350 693.3650793650794,350 702.3809523809524,350 C711.3968253968254,350 727.1746031746031,350 736.1904761904761,350 C745.2063492063492,350 765.4920634920635,350 770,350 L770,350 L60,350 Z" fill="#dfb317" fill-opacity="0.1" />
  <path d="M60,350 C64.5079365079365,350 84.7936507936508,350 93.80952380952381,350 C102.82539682539682,350 118.60317460317461,350 127.61904761904762,350 C136.63492063492063,350 152.4126984126984,350 161.42857142857142,350 C170.44444444444443,350 186.22222222222223,350 195.23809523809524,350 C204.25396825396825,350 220.03174603174602,350 229.04761904761904,350 C238.06349206349205,350 253.84126984126982,350 262.85714285714283,350 C271.87301587301585,350 287.6507936507936,350 296.66666666666663,350 C305.68253968253964,350 321.46031746031747,350 330.4761904761905,350 C339.4920634920635,350 355.26984126984127,350 364.2857142857143,350 C373.3015873015873,350 389.07936507936506,350 398.0952380952381,350 C407.1111111111111,350 422.8888888888889,350 431.9047619047619,350 C440.92063492063494,350 456.69841269841265,350 465.71428571428567,350 C474.7301587301587,350 490.5079365079365,350 499.5238095238095,350 C508.53968253968253,350 524.3174603174602,350 533.3333333333333,350 C542.3492063492063,350 558.1269841269841,350 567.1428571428571,350 C576.1587301587301,350 591.936507936508,350 600.952380952381,350 C609.968253968254,350 625.7460317460318,350 634.7619047619048,350 C643.7777777777778,350 659.5555555555555,350 668.5714285714286,350 C677.5873015873016,350 693.3650793650794,350 702.3809523809524,350 C711.3968253968254,350 727.1746031746031,350 736.1904761904761,350 C745.2063492063492,350 765.4920634920635,350 770,350" fill="none" stroke="#dfb317" stroke-width="2.5" class="data-line-0" />
  <g class="points">
    
    <circle cx="60" cy="350" r="4" fill="#dfb317" class="data-point" style="animation-delay: 1.50s" />
    <circle cx="93.80952380952381" cy="350" r="4" fill="#dfb317" class="data-point" style="animation-delay: 1.55s" />
    <circle cx="127.61904761904762" cy="350" r="4" fill="#dfb317" class="data-point" style="animation-delay: 1.60s" />
    <circle cx="161.42857142857142" cy="350" r="4" fill="#dfb317" class="data-point" style="animation-delay: 1.65s" />
    <circle cx="195.23809523809524" cy="350" r="4" fill="#dfb317" class="data-point" style="animation-delay: 1.70s" />
    <circle cx="229.04761904761904" cy="350" r="4" fill="#dfb317" class="data-point" style="animation-delay: 1.75s" />
    <circle cx="262.85714285714283" cy="350" r="4" fill="#dfb317" class="data-point" style="animation-delay: 1.80s" />
    <circle cx="296.66666666666663" cy="350" r="4" fill="#dfb317" class="data-point" style="animation-delay: 1.85s" />
    <circle cx="330.4761904761905" cy="350" r="4" fill="#dfb317" class="data-point" style="animation-delay: 1.90s" />
    <circle cx="364.2857142857143" cy="350" r="4" fill="#dfb317" class="data-point" style="animation-delay: 1.95s" />
    <circle cx="398.0952380952381" cy="350" r="4" fill="#dfb317" class="data-point" style="animation-delay: 2.00s" />
    <circle cx="431.9047619047619" cy="350" r="4" fill="#dfb317" class="data-point" style="animation-delay: 2.05s" />
    <circle cx="465.71428571428567" cy="350" r="4" fill="#dfb317" class="data-point" style="animation-delay: 2.10s" />
    <circle cx="499.5238095238095" cy="350" r="4" fill="#dfb317" class="data-point" style="animation-delay: 2.15s" />
    <circle cx="533.3333333333333" cy="350" r="4" fill="#dfb317" class="data-point" style="animation-delay: 2.20s" />
    <circle cx="567.1428571428571" cy="350" r="4" fill="#dfb317" class="data-point" style="animation-delay: 2.25s" />
    <circle cx="600.952380952381" cy="350" r="4" fill="#dfb317" class="data-point" style="animation-delay: 2.30s" />
    <circle cx="634.7619047619048" cy="350" r="4" fill="#dfb317" class="data-point" style="animation-delay: 2.35s" />
    <circle cx="668.5714285714286" cy="350" r="4" fill="#dfb317" class="data-point" style="animation-delay: 2.40s" />
    <circle cx="702.3809523809524" cy="350" r="4" fill="#dfb317" class="data-point" style="animation-delay: 2.45s" />
    <circle cx="736.1904761904761" cy="350" r="4" fill="#dfb317" class="data-point" style="animation-delay: 2.50s" />
    <circle cx="770" cy="350" r="4" fill="#dfb317" class="data-point" style="animation-delay: 2.55s" />
  </g>
</svg>