<svg xmlns="http://www.w3.org/2000/svg" viewBox="0 0 800 400" width="800" height="400">
  <style>
    @keyframes drawLine {
      to { stroke-dashoffset: 0; }
    }
    @keyframes fadeInPoint {
      from { opacity: 0; }
      to { opacity: 1; }
    }
    .data-line-0 {
      stroke-dasharray: 1065;
      stroke-dashoffset: 1065;
      animation: drawLine 2s ease-out forwards;
    }
    .data-point {
      opacity: 0;
      animation: fadeInPoint 0.5s ease-out forwards;
    }
    .chart-bg { fill: #fff; }
    .chart-text { fill: #24292e; }
    .chart-muted { fill: #6a737d; }
    .chart-grid { stroke: #eee; }
    .chart-axis { stroke: #6a737d; }
    @media (prefers-color-scheme: dark) {
      .chart-bg { fill: #0d1117; }
      .chart-text { fill: #e6edf3; }
      .chart-muted { fill: #8b949e; }
      .chart-grid { stroke: #21262d; }
      .chart-axis { stroke: #8b949e; }
    }
  </style>
  <rect width="800" height="400" class="chart-bg" />
  <text x="400" y="34" text-anchor="middle" class="chart-text" font-size="16" font-weight="bold" font-family="-apple-system, BlinkMacSystemFont, 'Segoe UI', Helvetica, Arial, sans-serif">fbuireu/curriculum-vitae Star History</text>
  
  <g class="grid">
    <line x1="60" y1="350" x2="770" y2="350" class="chart-grid" stroke-opacity="0.3" />
    <text x="52" y="354" text-anchor="end" class="chart-muted" font-size="11" font-family="-apple-system, BlinkMacSystemFont, 'Segoe UI', Helvetica, Arial, sans-serif">0</text>
    <line x1="60" y1="200" x2="770" y2="200" class="chart-grid" stroke-opacity="0.3" />
    <text x="52" y="204" text-anchor="end" class="chart-muted" font-size="11" font-family="-apple-system, BlinkMacSystemFont, 'Segoe UI', Helvetica, Arial, sans-serif">1</text>
    <line x1="60" y1="200" x2="770" y2="200" class="chart-grid" stroke-opacity="0.3" />
    <text x="52" y="204" text-anchor="end" class="chart-muted" font-size="11" font-family="-apple-system, BlinkMacSystemFont, 'Segoe UI', Helvetica, Arial, sans-serif">1</text>
    <line x1="60" y1="50" x2="770" y2="50" class="chart-grid" stroke-opacity="0.3" />
    <text x="52" y="54" text-anchor="end" class="chart-muted" font-size="11" font-family="-apple-system, BlinkMacSystemFont, 'Segoe UI', Helvetica, Arial, sans-serif">2</text>
    <line x1="60" y1="50" x2="770" y2="50" class="chart-grid" stroke-opacity="0.3" />
    <text x="52" y="54" text-anchor="end" class="chart-muted" font-size="11" font-family="-apple-system, BlinkMacSystemFont, 'Segoe UI', Helvetica, Arial, sans-serif">2</text>
  </g>
  <g class="milestones">
    
  </g>
  <g class="x-axis">
    <text x="60" y="370" text-anchor="middle" class="chart-muted" font-size="11" font-family="-apple-system, BlinkMacSystemFont, 'Segoe UI', Helvetica, Arial, sans-serif">Feb 13</text>
    <text x="141.92307692307693" y="370" text-anchor="middle" class="chart-muted" font-size="11" font-family="-apple-system, BlinkMacSystemFont, 'Segoe UI', Helvetica, Arial, sans-serif">Feb 13</text>
    <text x="223.84615384615387" y="370" text-anchor="middle" class="chart-muted" font-size="11" font-family="-apple-system, BlinkMacSystemFont, 'Segoe UI', Helvetica, Arial, sans-serif">Feb 13</text>
    <text x="305.7692307692308" y="370" text-anchor="middle" class="chart-muted" font-size="11" font-family="-apple-system, BlinkMacSystemFont, 'Segoe UI', Helvetica, Arial, sans-serif">Feb 14</text>
    <text x="387.69230769230774" y="370" text-anchor="middle" class="chart-muted" font-size="11" font-family="-apple-system, BlinkMacSystemFont, 'Segoe UI', Helvetica, Arial, sans-serif">Feb 15</text>
    <text x="469.6153846153846" y="370" text-anchor="middle" class="chart-muted" font-size="11" font-family="-apple-system, BlinkMacSystemFont, 'Segoe UI', Helvetica, Arial, sans-serif">Mar 8</text>
    <text x="551.5384615384615" y="370" text-anchor="middle" class="chart-muted" font-size="11" font-family="-apple-system, BlinkMacSystemFont, 'Segoe UI', Helvetica, Arial, sans-serif">Mar 29</text>
    <text x="633.4615384615385" y="370" text-anchor="middle" class="chart-muted" font-size="11" font-family="-apple-system, BlinkMacSystemFont, 'Segoe UI', Helvetica, Arial, sans-serif">Apr 19</text>
    <text x="715.3846153846155" y="370" text-anchor="middle" class="chart-muted" font-size="11" font-family="-apple-system, BlinkMacSystemFont, 'Segoe UI', Helvetica, Arial, sans-serif">May 10</text>
    <text x="770" y="370" text-anchor="middle" class="chart-muted" font-size="11" font-family="-apple-system, BlinkMacSystemFont, 'Segoe UI', Helvetica, Arial, sans-serif">May 24</text>
  </g>
  <line x1="60" y1="50" x2="60" y2="350" class="chart-axis" stroke-width="1" />
  <line x1="60" y1="350" x2="770" y2="350" class="chart-axis" stroke-width="1" />
  <path d="M60,200 C63.64102564102564,200 80.02564102564102,200 87.3076923076923,200 C94.58974358974359,200 107.33333333333333,200 114.61538461538461,200 C121.8974358974359,200 134.64102564102566,200 141.92307692307693,200 C149.2051282051282,200 161.94871794871796,200 169.23076923076923,200 C176.5128205128205,200 189.25641025641025,200 196.53846153846155,200 C203.82051282051285,200 216.5641025641026,200 223.84615384615387,200 C231.12820512820514,200 243.87179487179486,200 251.15384615384613,200 C258.4358974358974,200 271.1794871794872,200 278.46153846153845,200 C285.7435897435897,200 298.4871794871795,200 305.7692307692308,200 C313.05128205128204,200 325.7948717948718,200 333.0769230769231,200 C340.35897435897436,200 353.1025641025641,200 360.38461538461536,200 C367.66666666666663,200 380.41025641025647,200 387.69230769230774,200 C394.974358974359,200 407.71794871794873,200 415,200 C422.28205128205127,200 435.025641025641,200 442.30769230769226,200 C449.58974358974353,200 462.3333333333333,200 469.6153846153846,200 C476.89743589743586,200 489.6410256410257,200 496.92307692307696,200 C504.20512820512823,200 516.948717948718,200 524.2307692307693,200 C531.5128205128206,200 544.2564102564103,200 551.5384615384615,200 C558.8205128205128,200 571.5641025641025,200 578.8461538461538,200 C586.1282051282051,200 598.8717948717949,200 606.1538461538462,200 C613.4358974358975,200 626.1794871794872,200 633.4615384615385,200 C640.7435897435897,200 653.4871794871794,200 660.7692307692307,200 C668.051282051282,200 680.7948717948718,200 688.0769230769231,200 C695.3589743589744,200 708.1025641025642,200 715.3846153846155,200 C722.6666666666667,200 735.4102564102565,200 742.6923076923077,200 C749.974358974359,200 766.3589743589744,200 770,200 L770,350 L60,350 Z" fill="#dfb317" fill-opacity="0.1" />
  <path d="M60,200 C63.64102564102564,200 80.02564102564102,200 87.3076923076923,200 C94.58974358974359,200 107.33333333333333,200 114.61538461538461,200 C121.8974358974359,200 134.64102564102566,200 141.92307692307693,200 C149.2051282051282,200 161.94871794871796,200 169.23076923076923,200 C176.5128205128205,200 189.25641025641025,200 196.53846153846155,200 C203.82051282051285,200 216.5641025641026,200 223.84615384615387,200 C231.12820512820514,200 243.87179487179486,200 251.15384615384613,200 C258.4358974358974,200 271.1794871794872,200 278.46153846153845,200 C285.7435897435897,200 298.4871794871795,200 305.7692307692308,200 C313.05128205128204,200 325.7948717948718,200 333.0769230769231,200 C340.35897435897436,200 353.1025641025641,200 360.38461538461536,200 C367.66666666666663,200 380.41025641025647,200 387.69230769230774,200 C394.974358974359,200 407.71794871794873,200 415,200 C422.28205128205127,200 435.025641025641,200 442.30769230769226,200 C449.58974358974353,200 462.3333333333333,200 469.6153846153846,200 C476.89743589743586,200 489.6410256410257,200 496.92307692307696,200 C504.20512820512823,200 516.948717948718,200 524.2307692307693,200 C531.5128205128206,200 544.2564102564103,200 551.5384615384615,200 C558.8205128205128,200 571.5641025641025,200 578.8461538461538,200 C586.1282051282051,200 598.8717948717949,200 606.1538461538462,200 C613.4358974358975,200 626.1794871794872,200 633.4615384615385,200 C640.7435897435897,200 653.4871794871794,200 660.7692307692307,200 C668.051282051282,200 680.7948717948718,200 688.0769230769231,200 C695.3589743589744,200 708.1025641025642,200 715.3846153846155,200 C722.6666666666667,200 735.4102564102565,200 742.6923076923077,200 C749.974358974359,200 766.3589743589744,200 770,200" fill="none" stroke="#dfb317" stroke-width="2.5" class="data-line-0" />
  <g class="points">
    
    <circle cx="60" cy="200" r="4" fill="#dfb317" class="data-point" style="animation-delay: 1.50s" />
    <circle cx="87.3076923076923" cy="200" r="4" fill="#dfb317" class="data-point" style="animation-delay: 1.55s" />
    <circle cx="114.61538461538461" cy="200" r="4" fill="#dfb317" class="data-point" style="animation-delay: 1.60s" />
    <circle cx="141.92307692307693" cy="200" r="4" fill="#dfb317" class="data-point" style="animation-delay: 1.65s" />
    <circle cx="169.23076923076923" cy="200" r="4" fill="#dfb317" class="data-point" style="animation-delay: 1.70s" />
    <circle cx="196.53846153846155" cy="200" r="4" fill="#dfb317" class="data-point" style="animation-delay: 1.75s" />
    <circle cx="223.84615384615387" cy="200" r="4" fill="#dfb317" class="data-point" style="animation-delay: 1.80s" />
    <circle cx="251.15384615384613" cy="200" r="4" fill="#dfb317" class="data-point" style="animation-delay: 1.85s" />
    <circle cx="278.46153846153845" cy="200" r="4" fill="#dfb317" class="data-point" style="animation-delay: 1.90s" />
    <circle cx="305.7692307692308" cy="200" r="4" fill="#dfb317" class="data-point" style="animation-delay: 1.95s" />
    <circle cx="333.0769230769231" cy="200" r="4" fill="#dfb317" class="data-point" style="animation-delay: 2.00s" />
    <circle cx="360.38461538461536" cy="200" r="4" fill="#dfb317" class="data-point" style="animation-delay: 2.05s" />
    <circle cx="387.69230769230774" cy="200" r="4" fill="#dfb317" class="data-point" style="animation-delay: 2.10s" />
    <circle cx="415" cy="200" r="4" fill="#dfb317" class="data-point" style="animation-delay: 2.15s" />
    <circle cx="442.30769230769226" cy="200" r="4" fill="#dfb317" class="data-point" style="animation-delay: 2.20s" />
    <circle cx="469.6153846153846" cy="200" r="4" fill="#dfb317" class="data-point" style="animation-delay: 2.25s" />
    <circle cx="496.92307692307696" cy="200" r="4" fill="#dfb317" class="data-point" style="animation-delay: 2.30s" />
    <circle cx="524.2307692307693" cy="200" r="4" fill="#dfb317" class="data-point" style="animation-delay: 2.35s" />
    <circle cx="551.5384615384615" cy="200" r="4" fill="#dfb317" class="data-point" style="animation-delay: 2.40s" />
    <circle cx="578.8461538461538" cy="200" r="4" fill="#dfb317" class="data-point" style="animation-delay: 2.45s" />
    <circle cx="606.1538461538462" cy="200" r="4" fill="#dfb317" class="data-point" style="animation-delay: 2.50s" />
    <circle cx="633.4615384615385" cy="200" r="4" fill="#dfb317" class="data-point" style="animation-delay: 2.55s" />
    <circle cx="660.7692307692307" cy="200" r="4" fill="#dfb317" class="data-point" style="animation-delay: 2.60s" />
    <circle cx="688.0769230769231" cy="200" r="4" fill="#dfb317" class="data-point" style="animation-delay: 2.65s" />
    <circle cx="715.3846153846155" cy="200" r="4" fill="#dfb317" class="data-point" style="animation-delay: 2.70s" />
    <circle cx="742.6923076923077" cy="200" r="4" fill="#dfb317" class="data-point" style="animation-delay: 2.75s" />
    <circle cx="770" cy="200" r="4" fill="#dfb317" class="data-point" style="animation-delay: 2.80s" />
  </g>
</svg>