<svg xmlns="http://www.w3.org/2000/svg" viewBox="0 0 800 400" width="800" height="400">
  <style>
    @keyframes drawLine {
      to { stroke-dashoffset: 0; }
    }
    @keyframes fadeInPoint {
      from { opacity: 0; }
      to { opacity: 1; }
    }
    .data-line-0 {
      stroke-dasharray: 1065;
      stroke-dashoffset: 1065;
      animation: drawLine 2s ease-out forwards;
    }
    .data-point {
      opacity: 0;
      animation: fadeInPoint 0.5s ease-out forwards;
    }
    .chart-bg { fill: #fff; }
    .chart-text { fill: #24292e; }
    .chart-muted { fill: #6a737d; }
    .chart-grid { stroke: #eee; }
    .chart-axis { stroke: #6a737d; }
    @media (prefers-color-scheme: dark) {
      .chart-bg { fill: #0d1117; }
      .chart-text { fill: #e6edf3; }
      .chart-muted { fill: #8b949e; }
      .chart-grid { stroke: #21262d; }
      .chart-axis { stroke: #8b949e; }
    }
  </style>
  <rect width="800" height="400" class="chart-bg" />
  <text x="400" y="34" text-anchor="middle" class="chart-text" font-size="16" font-weight="bold" font-family="-apple-system, BlinkMacSystemFont, 'Segoe UI', Helvetica, Arial, sans-serif">fbuireu/biancafiore Star History</text>
  
  <g class="grid">
    <line x1="60" y1="350" x2="770" y2="350" class="chart-grid" stroke-opacity="0.3" />
    <text x="52" y="354" text-anchor="end" class="chart-muted" font-size="11" font-family="-apple-system, BlinkMacSystemFont, 'Segoe UI', Helvetica, Arial, sans-serif">6</text>
    <line x1="60" y1="200" x2="770" y2="200" class="chart-grid" stroke-opacity="0.3" />
    <text x="52" y="204" text-anchor="end" class="chart-muted" font-size="11" font-family="-apple-system, BlinkMacSystemFont, 'Segoe UI', Helvetica, Arial, sans-serif">7</text>
    <line x1="60" y1="200" x2="770" y2="200" class="chart-grid" stroke-opacity="0.3" />
    <text x="52" y="204" text-anchor="end" class="chart-muted" font-size="11" font-family="-apple-system, BlinkMacSystemFont, 'Segoe UI', Helvetica, Arial, sans-serif">7</text>
    <line x1="60" y1="50" x2="770" y2="50" class="chart-grid" stroke-opacity="0.3" />
    <text x="52" y="54" text-anchor="end" class="chart-muted" font-size="11" font-family="-apple-system, BlinkMacSystemFont, 'Segoe UI', Helvetica, Arial, sans-serif">8</text>
    <line x1="60" y1="50" x2="770" y2="50" class="chart-grid" stroke-opacity="0.3" />
    <text x="52" y="54" text-anchor="end" class="chart-muted" font-size="11" font-family="-apple-system, BlinkMacSystemFont, 'Segoe UI', Helvetica, Arial, sans-serif">8</text>
  </g>
  <g class="milestones">
    
  </g>
  <g class="x-axis">
    <text x="60" y="370" text-anchor="middle" class="chart-muted" font-size="11" font-family="-apple-system, BlinkMacSystemFont, 'Segoe UI', Helvetica, Arial, sans-serif">Feb 13</text>
    <text x="156.8181818181818" y="370" text-anchor="middle" class="chart-muted" font-size="11" font-family="-apple-system, BlinkMacSystemFont, 'Segoe UI', Helvetica, Arial, sans-serif">Feb 13</text>
    <text x="253.63636363636363" y="370" text-anchor="middle" class="chart-muted" font-size="11" font-family="-apple-system, BlinkMacSystemFont, 'Segoe UI', Helvetica, Arial, sans-serif">Feb 13</text>
    <text x="350.4545454545455" y="370" text-anchor="middle" class="chart-muted" font-size="11" font-family="-apple-system, BlinkMacSystemFont, 'Segoe UI', Helvetica, Arial, sans-serif">Feb 14</text>
    <text x="447.27272727272725" y="370" text-anchor="middle" class="chart-muted" font-size="11" font-family="-apple-system, BlinkMacSystemFont, 'Segoe UI', Helvetica, Arial, sans-serif">Feb 15</text>
    <text x="544.090909090909" y="370" text-anchor="middle" class="chart-muted" font-size="11" font-family="-apple-system, BlinkMacSystemFont, 'Segoe UI', Helvetica, Arial, sans-serif">Mar 8</text>
    <text x="640.909090909091" y="370" text-anchor="middle" class="chart-muted" font-size="11" font-family="-apple-system, BlinkMacSystemFont, 'Segoe UI', Helvetica, Arial, sans-serif">Mar 29</text>
    <text x="737.7272727272727" y="370" text-anchor="middle" class="chart-muted" font-size="11" font-family="-apple-system, BlinkMacSystemFont, 'Segoe UI', Helvetica, Arial, sans-serif">Apr 19</text>
    <text x="770" y="370" text-anchor="middle" class="chart-muted" font-size="11" font-family="-apple-system, BlinkMacSystemFont, 'Segoe UI', Helvetica, Arial, sans-serif">Apr 26</text>
  </g>
  <line x1="60" y1="50" x2="60" y2="350" class="chart-axis" stroke-width="1" />
  <line x1="60" y1="350" x2="770" y2="350" class="chart-axis" stroke-width="1" />
  <path d="M60,200 C64.30303030303031,200 83.66666666666667,200 92.27272727272728,200 C100.87878787878789,200 115.93939393939394,200 124.54545454545455,200 C133.15151515151516,200 148.21212121212122,200 156.8181818181818,200 C165.4242424242424,200 180.4848484848485,200 189.0909090909091,200 C197.6969696969697,200 212.75757575757575,200 221.36363636363635,200 C229.96969696969694,200 245.03030303030303,200 253.63636363636363,200 C262.24242424242425,200 277.30303030303025,200 285.9090909090909,200 C294.5151515151515,200 309.57575757575756,200 318.1818181818182,200 C326.7878787878788,200 341.8484848484849,200 350.4545454545455,200 C359.0606060606061,200 374.12121212121207,200 382.7272727272727,200 C391.3333333333333,200 406.3939393939394,200 415,200 C423.6060606060606,200 438.66666666666663,200 447.27272727272725,200 C455.8787878787879,200 470.93939393939394,200 479.54545454545456,200 C488.1515151515152,200 503.21212121212125,200 511.8181818181818,200 C520.4242424242424,200 535.4848484848484,200 544.090909090909,200 C552.6969696969696,200 567.7575757575758,200 576.3636363636364,200 C584.969696969697,200 600.030303030303,200 608.6363636363636,200 C617.2424242424242,200 632.3030303030304,200 640.909090909091,200 C649.5151515151516,200 664.5757575757576,200 673.1818181818182,200 C681.7878787878789,200 696.8484848484848,200 705.4545454545454,200 C714.060606060606,200 729.1212121212121,200 737.7272727272727,200 C746.3333333333334,200 765.6969696969697,200 770,200 L770,350 L60,350 Z" fill="#dfb317" fill-opacity="0.1" />
  <path d="M60,200 C64.30303030303031,200 83.66666666666667,200 92.27272727272728,200 C100.87878787878789,200 115.93939393939394,200 124.54545454545455,200 C133.15151515151516,200 148.21212121212122,200 156.8181818181818,200 C165.4242424242424,200 180.4848484848485,200 189.0909090909091,200 C197.6969696969697,200 212.75757575757575,200 221.36363636363635,200 C229.96969696969694,200 245.03030303030303,200 253.63636363636363,200 C262.24242424242425,200 277.30303030303025,200 285.9090909090909,200 C294.5151515151515,200 309.57575757575756,200 318.1818181818182,200 C326.7878787878788,200 341.8484848484849,200 350.4545454545455,200 C359.0606060606061,200 374.12121212121207,200 382.7272727272727,200 C391.3333333333333,200 406.3939393939394,200 415,200 C423.6060606060606,200 438.66666666666663,200 447.27272727272725,200 C455.8787878787879,200 470.93939393939394,200 479.54545454545456,200 C488.1515151515152,200 503.21212121212125,200 511.8181818181818,200 C520.4242424242424,200 535.4848484848484,200 544.090909090909,200 C552.6969696969696,200 567.7575757575758,200 576.3636363636364,200 C584.969696969697,200 600.030303030303,200 608.6363636363636,200 C617.2424242424242,200 632.3030303030304,200 640.909090909091,200 C649.5151515151516,200 664.5757575757576,200 673.1818181818182,200 C681.7878787878789,200 696.8484848484848,200 705.4545454545454,200 C714.060606060606,200 729.1212121212121,200 737.7272727272727,200 C746.3333333333334,200 765.6969696969697,200 770,200" fill="none" stroke="#dfb317" stroke-width="2.5" class="data-line-0" />
  <g class="points">
    
    <circle cx="60" cy="200" r="4" fill="#dfb317" class="data-point" style="animation-delay: 1.50s" />
    <circle cx="92.27272727272728" cy="200" r="4" fill="#dfb317" class="data-point" style="animation-delay: 1.55s" />
    <circle cx="124.54545454545455" cy="200" r="4" fill="#dfb317" class="data-point" style="animation-delay: 1.60s" />
    <circle cx="156.8181818181818" cy="200" r="4" fill="#dfb317" class="data-point" style="animation-delay: 1.65s" />
    <circle cx="189.0909090909091" cy="200" r="4" fill="#dfb317" class="data-point" style="animation-delay: 1.70s" />
    <circle cx="221.36363636363635" cy="200" r="4" fill="#dfb317" class="data-point" style="animation-delay: 1.75s" />
    <circle cx="253.63636363636363" cy="200" r="4" fill="#dfb317" class="data-point" style="animation-delay: 1.80s" />
    <circle cx="285.9090909090909" cy="200" r="4" fill="#dfb317" class="data-point" style="animation-delay: 1.85s" />
    <circle cx="318.1818181818182" cy="200" r="4" fill="#dfb317" class="data-point" style="animation-delay: 1.90s" />
    <circle cx="350.4545454545455" cy="200" r="4" fill="#dfb317" class="data-point" style="animation-delay: 1.95s" />
    <circle cx="382.7272727272727" cy="200" r="4" fill="#dfb317" class="data-point" style="animation-delay: 2.00s" />
    <circle cx="415" cy="200" r="4" fill="#dfb317" class="data-point" style="animation-delay: 2.05s" />
    <circle cx="447.27272727272725" cy="200" r="4" fill="#dfb317" class="data-point" style="animation-delay: 2.10s" />
    <circle cx="479.54545454545456" cy="200" r="4" fill="#dfb317" class="data-point" style="animation-delay: 2.15s" />
    <circle cx="511.8181818181818" cy="200" r="4" fill="#dfb317" class="data-point" style="animation-delay: 2.20s" />
    <circle cx="544.090909090909" cy="200" r="4" fill="#dfb317" class="data-point" style="animation-delay: 2.25s" />
    <circle cx="576.3636363636364" cy="200" r="4" fill="#dfb317" class="data-point" style="animation-delay: 2.30s" />
    <circle cx="608.6363636363636" cy="200" r="4" fill="#dfb317" class="data-point" style="animation-delay: 2.35s" />
    <circle cx="640.909090909091" cy="200" r="4" fill="#dfb317" class="data-point" style="animation-delay: 2.40s" />
    <circle cx="673.1818181818182" cy="200" r="4" fill="#dfb317" class="data-point" style="animation-delay: 2.45s" />
    <circle cx="705.4545454545454" cy="200" r="4" fill="#dfb317" class="data-point" style="animation-delay: 2.50s" />
    <circle cx="737.7272727272727" cy="200" r="4" fill="#dfb317" class="data-point" style="animation-delay: 2.55s" />
    <circle cx="770" cy="200" r="4" fill="#dfb317" class="data-point" style="animation-delay: 2.60s" />
  </g>
</svg>