<svg xmlns="http://www.w3.org/2000/svg" viewBox="0 0 800 400" width="800" height="400">
  <style>
    @keyframes drawLine {
      to { stroke-dashoffset: 0; }
    }
    @keyframes fadeInPoint {
      from { opacity: 0; }
      to { opacity: 1; }
    }
    .data-line-0 {
      stroke-dasharray: 1065;
      stroke-dashoffset: 1065;
      animation: drawLine 2s ease-out forwards;
    }
    .data-point {
      opacity: 0;
      animation: fadeInPoint 0.5s ease-out forwards;
    }
    .chart-bg { fill: #fff; }
    .chart-text { fill: #24292e; }
    .chart-muted { fill: #6a737d; }
    .chart-grid { stroke: #eee; }
    .chart-axis { stroke: #6a737d; }
    @media (prefers-color-scheme: dark) {
      .chart-bg { fill: #0d1117; }
      .chart-text { fill: #e6edf3; }
      .chart-muted { fill: #8b949e; }
      .chart-grid { stroke: #21262d; }
      .chart-axis { stroke: #8b949e; }
    }
  </style>
  <rect width="800" height="400" class="chart-bg" />
  <text x="400" y="34" text-anchor="middle" class="chart-text" font-size="16" font-weight="bold" font-family="-apple-system, BlinkMacSystemFont, 'Segoe UI', Helvetica, Arial, sans-serif">fbuireu/contribKit Star History</text>
  
  <g class="grid">
    <line x1="60" y1="350" x2="770" y2="350" class="chart-grid" stroke-opacity="0.3" />
    <text x="52" y="354" text-anchor="end" class="chart-muted" font-size="11" font-family="-apple-system, BlinkMacSystemFont, 'Segoe UI', Helvetica, Arial, sans-serif">0</text>
    <line x1="60" y1="350" x2="770" y2="350" class="chart-grid" stroke-opacity="0.3" />
    <text x="52" y="354" text-anchor="end" class="chart-muted" font-size="11" font-family="-apple-system, BlinkMacSystemFont, 'Segoe UI', Helvetica, Arial, sans-serif">0</text>
    <line x1="60" y1="350" x2="770" y2="350" class="chart-grid" stroke-opacity="0.3" />
    <text x="52" y="354" text-anchor="end" class="chart-muted" font-size="11" font-family="-apple-system, BlinkMacSystemFont, 'Segoe UI', Helvetica, Arial, sans-serif">0</text>
    <line x1="60" y1="50" x2="770" y2="50" class="chart-grid" stroke-opacity="0.3" />
    <text x="52" y="54" text-anchor="end" class="chart-muted" font-size="11" font-family="-apple-system, BlinkMacSystemFont, 'Segoe UI', Helvetica, Arial, sans-serif">1</text>
    <line x1="60" y1="50" x2="770" y2="50" class="chart-grid" stroke-opacity="0.3" />
    <text x="52" y="54" text-anchor="end" class="chart-muted" font-size="11" font-family="-apple-system, BlinkMacSystemFont, 'Segoe UI', Helvetica, Arial, sans-serif">1</text>
    <line x1="60" y1="50" x2="770" y2="50" class="chart-grid" stroke-opacity="0.3" />
    <text x="52" y="54" text-anchor="end" class="chart-muted" font-size="11" font-family="-apple-system, BlinkMacSystemFont, 'Segoe UI', Helvetica, Arial, sans-serif">1</text>
  </g>
  <g class="milestones">
    
  </g>
  <g class="x-axis">
    <text x="60" y="370" text-anchor="middle" class="chart-muted" font-size="11" font-family="-apple-system, BlinkMacSystemFont, 'Segoe UI', Helvetica, Arial, sans-serif">Feb 13</text>
    <text x="145.2" y="370" text-anchor="middle" class="chart-muted" font-size="11" font-family="-apple-system, BlinkMacSystemFont, 'Segoe UI', Helvetica, Arial, sans-serif">Feb 13</text>
    <text x="230.4" y="370" text-anchor="middle" class="chart-muted" font-size="11" font-family="-apple-system, BlinkMacSystemFont, 'Segoe UI', Helvetica, Arial, sans-serif">Feb 13</text>
    <text x="315.6" y="370" text-anchor="middle" class="chart-muted" font-size="11" font-family="-apple-system, BlinkMacSystemFont, 'Segoe UI', Helvetica, Arial, sans-serif">Feb 14</text>
    <text x="400.8" y="370" text-anchor="middle" class="chart-muted" font-size="11" font-family="-apple-system, BlinkMacSystemFont, 'Segoe UI', Helvetica, Arial, sans-serif">Feb 15</text>
    <text x="486" y="370" text-anchor="middle" class="chart-muted" font-size="11" font-family="-apple-system, BlinkMacSystemFont, 'Segoe UI', Helvetica, Arial, sans-serif">Mar 8</text>
    <text x="571.2" y="370" text-anchor="middle" class="chart-muted" font-size="11" font-family="-apple-system, BlinkMacSystemFont, 'Segoe UI', Helvetica, Arial, sans-serif">Mar 29</text>
    <text x="656.4" y="370" text-anchor="middle" class="chart-muted" font-size="11" font-family="-apple-system, BlinkMacSystemFont, 'Segoe UI', Helvetica, Arial, sans-serif">Apr 19</text>
    <text x="741.6" y="370" text-anchor="middle" class="chart-muted" font-size="11" font-family="-apple-system, BlinkMacSystemFont, 'Segoe UI', Helvetica, Arial, sans-serif">May 10</text>
    <text x="770" y="370" text-anchor="middle" class="chart-muted" font-size="11" font-family="-apple-system, BlinkMacSystemFont, 'Segoe UI', Helvetica, Arial, sans-serif">May 17</text>
  </g>
  <line x1="60" y1="50" x2="60" y2="350" class="chart-axis" stroke-width="1" />
  <line x1="60" y1="350" x2="770" y2="350" class="chart-axis" stroke-width="1" />
  <path d="M60,350 C63.78666666666667,350 80.82666666666667,350 88.4,350 C95.97333333333334,350 109.22666666666667,350 116.80000000000001,350 C124.37333333333335,350 137.62666666666667,350 145.2,350 C152.7733333333333,350 166.0266666666667,350 173.60000000000002,350 C181.17333333333335,350 194.42666666666668,350 202,350 C209.57333333333332,350 222.82666666666668,350 230.4,350 C237.97333333333333,350 251.22666666666666,350 258.8,350 C266.37333333333333,350 279.6266666666667,350 287.20000000000005,350 C294.77333333333337,350 308.0266666666667,350 315.6,350 C323.17333333333335,350 336.4266666666667,350 344,350 C351.5733333333333,350 364.82666666666665,350 372.4,350 C379.9733333333333,350 393.2266666666667,350 400.8,350 C408.37333333333333,350 421.62666666666667,350 429.2,350 C436.7733333333333,350 450.0266666666667,350 457.6,350 C465.17333333333335,350 478.4266666666667,350 486,350 C493.5733333333333,350 506.82666666666677,350 514.4000000000001,350 C521.9733333333335,350 535.2266666666666,350 542.8,350 C550.3733333333333,350 563.6266666666667,350 571.2,350 C578.7733333333334,350 592.0266666666666,350 599.6,350 C607.1733333333334,350 620.4266666666666,350 628,350 C635.5733333333334,350 648.8266666666666,350 656.4,350 C663.9733333333334,350 677.2266666666666,350 684.8,350 C692.3733333333333,350 705.6266666666667,350 713.2,350 C720.7733333333334,350 734.0266666666666,350 741.6,350 C749.1733333333334,350 766.2133333333334,350 770,350 L770,350 L60,350 Z" fill="#dfb317" fill-opacity="0.1" />
  <path d="M60,350 C63.78666666666667,350 80.82666666666667,350 88.4,350 C95.97333333333334,350 109.22666666666667,350 116.80000000000001,350 C124.37333333333335,350 137.62666666666667,350 145.2,350 C152.7733333333333,350 166.0266666666667,350 173.60000000000002,350 C181.17333333333335,350 194.42666666666668,350 202,350 C209.57333333333332,350 222.82666666666668,350 230.4,350 C237.97333333333333,350 251.22666666666666,350 258.8,350 C266.37333333333333,350 279.6266666666667,350 287.20000000000005,350 C294.77333333333337,350 308.0266666666667,350 315.6,350 C323.17333333333335,350 336.4266666666667,350 344,350 C351.5733333333333,350 364.82666666666665,350 372.4,350 C379.9733333333333,350 393.2266666666667,350 400.8,350 C408.37333333333333,350 421.62666666666667,350 429.2,350 C436.7733333333333,350 450.0266666666667,350 457.6,350 C465.17333333333335,350 478.4266666666667,350 486,350 C493.5733333333333,350 506.82666666666677,350 514.4000000000001,350 C521.9733333333335,350 535.2266666666666,350 542.8,350 C550.3733333333333,350 563.6266666666667,350 571.2,350 C578.7733333333334,350 592.0266666666666,350 599.6,350 C607.1733333333334,350 620.4266666666666,350 628,350 C635.5733333333334,350 648.8266666666666,350 656.4,350 C663.9733333333334,350 677.2266666666666,350 684.8,350 C692.3733333333333,350 705.6266666666667,350 713.2,350 C720.7733333333334,350 734.0266666666666,350 741.6,350 C749.1733333333334,350 766.2133333333334,350 770,350" fill="none" stroke="#dfb317" stroke-width="2.5" class="data-line-0" />
  <g class="points">
    
    <circle cx="60" cy="350" r="4" fill="#dfb317" class="data-point" style="animation-delay: 1.50s" />
    <circle cx="88.4" cy="350" r="4" fill="#dfb317" class="data-point" style="animation-delay: 1.55s" />
    <circle cx="116.80000000000001" cy="350" r="4" fill="#dfb317" class="data-point" style="animation-delay: 1.60s" />
    <circle cx="145.2" cy="350" r="4" fill="#dfb317" class="data-point" style="animation-delay: 1.65s" />
    <circle cx="173.60000000000002" cy="350" r="4" fill="#dfb317" class="data-point" style="animation-delay: 1.70s" />
    <circle cx="202" cy="350" r="4" fill="#dfb317" class="data-point" style="animation-delay: 1.75s" />
    <circle cx="230.4" cy="350" r="4" fill="#dfb317" class="data-point" style="animation-delay: 1.80s" />
    <circle cx="258.8" cy="350" r="4" fill="#dfb317" class="data-point" style="animation-delay: 1.85s" />
    <circle cx="287.20000000000005" cy="350" r="4" fill="#dfb317" class="data-point" style="animation-delay: 1.90s" />
    <circle cx="315.6" cy="350" r="4" fill="#dfb317" class="data-point" style="animation-delay: 1.95s" />
    <circle cx="344" cy="350" r="4" fill="#dfb317" class="data-point" style="animation-delay: 2.00s" />
    <circle cx="372.4" cy="350" r="4" fill="#dfb317" class="data-point" style="animation-delay: 2.05s" />
    <circle cx="400.8" cy="350" r="4" fill="#dfb317" class="data-point" style="animation-delay: 2.10s" />
    <circle cx="429.2" cy="350" r="4" fill="#dfb317" class="data-point" style="animation-delay: 2.15s" />
    <circle cx="457.6" cy="350" r="4" fill="#dfb317" class="data-point" style="animation-delay: 2.20s" />
    <circle cx="486" cy="350" r="4" fill="#dfb317" class="data-point" style="animation-delay: 2.25s" />
    <circle cx="514.4000000000001" cy="350" r="4" fill="#dfb317" class="data-point" style="animation-delay: 2.30s" />
    <circle cx="542.8" cy="350" r="4" fill="#dfb317" class="data-point" style="animation-delay: 2.35s" />
    <circle cx="571.2" cy="350" r="4" fill="#dfb317" class="data-point" style="animation-delay: 2.40s" />
    <circle cx="599.6" cy="350" r="4" fill="#dfb317" class="data-point" style="animation-delay: 2.45s" />
    <circle cx="628" cy="350" r="4" fill="#dfb317" class="data-point" style="animation-delay: 2.50s" />
    <circle cx="656.4" cy="350" r="4" fill="#dfb317" class="data-point" style="animation-delay: 2.55s" />
    <circle cx="684.8" cy="350" r="4" fill="#dfb317" class="data-point" style="animation-delay: 2.60s" />
    <circle cx="713.2" cy="350" r="4" fill="#dfb317" class="data-point" style="animation-delay: 2.65s" />
    <circle cx="741.6" cy="350" r="4" fill="#dfb317" class="data-point" style="animation-delay: 2.70s" />
    <circle cx="770" cy="350" r="4" fill="#dfb317" class="data-point" style="animation-delay: 2.75s" />
  </g>
</svg>