<svg xmlns="http://www.w3.org/2000/svg" viewBox="0 0 800 400" width="800" height="400">
  <style>
    @keyframes drawLine {
      to { stroke-dashoffset: 0; }
    }
    @keyframes fadeInPoint {
      from { opacity: 0; }
      to { opacity: 1; }
    }
    .data-line-0 {
      stroke-dasharray: 1065;
      stroke-dashoffset: 1065;
      animation: drawLine 2s ease-out forwards;
    }
    .data-point {
      opacity: 0;
      animation: fadeInPoint 0.5s ease-out forwards;
    }
    .chart-bg { fill: #fff; }
    .chart-text { fill: #24292e; }
    .chart-muted { fill: #6a737d; }
    .chart-grid { stroke: #eee; }
    .chart-axis { stroke: #6a737d; }
    @media (prefers-color-scheme: dark) {
      .chart-bg { fill: #0d1117; }
      .chart-text { fill: #e6edf3; }
      .chart-muted { fill: #8b949e; }
      .chart-grid { stroke: #21262d; }
      .chart-axis { stroke: #8b949e; }
    }
  </style>
  <rect width="800" height="400" class="chart-bg" />
  <text x="400" y="34" text-anchor="middle" class="chart-text" font-size="16" font-weight="bold" font-family="-apple-system, BlinkMacSystemFont, 'Segoe UI', Helvetica, Arial, sans-serif">fbuireu/biancafiore Star History</text>
  
  <g class="grid">
    <line x1="60" y1="350" x2="770" y2="350" class="chart-grid" stroke-opacity="0.3" />
    <text x="52" y="354" text-anchor="end" class="chart-muted" font-size="11" font-family="-apple-system, BlinkMacSystemFont, 'Segoe UI', Helvetica, Arial, sans-serif">6</text>
    <line x1="60" y1="200" x2="770" y2="200" class="chart-grid" stroke-opacity="0.3" />
    <text x="52" y="204" text-anchor="end" class="chart-muted" font-size="11" font-family="-apple-system, BlinkMacSystemFont, 'Segoe UI', Helvetica, Arial, sans-serif">7</text>
    <line x1="60" y1="200" x2="770" y2="200" class="chart-grid" stroke-opacity="0.3" />
    <text x="52" y="204" text-anchor="end" class="chart-muted" font-size="11" font-family="-apple-system, BlinkMacSystemFont, 'Segoe UI', Helvetica, Arial, sans-serif">7</text>
    <line x1="60" y1="50" x2="770" y2="50" class="chart-grid" stroke-opacity="0.3" />
    <text x="52" y="54" text-anchor="end" class="chart-muted" font-size="11" font-family="-apple-system, BlinkMacSystemFont, 'Segoe UI', Helvetica, Arial, sans-serif">8</text>
    <line x1="60" y1="50" x2="770" y2="50" class="chart-grid" stroke-opacity="0.3" />
    <text x="52" y="54" text-anchor="end" class="chart-muted" font-size="11" font-family="-apple-system, BlinkMacSystemFont, 'Segoe UI', Helvetica, Arial, sans-serif">8</text>
  </g>
  <g class="milestones">
    
  </g>
  <g class="x-axis">
    <text x="60" y="370" text-anchor="middle" class="chart-muted" font-size="11" font-family="-apple-system, BlinkMacSystemFont, 'Segoe UI', Helvetica, Arial, sans-serif">Feb 13</text>
    <text x="154.66666666666669" y="370" text-anchor="middle" class="chart-muted" font-size="11" font-family="-apple-system, BlinkMacSystemFont, 'Segoe UI', Helvetica, Arial, sans-serif">Feb 13</text>
    <text x="249.33333333333334" y="370" text-anchor="middle" class="chart-muted" font-size="11" font-family="-apple-system, BlinkMacSystemFont, 'Segoe UI', Helvetica, Arial, sans-serif">Feb 13</text>
    <text x="344" y="370" text-anchor="middle" class="chart-muted" font-size="11" font-family="-apple-system, BlinkMacSystemFont, 'Segoe UI', Helvetica, Arial, sans-serif">Feb 13</text>
    <text x="438.6666666666667" y="370" text-anchor="middle" class="chart-muted" font-size="11" font-family="-apple-system, BlinkMacSystemFont, 'Segoe UI', Helvetica, Arial, sans-serif">Feb 14</text>
    <text x="533.3333333333333" y="370" text-anchor="middle" class="chart-muted" font-size="11" font-family="-apple-system, BlinkMacSystemFont, 'Segoe UI', Helvetica, Arial, sans-serif">Feb 15</text>
    <text x="628" y="370" text-anchor="middle" class="chart-muted" font-size="11" font-family="-apple-system, BlinkMacSystemFont, 'Segoe UI', Helvetica, Arial, sans-serif">Feb 15</text>
    <text x="722.6666666666666" y="370" text-anchor="middle" class="chart-muted" font-size="11" font-family="-apple-system, BlinkMacSystemFont, 'Segoe UI', Helvetica, Arial, sans-serif">Mar 1</text>
    <text x="770" y="370" text-anchor="middle" class="chart-muted" font-size="11" font-family="-apple-system, BlinkMacSystemFont, 'Segoe UI', Helvetica, Arial, sans-serif">Mar 8</text>
  </g>
  <line x1="60" y1="50" x2="60" y2="350" class="chart-axis" stroke-width="1" />
  <line x1="60" y1="350" x2="770" y2="350" class="chart-axis" stroke-width="1" />
  <path d="M60,200 C66.31111111111112,200 94.71111111111112,200 107.33333333333334,200 C119.95555555555556,200 142.04444444444445,200 154.66666666666669,200 C167.28888888888892,200 189.37777777777777,200 202,200 C214.62222222222223,200 236.71111111111114,200 249.33333333333334,200 C261.9555555555556,200 284.0444444444444,200 296.66666666666663,200 C309.28888888888883,200 331.3777777777778,200 344,200 C356.6222222222222,200 378.7111111111111,200 391.3333333333333,200 C403.9555555555555,200 426.0444444444445,200 438.6666666666667,200 C451.2888888888889,200 473.3777777777778,200 486,200 C498.6222222222222,200 520.711111111111,200 533.3333333333333,200 C545.9555555555555,200 568.0444444444444,200 580.6666666666666,200 C593.2888888888889,200 615.3777777777777,200 628,200 C640.6222222222223,200 662.7111111111111,200 675.3333333333334,200 C687.9555555555556,200 710.0444444444444,200 722.6666666666666,200 C735.2888888888889,200 763.6888888888889,200 770,200 L770,350 L60,350 Z" fill="#dfb317" fill-opacity="0.1" />
  <path d="M60,200 C66.31111111111112,200 94.71111111111112,200 107.33333333333334,200 C119.95555555555556,200 142.04444444444445,200 154.66666666666669,200 C167.28888888888892,200 189.37777777777777,200 202,200 C214.62222222222223,200 236.71111111111114,200 249.33333333333334,200 C261.9555555555556,200 284.0444444444444,200 296.66666666666663,200 C309.28888888888883,200 331.3777777777778,200 344,200 C356.6222222222222,200 378.7111111111111,200 391.3333333333333,200 C403.9555555555555,200 426.0444444444445,200 438.6666666666667,200 C451.2888888888889,200 473.3777777777778,200 486,200 C498.6222222222222,200 520.711111111111,200 533.3333333333333,200 C545.9555555555555,200 568.0444444444444,200 580.6666666666666,200 C593.2888888888889,200 615.3777777777777,200 628,200 C640.6222222222223,200 662.7111111111111,200 675.3333333333334,200 C687.9555555555556,200 710.0444444444444,200 722.6666666666666,200 C735.2888888888889,200 763.6888888888889,200 770,200" fill="none" stroke="#dfb317" stroke-width="2.5" class="data-line-0" />
  <g class="points">
    
    <circle cx="60" cy="200" r="4" fill="#dfb317" class="data-point" style="animation-delay: 1.50s" />
    <circle cx="107.33333333333334" cy="200" r="4" fill="#dfb317" class="data-point" style="animation-delay: 1.55s" />
    <circle cx="154.66666666666669" cy="200" r="4" fill="#dfb317" class="data-point" style="animation-delay: 1.60s" />
    <circle cx="202" cy="200" r="4" fill="#dfb317" class="data-point" style="animation-delay: 1.65s" />
    <circle cx="249.33333333333334" cy="200" r="4" fill="#dfb317" class="data-point" style="animation-delay: 1.70s" />
    <circle cx="296.66666666666663" cy="200" r="4" fill="#dfb317" class="data-point" style="animation-delay: 1.75s" />
    <circle cx="344" cy="200" r="4" fill="#dfb317" class="data-point" style="animation-delay: 1.80s" />
    <circle cx="391.3333333333333" cy="200" r="4" fill="#dfb317" class="data-point" style="animation-delay: 1.85s" />
    <circle cx="438.6666666666667" cy="200" r="4" fill="#dfb317" class="data-point" style="animation-delay: 1.90s" />
    <circle cx="486" cy="200" r="4" fill="#dfb317" class="data-point" style="animation-delay: 1.95s" />
    <circle cx="533.3333333333333" cy="200" r="4" fill="#dfb317" class="data-point" style="animation-delay: 2.00s" />
    <circle cx="580.6666666666666" cy="200" r="4" fill="#dfb317" class="data-point" style="animation-delay: 2.05s" />
    <circle cx="628" cy="200" r="4" fill="#dfb317" class="data-point" style="animation-delay: 2.10s" />
    <circle cx="675.3333333333334" cy="200" r="4" fill="#dfb317" class="data-point" style="animation-delay: 2.15s" />
    <circle cx="722.6666666666666" cy="200" r="4" fill="#dfb317" class="data-point" style="animation-delay: 2.20s" />
    <circle cx="770" cy="200" r="4" fill="#dfb317" class="data-point" style="animation-delay: 2.25s" />
  </g>
</svg>