<svg xmlns="http://www.w3.org/2000/svg" viewBox="0 0 800 400" width="800" height="400">
  <style>
    @keyframes drawLine {
      to { stroke-dashoffset: 0; }
    }
    @keyframes fadeInPoint {
      from { opacity: 0; }
      to { opacity: 1; }
    }
    .data-line-0 {
      stroke-dasharray: 1065;
      stroke-dashoffset: 1065;
      animation: drawLine 2s ease-out forwards;
    }
    .data-point {
      opacity: 0;
      animation: fadeInPoint 0.5s ease-out forwards;
    }
    .chart-bg { fill: #fff; }
    .chart-text { fill: #24292e; }
    .chart-muted { fill: #6a737d; }
    .chart-grid { stroke: #eee; }
    .chart-axis { stroke: #6a737d; }
    @media (prefers-color-scheme: dark) {
      .chart-bg { fill: #0d1117; }
      .chart-text { fill: #e6edf3; }
      .chart-muted { fill: #8b949e; }
      .chart-grid { stroke: #21262d; }
      .chart-axis { stroke: #8b949e; }
    }
  </style>
  <rect width="800" height="400" class="chart-bg" />
  <text x="400" y="34" text-anchor="middle" class="chart-text" font-size="16" font-weight="bold" font-family="-apple-system, BlinkMacSystemFont, 'Segoe UI', Helvetica, Arial, sans-serif">fbuireu/syncropharma Star History</text>
  
  <g class="grid">
    <line x1="60" y1="350" x2="770" y2="350" class="chart-grid" stroke-opacity="0.3" />
    <text x="52" y="354" text-anchor="end" class="chart-muted" font-size="11" font-family="-apple-system, BlinkMacSystemFont, 'Segoe UI', Helvetica, Arial, sans-serif">0</text>
    <line x1="60" y1="350" x2="770" y2="350" class="chart-grid" stroke-opacity="0.3" />
    <text x="52" y="354" text-anchor="end" class="chart-muted" font-size="11" font-family="-apple-system, BlinkMacSystemFont, 'Segoe UI', Helvetica, Arial, sans-serif">0</text>
    <line x1="60" y1="350" x2="770" y2="350" class="chart-grid" stroke-opacity="0.3" />
    <text x="52" y="354" text-anchor="end" class="chart-muted" font-size="11" font-family="-apple-system, BlinkMacSystemFont, 'Segoe UI', Helvetica, Arial, sans-serif">0</text>
    <line x1="60" y1="50" x2="770" y2="50" class="chart-grid" stroke-opacity="0.3" />
    <text x="52" y="54" text-anchor="end" class="chart-muted" font-size="11" font-family="-apple-system, BlinkMacSystemFont, 'Segoe UI', Helvetica, Arial, sans-serif">1</text>
    <line x1="60" y1="50" x2="770" y2="50" class="chart-grid" stroke-opacity="0.3" />
    <text x="52" y="54" text-anchor="end" class="chart-muted" font-size="11" font-family="-apple-system, BlinkMacSystemFont, 'Segoe UI', Helvetica, Arial, sans-serif">1</text>
    <line x1="60" y1="50" x2="770" y2="50" class="chart-grid" stroke-opacity="0.3" />
    <text x="52" y="54" text-anchor="end" class="chart-muted" font-size="11" font-family="-apple-system, BlinkMacSystemFont, 'Segoe UI', Helvetica, Arial, sans-serif">1</text>
  </g>
  <g class="milestones">
    
  </g>
  <g class="x-axis">
    <text x="60" y="370" text-anchor="middle" class="chart-muted" font-size="11" font-family="-apple-system, BlinkMacSystemFont, 'Segoe UI', Helvetica, Arial, sans-serif">Feb 13</text>
    <text x="138.88888888888889" y="370" text-anchor="middle" class="chart-muted" font-size="11" font-family="-apple-system, BlinkMacSystemFont, 'Segoe UI', Helvetica, Arial, sans-serif">Feb 13</text>
    <text x="217.77777777777777" y="370" text-anchor="middle" class="chart-muted" font-size="11" font-family="-apple-system, BlinkMacSystemFont, 'Segoe UI', Helvetica, Arial, sans-serif">Feb 13</text>
    <text x="296.66666666666663" y="370" text-anchor="middle" class="chart-muted" font-size="11" font-family="-apple-system, BlinkMacSystemFont, 'Segoe UI', Helvetica, Arial, sans-serif">Feb 14</text>
    <text x="375.55555555555554" y="370" text-anchor="middle" class="chart-muted" font-size="11" font-family="-apple-system, BlinkMacSystemFont, 'Segoe UI', Helvetica, Arial, sans-serif">Feb 15</text>
    <text x="454.44444444444446" y="370" text-anchor="middle" class="chart-muted" font-size="11" font-family="-apple-system, BlinkMacSystemFont, 'Segoe UI', Helvetica, Arial, sans-serif">Mar 8</text>
    <text x="533.3333333333333" y="370" text-anchor="middle" class="chart-muted" font-size="11" font-family="-apple-system, BlinkMacSystemFont, 'Segoe UI', Helvetica, Arial, sans-serif">Mar 29</text>
    <text x="612.2222222222223" y="370" text-anchor="middle" class="chart-muted" font-size="11" font-family="-apple-system, BlinkMacSystemFont, 'Segoe UI', Helvetica, Arial, sans-serif">Apr 19</text>
    <text x="691.1111111111111" y="370" text-anchor="middle" class="chart-muted" font-size="11" font-family="-apple-system, BlinkMacSystemFont, 'Segoe UI', Helvetica, Arial, sans-serif">May 10</text>
    <text x="770" y="370" text-anchor="middle" class="chart-muted" font-size="11" font-family="-apple-system, BlinkMacSystemFont, 'Segoe UI', Helvetica, Arial, sans-serif">Jun 7</text>
  </g>
  <line x1="60" y1="50" x2="60" y2="350" class="chart-axis" stroke-width="1" />
  <line x1="60" y1="350" x2="770" y2="350" class="chart-axis" stroke-width="1" />
  <path d="M60,350 C63.50617283950617,350 79.28395061728395,350 86.29629629629629,350 C93.30864197530863,350 105.58024691358024,350 112.59259259259258,350 C119.60493827160492,350 131.87654320987653,350 138.88888888888889,350 C145.90123456790124,350 158.1728395061728,350 165.18518518518516,350 C172.19753086419752,350 184.4691358024691,350 191.48148148148147,350 C198.49382716049382,350 210.76543209876542,350 217.77777777777777,350 C224.79012345679013,350 237.06172839506172,350 244.07407407407408,350 C251.08641975308643,350 263.35802469135797,350 270.3703703703703,350 C277.3827160493827,350 289.6543209876543,350 296.66666666666663,350 C303.679012345679,350 315.9506172839506,350 322.96296296296293,350 C329.9753086419753,350 342.2469135802469,350 349.25925925925924,350 C356.2716049382716,350 368.5432098765432,350 375.55555555555554,350 C382.5679012345679,350 394.8395061728395,350 401.85185185185185,350 C408.8641975308642,350 421.1358024691358,350 428.14814814814815,350 C435.1604938271605,350 447.4320987654321,350 454.44444444444446,350 C461.4567901234568,350 473.72839506172835,350 480.7407407407407,350 C487.75308641975306,350 500.0246913580247,350 507.03703703703707,350 C514.0493827160494,350 526.3209876543209,350 533.3333333333333,350 C540.3456790123456,350 552.6172839506172,350 559.6296296296296,350 C566.6419753086419,350 578.9135802469135,350 585.9259259259259,350 C592.9382716049382,350 605.2098765432099,350 612.2222222222223,350 C619.2345679012346,350 631.5061728395061,350 638.5185185185185,350 C645.5308641975308,350 657.8024691358024,350 664.8148148148148,350 C671.8271604938271,350 684.0987654320987,350 691.1111111111111,350 C698.1234567901234,350 710.395061728395,350 717.4074074074074,350 C724.4197530864197,350 736.6913580246913,350 743.7037037037037,350 C750.716049382716,350 766.4938271604939,350 770,350 L770,350 L60,350 Z" fill="#dfb317" fill-opacity="0.1" />
  <path d="M60,350 C63.50617283950617,350 79.28395061728395,350 86.29629629629629,350 C93.30864197530863,350 105.58024691358024,350 112.59259259259258,350 C119.60493827160492,350 131.87654320987653,350 138.88888888888889,350 C145.90123456790124,350 158.1728395061728,350 165.18518518518516,350 C172.19753086419752,350 184.4691358024691,350 191.48148148148147,350 C198.49382716049382,350 210.76543209876542,350 217.77777777777777,350 C224.79012345679013,350 237.06172839506172,350 244.07407407407408,350 C251.08641975308643,350 263.35802469135797,350 270.3703703703703,350 C277.3827160493827,350 289.6543209876543,350 296.66666666666663,350 C303.679012345679,350 315.9506172839506,350 322.96296296296293,350 C329.9753086419753,350 342.2469135802469,350 349.25925925925924,350 C356.2716049382716,350 368.5432098765432,350 375.55555555555554,350 C382.5679012345679,350 394.8395061728395,350 401.85185185185185,350 C408.8641975308642,350 421.1358024691358,350 428.14814814814815,350 C435.1604938271605,350 447.4320987654321,350 454.44444444444446,350 C461.4567901234568,350 473.72839506172835,350 480.7407407407407,350 C487.75308641975306,350 500.0246913580247,350 507.03703703703707,350 C514.0493827160494,350 526.3209876543209,350 533.3333333333333,350 C540.3456790123456,350 552.6172839506172,350 559.6296296296296,350 C566.6419753086419,350 578.9135802469135,350 585.9259259259259,350 C592.9382716049382,350 605.2098765432099,350 612.2222222222223,350 C619.2345679012346,350 631.5061728395061,350 638.5185185185185,350 C645.5308641975308,350 657.8024691358024,350 664.8148148148148,350 C671.8271604938271,350 684.0987654320987,350 691.1111111111111,350 C698.1234567901234,350 710.395061728395,350 717.4074074074074,350 C724.4197530864197,350 736.6913580246913,350 743.7037037037037,350 C750.716049382716,350 766.4938271604939,350 770,350" fill="none" stroke="#dfb317" stroke-width="2.5" class="data-line-0" />
  <g class="points">
    
    <circle cx="60" cy="350" r="4" fill="#dfb317" class="data-point" style="animation-delay: 1.50s" />
    <circle cx="86.29629629629629" cy="350" r="4" fill="#dfb317" class="data-point" style="animation-delay: 1.55s" />
    <circle cx="112.59259259259258" cy="350" r="4" fill="#dfb317" class="data-point" style="animation-delay: 1.60s" />
    <circle cx="138.88888888888889" cy="350" r="4" fill="#dfb317" class="data-point" style="animation-delay: 1.65s" />
    <circle cx="165.18518518518516" cy="350" r="4" fill="#dfb317" class="data-point" style="animation-delay: 1.70s" />
    <circle cx="191.48148148148147" cy="350" r="4" fill="#dfb317" class="data-point" style="animation-delay: 1.75s" />
    <circle cx="217.77777777777777" cy="350" r="4" fill="#dfb317" class="data-point" style="animation-delay: 1.80s" />
    <circle cx="244.07407407407408" cy="350" r="4" fill="#dfb317" class="data-point" style="animation-delay: 1.85s" />
    <circle cx="270.3703703703703" cy="350" r="4" fill="#dfb317" class="data-point" style="animation-delay: 1.90s" />
    <circle cx="296.66666666666663" cy="350" r="4" fill="#dfb317" class="data-point" style="animation-delay: 1.95s" />
    <circle cx="322.96296296296293" cy="350" r="4" fill="#dfb317" class="data-point" style="animation-delay: 2.00s" />
    <circle cx="349.25925925925924" cy="350" r="4" fill="#dfb317" class="data-point" style="animation-delay: 2.05s" />
    <circle cx="375.55555555555554" cy="350" r="4" fill="#dfb317" class="data-point" style="animation-delay: 2.10s" />
    <circle cx="401.85185185185185" cy="350" r="4" fill="#dfb317" class="data-point" style="animation-delay: 2.15s" />
    <circle cx="428.14814814814815" cy="350" r="4" fill="#dfb317" class="data-point" style="animation-delay: 2.20s" />
    <circle cx="454.44444444444446" cy="350" r="4" fill="#dfb317" class="data-point" style="animation-delay: 2.25s" />
    <circle cx="480.7407407407407" cy="350" r="4" fill="#dfb317" class="data-point" style="animation-delay: 2.30s" />
    <circle cx="507.03703703703707" cy="350" r="4" fill="#dfb317" class="data-point" style="animation-delay: 2.35s" />
    <circle cx="533.3333333333333" cy="350" r="4" fill="#dfb317" class="data-point" style="animation-delay: 2.40s" />
    <circle cx="559.6296296296296" cy="350" r="4" fill="#dfb317" class="data-point" style="animation-delay: 2.45s" />
    <circle cx="585.9259259259259" cy="350" r="4" fill="#dfb317" class="data-point" style="animation-delay: 2.50s" />
    <circle cx="612.2222222222223" cy="350" r="4" fill="#dfb317" class="data-point" style="animation-delay: 2.55s" />
    <circle cx="638.5185185185185" cy="350" r="4" fill="#dfb317" class="data-point" style="animation-delay: 2.60s" />
    <circle cx="664.8148148148148" cy="350" r="4" fill="#dfb317" class="data-point" style="animation-delay: 2.65s" />
    <circle cx="691.1111111111111" cy="350" r="4" fill="#dfb317" class="data-point" style="animation-delay: 2.70s" />
    <circle cx="717.4074074074074" cy="350" r="4" fill="#dfb317" class="data-point" style="animation-delay: 2.75s" />
    <circle cx="743.7037037037037" cy="350" r="4" fill="#dfb317" class="data-point" style="animation-delay: 2.80s" />
    <circle cx="770" cy="350" r="4" fill="#dfb317" class="data-point" style="animation-delay: 2.85s" />
  </g>
</svg>