<svg xmlns="http://www.w3.org/2000/svg" viewBox="0 0 800 400" width="800" height="400">
  <style>
    @keyframes drawLine {
      to { stroke-dashoffset: 0; }
    }
    @keyframes fadeInPoint {
      from { opacity: 0; }
      to { opacity: 1; }
    }
    .data-line-0 {
      stroke-dasharray: 1673;
      stroke-dashoffset: 1673;
      animation: drawLine 2s ease-out forwards;
    }
    .data-point {
      opacity: 0;
      animation: fadeInPoint 0.5s ease-out forwards;
    }
    .chart-bg { fill: #fff; }
    .chart-text { fill: #24292e; }
    .chart-muted { fill: #6a737d; }
    .chart-grid { stroke: #eee; }
    .chart-axis { stroke: #6a737d; }
    @media (prefers-color-scheme: dark) {
      .chart-bg { fill: #0d1117; }
      .chart-text { fill: #e6edf3; }
      .chart-muted { fill: #8b949e; }
      .chart-grid { stroke: #21262d; }
      .chart-axis { stroke: #8b949e; }
    }
  </style>
  <rect width="800" height="400" class="chart-bg" />
  <text x="400" y="14" text-anchor="middle" class="chart-text" font-size="16" font-weight="bold" font-family="-apple-system, BlinkMacSystemFont, 'Segoe UI', Helvetica, Arial, sans-serif">Growth Forecast</text>
  <g class="legend">
    <rect x="220" y="25" width="12" height="3" fill="#dfb317" />
    <line x1="220" y1="26.5" x2="232" y2="26.5" stroke="#dfb317" stroke-width="2" />
    <text x="236" y="30" class="chart-text" font-size="10" font-family="-apple-system, BlinkMacSystemFont, 'Segoe UI', Helvetica, Arial, sans-serif">Star History</text>
    <rect x="340" y="25" width="12" height="3" fill="#28a745" rx="1" />
    <line x1="340" y1="26.5" x2="352" y2="26.5" stroke="#28a745" stroke-width="2" stroke-dasharray="4,2" />
    <text x="356" y="30" class="chart-text" font-size="10" font-family="-apple-system, BlinkMacSystemFont, 'Segoe UI', Helvetica, Arial, sans-serif">Linear Regression</text>
    <rect x="460" y="25" width="12" height="3" fill="#d73a49" rx="1" />
    <line x1="460" y1="26.5" x2="472" y2="26.5" stroke="#d73a49" stroke-width="2" stroke-dasharray="4,2" />
    <text x="476" y="30" class="chart-text" font-size="10" font-family="-apple-system, BlinkMacSystemFont, 'Segoe UI', Helvetica, Arial, sans-serif">Weighted Moving Average</text>
  </g>
  <g class="grid">
    <line x1="60" y1="350" x2="770" y2="350" class="chart-grid" stroke-opacity="0.3" />
    <text x="52" y="354" text-anchor="end" class="chart-muted" font-size="11" font-family="-apple-system, BlinkMacSystemFont, 'Segoe UI', Helvetica, Arial, sans-serif">0</text>
    <line x1="60" y1="274.74224217946465" x2="770" y2="274.74224217946465" class="chart-grid" stroke-opacity="0.3" />
    <text x="52" y="278.74224217946465" text-anchor="end" class="chart-muted" font-size="11" font-family="-apple-system, BlinkMacSystemFont, 'Segoe UI', Helvetica, Arial, sans-serif">10,000</text>
    <line x1="60" y1="199.48448435892934" x2="770" y2="199.48448435892934" class="chart-grid" stroke-opacity="0.3" />
    <text x="52" y="203.48448435892934" text-anchor="end" class="chart-muted" font-size="11" font-family="-apple-system, BlinkMacSystemFont, 'Segoe UI', Helvetica, Arial, sans-serif">20,000</text>
    <line x1="60" y1="124.22672653839402" x2="770" y2="124.22672653839402" class="chart-grid" stroke-opacity="0.3" />
    <text x="52" y="128.22672653839402" text-anchor="end" class="chart-muted" font-size="11" font-family="-apple-system, BlinkMacSystemFont, 'Segoe UI', Helvetica, Arial, sans-serif">30,000</text>
    <line x1="60" y1="48.96896871785867" x2="770" y2="48.96896871785867" class="chart-grid" stroke-opacity="0.3" />
    <text x="52" y="52.96896871785867" text-anchor="end" class="chart-muted" font-size="11" font-family="-apple-system, BlinkMacSystemFont, 'Segoe UI', Helvetica, Arial, sans-serif">40,000</text>
  </g>
  <g class="milestones">
    
  </g>
  <g class="x-axis">
    <text x="60" y="370" text-anchor="middle" class="chart-muted" font-size="11" font-family="-apple-system, BlinkMacSystemFont, 'Segoe UI', Helvetica, Arial, sans-serif">Feb 13</text>
    <text x="154.66666666666669" y="370" text-anchor="middle" class="chart-muted" font-size="11" font-family="-apple-system, BlinkMacSystemFont, 'Segoe UI', Helvetica, Arial, sans-serif">Feb 13</text>
    <text x="249.33333333333334" y="370" text-anchor="middle" class="chart-muted" font-size="11" font-family="-apple-system, BlinkMacSystemFont, 'Segoe UI', Helvetica, Arial, sans-serif">Feb 14</text>
    <text x="344" y="370" text-anchor="middle" class="chart-muted" font-size="11" font-family="-apple-system, BlinkMacSystemFont, 'Segoe UI', Helvetica, Arial, sans-serif">Feb 15</text>
    <text x="438.6666666666667" y="370" text-anchor="middle" class="chart-muted" font-size="11" font-family="-apple-system, BlinkMacSystemFont, 'Segoe UI', Helvetica, Arial, sans-serif">Mar 15</text>
    <text x="533.3333333333333" y="370" text-anchor="middle" class="chart-muted" font-size="11" font-family="-apple-system, BlinkMacSystemFont, 'Segoe UI', Helvetica, Arial, sans-serif">Apr 12</text>
    <text x="628" y="370" text-anchor="middle" class="chart-muted" font-size="11" font-family="-apple-system, BlinkMacSystemFont, 'Segoe UI', Helvetica, Arial, sans-serif">May 10</text>
    <text x="722.6666666666666" y="370" text-anchor="middle" class="chart-muted" font-size="11" font-family="-apple-system, BlinkMacSystemFont, 'Segoe UI', Helvetica, Arial, sans-serif">Week 2</text>
    <text x="770" y="370" text-anchor="middle" class="chart-muted" font-size="11" font-family="-apple-system, BlinkMacSystemFont, 'Segoe UI', Helvetica, Arial, sans-serif">Week 4</text>
  </g>
  <line x1="60" y1="50" x2="60" y2="350" class="chart-axis" stroke-width="1" />
  <line x1="60" y1="350" x2="770" y2="350" class="chart-axis" stroke-width="1" />
  <path d="M60,349.87958758748715 C63.15555555555556,349.87958758748715 77.35555555555555,349.87958758748715 83.66666666666667,349.87958758748715 C89.97777777777779,349.87958758748715 101.02222222222223,349.87958758748715 107.33333333333334,349.87958758748715 C113.64444444444446,349.87958758748715 124.68888888888888,349.87958758748715 131,349.87958758748715 C137.3111111111111,349.87958758748715 148.35555555555558,349.87958758748715 154.66666666666669,349.87958758748715 C160.9777777777778,349.87958758748715 172.0222222222222,349.87958758748715 178.33333333333331,349.87958758748715 C184.64444444444442,349.87958758748715 195.6888888888889,386.2270777412638 202,349.87958758748715 C208.3111111111111,313.5320974337105 219.35555555555555,77.27341143416203 225.66666666666666,77.27341143416203 C231.97777777777776,77.27341143416203 243.02222222222224,313.5320974337105 249.33333333333334,349.87958758748715 C255.64444444444445,386.2270777412638 266.68888888888887,349.87958758748715 273,349.87958758748715 C279.31111111111113,349.87958758748715 290.3555555555555,349.8775807139453 296.66666666666663,349.87958758748715 C302.97777777777776,349.881594461029 314.0222222222222,349.8926322655094 320.3333333333333,349.89463913905126 C326.64444444444445,349.8966460125931 337.68888888888887,349.8956425758222 344,349.89463913905126 C350.31111111111113,349.89363570228033 361.35555555555555,349.8871133632692 367.6666666666667,349.8871133632692 C373.9777777777778,349.8871133632692 385.0222222222222,349.89363570228033 391.3333333333333,349.89463913905126 C397.64444444444445,349.8956425758222 408.68888888888887,349.89463913905126 415,349.89463913905126 C421.31111111111113,349.89463913905126 432.35555555555555,349.89463913905126 438.6666666666667,349.89463913905126 C444.9777777777778,349.89463913905126 456.0222222222222,349.89463913905126 462.3333333333333,349.89463913905126 C468.64444444444445,349.89463913905126 479.68888888888887,349.89463913905126 486,349.89463913905126 C492.31111111111113,349.89463913905126 503.35555555555555,349.89463913905126 509.66666666666663,349.89463913905126 C515.9777777777778,349.89463913905126 527.0222222222221,349.8956425758222 533.3333333333333,349.89463913905126 C539.6444444444444,349.89363570228033 550.6888888888889,349.8881168000401 557,349.8871133632692 C563.3111111111111,349.88610992649825 574.3555555555555,349.8871133632692 580.6666666666666,349.8871133632692 C586.9777777777778,349.8871133632692 598.0222222222222,349.8871133632692 604.3333333333334,349.8871133632692 C610.6444444444445,349.8871133632692 621.6888888888889,349.8871133632692 628,349.8871133632692 C634.3111111111111,349.8871133632692 645.3555555555556,349.8871133632692 651.6666666666667,349.8871133632692 C657.9777777777779,349.8871133632692 672.1777777777778,349.8871133632692 675.3333333333334,349.8871133632692 L675.3333333333334,350 L60,350 Z" fill="#dfb317" fill-opacity="0.1" />
  
  
  <path d="M60,349.87958758748715 C63.15555555555556,349.87958758748715 77.35555555555555,349.87958758748715 83.66666666666667,349.87958758748715 C89.97777777777779,349.87958758748715 101.02222222222223,349.87958758748715 107.33333333333334,349.87958758748715 C113.64444444444446,349.87958758748715 124.68888888888888,349.87958758748715 131,349.87958758748715 C137.3111111111111,349.87958758748715 148.35555555555558,349.87958758748715 154.66666666666669,349.87958758748715 C160.9777777777778,349.87958758748715 172.0222222222222,349.87958758748715 178.33333333333331,349.87958758748715 C184.64444444444442,349.87958758748715 195.6888888888889,386.2270777412638 202,349.87958758748715 C208.3111111111111,313.5320974337105 219.35555555555555,77.27341143416203 225.66666666666666,77.27341143416203 C231.97777777777776,77.27341143416203 243.02222222222224,313.5320974337105 249.33333333333334,349.87958758748715 C255.64444444444445,386.2270777412638 266.68888888888887,349.87958758748715 273,349.87958758748715 C279.31111111111113,349.87958758748715 290.3555555555555,349.8775807139453 296.66666666666663,349.87958758748715 C302.97777777777776,349.881594461029 314.0222222222222,349.8926322655094 320.3333333333333,349.89463913905126 C326.64444444444445,349.8966460125931 337.68888888888887,349.8956425758222 344,349.89463913905126 C350.31111111111113,349.89363570228033 361.35555555555555,349.8871133632692 367.6666666666667,349.8871133632692 C373.9777777777778,349.8871133632692 385.0222222222222,349.89363570228033 391.3333333333333,349.89463913905126 C397.64444444444445,349.8956425758222 408.68888888888887,349.89463913905126 415,349.89463913905126 C421.31111111111113,349.89463913905126 432.35555555555555,349.89463913905126 438.6666666666667,349.89463913905126 C444.9777777777778,349.89463913905126 456.0222222222222,349.89463913905126 462.3333333333333,349.89463913905126 C468.64444444444445,349.89463913905126 479.68888888888887,349.89463913905126 486,349.89463913905126 C492.31111111111113,349.89463913905126 503.35555555555555,349.89463913905126 509.66666666666663,349.89463913905126 C515.9777777777778,349.89463913905126 527.0222222222221,349.8956425758222 533.3333333333333,349.89463913905126 C539.6444444444444,349.89363570228033 550.6888888888889,349.8881168000401 557,349.8871133632692 C563.3111111111111,349.88610992649825 574.3555555555555,349.8871133632692 580.6666666666666,349.8871133632692 C586.9777777777778,349.8871133632692 598.0222222222222,349.8871133632692 604.3333333333334,349.8871133632692 C610.6444444444445,349.8871133632692 621.6888888888889,349.8871133632692 628,349.8871133632692 C634.3111111111111,349.8871133632692 645.3555555555556,349.8871133632692 651.6666666666667,349.8871133632692 C657.9777777777779,349.8871133632692 672.1777777777778,349.8871133632692 675.3333333333334,349.8871133632692" fill="none" stroke="#dfb317" stroke-width="2.5" class="data-line-0" />
  <path d="M675.3333333333334,349.8871133632692 C678.4888888888889,349.9021649148333 692.6888888888889,349.9849484484359 699,350 C705.3111111111111,350.0150515515641 716.3555555555555,350 722.6666666666666,350 C728.9777777777778,350 740.0222222222222,350 746.3333333333334,350 C752.6444444444445,350 766.8444444444444,350 770,350" fill="none" stroke="#28a745" stroke-width="2.5" stroke-dasharray="8,4" />
  <path d="M675.3333333333334,349.8871133632692 C678.4888888888889,349.9021649148333 692.6888888888889,349.9849484484359 699,350 C705.3111111111111,350.0150515515641 716.3555555555555,350 722.6666666666666,350 C728.9777777777778,350 740.0222222222222,350 746.3333333333334,350 C752.6444444444445,350 766.8444444444444,350 770,350" fill="none" stroke="#d73a49" stroke-width="2.5" stroke-dasharray="8,4" />
  <g class="points">
    
    <circle cx="60" cy="349.87958758748715" r="4" fill="#dfb317" class="data-point" style="animation-delay: 1.50s" />
    <circle cx="83.66666666666667" cy="349.87958758748715" r="4" fill="#dfb317" class="data-point" style="animation-delay: 1.55s" />
    <circle cx="107.33333333333334" cy="349.87958758748715" r="4" fill="#dfb317" class="data-point" style="animation-delay: 1.60s" />
    <circle cx="131" cy="349.87958758748715" r="4" fill="#dfb317" class="data-point" style="animation-delay: 1.65s" />
    <circle cx="154.66666666666669" cy="349.87958758748715" r="4" fill="#dfb317" class="data-point" style="animation-delay: 1.70s" />
    <circle cx="178.33333333333331" cy="349.87958758748715" r="4" fill="#dfb317" class="data-point" style="animation-delay: 1.75s" />
    <circle cx="202" cy="349.87958758748715" r="4" fill="#dfb317" class="data-point" style="animation-delay: 1.80s" />
    <circle cx="225.66666666666666" cy="77.27341143416203" r="4" fill="#dfb317" class="data-point" style="animation-delay: 1.85s" />
    <circle cx="249.33333333333334" cy="349.87958758748715" r="4" fill="#dfb317" class="data-point" style="animation-delay: 1.90s" />
    <circle cx="273" cy="349.87958758748715" r="4" fill="#dfb317" class="data-point" style="animation-delay: 1.95s" />
    <circle cx="296.66666666666663" cy="349.87958758748715" r="4" fill="#dfb317" class="data-point" style="animation-delay: 2.00s" />
    <circle cx="320.3333333333333" cy="349.89463913905126" r="4" fill="#dfb317" class="data-point" style="animation-delay: 2.05s" />
    <circle cx="344" cy="349.89463913905126" r="4" fill="#dfb317" class="data-point" style="animation-delay: 2.10s" />
    <circle cx="367.6666666666667" cy="349.8871133632692" r="4" fill="#dfb317" class="data-point" style="animation-delay: 2.15s" />
    <circle cx="391.3333333333333" cy="349.89463913905126" r="4" fill="#dfb317" class="data-point" style="animation-delay: 2.20s" />
    <circle cx="415" cy="349.89463913905126" r="4" fill="#dfb317" class="data-point" style="animation-delay: 2.25s" />
    <circle cx="438.6666666666667" cy="349.89463913905126" r="4" fill="#dfb317" class="data-point" style="animation-delay: 2.30s" />
    <circle cx="462.3333333333333" cy="349.89463913905126" r="4" fill="#dfb317" class="data-point" style="animation-delay: 2.35s" />
    <circle cx="486" cy="349.89463913905126" r="4" fill="#dfb317" class="data-point" style="animation-delay: 2.40s" />
    <circle cx="509.66666666666663" cy="349.89463913905126" r="4" fill="#dfb317" class="data-point" style="animation-delay: 2.45s" />
    <circle cx="533.3333333333333" cy="349.89463913905126" r="4" fill="#dfb317" class="data-point" style="animation-delay: 2.50s" />
    <circle cx="557" cy="349.8871133632692" r="4" fill="#dfb317" class="data-point" style="animation-delay: 2.55s" />
    <circle cx="580.6666666666666" cy="349.8871133632692" r="4" fill="#dfb317" class="data-point" style="animation-delay: 2.60s" />
    <circle cx="604.3333333333334" cy="349.8871133632692" r="4" fill="#dfb317" class="data-point" style="animation-delay: 2.65s" />
    <circle cx="628" cy="349.8871133632692" r="4" fill="#dfb317" class="data-point" style="animation-delay: 2.70s" />
    <circle cx="651.6666666666667" cy="349.8871133632692" r="4" fill="#dfb317" class="data-point" style="animation-delay: 2.75s" />
    <circle cx="675.3333333333334" cy="349.8871133632692" r="4" fill="#dfb317" class="data-point" style="animation-delay: 2.80s" />
  </g>
</svg>