<svg xmlns="http://www.w3.org/2000/svg" viewBox="0 0 800 400" width="800" height="400">
  <style>
    @keyframes drawLine {
      to { stroke-dashoffset: 0; }
    }
    @keyframes fadeInPoint {
      from { opacity: 0; }
      to { opacity: 1; }
    }
    .data-line-0 {
      stroke-dasharray: 1470;
      stroke-dashoffset: 1470;
      animation: drawLine 2s ease-out forwards;
    }
    .data-point {
      opacity: 0;
      animation: fadeInPoint 0.5s ease-out forwards;
    }
  </style>
  <rect width="800" height="400" fill="#fff" />
  <text x="400" y="14" text-anchor="middle" fill="#24292e" font-size="16" font-weight="bold" font-family="-apple-system, BlinkMacSystemFont, 'Segoe UI', Helvetica, Arial, sans-serif">Growth Forecast</text>
  <g class="legend">
    <rect x="220" y="25" width="12" height="3" fill="#dfb317" />
    <line x1="220" y1="26.5" x2="232" y2="26.5" stroke="#dfb317" stroke-width="2" />
    <text x="236" y="30" fill="#24292e" font-size="10" font-family="-apple-system, BlinkMacSystemFont, 'Segoe UI', Helvetica, Arial, sans-serif">Star History</text>
    <rect x="340" y="25" width="12" height="3" fill="#28a745" rx="1" />
    <line x1="340" y1="26.5" x2="352" y2="26.5" stroke="#28a745" stroke-width="2" stroke-dasharray="4,2" />
    <text x="356" y="30" fill="#24292e" font-size="10" font-family="-apple-system, BlinkMacSystemFont, 'Segoe UI', Helvetica, Arial, sans-serif">Linear Regression</text>
    <rect x="460" y="25" width="12" height="3" fill="#d73a49" rx="1" />
    <line x1="460" y1="26.5" x2="472" y2="26.5" stroke="#d73a49" stroke-width="2" stroke-dasharray="4,2" />
    <text x="476" y="30" fill="#24292e" font-size="10" font-family="-apple-system, BlinkMacSystemFont, 'Segoe UI', Helvetica, Arial, sans-serif">Weighted Moving Average</text>
  </g>
  <g class="grid">
    <line x1="60" y1="350" x2="770" y2="350" stroke="#eee" stroke-opacity="0.3" />
    <text x="52" y="354" text-anchor="end" fill="#6a737d" font-size="11" font-family="-apple-system, BlinkMacSystemFont, 'Segoe UI', Helvetica, Arial, sans-serif">0</text>
    <line x1="60" y1="274.74224217946465" x2="770" y2="274.74224217946465" stroke="#eee" stroke-opacity="0.3" />
    <text x="52" y="278.74224217946465" text-anchor="end" fill="#6a737d" font-size="11" font-family="-apple-system, BlinkMacSystemFont, 'Segoe UI', Helvetica, Arial, sans-serif">10,000</text>
    <line x1="60" y1="199.48448435892934" x2="770" y2="199.48448435892934" stroke="#eee" stroke-opacity="0.3" />
    <text x="52" y="203.48448435892934" text-anchor="end" fill="#6a737d" font-size="11" font-family="-apple-system, BlinkMacSystemFont, 'Segoe UI', Helvetica, Arial, sans-serif">20,000</text>
    <line x1="60" y1="124.22672653839402" x2="770" y2="124.22672653839402" stroke="#eee" stroke-opacity="0.3" />
    <text x="52" y="128.22672653839402" text-anchor="end" fill="#6a737d" font-size="11" font-family="-apple-system, BlinkMacSystemFont, 'Segoe UI', Helvetica, Arial, sans-serif">30,000</text>
    <line x1="60" y1="48.96896871785867" x2="770" y2="48.96896871785867" stroke="#eee" stroke-opacity="0.3" />
    <text x="52" y="52.96896871785867" text-anchor="end" fill="#6a737d" font-size="11" font-family="-apple-system, BlinkMacSystemFont, 'Segoe UI', Helvetica, Arial, sans-serif">40,000</text>
  </g>
  <g class="milestones">
    
  </g>
  <g class="x-axis">
    <text x="60" y="370" text-anchor="middle" fill="#6a737d" font-size="11" font-family="-apple-system, BlinkMacSystemFont, 'Segoe UI', Helvetica, Arial, sans-serif">Feb 13</text>
    <text x="154.66666666666669" y="370" text-anchor="middle" fill="#6a737d" font-size="11" font-family="-apple-system, BlinkMacSystemFont, 'Segoe UI', Helvetica, Arial, sans-serif">Feb 13</text>
    <text x="249.33333333333334" y="370" text-anchor="middle" fill="#6a737d" font-size="11" font-family="-apple-system, BlinkMacSystemFont, 'Segoe UI', Helvetica, Arial, sans-serif">Feb 13</text>
    <text x="344" y="370" text-anchor="middle" fill="#6a737d" font-size="11" font-family="-apple-system, BlinkMacSystemFont, 'Segoe UI', Helvetica, Arial, sans-serif">Feb 13</text>
    <text x="438.6666666666667" y="370" text-anchor="middle" fill="#6a737d" font-size="11" font-family="-apple-system, BlinkMacSystemFont, 'Segoe UI', Helvetica, Arial, sans-serif">Feb 14</text>
    <text x="533.3333333333333" y="370" text-anchor="middle" fill="#6a737d" font-size="11" font-family="-apple-system, BlinkMacSystemFont, 'Segoe UI', Helvetica, Arial, sans-serif">Feb 15</text>
    <text x="628" y="370" text-anchor="middle" fill="#6a737d" font-size="11" font-family="-apple-system, BlinkMacSystemFont, 'Segoe UI', Helvetica, Arial, sans-serif">Week 1</text>
    <text x="722.6666666666666" y="370" text-anchor="middle" fill="#6a737d" font-size="11" font-family="-apple-system, BlinkMacSystemFont, 'Segoe UI', Helvetica, Arial, sans-serif">Week 3</text>
    <text x="770" y="370" text-anchor="middle" fill="#6a737d" font-size="11" font-family="-apple-system, BlinkMacSystemFont, 'Segoe UI', Helvetica, Arial, sans-serif">Week 4</text>
  </g>
  <line x1="60" y1="50" x2="60" y2="350" stroke="#6a737d" stroke-width="1" />
  <line x1="60" y1="350" x2="770" y2="350" stroke="#6a737d" stroke-width="1" />
  <path d="M60,349.87958758748715 C66.31111111111112,349.87958758748715 94.71111111111112,349.87958758748715 107.33333333333334,349.87958758748715 C119.95555555555556,349.87958758748715 142.04444444444445,349.87958758748715 154.66666666666669,349.87958758748715 C167.28888888888892,349.87958758748715 189.37777777777777,349.87958758748715 202,349.87958758748715 C214.62222222222223,349.87958758748715 236.71111111111114,349.87958758748715 249.33333333333334,349.87958758748715 C261.9555555555556,349.87958758748715 284.0444444444444,349.87958758748715 296.66666666666663,349.87958758748715 C309.28888888888883,349.87958758748715 331.3777777777778,386.2270777412638 344,349.87958758748715 C356.6222222222222,313.5320974337105 378.7111111111111,77.27341143416203 391.3333333333333,77.27341143416203 C403.9555555555555,77.27341143416203 426.0444444444445,313.5320974337105 438.6666666666667,349.87958758748715 C451.2888888888889,386.2270777412638 473.3777777777778,349.87958758748715 486,349.87958758748715 C498.6222222222222,349.87958758748715 520.711111111111,349.8775807139453 533.3333333333333,349.87958758748715 C545.9555555555555,349.881594461029 574.3555555555555,349.8926322655094 580.6666666666666,349.89463913905126 L580.6666666666666,350 L60,350 Z" fill="#dfb317" fill-opacity="0.1" />
  
  
  <path d="M60,349.87958758748715 C66.31111111111112,349.87958758748715 94.71111111111112,349.87958758748715 107.33333333333334,349.87958758748715 C119.95555555555556,349.87958758748715 142.04444444444445,349.87958758748715 154.66666666666669,349.87958758748715 C167.28888888888892,349.87958758748715 189.37777777777777,349.87958758748715 202,349.87958758748715 C214.62222222222223,349.87958758748715 236.71111111111114,349.87958758748715 249.33333333333334,349.87958758748715 C261.9555555555556,349.87958758748715 284.0444444444444,349.87958758748715 296.66666666666663,349.87958758748715 C309.28888888888883,349.87958758748715 331.3777777777778,386.2270777412638 344,349.87958758748715 C356.6222222222222,313.5320974337105 378.7111111111111,77.27341143416203 391.3333333333333,77.27341143416203 C403.9555555555555,77.27341143416203 426.0444444444445,313.5320974337105 438.6666666666667,349.87958758748715 C451.2888888888889,386.2270777412638 473.3777777777778,349.87958758748715 486,349.87958758748715 C498.6222222222222,349.87958758748715 520.711111111111,349.8775807139453 533.3333333333333,349.87958758748715 C545.9555555555555,349.881594461029 574.3555555555555,349.8926322655094 580.6666666666666,349.89463913905126" fill="none" stroke="#dfb317" stroke-width="2.5" class="data-line-0" />
  <path d="M580.6666666666666,349.89463913905126 C586.9777777777778,344.38577126658805 615.3777777777777,314.46830394099794 628,308.57813009557736 C640.6222222222223,302.6879562501568 662.7111111111111,306.4799438075408 675.3333333333334,305.718335298397 C687.9555555555556,304.9567267892532 710.0444444444444,303.6276747861425 722.6666666666666,302.8660662769987 C735.2888888888889,302.1044577678549 763.6888888888889,300.38757745277576 770,300.0062714798184" fill="none" stroke="#28a745" stroke-width="2.5" stroke-dasharray="8,4" />
  <path d="M580.6666666666666,349.89463913905126 C586.9777777777778,349.90868725384445 615.3777777777777,349.9859518852068 628,350 C640.6222222222223,350.0140481147932 662.7111111111111,350 675.3333333333334,350 C687.9555555555556,350 710.0444444444444,350 722.6666666666666,350 C735.2888888888889,350 763.6888888888889,350 770,350" fill="none" stroke="#d73a49" stroke-width="2.5" stroke-dasharray="8,4" />
  <g class="points">
    
    <circle cx="60" cy="349.87958758748715" r="4" fill="#dfb317" class="data-point" style="animation-delay: 1.50s" />
    <circle cx="107.33333333333334" cy="349.87958758748715" r="4" fill="#dfb317" class="data-point" style="animation-delay: 1.55s" />
    <circle cx="154.66666666666669" cy="349.87958758748715" r="4" fill="#dfb317" class="data-point" style="animation-delay: 1.60s" />
    <circle cx="202" cy="349.87958758748715" r="4" fill="#dfb317" class="data-point" style="animation-delay: 1.65s" />
    <circle cx="249.33333333333334" cy="349.87958758748715" r="4" fill="#dfb317" class="data-point" style="animation-delay: 1.70s" />
    <circle cx="296.66666666666663" cy="349.87958758748715" r="4" fill="#dfb317" class="data-point" style="animation-delay: 1.75s" />
    <circle cx="344" cy="349.87958758748715" r="4" fill="#dfb317" class="data-point" style="animation-delay: 1.80s" />
    <circle cx="391.3333333333333" cy="77.27341143416203" r="4" fill="#dfb317" class="data-point" style="animation-delay: 1.85s" />
    <circle cx="438.6666666666667" cy="349.87958758748715" r="4" fill="#dfb317" class="data-point" style="animation-delay: 1.90s" />
    <circle cx="486" cy="349.87958758748715" r="4" fill="#dfb317" class="data-point" style="animation-delay: 1.95s" />
    <circle cx="533.3333333333333" cy="349.87958758748715" r="4" fill="#dfb317" class="data-point" style="animation-delay: 2.00s" />
    <circle cx="580.6666666666666" cy="349.89463913905126" r="4" fill="#dfb317" class="data-point" style="animation-delay: 2.05s" />
  </g>
</svg>