<svg xmlns="http://www.w3.org/2000/svg" viewBox="0 0 800 400" width="800" height="400">
  <style>
    @keyframes drawLine {
      to { stroke-dashoffset: 0; }
    }
    @keyframes fadeInPoint {
      from { opacity: 0; }
      to { opacity: 1; }
    }
    .data-line-0 {
      stroke-dasharray: 1680;
      stroke-dashoffset: 1680;
      animation: drawLine 2s ease-out forwards;
    }
    .data-point {
      opacity: 0;
      animation: fadeInPoint 0.5s ease-out forwards;
    }
    .chart-bg { fill: #fff; }
    .chart-text { fill: #24292e; }
    .chart-muted { fill: #6a737d; }
    .chart-grid { stroke: #eee; }
    .chart-axis { stroke: #6a737d; }
    @media (prefers-color-scheme: dark) {
      .chart-bg { fill: #0d1117; }
      .chart-text { fill: #e6edf3; }
      .chart-muted { fill: #8b949e; }
      .chart-grid { stroke: #21262d; }
      .chart-axis { stroke: #8b949e; }
    }
  </style>
  <rect width="800" height="400" class="chart-bg" />
  <text x="400" y="14" text-anchor="middle" class="chart-text" font-size="16" font-weight="bold" font-family="-apple-system, BlinkMacSystemFont, 'Segoe UI', Helvetica, Arial, sans-serif">Growth Forecast</text>
  <g class="legend">
    <rect x="220" y="25" width="12" height="3" fill="#dfb317" />
    <line x1="220" y1="26.5" x2="232" y2="26.5" stroke="#dfb317" stroke-width="2" />
    <text x="236" y="30" class="chart-text" font-size="10" font-family="-apple-system, BlinkMacSystemFont, 'Segoe UI', Helvetica, Arial, sans-serif">Star History</text>
    <rect x="340" y="25" width="12" height="3" fill="#28a745" rx="1" />
    <line x1="340" y1="26.5" x2="352" y2="26.5" stroke="#28a745" stroke-width="2" stroke-dasharray="4,2" />
    <text x="356" y="30" class="chart-text" font-size="10" font-family="-apple-system, BlinkMacSystemFont, 'Segoe UI', Helvetica, Arial, sans-serif">Linear Regression</text>
    <rect x="460" y="25" width="12" height="3" fill="#d73a49" rx="1" />
    <line x1="460" y1="26.5" x2="472" y2="26.5" stroke="#d73a49" stroke-width="2" stroke-dasharray="4,2" />
    <text x="476" y="30" class="chart-text" font-size="10" font-family="-apple-system, BlinkMacSystemFont, 'Segoe UI', Helvetica, Arial, sans-serif">Weighted Moving Average</text>
  </g>
  <g class="grid">
    <line x1="60" y1="350" x2="770" y2="350" class="chart-grid" stroke-opacity="0.3" />
    <text x="52" y="354" text-anchor="end" class="chart-muted" font-size="11" font-family="-apple-system, BlinkMacSystemFont, 'Segoe UI', Helvetica, Arial, sans-serif">0</text>
    <line x1="60" y1="274.74224217946465" x2="770" y2="274.74224217946465" class="chart-grid" stroke-opacity="0.3" />
    <text x="52" y="278.74224217946465" text-anchor="end" class="chart-muted" font-size="11" font-family="-apple-system, BlinkMacSystemFont, 'Segoe UI', Helvetica, Arial, sans-serif">10,000</text>
    <line x1="60" y1="199.48448435892934" x2="770" y2="199.48448435892934" class="chart-grid" stroke-opacity="0.3" />
    <text x="52" y="203.48448435892934" text-anchor="end" class="chart-muted" font-size="11" font-family="-apple-system, BlinkMacSystemFont, 'Segoe UI', Helvetica, Arial, sans-serif">20,000</text>
    <line x1="60" y1="124.22672653839402" x2="770" y2="124.22672653839402" class="chart-grid" stroke-opacity="0.3" />
    <text x="52" y="128.22672653839402" text-anchor="end" class="chart-muted" font-size="11" font-family="-apple-system, BlinkMacSystemFont, 'Segoe UI', Helvetica, Arial, sans-serif">30,000</text>
    <line x1="60" y1="48.96896871785867" x2="770" y2="48.96896871785867" class="chart-grid" stroke-opacity="0.3" />
    <text x="52" y="52.96896871785867" text-anchor="end" class="chart-muted" font-size="11" font-family="-apple-system, BlinkMacSystemFont, 'Segoe UI', Helvetica, Arial, sans-serif">40,000</text>
  </g>
  <g class="milestones">
    
  </g>
  <g class="x-axis">
    <text x="60" y="370" text-anchor="middle" class="chart-muted" font-size="11" font-family="-apple-system, BlinkMacSystemFont, 'Segoe UI', Helvetica, Arial, sans-serif">Feb 13</text>
    <text x="151.61290322580646" y="370" text-anchor="middle" class="chart-muted" font-size="11" font-family="-apple-system, BlinkMacSystemFont, 'Segoe UI', Helvetica, Arial, sans-serif">Feb 13</text>
    <text x="243.2258064516129" y="370" text-anchor="middle" class="chart-muted" font-size="11" font-family="-apple-system, BlinkMacSystemFont, 'Segoe UI', Helvetica, Arial, sans-serif">Feb 14</text>
    <text x="334.83870967741933" y="370" text-anchor="middle" class="chart-muted" font-size="11" font-family="-apple-system, BlinkMacSystemFont, 'Segoe UI', Helvetica, Arial, sans-serif">Feb 15</text>
    <text x="426.4516129032258" y="370" text-anchor="middle" class="chart-muted" font-size="11" font-family="-apple-system, BlinkMacSystemFont, 'Segoe UI', Helvetica, Arial, sans-serif">Mar 15</text>
    <text x="518.0645161290322" y="370" text-anchor="middle" class="chart-muted" font-size="11" font-family="-apple-system, BlinkMacSystemFont, 'Segoe UI', Helvetica, Arial, sans-serif">Apr 12</text>
    <text x="609.6774193548387" y="370" text-anchor="middle" class="chart-muted" font-size="11" font-family="-apple-system, BlinkMacSystemFont, 'Segoe UI', Helvetica, Arial, sans-serif">May 10</text>
    <text x="701.2903225806451" y="370" text-anchor="middle" class="chart-muted" font-size="11" font-family="-apple-system, BlinkMacSystemFont, 'Segoe UI', Helvetica, Arial, sans-serif">Week 1</text>
    <text x="770" y="370" text-anchor="middle" class="chart-muted" font-size="11" font-family="-apple-system, BlinkMacSystemFont, 'Segoe UI', Helvetica, Arial, sans-serif">Week 4</text>
  </g>
  <line x1="60" y1="50" x2="60" y2="350" class="chart-axis" stroke-width="1" />
  <line x1="60" y1="350" x2="770" y2="350" class="chart-axis" stroke-width="1" />
  <path d="M60,349.87958758748715 C63.053763440860216,349.87958758748715 76.79569892473118,349.87958758748715 82.90322580645162,349.87958758748715 C89.01075268817205,349.87958758748715 99.6989247311828,349.87958758748715 105.80645161290323,349.87958758748715 C111.91397849462366,349.87958758748715 122.60215053763439,349.87958758748715 128.70967741935482,349.87958758748715 C134.81720430107524,349.87958758748715 145.50537634408605,349.87958758748715 151.61290322580646,349.87958758748715 C157.72043010752688,349.87958758748715 168.40860215053763,349.87958758748715 174.51612903225805,349.87958758748715 C180.62365591397847,349.87958758748715 191.31182795698925,386.2270777412638 197.41935483870967,349.87958758748715 C203.52688172043008,313.5320974337105 214.21505376344086,77.27341143416203 220.32258064516128,77.27341143416203 C226.4301075268817,77.27341143416203 237.11827956989248,313.5320974337105 243.2258064516129,349.87958758748715 C249.33333333333331,386.2270777412638 260.02150537634407,349.87958758748715 266.1290322580645,349.87958758748715 C272.23655913978496,349.87958758748715 282.92473118279565,349.8775807139453 289.0322580645161,349.87958758748715 C295.13978494623655,349.881594461029 305.8279569892473,349.8926322655094 311.93548387096774,349.89463913905126 C318.0430107526882,349.8966460125931 328.7311827956989,349.8956425758222 334.83870967741933,349.89463913905126 C340.9462365591398,349.89363570228033 351.63440860215053,349.8871133632692 357.741935483871,349.8871133632692 C363.8494623655914,349.8871133632692 374.5376344086021,349.89363570228033 380.64516129032256,349.89463913905126 C386.752688172043,349.8956425758222 397.44086021505376,349.89463913905126 403.5483870967742,349.89463913905126 C409.65591397849465,349.89463913905126 420.34408602150535,349.89463913905126 426.4516129032258,349.89463913905126 C432.55913978494624,349.89463913905126 443.24731182795693,349.89463913905126 449.3548387096774,349.89463913905126 C455.4623655913978,349.89463913905126 466.15053763440864,349.89463913905126 472.2580645161291,349.89463913905126 C478.3655913978495,349.89463913905126 489.0537634408603,349.89463913905126 495.16129032258067,349.89463913905126 C501.26881720430106,349.89463913905126 511.95698924731175,349.8956425758222 518.0645161290322,349.89463913905126 C524.1720430107526,349.89363570228033 534.8602150537635,349.8881168000401 540.9677419354839,349.8871133632692 C547.0752688172043,349.88610992649825 557.763440860215,349.8871133632692 563.8709677419355,349.8871133632692 C569.9784946236559,349.8871133632692 580.6666666666666,349.8871133632692 586.7741935483871,349.8871133632692 C592.8817204301075,349.8871133632692 603.5698924731182,349.8871133632692 609.6774193548387,349.8871133632692 C615.7849462365591,349.8871133632692 626.4731182795698,349.8871133632692 632.5806451612902,349.8871133632692 C638.6881720430107,349.8871133632692 649.3763440860215,349.8871133632692 655.483870967742,349.8871133632692 C661.5913978494624,349.8871133632692 675.3333333333334,349.8871133632692 678.3870967741935,349.8871133632692 L678.3870967741935,350 L60,350 Z" fill="#dfb317" fill-opacity="0.1" />
  
  
  <path d="M60,349.87958758748715 C63.053763440860216,349.87958758748715 76.79569892473118,349.87958758748715 82.90322580645162,349.87958758748715 C89.01075268817205,349.87958758748715 99.6989247311828,349.87958758748715 105.80645161290323,349.87958758748715 C111.91397849462366,349.87958758748715 122.60215053763439,349.87958758748715 128.70967741935482,349.87958758748715 C134.81720430107524,349.87958758748715 145.50537634408605,349.87958758748715 151.61290322580646,349.87958758748715 C157.72043010752688,349.87958758748715 168.40860215053763,349.87958758748715 174.51612903225805,349.87958758748715 C180.62365591397847,349.87958758748715 191.31182795698925,386.2270777412638 197.41935483870967,349.87958758748715 C203.52688172043008,313.5320974337105 214.21505376344086,77.27341143416203 220.32258064516128,77.27341143416203 C226.4301075268817,77.27341143416203 237.11827956989248,313.5320974337105 243.2258064516129,349.87958758748715 C249.33333333333331,386.2270777412638 260.02150537634407,349.87958758748715 266.1290322580645,349.87958758748715 C272.23655913978496,349.87958758748715 282.92473118279565,349.8775807139453 289.0322580645161,349.87958758748715 C295.13978494623655,349.881594461029 305.8279569892473,349.8926322655094 311.93548387096774,349.89463913905126 C318.0430107526882,349.8966460125931 328.7311827956989,349.8956425758222 334.83870967741933,349.89463913905126 C340.9462365591398,349.89363570228033 351.63440860215053,349.8871133632692 357.741935483871,349.8871133632692 C363.8494623655914,349.8871133632692 374.5376344086021,349.89363570228033 380.64516129032256,349.89463913905126 C386.752688172043,349.8956425758222 397.44086021505376,349.89463913905126 403.5483870967742,349.89463913905126 C409.65591397849465,349.89463913905126 420.34408602150535,349.89463913905126 426.4516129032258,349.89463913905126 C432.55913978494624,349.89463913905126 443.24731182795693,349.89463913905126 449.3548387096774,349.89463913905126 C455.4623655913978,349.89463913905126 466.15053763440864,349.89463913905126 472.2580645161291,349.89463913905126 C478.3655913978495,349.89463913905126 489.0537634408603,349.89463913905126 495.16129032258067,349.89463913905126 C501.26881720430106,349.89463913905126 511.95698924731175,349.8956425758222 518.0645161290322,349.89463913905126 C524.1720430107526,349.89363570228033 534.8602150537635,349.8881168000401 540.9677419354839,349.8871133632692 C547.0752688172043,349.88610992649825 557.763440860215,349.8871133632692 563.8709677419355,349.8871133632692 C569.9784946236559,349.8871133632692 580.6666666666666,349.8871133632692 586.7741935483871,349.8871133632692 C592.8817204301075,349.8871133632692 603.5698924731182,349.8871133632692 609.6774193548387,349.8871133632692 C615.7849462365591,349.8871133632692 626.4731182795698,349.8871133632692 632.5806451612902,349.8871133632692 C638.6881720430107,349.8871133632692 649.3763440860215,349.8871133632692 655.483870967742,349.8871133632692 C661.5913978494624,349.8871133632692 675.3333333333334,349.8871133632692 678.3870967741935,349.8871133632692" fill="none" stroke="#dfb317" stroke-width="2.5" class="data-line-0" />
  <path d="M678.3870967741935,349.8871133632692 C681.4408602150537,349.9021649148333 695.1827956989247,349.9849484484359 701.2903225806451,350 C707.3978494623656,350.0150515515641 718.0860215053763,350 724.1935483870967,350 C730.3010752688172,350 740.989247311828,350 747.0967741935484,350 C753.2043010752689,350 766.9462365591398,350 770,350" fill="none" stroke="#28a745" stroke-width="2.5" stroke-dasharray="8,4" />
  <path d="M678.3870967741935,349.8871133632692 C681.4408602150537,349.9021649148333 695.1827956989247,349.9849484484359 701.2903225806451,350 C707.3978494623656,350.0150515515641 718.0860215053763,350 724.1935483870967,350 C730.3010752688172,350 740.989247311828,350 747.0967741935484,350 C753.2043010752689,350 766.9462365591398,350 770,350" fill="none" stroke="#d73a49" stroke-width="2.5" stroke-dasharray="8,4" />
  <g class="points">
    
    <circle cx="60" cy="349.87958758748715" r="4" fill="#dfb317" class="data-point" style="animation-delay: 1.50s" />
    <circle cx="82.90322580645162" cy="349.87958758748715" r="4" fill="#dfb317" class="data-point" style="animation-delay: 1.55s" />
    <circle cx="105.80645161290323" cy="349.87958758748715" r="4" fill="#dfb317" class="data-point" style="animation-delay: 1.60s" />
    <circle cx="128.70967741935482" cy="349.87958758748715" r="4" fill="#dfb317" class="data-point" style="animation-delay: 1.65s" />
    <circle cx="151.61290322580646" cy="349.87958758748715" r="4" fill="#dfb317" class="data-point" style="animation-delay: 1.70s" />
    <circle cx="174.51612903225805" cy="349.87958758748715" r="4" fill="#dfb317" class="data-point" style="animation-delay: 1.75s" />
    <circle cx="197.41935483870967" cy="349.87958758748715" r="4" fill="#dfb317" class="data-point" style="animation-delay: 1.80s" />
    <circle cx="220.32258064516128" cy="77.27341143416203" r="4" fill="#dfb317" class="data-point" style="animation-delay: 1.85s" />
    <circle cx="243.2258064516129" cy="349.87958758748715" r="4" fill="#dfb317" class="data-point" style="animation-delay: 1.90s" />
    <circle cx="266.1290322580645" cy="349.87958758748715" r="4" fill="#dfb317" class="data-point" style="animation-delay: 1.95s" />
    <circle cx="289.0322580645161" cy="349.87958758748715" r="4" fill="#dfb317" class="data-point" style="animation-delay: 2.00s" />
    <circle cx="311.93548387096774" cy="349.89463913905126" r="4" fill="#dfb317" class="data-point" style="animation-delay: 2.05s" />
    <circle cx="334.83870967741933" cy="349.89463913905126" r="4" fill="#dfb317" class="data-point" style="animation-delay: 2.10s" />
    <circle cx="357.741935483871" cy="349.8871133632692" r="4" fill="#dfb317" class="data-point" style="animation-delay: 2.15s" />
    <circle cx="380.64516129032256" cy="349.89463913905126" r="4" fill="#dfb317" class="data-point" style="animation-delay: 2.20s" />
    <circle cx="403.5483870967742" cy="349.89463913905126" r="4" fill="#dfb317" class="data-point" style="animation-delay: 2.25s" />
    <circle cx="426.4516129032258" cy="349.89463913905126" r="4" fill="#dfb317" class="data-point" style="animation-delay: 2.30s" />
    <circle cx="449.3548387096774" cy="349.89463913905126" r="4" fill="#dfb317" class="data-point" style="animation-delay: 2.35s" />
    <circle cx="472.2580645161291" cy="349.89463913905126" r="4" fill="#dfb317" class="data-point" style="animation-delay: 2.40s" />
    <circle cx="495.16129032258067" cy="349.89463913905126" r="4" fill="#dfb317" class="data-point" style="animation-delay: 2.45s" />
    <circle cx="518.0645161290322" cy="349.89463913905126" r="4" fill="#dfb317" class="data-point" style="animation-delay: 2.50s" />
    <circle cx="540.9677419354839" cy="349.8871133632692" r="4" fill="#dfb317" class="data-point" style="animation-delay: 2.55s" />
    <circle cx="563.8709677419355" cy="349.8871133632692" r="4" fill="#dfb317" class="data-point" style="animation-delay: 2.60s" />
    <circle cx="586.7741935483871" cy="349.8871133632692" r="4" fill="#dfb317" class="data-point" style="animation-delay: 2.65s" />
    <circle cx="609.6774193548387" cy="349.8871133632692" r="4" fill="#dfb317" class="data-point" style="animation-delay: 2.70s" />
    <circle cx="632.5806451612902" cy="349.8871133632692" r="4" fill="#dfb317" class="data-point" style="animation-delay: 2.75s" />
    <circle cx="655.483870967742" cy="349.8871133632692" r="4" fill="#dfb317" class="data-point" style="animation-delay: 2.80s" />
    <circle cx="678.3870967741935" cy="349.8871133632692" r="4" fill="#dfb317" class="data-point" style="animation-delay: 2.85s" />
  </g>
</svg>