<svg xmlns="http://www.w3.org/2000/svg" viewBox="0 0 800 400" width="800" height="400">
  <style>
    @keyframes drawLine {
      to { stroke-dashoffset: 0; }
    }
    @keyframes fadeInPoint {
      from { opacity: 0; }
      to { opacity: 1; }
    }
    .data-line-0 {
      stroke-dasharray: 1650;
      stroke-dashoffset: 1650;
      animation: drawLine 2s ease-out forwards;
    }
    .data-point {
      opacity: 0;
      animation: fadeInPoint 0.5s ease-out forwards;
    }
    .chart-bg { fill: #fff; }
    .chart-text { fill: #24292e; }
    .chart-muted { fill: #6a737d; }
    .chart-grid { stroke: #eee; }
    .chart-axis { stroke: #6a737d; }
    @media (prefers-color-scheme: dark) {
      .chart-bg { fill: #0d1117; }
      .chart-text { fill: #e6edf3; }
      .chart-muted { fill: #8b949e; }
      .chart-grid { stroke: #21262d; }
      .chart-axis { stroke: #8b949e; }
    }
  </style>
  <rect width="800" height="400" class="chart-bg" />
  <text x="400" y="14" text-anchor="middle" class="chart-text" font-size="16" font-weight="bold" font-family="-apple-system, BlinkMacSystemFont, 'Segoe UI', Helvetica, Arial, sans-serif">Growth Forecast</text>
  <g class="legend">
    <rect x="220" y="25" width="12" height="3" fill="#dfb317" />
    <line x1="220" y1="26.5" x2="232" y2="26.5" stroke="#dfb317" stroke-width="2" />
    <text x="236" y="30" class="chart-text" font-size="10" font-family="-apple-system, BlinkMacSystemFont, 'Segoe UI', Helvetica, Arial, sans-serif">Star History</text>
    <rect x="340" y="25" width="12" height="3" fill="#28a745" rx="1" />
    <line x1="340" y1="26.5" x2="352" y2="26.5" stroke="#28a745" stroke-width="2" stroke-dasharray="4,2" />
    <text x="356" y="30" class="chart-text" font-size="10" font-family="-apple-system, BlinkMacSystemFont, 'Segoe UI', Helvetica, Arial, sans-serif">Linear Regression</text>
    <rect x="460" y="25" width="12" height="3" fill="#d73a49" rx="1" />
    <line x1="460" y1="26.5" x2="472" y2="26.5" stroke="#d73a49" stroke-width="2" stroke-dasharray="4,2" />
    <text x="476" y="30" class="chart-text" font-size="10" font-family="-apple-system, BlinkMacSystemFont, 'Segoe UI', Helvetica, Arial, sans-serif">Weighted Moving Average</text>
  </g>
  <g class="grid">
    <line x1="60" y1="350" x2="770" y2="350" class="chart-grid" stroke-opacity="0.3" />
    <text x="52" y="354" text-anchor="end" class="chart-muted" font-size="11" font-family="-apple-system, BlinkMacSystemFont, 'Segoe UI', Helvetica, Arial, sans-serif">0</text>
    <line x1="60" y1="274.74224217946465" x2="770" y2="274.74224217946465" class="chart-grid" stroke-opacity="0.3" />
    <text x="52" y="278.74224217946465" text-anchor="end" class="chart-muted" font-size="11" font-family="-apple-system, BlinkMacSystemFont, 'Segoe UI', Helvetica, Arial, sans-serif">10,000</text>
    <line x1="60" y1="199.48448435892934" x2="770" y2="199.48448435892934" class="chart-grid" stroke-opacity="0.3" />
    <text x="52" y="203.48448435892934" text-anchor="end" class="chart-muted" font-size="11" font-family="-apple-system, BlinkMacSystemFont, 'Segoe UI', Helvetica, Arial, sans-serif">20,000</text>
    <line x1="60" y1="124.22672653839402" x2="770" y2="124.22672653839402" class="chart-grid" stroke-opacity="0.3" />
    <text x="52" y="128.22672653839402" text-anchor="end" class="chart-muted" font-size="11" font-family="-apple-system, BlinkMacSystemFont, 'Segoe UI', Helvetica, Arial, sans-serif">30,000</text>
    <line x1="60" y1="48.96896871785867" x2="770" y2="48.96896871785867" class="chart-grid" stroke-opacity="0.3" />
    <text x="52" y="52.96896871785867" text-anchor="end" class="chart-muted" font-size="11" font-family="-apple-system, BlinkMacSystemFont, 'Segoe UI', Helvetica, Arial, sans-serif">40,000</text>
  </g>
  <g class="milestones">
    
  </g>
  <g class="x-axis">
    <text x="60" y="370" text-anchor="middle" class="chart-muted" font-size="11" font-family="-apple-system, BlinkMacSystemFont, 'Segoe UI', Helvetica, Arial, sans-serif">Feb 13</text>
    <text x="138.88888888888889" y="370" text-anchor="middle" class="chart-muted" font-size="11" font-family="-apple-system, BlinkMacSystemFont, 'Segoe UI', Helvetica, Arial, sans-serif">Feb 13</text>
    <text x="217.77777777777777" y="370" text-anchor="middle" class="chart-muted" font-size="11" font-family="-apple-system, BlinkMacSystemFont, 'Segoe UI', Helvetica, Arial, sans-serif">Feb 13</text>
    <text x="296.66666666666663" y="370" text-anchor="middle" class="chart-muted" font-size="11" font-family="-apple-system, BlinkMacSystemFont, 'Segoe UI', Helvetica, Arial, sans-serif">Feb 14</text>
    <text x="375.55555555555554" y="370" text-anchor="middle" class="chart-muted" font-size="11" font-family="-apple-system, BlinkMacSystemFont, 'Segoe UI', Helvetica, Arial, sans-serif">Feb 15</text>
    <text x="454.44444444444446" y="370" text-anchor="middle" class="chart-muted" font-size="11" font-family="-apple-system, BlinkMacSystemFont, 'Segoe UI', Helvetica, Arial, sans-serif">Mar 8</text>
    <text x="533.3333333333333" y="370" text-anchor="middle" class="chart-muted" font-size="11" font-family="-apple-system, BlinkMacSystemFont, 'Segoe UI', Helvetica, Arial, sans-serif">Mar 29</text>
    <text x="612.2222222222223" y="370" text-anchor="middle" class="chart-muted" font-size="11" font-family="-apple-system, BlinkMacSystemFont, 'Segoe UI', Helvetica, Arial, sans-serif">Apr 19</text>
    <text x="691.1111111111111" y="370" text-anchor="middle" class="chart-muted" font-size="11" font-family="-apple-system, BlinkMacSystemFont, 'Segoe UI', Helvetica, Arial, sans-serif">Week 1</text>
    <text x="770" y="370" text-anchor="middle" class="chart-muted" font-size="11" font-family="-apple-system, BlinkMacSystemFont, 'Segoe UI', Helvetica, Arial, sans-serif">Week 4</text>
  </g>
  <line x1="60" y1="50" x2="60" y2="350" class="chart-axis" stroke-width="1" />
  <line x1="60" y1="350" x2="770" y2="350" class="chart-axis" stroke-width="1" />
  <path d="M60,349.87958758748715 C63.50617283950617,349.87958758748715 79.28395061728395,349.87958758748715 86.29629629629629,349.87958758748715 C93.30864197530863,349.87958758748715 105.58024691358024,349.87958758748715 112.59259259259258,349.87958758748715 C119.60493827160492,349.87958758748715 131.87654320987653,349.87958758748715 138.88888888888889,349.87958758748715 C145.90123456790124,349.87958758748715 158.1728395061728,349.87958758748715 165.18518518518516,349.87958758748715 C172.19753086419752,349.87958758748715 184.4691358024691,349.87958758748715 191.48148148148147,349.87958758748715 C198.49382716049382,349.87958758748715 210.76543209876542,386.2270777412638 217.77777777777777,349.87958758748715 C224.79012345679013,313.5320974337105 237.06172839506172,77.27341143416203 244.07407407407408,77.27341143416203 C251.08641975308643,77.27341143416203 263.35802469135797,313.5320974337105 270.3703703703703,349.87958758748715 C277.3827160493827,386.2270777412638 289.6543209876543,349.87958758748715 296.66666666666663,349.87958758748715 C303.679012345679,349.87958758748715 315.9506172839506,349.8775807139453 322.96296296296293,349.87958758748715 C329.9753086419753,349.881594461029 342.2469135802469,349.8926322655094 349.25925925925924,349.89463913905126 C356.2716049382716,349.8966460125931 368.5432098765432,349.8956425758222 375.55555555555554,349.89463913905126 C382.5679012345679,349.89363570228033 394.8395061728395,349.8871133632692 401.85185185185185,349.8871133632692 C408.8641975308642,349.8871133632692 421.1358024691358,349.89363570228033 428.14814814814815,349.89463913905126 C435.1604938271605,349.8956425758222 447.4320987654321,349.89463913905126 454.44444444444446,349.89463913905126 C461.4567901234568,349.89463913905126 473.72839506172835,349.89463913905126 480.7407407407407,349.89463913905126 C487.75308641975306,349.89463913905126 500.0246913580247,349.89463913905126 507.03703703703707,349.89463913905126 C514.0493827160494,349.89463913905126 526.3209876543209,349.89463913905126 533.3333333333333,349.89463913905126 C540.3456790123456,349.89463913905126 552.6172839506172,349.89463913905126 559.6296296296296,349.89463913905126 C566.6419753086419,349.89463913905126 578.9135802469135,349.8956425758222 585.9259259259259,349.89463913905126 C592.9382716049382,349.89363570228033 605.2098765432099,349.8881168000401 612.2222222222223,349.8871133632692 C619.2345679012346,349.88610992649825 631.5061728395061,349.8871133632692 638.5185185185185,349.8871133632692 C645.5308641975308,349.8871133632692 661.3086419753087,349.8871133632692 664.8148148148148,349.8871133632692 L664.8148148148148,350 L60,350 Z" fill="#dfb317" fill-opacity="0.1" />
  
  
  <path d="M60,349.87958758748715 C63.50617283950617,349.87958758748715 79.28395061728395,349.87958758748715 86.29629629629629,349.87958758748715 C93.30864197530863,349.87958758748715 105.58024691358024,349.87958758748715 112.59259259259258,349.87958758748715 C119.60493827160492,349.87958758748715 131.87654320987653,349.87958758748715 138.88888888888889,349.87958758748715 C145.90123456790124,349.87958758748715 158.1728395061728,349.87958758748715 165.18518518518516,349.87958758748715 C172.19753086419752,349.87958758748715 184.4691358024691,349.87958758748715 191.48148148148147,349.87958758748715 C198.49382716049382,349.87958758748715 210.76543209876542,386.2270777412638 217.77777777777777,349.87958758748715 C224.79012345679013,313.5320974337105 237.06172839506172,77.27341143416203 244.07407407407408,77.27341143416203 C251.08641975308643,77.27341143416203 263.35802469135797,313.5320974337105 270.3703703703703,349.87958758748715 C277.3827160493827,386.2270777412638 289.6543209876543,349.87958758748715 296.66666666666663,349.87958758748715 C303.679012345679,349.87958758748715 315.9506172839506,349.8775807139453 322.96296296296293,349.87958758748715 C329.9753086419753,349.881594461029 342.2469135802469,349.8926322655094 349.25925925925924,349.89463913905126 C356.2716049382716,349.8966460125931 368.5432098765432,349.8956425758222 375.55555555555554,349.89463913905126 C382.5679012345679,349.89363570228033 394.8395061728395,349.8871133632692 401.85185185185185,349.8871133632692 C408.8641975308642,349.8871133632692 421.1358024691358,349.89363570228033 428.14814814814815,349.89463913905126 C435.1604938271605,349.8956425758222 447.4320987654321,349.89463913905126 454.44444444444446,349.89463913905126 C461.4567901234568,349.89463913905126 473.72839506172835,349.89463913905126 480.7407407407407,349.89463913905126 C487.75308641975306,349.89463913905126 500.0246913580247,349.89463913905126 507.03703703703707,349.89463913905126 C514.0493827160494,349.89463913905126 526.3209876543209,349.89463913905126 533.3333333333333,349.89463913905126 C540.3456790123456,349.89463913905126 552.6172839506172,349.89463913905126 559.6296296296296,349.89463913905126 C566.6419753086419,349.89463913905126 578.9135802469135,349.8956425758222 585.9259259259259,349.89463913905126 C592.9382716049382,349.89363570228033 605.2098765432099,349.8881168000401 612.2222222222223,349.8871133632692 C619.2345679012346,349.88610992649825 631.5061728395061,349.8871133632692 638.5185185185185,349.8871133632692 C645.5308641975308,349.8871133632692 661.3086419753087,349.8871133632692 664.8148148148148,349.8871133632692" fill="none" stroke="#dfb317" stroke-width="2.5" class="data-line-0" />
  <path d="M664.8148148148148,349.8871133632692 C668.3209876543209,349.9021649148333 684.0987654320987,349.9849484484359 691.1111111111111,350 C698.1234567901234,350.0150515515641 710.395061728395,350 717.4074074074074,350 C724.4197530864197,350 736.6913580246913,350 743.7037037037037,350 C750.716049382716,350 766.4938271604939,350 770,350" fill="none" stroke="#28a745" stroke-width="2.5" stroke-dasharray="8,4" />
  <path d="M664.8148148148148,349.8871133632692 C668.3209876543209,349.9021649148333 684.0987654320987,349.9849484484359 691.1111111111111,350 C698.1234567901234,350.0150515515641 710.395061728395,350 717.4074074074074,350 C724.4197530864197,350 736.6913580246913,350 743.7037037037037,350 C750.716049382716,350 766.4938271604939,350 770,350" fill="none" stroke="#d73a49" stroke-width="2.5" stroke-dasharray="8,4" />
  <g class="points">
    
    <circle cx="60" cy="349.87958758748715" r="4" fill="#dfb317" class="data-point" style="animation-delay: 1.50s" />
    <circle cx="86.29629629629629" cy="349.87958758748715" r="4" fill="#dfb317" class="data-point" style="animation-delay: 1.55s" />
    <circle cx="112.59259259259258" cy="349.87958758748715" r="4" fill="#dfb317" class="data-point" style="animation-delay: 1.60s" />
    <circle cx="138.88888888888889" cy="349.87958758748715" r="4" fill="#dfb317" class="data-point" style="animation-delay: 1.65s" />
    <circle cx="165.18518518518516" cy="349.87958758748715" r="4" fill="#dfb317" class="data-point" style="animation-delay: 1.70s" />
    <circle cx="191.48148148148147" cy="349.87958758748715" r="4" fill="#dfb317" class="data-point" style="animation-delay: 1.75s" />
    <circle cx="217.77777777777777" cy="349.87958758748715" r="4" fill="#dfb317" class="data-point" style="animation-delay: 1.80s" />
    <circle cx="244.07407407407408" cy="77.27341143416203" r="4" fill="#dfb317" class="data-point" style="animation-delay: 1.85s" />
    <circle cx="270.3703703703703" cy="349.87958758748715" r="4" fill="#dfb317" class="data-point" style="animation-delay: 1.90s" />
    <circle cx="296.66666666666663" cy="349.87958758748715" r="4" fill="#dfb317" class="data-point" style="animation-delay: 1.95s" />
    <circle cx="322.96296296296293" cy="349.87958758748715" r="4" fill="#dfb317" class="data-point" style="animation-delay: 2.00s" />
    <circle cx="349.25925925925924" cy="349.89463913905126" r="4" fill="#dfb317" class="data-point" style="animation-delay: 2.05s" />
    <circle cx="375.55555555555554" cy="349.89463913905126" r="4" fill="#dfb317" class="data-point" style="animation-delay: 2.10s" />
    <circle cx="401.85185185185185" cy="349.8871133632692" r="4" fill="#dfb317" class="data-point" style="animation-delay: 2.15s" />
    <circle cx="428.14814814814815" cy="349.89463913905126" r="4" fill="#dfb317" class="data-point" style="animation-delay: 2.20s" />
    <circle cx="454.44444444444446" cy="349.89463913905126" r="4" fill="#dfb317" class="data-point" style="animation-delay: 2.25s" />
    <circle cx="480.7407407407407" cy="349.89463913905126" r="4" fill="#dfb317" class="data-point" style="animation-delay: 2.30s" />
    <circle cx="507.03703703703707" cy="349.89463913905126" r="4" fill="#dfb317" class="data-point" style="animation-delay: 2.35s" />
    <circle cx="533.3333333333333" cy="349.89463913905126" r="4" fill="#dfb317" class="data-point" style="animation-delay: 2.40s" />
    <circle cx="559.6296296296296" cy="349.89463913905126" r="4" fill="#dfb317" class="data-point" style="animation-delay: 2.45s" />
    <circle cx="585.9259259259259" cy="349.89463913905126" r="4" fill="#dfb317" class="data-point" style="animation-delay: 2.50s" />
    <circle cx="612.2222222222223" cy="349.8871133632692" r="4" fill="#dfb317" class="data-point" style="animation-delay: 2.55s" />
    <circle cx="638.5185185185185" cy="349.8871133632692" r="4" fill="#dfb317" class="data-point" style="animation-delay: 2.60s" />
    <circle cx="664.8148148148148" cy="349.8871133632692" r="4" fill="#dfb317" class="data-point" style="animation-delay: 2.65s" />
  </g>
</svg>