<svg xmlns="http://www.w3.org/2000/svg" viewBox="0 0 800 400" width="800" height="400">
  <style>
    @keyframes drawLine {
      to { stroke-dashoffset: 0; }
    }
    @keyframes fadeInPoint {
      from { opacity: 0; }
      to { opacity: 1; }
    }
    .data-line-0 {
      stroke-dasharray: 1632;
      stroke-dashoffset: 1632;
      animation: drawLine 2s ease-out forwards;
    }
    .data-point {
      opacity: 0;
      animation: fadeInPoint 0.5s ease-out forwards;
    }
    .chart-bg { fill: #fff; }
    .chart-text { fill: #24292e; }
    .chart-muted { fill: #6a737d; }
    .chart-grid { stroke: #eee; }
    .chart-axis { stroke: #6a737d; }
    @media (prefers-color-scheme: dark) {
      .chart-bg { fill: #0d1117; }
      .chart-text { fill: #e6edf3; }
      .chart-muted { fill: #8b949e; }
      .chart-grid { stroke: #21262d; }
      .chart-axis { stroke: #8b949e; }
    }
  </style>
  <rect width="800" height="400" class="chart-bg" />
  <text x="400" y="14" text-anchor="middle" class="chart-text" font-size="16" font-weight="bold" font-family="-apple-system, BlinkMacSystemFont, 'Segoe UI', Helvetica, Arial, sans-serif">Growth Forecast</text>
  <g class="legend">
    <rect x="220" y="25" width="12" height="3" fill="#dfb317" />
    <line x1="220" y1="26.5" x2="232" y2="26.5" stroke="#dfb317" stroke-width="2" />
    <text x="236" y="30" class="chart-text" font-size="10" font-family="-apple-system, BlinkMacSystemFont, 'Segoe UI', Helvetica, Arial, sans-serif">Star History</text>
    <rect x="340" y="25" width="12" height="3" fill="#28a745" rx="1" />
    <line x1="340" y1="26.5" x2="352" y2="26.5" stroke="#28a745" stroke-width="2" stroke-dasharray="4,2" />
    <text x="356" y="30" class="chart-text" font-size="10" font-family="-apple-system, BlinkMacSystemFont, 'Segoe UI', Helvetica, Arial, sans-serif">Linear Regression</text>
    <rect x="460" y="25" width="12" height="3" fill="#d73a49" rx="1" />
    <line x1="460" y1="26.5" x2="472" y2="26.5" stroke="#d73a49" stroke-width="2" stroke-dasharray="4,2" />
    <text x="476" y="30" class="chart-text" font-size="10" font-family="-apple-system, BlinkMacSystemFont, 'Segoe UI', Helvetica, Arial, sans-serif">Weighted Moving Average</text>
  </g>
  <g class="grid">
    <line x1="60" y1="350" x2="770" y2="350" class="chart-grid" stroke-opacity="0.3" />
    <text x="52" y="354" text-anchor="end" class="chart-muted" font-size="11" font-family="-apple-system, BlinkMacSystemFont, 'Segoe UI', Helvetica, Arial, sans-serif">0</text>
    <line x1="60" y1="274.74224217946465" x2="770" y2="274.74224217946465" class="chart-grid" stroke-opacity="0.3" />
    <text x="52" y="278.74224217946465" text-anchor="end" class="chart-muted" font-size="11" font-family="-apple-system, BlinkMacSystemFont, 'Segoe UI', Helvetica, Arial, sans-serif">10,000</text>
    <line x1="60" y1="199.48448435892934" x2="770" y2="199.48448435892934" class="chart-grid" stroke-opacity="0.3" />
    <text x="52" y="203.48448435892934" text-anchor="end" class="chart-muted" font-size="11" font-family="-apple-system, BlinkMacSystemFont, 'Segoe UI', Helvetica, Arial, sans-serif">20,000</text>
    <line x1="60" y1="124.22672653839402" x2="770" y2="124.22672653839402" class="chart-grid" stroke-opacity="0.3" />
    <text x="52" y="128.22672653839402" text-anchor="end" class="chart-muted" font-size="11" font-family="-apple-system, BlinkMacSystemFont, 'Segoe UI', Helvetica, Arial, sans-serif">30,000</text>
    <line x1="60" y1="48.96896871785867" x2="770" y2="48.96896871785867" class="chart-grid" stroke-opacity="0.3" />
    <text x="52" y="52.96896871785867" text-anchor="end" class="chart-muted" font-size="11" font-family="-apple-system, BlinkMacSystemFont, 'Segoe UI', Helvetica, Arial, sans-serif">40,000</text>
  </g>
  <g class="milestones">
    
  </g>
  <g class="x-axis">
    <text x="60" y="370" text-anchor="middle" class="chart-muted" font-size="11" font-family="-apple-system, BlinkMacSystemFont, 'Segoe UI', Helvetica, Arial, sans-serif">Feb 13</text>
    <text x="145.2" y="370" text-anchor="middle" class="chart-muted" font-size="11" font-family="-apple-system, BlinkMacSystemFont, 'Segoe UI', Helvetica, Arial, sans-serif">Feb 13</text>
    <text x="230.4" y="370" text-anchor="middle" class="chart-muted" font-size="11" font-family="-apple-system, BlinkMacSystemFont, 'Segoe UI', Helvetica, Arial, sans-serif">Feb 13</text>
    <text x="315.6" y="370" text-anchor="middle" class="chart-muted" font-size="11" font-family="-apple-system, BlinkMacSystemFont, 'Segoe UI', Helvetica, Arial, sans-serif">Feb 14</text>
    <text x="400.8" y="370" text-anchor="middle" class="chart-muted" font-size="11" font-family="-apple-system, BlinkMacSystemFont, 'Segoe UI', Helvetica, Arial, sans-serif">Feb 15</text>
    <text x="486" y="370" text-anchor="middle" class="chart-muted" font-size="11" font-family="-apple-system, BlinkMacSystemFont, 'Segoe UI', Helvetica, Arial, sans-serif">Mar 8</text>
    <text x="571.2" y="370" text-anchor="middle" class="chart-muted" font-size="11" font-family="-apple-system, BlinkMacSystemFont, 'Segoe UI', Helvetica, Arial, sans-serif">Mar 29</text>
    <text x="656.4" y="370" text-anchor="middle" class="chart-muted" font-size="11" font-family="-apple-system, BlinkMacSystemFont, 'Segoe UI', Helvetica, Arial, sans-serif">Apr 19</text>
    <text x="741.6" y="370" text-anchor="middle" class="chart-muted" font-size="11" font-family="-apple-system, BlinkMacSystemFont, 'Segoe UI', Helvetica, Arial, sans-serif">Week 3</text>
    <text x="770" y="370" text-anchor="middle" class="chart-muted" font-size="11" font-family="-apple-system, BlinkMacSystemFont, 'Segoe UI', Helvetica, Arial, sans-serif">Week 4</text>
  </g>
  <line x1="60" y1="50" x2="60" y2="350" class="chart-axis" stroke-width="1" />
  <line x1="60" y1="350" x2="770" y2="350" class="chart-axis" stroke-width="1" />
  <path d="M60,349.87958758748715 C63.78666666666667,349.87958758748715 80.82666666666667,349.87958758748715 88.4,349.87958758748715 C95.97333333333334,349.87958758748715 109.22666666666667,349.87958758748715 116.80000000000001,349.87958758748715 C124.37333333333335,349.87958758748715 137.62666666666667,349.87958758748715 145.2,349.87958758748715 C152.7733333333333,349.87958758748715 166.0266666666667,349.87958758748715 173.60000000000002,349.87958758748715 C181.17333333333335,349.87958758748715 194.42666666666668,349.87958758748715 202,349.87958758748715 C209.57333333333332,349.87958758748715 222.82666666666668,386.2270777412638 230.4,349.87958758748715 C237.97333333333333,313.5320974337105 251.22666666666666,77.27341143416203 258.8,77.27341143416203 C266.37333333333333,77.27341143416203 279.6266666666667,313.5320974337105 287.20000000000005,349.87958758748715 C294.77333333333337,386.2270777412638 308.0266666666667,349.87958758748715 315.6,349.87958758748715 C323.17333333333335,349.87958758748715 336.4266666666667,349.8775807139453 344,349.87958758748715 C351.5733333333333,349.881594461029 364.82666666666665,349.8926322655094 372.4,349.89463913905126 C379.9733333333333,349.8966460125931 393.2266666666667,349.8956425758222 400.8,349.89463913905126 C408.37333333333333,349.89363570228033 421.62666666666667,349.8871133632692 429.2,349.8871133632692 C436.7733333333333,349.8871133632692 450.0266666666667,349.89363570228033 457.6,349.89463913905126 C465.17333333333335,349.8956425758222 478.4266666666667,349.89463913905126 486,349.89463913905126 C493.5733333333333,349.89463913905126 506.82666666666677,349.89463913905126 514.4000000000001,349.89463913905126 C521.9733333333335,349.89463913905126 535.2266666666666,349.89463913905126 542.8,349.89463913905126 C550.3733333333333,349.89463913905126 563.6266666666667,349.89463913905126 571.2,349.89463913905126 C578.7733333333334,349.89463913905126 592.0266666666666,349.89463913905126 599.6,349.89463913905126 C607.1733333333334,349.89463913905126 620.4266666666666,349.8956425758222 628,349.89463913905126 C635.5733333333334,349.89363570228033 652.6133333333333,349.8881168000401 656.4,349.8871133632692 L656.4,350 L60,350 Z" fill="#dfb317" fill-opacity="0.1" />
  
  
  <path d="M60,349.87958758748715 C63.78666666666667,349.87958758748715 80.82666666666667,349.87958758748715 88.4,349.87958758748715 C95.97333333333334,349.87958758748715 109.22666666666667,349.87958758748715 116.80000000000001,349.87958758748715 C124.37333333333335,349.87958758748715 137.62666666666667,349.87958758748715 145.2,349.87958758748715 C152.7733333333333,349.87958758748715 166.0266666666667,349.87958758748715 173.60000000000002,349.87958758748715 C181.17333333333335,349.87958758748715 194.42666666666668,349.87958758748715 202,349.87958758748715 C209.57333333333332,349.87958758748715 222.82666666666668,386.2270777412638 230.4,349.87958758748715 C237.97333333333333,313.5320974337105 251.22666666666666,77.27341143416203 258.8,77.27341143416203 C266.37333333333333,77.27341143416203 279.6266666666667,313.5320974337105 287.20000000000005,349.87958758748715 C294.77333333333337,386.2270777412638 308.0266666666667,349.87958758748715 315.6,349.87958758748715 C323.17333333333335,349.87958758748715 336.4266666666667,349.8775807139453 344,349.87958758748715 C351.5733333333333,349.881594461029 364.82666666666665,349.8926322655094 372.4,349.89463913905126 C379.9733333333333,349.8966460125931 393.2266666666667,349.8956425758222 400.8,349.89463913905126 C408.37333333333333,349.89363570228033 421.62666666666667,349.8871133632692 429.2,349.8871133632692 C436.7733333333333,349.8871133632692 450.0266666666667,349.89363570228033 457.6,349.89463913905126 C465.17333333333335,349.8956425758222 478.4266666666667,349.89463913905126 486,349.89463913905126 C493.5733333333333,349.89463913905126 506.82666666666677,349.89463913905126 514.4000000000001,349.89463913905126 C521.9733333333335,349.89463913905126 535.2266666666666,349.89463913905126 542.8,349.89463913905126 C550.3733333333333,349.89463913905126 563.6266666666667,349.89463913905126 571.2,349.89463913905126 C578.7733333333334,349.89463913905126 592.0266666666666,349.89463913905126 599.6,349.89463913905126 C607.1733333333334,349.89463913905126 620.4266666666666,349.8956425758222 628,349.89463913905126 C635.5733333333334,349.89363570228033 652.6133333333333,349.8881168000401 656.4,349.8871133632692" fill="none" stroke="#dfb317" stroke-width="2.5" class="data-line-0" />
  <path d="M656.4,349.8871133632692 C660.1866666666666,349.8881168000401 677.2266666666666,349.87958758748715 684.8,349.89463913905126 C692.3733333333333,349.9096906906154 705.6266666666667,349.9859518852068 713.2,350 C720.7733333333334,350.0140481147932 734.0266666666666,350 741.6,350 C749.1733333333334,350 766.2133333333334,350 770,350" fill="none" stroke="#28a745" stroke-width="2.5" stroke-dasharray="8,4" />
  <path d="M656.4,349.8871133632692 C660.1866666666666,349.9021649148333 677.2266666666666,349.9849484484359 684.8,350 C692.3733333333333,350.0150515515641 705.6266666666667,350 713.2,350 C720.7733333333334,350 734.0266666666666,350 741.6,350 C749.1733333333334,350 766.2133333333334,350 770,350" fill="none" stroke="#d73a49" stroke-width="2.5" stroke-dasharray="8,4" />
  <g class="points">
    
    <circle cx="60" cy="349.87958758748715" r="4" fill="#dfb317" class="data-point" style="animation-delay: 1.50s" />
    <circle cx="88.4" cy="349.87958758748715" r="4" fill="#dfb317" class="data-point" style="animation-delay: 1.55s" />
    <circle cx="116.80000000000001" cy="349.87958758748715" r="4" fill="#dfb317" class="data-point" style="animation-delay: 1.60s" />
    <circle cx="145.2" cy="349.87958758748715" r="4" fill="#dfb317" class="data-point" style="animation-delay: 1.65s" />
    <circle cx="173.60000000000002" cy="349.87958758748715" r="4" fill="#dfb317" class="data-point" style="animation-delay: 1.70s" />
    <circle cx="202" cy="349.87958758748715" r="4" fill="#dfb317" class="data-point" style="animation-delay: 1.75s" />
    <circle cx="230.4" cy="349.87958758748715" r="4" fill="#dfb317" class="data-point" style="animation-delay: 1.80s" />
    <circle cx="258.8" cy="77.27341143416203" r="4" fill="#dfb317" class="data-point" style="animation-delay: 1.85s" />
    <circle cx="287.20000000000005" cy="349.87958758748715" r="4" fill="#dfb317" class="data-point" style="animation-delay: 1.90s" />
    <circle cx="315.6" cy="349.87958758748715" r="4" fill="#dfb317" class="data-point" style="animation-delay: 1.95s" />
    <circle cx="344" cy="349.87958758748715" r="4" fill="#dfb317" class="data-point" style="animation-delay: 2.00s" />
    <circle cx="372.4" cy="349.89463913905126" r="4" fill="#dfb317" class="data-point" style="animation-delay: 2.05s" />
    <circle cx="400.8" cy="349.89463913905126" r="4" fill="#dfb317" class="data-point" style="animation-delay: 2.10s" />
    <circle cx="429.2" cy="349.8871133632692" r="4" fill="#dfb317" class="data-point" style="animation-delay: 2.15s" />
    <circle cx="457.6" cy="349.89463913905126" r="4" fill="#dfb317" class="data-point" style="animation-delay: 2.20s" />
    <circle cx="486" cy="349.89463913905126" r="4" fill="#dfb317" class="data-point" style="animation-delay: 2.25s" />
    <circle cx="514.4000000000001" cy="349.89463913905126" r="4" fill="#dfb317" class="data-point" style="animation-delay: 2.30s" />
    <circle cx="542.8" cy="349.89463913905126" r="4" fill="#dfb317" class="data-point" style="animation-delay: 2.35s" />
    <circle cx="571.2" cy="349.89463913905126" r="4" fill="#dfb317" class="data-point" style="animation-delay: 2.40s" />
    <circle cx="599.6" cy="349.89463913905126" r="4" fill="#dfb317" class="data-point" style="animation-delay: 2.45s" />
    <circle cx="628" cy="349.89463913905126" r="4" fill="#dfb317" class="data-point" style="animation-delay: 2.50s" />
    <circle cx="656.4" cy="349.8871133632692" r="4" fill="#dfb317" class="data-point" style="animation-delay: 2.55s" />
  </g>
</svg>