<svg xmlns="http://www.w3.org/2000/svg" viewBox="0 0 800 400" width="800" height="400">
  <style>
    @keyframes drawLine {
      to { stroke-dashoffset: 0; }
    }
    @keyframes fadeInPoint {
      from { opacity: 0; }
      to { opacity: 1; }
    }
    .data-line-0 {
      stroke-dasharray: 1441;
      stroke-dashoffset: 1441;
      animation: drawLine 2s ease-out forwards;
    }
    .data-point {
      opacity: 0;
      animation: fadeInPoint 0.5s ease-out forwards;
    }
  </style>
  <rect width="800" height="400" fill="#fff" />
  <text x="400" y="14" text-anchor="middle" fill="#24292e" font-size="16" font-weight="bold" font-family="-apple-system, BlinkMacSystemFont, 'Segoe UI', Helvetica, Arial, sans-serif">Growth Forecast</text>
  <g class="legend">
    <rect x="220" y="25" width="12" height="3" fill="#dfb317" />
    <line x1="220" y1="26.5" x2="232" y2="26.5" stroke="#dfb317" stroke-width="2" />
    <text x="236" y="30" fill="#24292e" font-size="10" font-family="-apple-system, BlinkMacSystemFont, 'Segoe UI', Helvetica, Arial, sans-serif">Star History</text>
    <rect x="340" y="25" width="12" height="3" fill="#28a745" rx="1"="4,2" />
    <line x1="340" y1="26.5" x2="352" y2="26.5" stroke="#28a745" stroke-width="2" stroke-dasharray="4,2" />
    <text x="356" y="30" fill="#24292e" font-size="10" font-family="-apple-system, BlinkMacSystemFont, 'Segoe UI', Helvetica, Arial, sans-serif">Linear Regression</text>
    <rect x="460" y="25" width="12" height="3" fill="#d73a49" rx="1"="4,2" />
    <line x1="460" y1="26.5" x2="472" y2="26.5" stroke="#d73a49" stroke-width="2" stroke-dasharray="4,2" />
    <text x="476" y="30" fill="#24292e" font-size="10" font-family="-apple-system, BlinkMacSystemFont, 'Segoe UI', Helvetica, Arial, sans-serif">Weighted Moving Average</text>
  </g>
  <g class="grid">
    <line x1="60" y1="350" x2="770" y2="350" stroke="#eee" stroke-opacity="0.3" />
    <text x="52" y="354" text-anchor="end" fill="#6a737d" font-size="11" font-family="-apple-system, BlinkMacSystemFont, 'Segoe UI', Helvetica, Arial, sans-serif">0</text>
    <line x1="60" y1="274.74224217946465" x2="770" y2="274.74224217946465" stroke="#eee" stroke-opacity="0.3" />
    <text x="52" y="278.74224217946465" text-anchor="end" fill="#6a737d" font-size="11" font-family="-apple-system, BlinkMacSystemFont, 'Segoe UI', Helvetica, Arial, sans-serif">10,000</text>
    <line x1="60" y1="199.48448435892934" x2="770" y2="199.48448435892934" stroke="#eee" stroke-opacity="0.3" />
    <text x="52" y="203.48448435892934" text-anchor="end" fill="#6a737d" font-size="11" font-family="-apple-system, BlinkMacSystemFont, 'Segoe UI', Helvetica, Arial, sans-serif">20,000</text>
    <line x1="60" y1="124.22672653839402" x2="770" y2="124.22672653839402" stroke="#eee" stroke-opacity="0.3" />
    <text x="52" y="128.22672653839402" text-anchor="end" fill="#6a737d" font-size="11" font-family="-apple-system, BlinkMacSystemFont, 'Segoe UI', Helvetica, Arial, sans-serif">30,000</text>
    <line x1="60" y1="48.96896871785867" x2="770" y2="48.96896871785867" stroke="#eee" stroke-opacity="0.3" />
    <text x="52" y="52.96896871785867" text-anchor="end" fill="#6a737d" font-size="11" font-family="-apple-system, BlinkMacSystemFont, 'Segoe UI', Helvetica, Arial, sans-serif">40,000</text>
  </g>
  <g class="milestones">
    
  </g>
  <g class="x-axis">
    <text x="60" y="370" text-anchor="middle" fill="#6a737d" font-size="11" font-family="-apple-system, BlinkMacSystemFont, 'Segoe UI', Helvetica, Arial, sans-serif">Feb 13</text>
    <text x="161.42857142857142" y="370" text-anchor="middle" fill="#6a737d" font-size="11" font-family="-apple-system, BlinkMacSystemFont, 'Segoe UI', Helvetica, Arial, sans-serif">Feb 13</text>
    <text x="262.85714285714283" y="370" text-anchor="middle" fill="#6a737d" font-size="11" font-family="-apple-system, BlinkMacSystemFont, 'Segoe UI', Helvetica, Arial, sans-serif">Feb 13</text>
    <text x="364.2857142857143" y="370" text-anchor="middle" fill="#6a737d" font-size="11" font-family="-apple-system, BlinkMacSystemFont, 'Segoe UI', Helvetica, Arial, sans-serif">Feb 13</text>
    <text x="465.71428571428567" y="370" text-anchor="middle" fill="#6a737d" font-size="11" font-family="-apple-system, BlinkMacSystemFont, 'Segoe UI', Helvetica, Arial, sans-serif">Feb 14</text>
    <text x="567.1428571428571" y="370" text-anchor="middle" fill="#6a737d" font-size="11" font-family="-apple-system, BlinkMacSystemFont, 'Segoe UI', Helvetica, Arial, sans-serif">Feb 15</text>
    <text x="668.5714285714286" y="370" text-anchor="middle" fill="#6a737d" font-size="11" font-family="-apple-system, BlinkMacSystemFont, 'Segoe UI', Helvetica, Arial, sans-serif">Week 2</text>
    <text x="770" y="370" text-anchor="middle" fill="#6a737d" font-size="11" font-family="-apple-system, BlinkMacSystemFont, 'Segoe UI', Helvetica, Arial, sans-serif">Week 4</text>
  </g>
  <line x1="60" y1="50" x2="60" y2="350" stroke="#6a737d" stroke-width="1" />
  <line x1="60" y1="350" x2="770" y2="350" stroke="#6a737d" stroke-width="1" />
  <path d="M60,349.87958758748715 C66.76190476190476,349.87958758748715 97.19047619047619,349.87958758748715 110.71428571428571,349.87958758748715 C124.23809523809523,349.87958758748715 147.9047619047619,349.87958758748715 161.42857142857142,349.87958758748715 C174.95238095238093,349.87958758748715 198.61904761904762,349.87958758748715 212.14285714285714,349.87958758748715 C225.66666666666666,349.87958758748715 249.33333333333331,349.87958758748715 262.85714285714283,349.87958758748715 C276.38095238095235,349.87958758748715 300.04761904761904,349.87958758748715 313.57142857142856,349.87958758748715 C327.0952380952381,349.87958758748715 350.76190476190476,386.2270777412638 364.2857142857143,349.87958758748715 C377.8095238095238,313.5320974337105 401.4761904761905,77.27341143416203 415,77.27341143416203 C428.5238095238095,77.27341143416203 452.19047619047615,313.5320974337105 465.71428571428567,349.87958758748715 C479.2380952380952,386.2270777412638 502.9047619047619,349.87958758748715 516.4285714285714,349.87958758748715 C529.952380952381,349.87958758748715 560.3809523809524,349.87958758748715 567.1428571428571,349.87958758748715 L567.1428571428571,350 L60,350 Z" fill="#dfb317" fill-opacity="0.1" />
  
  
  <path d="M60,349.87958758748715 C66.76190476190476,349.87958758748715 97.19047619047619,349.87958758748715 110.71428571428571,349.87958758748715 C124.23809523809523,349.87958758748715 147.9047619047619,349.87958758748715 161.42857142857142,349.87958758748715 C174.95238095238093,349.87958758748715 198.61904761904762,349.87958758748715 212.14285714285714,349.87958758748715 C225.66666666666666,349.87958758748715 249.33333333333331,349.87958758748715 262.85714285714283,349.87958758748715 C276.38095238095235,349.87958758748715 300.04761904761904,349.87958758748715 313.57142857142856,349.87958758748715 C327.0952380952381,349.87958758748715 350.76190476190476,386.2270777412638 364.2857142857143,349.87958758748715 C377.8095238095238,313.5320974337105 401.4761904761905,77.27341143416203 415,77.27341143416203 C428.5238095238095,77.27341143416203 452.19047619047615,313.5320974337105 465.71428571428567,349.87958758748715 C479.2380952380952,386.2270777412638 502.9047619047619,349.87958758748715 516.4285714285714,349.87958758748715 C529.952380952381,349.87958758748715 560.3809523809524,349.87958758748715 567.1428571428571,349.87958758748715" fill="none" stroke="#dfb317" stroke-width="2.5" class="data-line-0" />
  <path d="M567.1428571428571,349.87958758748715 C573.9047619047619,342.60968818202343 604.3333333333334,303.28550284725185 617.8571428571429,295.3553420465093 C631.3809523809524,287.42518124576674 655.047619047619,291.7249078092467 668.5714285714286,290.4033815819181 C682.0952380952381,289.0818553545895 705.7619047619048,286.7654215688734 719.2857142857143,285.4438953415448 C732.8095238095239,284.1223691142162 763.2380952380953,281.1521962722324 770,280.49193487695356" fill="none" stroke="#28a745" stroke-width="2.5" stroke-dasharray="8,4" />
  <path d="M567.1428571428571,349.87958758748715 C573.9047619047619,349.8956425758222 604.3333333333334,349.98394501166496 617.8571428571429,350 C631.3809523809524,350.01605498833504 655.047619047619,350 668.5714285714286,350 C682.0952380952381,350 705.7619047619048,350 719.2857142857143,350 C732.8095238095239,350 763.2380952380953,350 770,350" fill="none" stroke="#d73a49" stroke-width="2.5" stroke-dasharray="8,4" />
  <g class="points">
    
    <circle cx="60" cy="349.87958758748715" r="4" fill="#dfb317" class="data-point" style="animation-delay: 1.50s" />
    <circle cx="110.71428571428571" cy="349.87958758748715" r="4" fill="#dfb317" class="data-point" style="animation-delay: 1.55s" />
    <circle cx="161.42857142857142" cy="349.87958758748715" r="4" fill="#dfb317" class="data-point" style="animation-delay: 1.60s" />
    <circle cx="212.14285714285714" cy="349.87958758748715" r="4" fill="#dfb317" class="data-point" style="animation-delay: 1.65s" />
    <circle cx="262.85714285714283" cy="349.87958758748715" r="4" fill="#dfb317" class="data-point" style="animation-delay: 1.70s" />
    <circle cx="313.57142857142856" cy="349.87958758748715" r="4" fill="#dfb317" class="data-point" style="animation-delay: 1.75s" />
    <circle cx="364.2857142857143" cy="349.87958758748715" r="4" fill="#dfb317" class="data-point" style="animation-delay: 1.80s" />
    <circle cx="415" cy="77.27341143416203" r="4" fill="#dfb317" class="data-point" style="animation-delay: 1.85s" />
    <circle cx="465.71428571428567" cy="349.87958758748715" r="4" fill="#dfb317" class="data-point" style="animation-delay: 1.90s" />
    <circle cx="516.4285714285714" cy="349.87958758748715" r="4" fill="#dfb317" class="data-point" style="animation-delay: 1.95s" />
    <circle cx="567.1428571428571" cy="349.87958758748715" r="4" fill="#dfb317" class="data-point" style="animation-delay: 2.00s" />
  </g>
</svg>