<svg xmlns="http://www.w3.org/2000/svg" viewBox="0 0 800 400" width="800" height="400">
  <style>
    @keyframes drawLine {
      to { stroke-dashoffset: 0; }
    }
    @keyframes fadeInPoint {
      from { opacity: 0; }
      to { opacity: 1; }
    }
    .data-line-0 {
      stroke-dasharray: 1571;
      stroke-dashoffset: 1571;
      animation: drawLine 2s ease-out forwards;
    }
    .data-point {
      opacity: 0;
      animation: fadeInPoint 0.5s ease-out forwards;
    }
    .chart-bg { fill: #fff; }
    .chart-text { fill: #24292e; }
    .chart-muted { fill: #6a737d; }
    .chart-grid { stroke: #eee; }
    .chart-axis { stroke: #6a737d; }
    @media (prefers-color-scheme: dark) {
      .chart-bg { fill: #0d1117; }
      .chart-text { fill: #e6edf3; }
      .chart-muted { fill: #8b949e; }
      .chart-grid { stroke: #21262d; }
      .chart-axis { stroke: #8b949e; }
    }
  </style>
  <rect width="800" height="400" class="chart-bg" />
  <text x="400" y="14" text-anchor="middle" class="chart-text" font-size="16" font-weight="bold" font-family="-apple-system, BlinkMacSystemFont, 'Segoe UI', Helvetica, Arial, sans-serif">Growth Forecast</text>
  <g class="legend">
    <rect x="220" y="25" width="12" height="3" fill="#dfb317" />
    <line x1="220" y1="26.5" x2="232" y2="26.5" stroke="#dfb317" stroke-width="2" />
    <text x="236" y="30" class="chart-text" font-size="10" font-family="-apple-system, BlinkMacSystemFont, 'Segoe UI', Helvetica, Arial, sans-serif">Star History</text>
    <rect x="340" y="25" width="12" height="3" fill="#28a745" rx="1" />
    <line x1="340" y1="26.5" x2="352" y2="26.5" stroke="#28a745" stroke-width="2" stroke-dasharray="4,2" />
    <text x="356" y="30" class="chart-text" font-size="10" font-family="-apple-system, BlinkMacSystemFont, 'Segoe UI', Helvetica, Arial, sans-serif">Linear Regression</text>
    <rect x="460" y="25" width="12" height="3" fill="#d73a49" rx="1" />
    <line x1="460" y1="26.5" x2="472" y2="26.5" stroke="#d73a49" stroke-width="2" stroke-dasharray="4,2" />
    <text x="476" y="30" class="chart-text" font-size="10" font-family="-apple-system, BlinkMacSystemFont, 'Segoe UI', Helvetica, Arial, sans-serif">Weighted Moving Average</text>
  </g>
  <g class="grid">
    <line x1="60" y1="350" x2="770" y2="350" class="chart-grid" stroke-opacity="0.3" />
    <text x="52" y="354" text-anchor="end" class="chart-muted" font-size="11" font-family="-apple-system, BlinkMacSystemFont, 'Segoe UI', Helvetica, Arial, sans-serif">0</text>
    <line x1="60" y1="274.74224217946465" x2="770" y2="274.74224217946465" class="chart-grid" stroke-opacity="0.3" />
    <text x="52" y="278.74224217946465" text-anchor="end" class="chart-muted" font-size="11" font-family="-apple-system, BlinkMacSystemFont, 'Segoe UI', Helvetica, Arial, sans-serif">10,000</text>
    <line x1="60" y1="199.48448435892934" x2="770" y2="199.48448435892934" class="chart-grid" stroke-opacity="0.3" />
    <text x="52" y="203.48448435892934" text-anchor="end" class="chart-muted" font-size="11" font-family="-apple-system, BlinkMacSystemFont, 'Segoe UI', Helvetica, Arial, sans-serif">20,000</text>
    <line x1="60" y1="124.22672653839402" x2="770" y2="124.22672653839402" class="chart-grid" stroke-opacity="0.3" />
    <text x="52" y="128.22672653839402" text-anchor="end" class="chart-muted" font-size="11" font-family="-apple-system, BlinkMacSystemFont, 'Segoe UI', Helvetica, Arial, sans-serif">30,000</text>
    <line x1="60" y1="48.96896871785867" x2="770" y2="48.96896871785867" class="chart-grid" stroke-opacity="0.3" />
    <text x="52" y="52.96896871785867" text-anchor="end" class="chart-muted" font-size="11" font-family="-apple-system, BlinkMacSystemFont, 'Segoe UI', Helvetica, Arial, sans-serif">40,000</text>
  </g>
  <g class="milestones">
    
  </g>
  <g class="x-axis">
    <text x="60" y="370" text-anchor="middle" class="chart-muted" font-size="11" font-family="-apple-system, BlinkMacSystemFont, 'Segoe UI', Helvetica, Arial, sans-serif">Feb 13</text>
    <text x="166.5" y="370" text-anchor="middle" class="chart-muted" font-size="11" font-family="-apple-system, BlinkMacSystemFont, 'Segoe UI', Helvetica, Arial, sans-serif">Feb 13</text>
    <text x="273" y="370" text-anchor="middle" class="chart-muted" font-size="11" font-family="-apple-system, BlinkMacSystemFont, 'Segoe UI', Helvetica, Arial, sans-serif">Feb 13</text>
    <text x="379.5" y="370" text-anchor="middle" class="chart-muted" font-size="11" font-family="-apple-system, BlinkMacSystemFont, 'Segoe UI', Helvetica, Arial, sans-serif">Feb 14</text>
    <text x="486" y="370" text-anchor="middle" class="chart-muted" font-size="11" font-family="-apple-system, BlinkMacSystemFont, 'Segoe UI', Helvetica, Arial, sans-serif">Feb 15</text>
    <text x="592.5" y="370" text-anchor="middle" class="chart-muted" font-size="11" font-family="-apple-system, BlinkMacSystemFont, 'Segoe UI', Helvetica, Arial, sans-serif">Mar 8</text>
    <text x="699" y="370" text-anchor="middle" class="chart-muted" font-size="11" font-family="-apple-system, BlinkMacSystemFont, 'Segoe UI', Helvetica, Arial, sans-serif">Week 2</text>
    <text x="770" y="370" text-anchor="middle" class="chart-muted" font-size="11" font-family="-apple-system, BlinkMacSystemFont, 'Segoe UI', Helvetica, Arial, sans-serif">Week 4</text>
  </g>
  <line x1="60" y1="50" x2="60" y2="350" class="chart-axis" stroke-width="1" />
  <line x1="60" y1="350" x2="770" y2="350" class="chart-axis" stroke-width="1" />
  <path d="M60,349.87958758748715 C64.73333333333333,349.87958758748715 86.03333333333333,349.87958758748715 95.5,349.87958758748715 C104.96666666666667,349.87958758748715 121.53333333333333,349.87958758748715 131,349.87958758748715 C140.46666666666667,349.87958758748715 157.03333333333333,349.87958758748715 166.5,349.87958758748715 C175.96666666666667,349.87958758748715 192.53333333333333,349.87958758748715 202,349.87958758748715 C211.46666666666667,349.87958758748715 228.03333333333333,349.87958758748715 237.5,349.87958758748715 C246.96666666666667,349.87958758748715 263.53333333333336,386.2270777412638 273,349.87958758748715 C282.46666666666664,313.5320974337105 299.03333333333336,77.27341143416203 308.5,77.27341143416203 C317.96666666666664,77.27341143416203 334.53333333333336,313.5320974337105 344,349.87958758748715 C353.46666666666664,386.2270777412638 370.03333333333336,349.87958758748715 379.5,349.87958758748715 C388.96666666666664,349.87958758748715 405.5333333333333,349.8775807139453 415,349.87958758748715 C424.4666666666667,349.881594461029 441.0333333333334,349.8926322655094 450.50000000000006,349.89463913905126 C459.9666666666667,349.8966460125931 476.53333333333336,349.8956425758222 486,349.89463913905126 C495.46666666666664,349.89363570228033 512.0333333333333,349.8871133632692 521.5,349.8871133632692 C530.9666666666667,349.8871133632692 547.5333333333333,349.89363570228033 557,349.89463913905126 C566.4666666666667,349.8956425758222 583.0333333333333,349.89463913905126 592.5,349.89463913905126 C601.9666666666667,349.89463913905126 623.2666666666667,349.89463913905126 628,349.89463913905126 L628,350 L60,350 Z" fill="#dfb317" fill-opacity="0.1" />
  
  
  <path d="M60,349.87958758748715 C64.73333333333333,349.87958758748715 86.03333333333333,349.87958758748715 95.5,349.87958758748715 C104.96666666666667,349.87958758748715 121.53333333333333,349.87958758748715 131,349.87958758748715 C140.46666666666667,349.87958758748715 157.03333333333333,349.87958758748715 166.5,349.87958758748715 C175.96666666666667,349.87958758748715 192.53333333333333,349.87958758748715 202,349.87958758748715 C211.46666666666667,349.87958758748715 228.03333333333333,349.87958758748715 237.5,349.87958758748715 C246.96666666666667,349.87958758748715 263.53333333333336,386.2270777412638 273,349.87958758748715 C282.46666666666664,313.5320974337105 299.03333333333336,77.27341143416203 308.5,77.27341143416203 C317.96666666666664,77.27341143416203 334.53333333333336,313.5320974337105 344,349.87958758748715 C353.46666666666664,386.2270777412638 370.03333333333336,349.87958758748715 379.5,349.87958758748715 C388.96666666666664,349.87958758748715 405.5333333333333,349.8775807139453 415,349.87958758748715 C424.4666666666667,349.881594461029 441.0333333333334,349.8926322655094 450.50000000000006,349.89463913905126 C459.9666666666667,349.8966460125931 476.53333333333336,349.8956425758222 486,349.89463913905126 C495.46666666666664,349.89363570228033 512.0333333333333,349.8871133632692 521.5,349.8871133632692 C530.9666666666667,349.8871133632692 547.5333333333333,349.89363570228033 557,349.89463913905126 C566.4666666666667,349.8956425758222 583.0333333333333,349.89463913905126 592.5,349.89463913905126 C601.9666666666667,349.89463913905126 623.2666666666667,349.89463913905126 628,349.89463913905126" fill="none" stroke="#dfb317" stroke-width="2.5" class="data-line-0" />
  <path d="M628,349.89463913905126 C632.7333333333333,348.55806136015855 654.0333333333333,341.117577703635 663.5,339.87030579735597 C672.9666666666667,338.62303389107694 689.5333333333333,340.3614880967313 699,340.5400998419587 C708.4666666666667,340.7187115871861 725.0333333333333,341.0312821413341 734.5,341.2098938865615 C743.9666666666667,341.38850563178886 765.2666666666667,341.79038205855056 770,341.87968793116426" fill="none" stroke="#28a745" stroke-width="2.5" stroke-dasharray="8,4" />
  <path d="M628,349.89463913905126 C632.7333333333333,349.90868725384445 654.0333333333333,349.9859518852068 663.5,350 C672.9666666666667,350.0140481147932 689.5333333333333,350 699,350 C708.4666666666667,350 725.0333333333333,350 734.5,350 C743.9666666666667,350 765.2666666666667,350 770,350" fill="none" stroke="#d73a49" stroke-width="2.5" stroke-dasharray="8,4" />
  <g class="points">
    
    <circle cx="60" cy="349.87958758748715" r="4" fill="#dfb317" class="data-point" style="animation-delay: 1.50s" />
    <circle cx="95.5" cy="349.87958758748715" r="4" fill="#dfb317" class="data-point" style="animation-delay: 1.55s" />
    <circle cx="131" cy="349.87958758748715" r="4" fill="#dfb317" class="data-point" style="animation-delay: 1.60s" />
    <circle cx="166.5" cy="349.87958758748715" r="4" fill="#dfb317" class="data-point" style="animation-delay: 1.65s" />
    <circle cx="202" cy="349.87958758748715" r="4" fill="#dfb317" class="data-point" style="animation-delay: 1.70s" />
    <circle cx="237.5" cy="349.87958758748715" r="4" fill="#dfb317" class="data-point" style="animation-delay: 1.75s" />
    <circle cx="273" cy="349.87958758748715" r="4" fill="#dfb317" class="data-point" style="animation-delay: 1.80s" />
    <circle cx="308.5" cy="77.27341143416203" r="4" fill="#dfb317" class="data-point" style="animation-delay: 1.85s" />
    <circle cx="344" cy="349.87958758748715" r="4" fill="#dfb317" class="data-point" style="animation-delay: 1.90s" />
    <circle cx="379.5" cy="349.87958758748715" r="4" fill="#dfb317" class="data-point" style="animation-delay: 1.95s" />
    <circle cx="415" cy="349.87958758748715" r="4" fill="#dfb317" class="data-point" style="animation-delay: 2.00s" />
    <circle cx="450.50000000000006" cy="349.89463913905126" r="4" fill="#dfb317" class="data-point" style="animation-delay: 2.05s" />
    <circle cx="486" cy="349.89463913905126" r="4" fill="#dfb317" class="data-point" style="animation-delay: 2.10s" />
    <circle cx="521.5" cy="349.8871133632692" r="4" fill="#dfb317" class="data-point" style="animation-delay: 2.15s" />
    <circle cx="557" cy="349.89463913905126" r="4" fill="#dfb317" class="data-point" style="animation-delay: 2.20s" />
    <circle cx="592.5" cy="349.89463913905126" r="4" fill="#dfb317" class="data-point" style="animation-delay: 2.25s" />
    <circle cx="628" cy="349.89463913905126" r="4" fill="#dfb317" class="data-point" style="animation-delay: 2.30s" />
  </g>
</svg>