<svg xmlns="http://www.w3.org/2000/svg" viewBox="0 0 800 400" width="800" height="400">
  <style>
    @keyframes drawLine {
      to { stroke-dashoffset: 0; }
    }
    @keyframes fadeInPoint {
      from { opacity: 0; }
      to { opacity: 1; }
    }
    .data-line-0 {
      stroke-dasharray: 1599;
      stroke-dashoffset: 1599;
      animation: drawLine 2s ease-out forwards;
    }
    .data-point {
      opacity: 0;
      animation: fadeInPoint 0.5s ease-out forwards;
    }
    .chart-bg { fill: #fff; }
    .chart-text { fill: #24292e; }
    .chart-muted { fill: #6a737d; }
    .chart-grid { stroke: #eee; }
    .chart-axis { stroke: #6a737d; }
    @media (prefers-color-scheme: dark) {
      .chart-bg { fill: #0d1117; }
      .chart-text { fill: #e6edf3; }
      .chart-muted { fill: #8b949e; }
      .chart-grid { stroke: #21262d; }
      .chart-axis { stroke: #8b949e; }
    }
  </style>
  <rect width="800" height="400" class="chart-bg" />
  <text x="400" y="14" text-anchor="middle" class="chart-text" font-size="16" font-weight="bold" font-family="-apple-system, BlinkMacSystemFont, 'Segoe UI', Helvetica, Arial, sans-serif">Growth Forecast</text>
  <g class="legend">
    <rect x="220" y="25" width="12" height="3" fill="#dfb317" />
    <line x1="220" y1="26.5" x2="232" y2="26.5" stroke="#dfb317" stroke-width="2" />
    <text x="236" y="30" class="chart-text" font-size="10" font-family="-apple-system, BlinkMacSystemFont, 'Segoe UI', Helvetica, Arial, sans-serif">Star History</text>
    <rect x="340" y="25" width="12" height="3" fill="#28a745" rx="1" />
    <line x1="340" y1="26.5" x2="352" y2="26.5" stroke="#28a745" stroke-width="2" stroke-dasharray="4,2" />
    <text x="356" y="30" class="chart-text" font-size="10" font-family="-apple-system, BlinkMacSystemFont, 'Segoe UI', Helvetica, Arial, sans-serif">Linear Regression</text>
    <rect x="460" y="25" width="12" height="3" fill="#d73a49" rx="1" />
    <line x1="460" y1="26.5" x2="472" y2="26.5" stroke="#d73a49" stroke-width="2" stroke-dasharray="4,2" />
    <text x="476" y="30" class="chart-text" font-size="10" font-family="-apple-system, BlinkMacSystemFont, 'Segoe UI', Helvetica, Arial, sans-serif">Weighted Moving Average</text>
  </g>
  <g class="grid">
    <line x1="60" y1="350" x2="770" y2="350" class="chart-grid" stroke-opacity="0.3" />
    <text x="52" y="354" text-anchor="end" class="chart-muted" font-size="11" font-family="-apple-system, BlinkMacSystemFont, 'Segoe UI', Helvetica, Arial, sans-serif">0</text>
    <line x1="60" y1="274.74224217946465" x2="770" y2="274.74224217946465" class="chart-grid" stroke-opacity="0.3" />
    <text x="52" y="278.74224217946465" text-anchor="end" class="chart-muted" font-size="11" font-family="-apple-system, BlinkMacSystemFont, 'Segoe UI', Helvetica, Arial, sans-serif">10,000</text>
    <line x1="60" y1="199.48448435892934" x2="770" y2="199.48448435892934" class="chart-grid" stroke-opacity="0.3" />
    <text x="52" y="203.48448435892934" text-anchor="end" class="chart-muted" font-size="11" font-family="-apple-system, BlinkMacSystemFont, 'Segoe UI', Helvetica, Arial, sans-serif">20,000</text>
    <line x1="60" y1="124.22672653839402" x2="770" y2="124.22672653839402" class="chart-grid" stroke-opacity="0.3" />
    <text x="52" y="128.22672653839402" text-anchor="end" class="chart-muted" font-size="11" font-family="-apple-system, BlinkMacSystemFont, 'Segoe UI', Helvetica, Arial, sans-serif">30,000</text>
    <line x1="60" y1="48.96896871785867" x2="770" y2="48.96896871785867" class="chart-grid" stroke-opacity="0.3" />
    <text x="52" y="52.96896871785867" text-anchor="end" class="chart-muted" font-size="11" font-family="-apple-system, BlinkMacSystemFont, 'Segoe UI', Helvetica, Arial, sans-serif">40,000</text>
  </g>
  <g class="milestones">
    
  </g>
  <g class="x-axis">
    <text x="60" y="370" text-anchor="middle" class="chart-muted" font-size="11" font-family="-apple-system, BlinkMacSystemFont, 'Segoe UI', Helvetica, Arial, sans-serif">Feb 13</text>
    <text x="156.8181818181818" y="370" text-anchor="middle" class="chart-muted" font-size="11" font-family="-apple-system, BlinkMacSystemFont, 'Segoe UI', Helvetica, Arial, sans-serif">Feb 13</text>
    <text x="253.63636363636363" y="370" text-anchor="middle" class="chart-muted" font-size="11" font-family="-apple-system, BlinkMacSystemFont, 'Segoe UI', Helvetica, Arial, sans-serif">Feb 13</text>
    <text x="350.4545454545455" y="370" text-anchor="middle" class="chart-muted" font-size="11" font-family="-apple-system, BlinkMacSystemFont, 'Segoe UI', Helvetica, Arial, sans-serif">Feb 14</text>
    <text x="447.27272727272725" y="370" text-anchor="middle" class="chart-muted" font-size="11" font-family="-apple-system, BlinkMacSystemFont, 'Segoe UI', Helvetica, Arial, sans-serif">Feb 15</text>
    <text x="544.090909090909" y="370" text-anchor="middle" class="chart-muted" font-size="11" font-family="-apple-system, BlinkMacSystemFont, 'Segoe UI', Helvetica, Arial, sans-serif">Mar 8</text>
    <text x="640.909090909091" y="370" text-anchor="middle" class="chart-muted" font-size="11" font-family="-apple-system, BlinkMacSystemFont, 'Segoe UI', Helvetica, Arial, sans-serif">Mar 29</text>
    <text x="737.7272727272727" y="370" text-anchor="middle" class="chart-muted" font-size="11" font-family="-apple-system, BlinkMacSystemFont, 'Segoe UI', Helvetica, Arial, sans-serif">Week 3</text>
    <text x="770" y="370" text-anchor="middle" class="chart-muted" font-size="11" font-family="-apple-system, BlinkMacSystemFont, 'Segoe UI', Helvetica, Arial, sans-serif">Week 4</text>
  </g>
  <line x1="60" y1="50" x2="60" y2="350" class="chart-axis" stroke-width="1" />
  <line x1="60" y1="350" x2="770" y2="350" class="chart-axis" stroke-width="1" />
  <path d="M60,349.87958758748715 C64.30303030303031,349.87958758748715 83.66666666666667,349.87958758748715 92.27272727272728,349.87958758748715 C100.87878787878789,349.87958758748715 115.93939393939394,349.87958758748715 124.54545454545455,349.87958758748715 C133.15151515151516,349.87958758748715 148.21212121212122,349.87958758748715 156.8181818181818,349.87958758748715 C165.4242424242424,349.87958758748715 180.4848484848485,349.87958758748715 189.0909090909091,349.87958758748715 C197.6969696969697,349.87958758748715 212.75757575757575,349.87958758748715 221.36363636363635,349.87958758748715 C229.96969696969694,349.87958758748715 245.03030303030303,386.2270777412638 253.63636363636363,349.87958758748715 C262.24242424242425,313.5320974337105 277.30303030303025,77.27341143416203 285.9090909090909,77.27341143416203 C294.5151515151515,77.27341143416203 309.57575757575756,313.5320974337105 318.1818181818182,349.87958758748715 C326.7878787878788,386.2270777412638 341.8484848484849,349.87958758748715 350.4545454545455,349.87958758748715 C359.0606060606061,349.87958758748715 374.12121212121207,349.8775807139453 382.7272727272727,349.87958758748715 C391.3333333333333,349.881594461029 406.3939393939394,349.8926322655094 415,349.89463913905126 C423.6060606060606,349.8966460125931 438.66666666666663,349.8956425758222 447.27272727272725,349.89463913905126 C455.8787878787879,349.89363570228033 470.93939393939394,349.8871133632692 479.54545454545456,349.8871133632692 C488.1515151515152,349.8871133632692 503.21212121212125,349.89363570228033 511.8181818181818,349.89463913905126 C520.4242424242424,349.8956425758222 535.4848484848484,349.89463913905126 544.090909090909,349.89463913905126 C552.6969696969696,349.89463913905126 567.7575757575758,349.89463913905126 576.3636363636364,349.89463913905126 C584.969696969697,349.89463913905126 600.030303030303,349.89463913905126 608.6363636363636,349.89463913905126 C617.2424242424242,349.89463913905126 636.6060606060606,349.89463913905126 640.909090909091,349.89463913905126 L640.909090909091,350 L60,350 Z" fill="#dfb317" fill-opacity="0.1" />
  
  
  <path d="M60,349.87958758748715 C64.30303030303031,349.87958758748715 83.66666666666667,349.87958758748715 92.27272727272728,349.87958758748715 C100.87878787878789,349.87958758748715 115.93939393939394,349.87958758748715 124.54545454545455,349.87958758748715 C133.15151515151516,349.87958758748715 148.21212121212122,349.87958758748715 156.8181818181818,349.87958758748715 C165.4242424242424,349.87958758748715 180.4848484848485,349.87958758748715 189.0909090909091,349.87958758748715 C197.6969696969697,349.87958758748715 212.75757575757575,349.87958758748715 221.36363636363635,349.87958758748715 C229.96969696969694,349.87958758748715 245.03030303030303,386.2270777412638 253.63636363636363,349.87958758748715 C262.24242424242425,313.5320974337105 277.30303030303025,77.27341143416203 285.9090909090909,77.27341143416203 C294.5151515151515,77.27341143416203 309.57575757575756,313.5320974337105 318.1818181818182,349.87958758748715 C326.7878787878788,386.2270777412638 341.8484848484849,349.87958758748715 350.4545454545455,349.87958758748715 C359.0606060606061,349.87958758748715 374.12121212121207,349.8775807139453 382.7272727272727,349.87958758748715 C391.3333333333333,349.881594461029 406.3939393939394,349.8926322655094 415,349.89463913905126 C423.6060606060606,349.8966460125931 438.66666666666663,349.8956425758222 447.27272727272725,349.89463913905126 C455.8787878787879,349.89363570228033 470.93939393939394,349.8871133632692 479.54545454545456,349.8871133632692 C488.1515151515152,349.8871133632692 503.21212121212125,349.89363570228033 511.8181818181818,349.89463913905126 C520.4242424242424,349.8956425758222 535.4848484848484,349.89463913905126 544.090909090909,349.89463913905126 C552.6969696969696,349.89463913905126 567.7575757575758,349.89463913905126 576.3636363636364,349.89463913905126 C584.969696969697,349.89463913905126 600.030303030303,349.89463913905126 608.6363636363636,349.89463913905126 C617.2424242424242,349.89463913905126 636.6060606060606,349.89463913905126 640.909090909091,349.89463913905126" fill="none" stroke="#dfb317" stroke-width="2.5" class="data-line-0" />
  <path d="M640.909090909091,349.89463913905126 C645.2121212121212,349.25745678950403 664.5757575757576,345.625517397085 673.1818181818182,345.11577151744723 C681.7878787878789,344.60602563780947 696.8484848484848,345.81667210194917 705.4545454545454,346.07154504176805 C714.060606060606,346.3264179815869 729.1212121212121,346.77144218949906 737.7272727272727,347.02731856608887 C746.3333333333334,347.2831949426787 765.6969696969697,347.8621779595113 770,347.9906178661917" fill="none" stroke="#28a745" stroke-width="2.5" stroke-dasharray="8,4" />
  <path d="M640.909090909091,349.89463913905126 C645.2121212121212,349.90868725384445 664.5757575757576,349.9859518852068 673.1818181818182,350 C681.7878787878789,350.0140481147932 696.8484848484848,350 705.4545454545454,350 C714.060606060606,350 729.1212121212121,350 737.7272727272727,350 C746.3333333333334,350 765.6969696969697,350 770,350" fill="none" stroke="#d73a49" stroke-width="2.5" stroke-dasharray="8,4" />
  <g class="points">
    
    <circle cx="60" cy="349.87958758748715" r="4" fill="#dfb317" class="data-point" style="animation-delay: 1.50s" />
    <circle cx="92.27272727272728" cy="349.87958758748715" r="4" fill="#dfb317" class="data-point" style="animation-delay: 1.55s" />
    <circle cx="124.54545454545455" cy="349.87958758748715" r="4" fill="#dfb317" class="data-point" style="animation-delay: 1.60s" />
    <circle cx="156.8181818181818" cy="349.87958758748715" r="4" fill="#dfb317" class="data-point" style="animation-delay: 1.65s" />
    <circle cx="189.0909090909091" cy="349.87958758748715" r="4" fill="#dfb317" class="data-point" style="animation-delay: 1.70s" />
    <circle cx="221.36363636363635" cy="349.87958758748715" r="4" fill="#dfb317" class="data-point" style="animation-delay: 1.75s" />
    <circle cx="253.63636363636363" cy="349.87958758748715" r="4" fill="#dfb317" class="data-point" style="animation-delay: 1.80s" />
    <circle cx="285.9090909090909" cy="77.27341143416203" r="4" fill="#dfb317" class="data-point" style="animation-delay: 1.85s" />
    <circle cx="318.1818181818182" cy="349.87958758748715" r="4" fill="#dfb317" class="data-point" style="animation-delay: 1.90s" />
    <circle cx="350.4545454545455" cy="349.87958758748715" r="4" fill="#dfb317" class="data-point" style="animation-delay: 1.95s" />
    <circle cx="382.7272727272727" cy="349.87958758748715" r="4" fill="#dfb317" class="data-point" style="animation-delay: 2.00s" />
    <circle cx="415" cy="349.89463913905126" r="4" fill="#dfb317" class="data-point" style="animation-delay: 2.05s" />
    <circle cx="447.27272727272725" cy="349.89463913905126" r="4" fill="#dfb317" class="data-point" style="animation-delay: 2.10s" />
    <circle cx="479.54545454545456" cy="349.8871133632692" r="4" fill="#dfb317" class="data-point" style="animation-delay: 2.15s" />
    <circle cx="511.8181818181818" cy="349.89463913905126" r="4" fill="#dfb317" class="data-point" style="animation-delay: 2.20s" />
    <circle cx="544.090909090909" cy="349.89463913905126" r="4" fill="#dfb317" class="data-point" style="animation-delay: 2.25s" />
    <circle cx="576.3636363636364" cy="349.89463913905126" r="4" fill="#dfb317" class="data-point" style="animation-delay: 2.30s" />
    <circle cx="608.6363636363636" cy="349.89463913905126" r="4" fill="#dfb317" class="data-point" style="animation-delay: 2.35s" />
    <circle cx="640.909090909091" cy="349.89463913905126" r="4" fill="#dfb317" class="data-point" style="animation-delay: 2.40s" />
  </g>
</svg>