<svg xmlns="http://www.w3.org/2000/svg" viewBox="0 0 800 400" width="800" height="400">
  <style>
    @keyframes drawLine {
      to { stroke-dashoffset: 0; }
    }
    @keyframes fadeInPoint {
      from { opacity: 0; }
      to { opacity: 1; }
    }
    .data-line-0 {
      stroke-dasharray: 1642;
      stroke-dashoffset: 1642;
      animation: drawLine 2s ease-out forwards;
    }
    .data-point {
      opacity: 0;
      animation: fadeInPoint 0.5s ease-out forwards;
    }
    .chart-bg { fill: #fff; }
    .chart-text { fill: #24292e; }
    .chart-muted { fill: #6a737d; }
    .chart-grid { stroke: #eee; }
    .chart-axis { stroke: #6a737d; }
    @media (prefers-color-scheme: dark) {
      .chart-bg { fill: #0d1117; }
      .chart-text { fill: #e6edf3; }
      .chart-muted { fill: #8b949e; }
      .chart-grid { stroke: #21262d; }
      .chart-axis { stroke: #8b949e; }
    }
  </style>
  <rect width="800" height="400" class="chart-bg" />
  <text x="400" y="14" text-anchor="middle" class="chart-text" font-size="16" font-weight="bold" font-family="-apple-system, BlinkMacSystemFont, 'Segoe UI', Helvetica, Arial, sans-serif">Growth Forecast</text>
  <g class="legend">
    <rect x="220" y="25" width="12" height="3" fill="#dfb317" />
    <line x1="220" y1="26.5" x2="232" y2="26.5" stroke="#dfb317" stroke-width="2" />
    <text x="236" y="30" class="chart-text" font-size="10" font-family="-apple-system, BlinkMacSystemFont, 'Segoe UI', Helvetica, Arial, sans-serif">Star History</text>
    <rect x="340" y="25" width="12" height="3" fill="#28a745" rx="1" />
    <line x1="340" y1="26.5" x2="352" y2="26.5" stroke="#28a745" stroke-width="2" stroke-dasharray="4,2" />
    <text x="356" y="30" class="chart-text" font-size="10" font-family="-apple-system, BlinkMacSystemFont, 'Segoe UI', Helvetica, Arial, sans-serif">Linear Regression</text>
    <rect x="460" y="25" width="12" height="3" fill="#d73a49" rx="1" />
    <line x1="460" y1="26.5" x2="472" y2="26.5" stroke="#d73a49" stroke-width="2" stroke-dasharray="4,2" />
    <text x="476" y="30" class="chart-text" font-size="10" font-family="-apple-system, BlinkMacSystemFont, 'Segoe UI', Helvetica, Arial, sans-serif">Weighted Moving Average</text>
  </g>
  <g class="grid">
    <line x1="60" y1="350" x2="770" y2="350" class="chart-grid" stroke-opacity="0.3" />
    <text x="52" y="354" text-anchor="end" class="chart-muted" font-size="11" font-family="-apple-system, BlinkMacSystemFont, 'Segoe UI', Helvetica, Arial, sans-serif">0</text>
    <line x1="60" y1="274.74224217946465" x2="770" y2="274.74224217946465" class="chart-grid" stroke-opacity="0.3" />
    <text x="52" y="278.74224217946465" text-anchor="end" class="chart-muted" font-size="11" font-family="-apple-system, BlinkMacSystemFont, 'Segoe UI', Helvetica, Arial, sans-serif">10,000</text>
    <line x1="60" y1="199.48448435892934" x2="770" y2="199.48448435892934" class="chart-grid" stroke-opacity="0.3" />
    <text x="52" y="203.48448435892934" text-anchor="end" class="chart-muted" font-size="11" font-family="-apple-system, BlinkMacSystemFont, 'Segoe UI', Helvetica, Arial, sans-serif">20,000</text>
    <line x1="60" y1="124.22672653839402" x2="770" y2="124.22672653839402" class="chart-grid" stroke-opacity="0.3" />
    <text x="52" y="128.22672653839402" text-anchor="end" class="chart-muted" font-size="11" font-family="-apple-system, BlinkMacSystemFont, 'Segoe UI', Helvetica, Arial, sans-serif">30,000</text>
    <line x1="60" y1="48.96896871785867" x2="770" y2="48.96896871785867" class="chart-grid" stroke-opacity="0.3" />
    <text x="52" y="52.96896871785867" text-anchor="end" class="chart-muted" font-size="11" font-family="-apple-system, BlinkMacSystemFont, 'Segoe UI', Helvetica, Arial, sans-serif">40,000</text>
  </g>
  <g class="milestones">
    
  </g>
  <g class="x-axis">
    <text x="60" y="370" text-anchor="middle" class="chart-muted" font-size="11" font-family="-apple-system, BlinkMacSystemFont, 'Segoe UI', Helvetica, Arial, sans-serif">Feb 13</text>
    <text x="141.92307692307693" y="370" text-anchor="middle" class="chart-muted" font-size="11" font-family="-apple-system, BlinkMacSystemFont, 'Segoe UI', Helvetica, Arial, sans-serif">Feb 13</text>
    <text x="223.84615384615387" y="370" text-anchor="middle" class="chart-muted" font-size="11" font-family="-apple-system, BlinkMacSystemFont, 'Segoe UI', Helvetica, Arial, sans-serif">Feb 13</text>
    <text x="305.7692307692308" y="370" text-anchor="middle" class="chart-muted" font-size="11" font-family="-apple-system, BlinkMacSystemFont, 'Segoe UI', Helvetica, Arial, sans-serif">Feb 14</text>
    <text x="387.69230769230774" y="370" text-anchor="middle" class="chart-muted" font-size="11" font-family="-apple-system, BlinkMacSystemFont, 'Segoe UI', Helvetica, Arial, sans-serif">Feb 15</text>
    <text x="469.6153846153846" y="370" text-anchor="middle" class="chart-muted" font-size="11" font-family="-apple-system, BlinkMacSystemFont, 'Segoe UI', Helvetica, Arial, sans-serif">Mar 8</text>
    <text x="551.5384615384615" y="370" text-anchor="middle" class="chart-muted" font-size="11" font-family="-apple-system, BlinkMacSystemFont, 'Segoe UI', Helvetica, Arial, sans-serif">Mar 29</text>
    <text x="633.4615384615385" y="370" text-anchor="middle" class="chart-muted" font-size="11" font-family="-apple-system, BlinkMacSystemFont, 'Segoe UI', Helvetica, Arial, sans-serif">Apr 19</text>
    <text x="715.3846153846155" y="370" text-anchor="middle" class="chart-muted" font-size="11" font-family="-apple-system, BlinkMacSystemFont, 'Segoe UI', Helvetica, Arial, sans-serif">Week 2</text>
    <text x="770" y="370" text-anchor="middle" class="chart-muted" font-size="11" font-family="-apple-system, BlinkMacSystemFont, 'Segoe UI', Helvetica, Arial, sans-serif">Week 4</text>
  </g>
  <line x1="60" y1="50" x2="60" y2="350" class="chart-axis" stroke-width="1" />
  <line x1="60" y1="350" x2="770" y2="350" class="chart-axis" stroke-width="1" />
  <path d="M60,349.87958758748715 C63.64102564102564,349.87958758748715 80.02564102564102,349.87958758748715 87.3076923076923,349.87958758748715 C94.58974358974359,349.87958758748715 107.33333333333333,349.87958758748715 114.61538461538461,349.87958758748715 C121.8974358974359,349.87958758748715 134.64102564102566,349.87958758748715 141.92307692307693,349.87958758748715 C149.2051282051282,349.87958758748715 161.94871794871796,349.87958758748715 169.23076923076923,349.87958758748715 C176.5128205128205,349.87958758748715 189.25641025641025,349.87958758748715 196.53846153846155,349.87958758748715 C203.82051282051285,349.87958758748715 216.5641025641026,386.2270777412638 223.84615384615387,349.87958758748715 C231.12820512820514,313.5320974337105 243.87179487179486,77.27341143416203 251.15384615384613,77.27341143416203 C258.4358974358974,77.27341143416203 271.1794871794872,313.5320974337105 278.46153846153845,349.87958758748715 C285.7435897435897,386.2270777412638 298.4871794871795,349.87958758748715 305.7692307692308,349.87958758748715 C313.05128205128204,349.87958758748715 325.7948717948718,349.8775807139453 333.0769230769231,349.87958758748715 C340.35897435897436,349.881594461029 353.1025641025641,349.8926322655094 360.38461538461536,349.89463913905126 C367.66666666666663,349.8966460125931 380.41025641025647,349.8956425758222 387.69230769230774,349.89463913905126 C394.974358974359,349.89363570228033 407.71794871794873,349.8871133632692 415,349.8871133632692 C422.28205128205127,349.8871133632692 435.025641025641,349.89363570228033 442.30769230769226,349.89463913905126 C449.58974358974353,349.8956425758222 462.3333333333333,349.89463913905126 469.6153846153846,349.89463913905126 C476.89743589743586,349.89463913905126 489.6410256410257,349.89463913905126 496.92307692307696,349.89463913905126 C504.20512820512823,349.89463913905126 516.948717948718,349.89463913905126 524.2307692307693,349.89463913905126 C531.5128205128206,349.89463913905126 544.2564102564103,349.89463913905126 551.5384615384615,349.89463913905126 C558.8205128205128,349.89463913905126 571.5641025641025,349.89463913905126 578.8461538461538,349.89463913905126 C586.1282051282051,349.89463913905126 598.8717948717949,349.8956425758222 606.1538461538462,349.89463913905126 C613.4358974358975,349.89363570228033 626.1794871794872,349.8881168000401 633.4615384615385,349.8871133632692 C640.7435897435897,349.88610992649825 657.1282051282051,349.8871133632692 660.7692307692307,349.8871133632692 L660.7692307692307,350 L60,350 Z" fill="#dfb317" fill-opacity="0.1" />
  
  
  <path d="M60,349.87958758748715 C63.64102564102564,349.87958758748715 80.02564102564102,349.87958758748715 87.3076923076923,349.87958758748715 C94.58974358974359,349.87958758748715 107.33333333333333,349.87958758748715 114.61538461538461,349.87958758748715 C121.8974358974359,349.87958758748715 134.64102564102566,349.87958758748715 141.92307692307693,349.87958758748715 C149.2051282051282,349.87958758748715 161.94871794871796,349.87958758748715 169.23076923076923,349.87958758748715 C176.5128205128205,349.87958758748715 189.25641025641025,349.87958758748715 196.53846153846155,349.87958758748715 C203.82051282051285,349.87958758748715 216.5641025641026,386.2270777412638 223.84615384615387,349.87958758748715 C231.12820512820514,313.5320974337105 243.87179487179486,77.27341143416203 251.15384615384613,77.27341143416203 C258.4358974358974,77.27341143416203 271.1794871794872,313.5320974337105 278.46153846153845,349.87958758748715 C285.7435897435897,386.2270777412638 298.4871794871795,349.87958758748715 305.7692307692308,349.87958758748715 C313.05128205128204,349.87958758748715 325.7948717948718,349.8775807139453 333.0769230769231,349.87958758748715 C340.35897435897436,349.881594461029 353.1025641025641,349.8926322655094 360.38461538461536,349.89463913905126 C367.66666666666663,349.8966460125931 380.41025641025647,349.8956425758222 387.69230769230774,349.89463913905126 C394.974358974359,349.89363570228033 407.71794871794873,349.8871133632692 415,349.8871133632692 C422.28205128205127,349.8871133632692 435.025641025641,349.89363570228033 442.30769230769226,349.89463913905126 C449.58974358974353,349.8956425758222 462.3333333333333,349.89463913905126 469.6153846153846,349.89463913905126 C476.89743589743586,349.89463913905126 489.6410256410257,349.89463913905126 496.92307692307696,349.89463913905126 C504.20512820512823,349.89463913905126 516.948717948718,349.89463913905126 524.2307692307693,349.89463913905126 C531.5128205128206,349.89463913905126 544.2564102564103,349.89463913905126 551.5384615384615,349.89463913905126 C558.8205128205128,349.89463913905126 571.5641025641025,349.89463913905126 578.8461538461538,349.89463913905126 C586.1282051282051,349.89463913905126 598.8717948717949,349.8956425758222 606.1538461538462,349.89463913905126 C613.4358974358975,349.89363570228033 626.1794871794872,349.8881168000401 633.4615384615385,349.8871133632692 C640.7435897435897,349.88610992649825 657.1282051282051,349.8871133632692 660.7692307692307,349.8871133632692" fill="none" stroke="#dfb317" stroke-width="2.5" class="data-line-0" />
  <path d="M660.7692307692307,349.8871133632692 C664.4102564102564,349.9021649148333 680.7948717948718,349.9849484484359 688.0769230769231,350 C695.3589743589744,350.0150515515641 708.1025641025642,350 715.3846153846155,350 C722.6666666666667,350 735.4102564102565,350 742.6923076923077,350 C749.974358974359,350 766.3589743589744,350 770,350" fill="none" stroke="#28a745" stroke-width="2.5" stroke-dasharray="8,4" />
  <path d="M660.7692307692307,349.8871133632692 C664.4102564102564,349.9021649148333 680.7948717948718,349.9849484484359 688.0769230769231,350 C695.3589743589744,350.0150515515641 708.1025641025642,350 715.3846153846155,350 C722.6666666666667,350 735.4102564102565,350 742.6923076923077,350 C749.974358974359,350 766.3589743589744,350 770,350" fill="none" stroke="#d73a49" stroke-width="2.5" stroke-dasharray="8,4" />
  <g class="points">
    
    <circle cx="60" cy="349.87958758748715" r="4" fill="#dfb317" class="data-point" style="animation-delay: 1.50s" />
    <circle cx="87.3076923076923" cy="349.87958758748715" r="4" fill="#dfb317" class="data-point" style="animation-delay: 1.55s" />
    <circle cx="114.61538461538461" cy="349.87958758748715" r="4" fill="#dfb317" class="data-point" style="animation-delay: 1.60s" />
    <circle cx="141.92307692307693" cy="349.87958758748715" r="4" fill="#dfb317" class="data-point" style="animation-delay: 1.65s" />
    <circle cx="169.23076923076923" cy="349.87958758748715" r="4" fill="#dfb317" class="data-point" style="animation-delay: 1.70s" />
    <circle cx="196.53846153846155" cy="349.87958758748715" r="4" fill="#dfb317" class="data-point" style="animation-delay: 1.75s" />
    <circle cx="223.84615384615387" cy="349.87958758748715" r="4" fill="#dfb317" class="data-point" style="animation-delay: 1.80s" />
    <circle cx="251.15384615384613" cy="77.27341143416203" r="4" fill="#dfb317" class="data-point" style="animation-delay: 1.85s" />
    <circle cx="278.46153846153845" cy="349.87958758748715" r="4" fill="#dfb317" class="data-point" style="animation-delay: 1.90s" />
    <circle cx="305.7692307692308" cy="349.87958758748715" r="4" fill="#dfb317" class="data-point" style="animation-delay: 1.95s" />
    <circle cx="333.0769230769231" cy="349.87958758748715" r="4" fill="#dfb317" class="data-point" style="animation-delay: 2.00s" />
    <circle cx="360.38461538461536" cy="349.89463913905126" r="4" fill="#dfb317" class="data-point" style="animation-delay: 2.05s" />
    <circle cx="387.69230769230774" cy="349.89463913905126" r="4" fill="#dfb317" class="data-point" style="animation-delay: 2.10s" />
    <circle cx="415" cy="349.8871133632692" r="4" fill="#dfb317" class="data-point" style="animation-delay: 2.15s" />
    <circle cx="442.30769230769226" cy="349.89463913905126" r="4" fill="#dfb317" class="data-point" style="animation-delay: 2.20s" />
    <circle cx="469.6153846153846" cy="349.89463913905126" r="4" fill="#dfb317" class="data-point" style="animation-delay: 2.25s" />
    <circle cx="496.92307692307696" cy="349.89463913905126" r="4" fill="#dfb317" class="data-point" style="animation-delay: 2.30s" />
    <circle cx="524.2307692307693" cy="349.89463913905126" r="4" fill="#dfb317" class="data-point" style="animation-delay: 2.35s" />
    <circle cx="551.5384615384615" cy="349.89463913905126" r="4" fill="#dfb317" class="data-point" style="animation-delay: 2.40s" />
    <circle cx="578.8461538461538" cy="349.89463913905126" r="4" fill="#dfb317" class="data-point" style="animation-delay: 2.45s" />
    <circle cx="606.1538461538462" cy="349.89463913905126" r="4" fill="#dfb317" class="data-point" style="animation-delay: 2.50s" />
    <circle cx="633.4615384615385" cy="349.8871133632692" r="4" fill="#dfb317" class="data-point" style="animation-delay: 2.55s" />
    <circle cx="660.7692307692307" cy="349.8871133632692" r="4" fill="#dfb317" class="data-point" style="animation-delay: 2.60s" />
  </g>
</svg>