<svg xmlns="http://www.w3.org/2000/svg" viewBox="0 0 800 400" width="800" height="400">
  <style>
    @keyframes drawLine {
      to { stroke-dashoffset: 0; }
    }
    @keyframes fadeInPoint {
      from { opacity: 0; }
      to { opacity: 1; }
    }
    .data-line-0 {
      stroke-dasharray: 1555;
      stroke-dashoffset: 1555;
      animation: drawLine 2s ease-out forwards;
    }
    .data-point {
      opacity: 0;
      animation: fadeInPoint 0.5s ease-out forwards;
    }
    .chart-bg { fill: #fff; }
    .chart-text { fill: #24292e; }
    .chart-muted { fill: #6a737d; }
    .chart-grid { stroke: #eee; }
    .chart-axis { stroke: #6a737d; }
    @media (prefers-color-scheme: dark) {
      .chart-bg { fill: #0d1117; }
      .chart-text { fill: #e6edf3; }
      .chart-muted { fill: #8b949e; }
      .chart-grid { stroke: #21262d; }
      .chart-axis { stroke: #8b949e; }
    }
  </style>
  <rect width="800" height="400" class="chart-bg" />
  <text x="400" y="14" text-anchor="middle" class="chart-text" font-size="16" font-weight="bold" font-family="-apple-system, BlinkMacSystemFont, 'Segoe UI', Helvetica, Arial, sans-serif">Growth Forecast</text>
  <g class="legend">
    <rect x="220" y="25" width="12" height="3" fill="#dfb317" />
    <line x1="220" y1="26.5" x2="232" y2="26.5" stroke="#dfb317" stroke-width="2" />
    <text x="236" y="30" class="chart-text" font-size="10" font-family="-apple-system, BlinkMacSystemFont, 'Segoe UI', Helvetica, Arial, sans-serif">Star History</text>
    <rect x="340" y="25" width="12" height="3" fill="#28a745" rx="1" />
    <line x1="340" y1="26.5" x2="352" y2="26.5" stroke="#28a745" stroke-width="2" stroke-dasharray="4,2" />
    <text x="356" y="30" class="chart-text" font-size="10" font-family="-apple-system, BlinkMacSystemFont, 'Segoe UI', Helvetica, Arial, sans-serif">Linear Regression</text>
    <rect x="460" y="25" width="12" height="3" fill="#d73a49" rx="1" />
    <line x1="460" y1="26.5" x2="472" y2="26.5" stroke="#d73a49" stroke-width="2" stroke-dasharray="4,2" />
    <text x="476" y="30" class="chart-text" font-size="10" font-family="-apple-system, BlinkMacSystemFont, 'Segoe UI', Helvetica, Arial, sans-serif">Weighted Moving Average</text>
  </g>
  <g class="grid">
    <line x1="60" y1="350" x2="770" y2="350" class="chart-grid" stroke-opacity="0.3" />
    <text x="52" y="354" text-anchor="end" class="chart-muted" font-size="11" font-family="-apple-system, BlinkMacSystemFont, 'Segoe UI', Helvetica, Arial, sans-serif">0</text>
    <line x1="60" y1="274.74224217946465" x2="770" y2="274.74224217946465" class="chart-grid" stroke-opacity="0.3" />
    <text x="52" y="278.74224217946465" text-anchor="end" class="chart-muted" font-size="11" font-family="-apple-system, BlinkMacSystemFont, 'Segoe UI', Helvetica, Arial, sans-serif">10,000</text>
    <line x1="60" y1="199.48448435892934" x2="770" y2="199.48448435892934" class="chart-grid" stroke-opacity="0.3" />
    <text x="52" y="203.48448435892934" text-anchor="end" class="chart-muted" font-size="11" font-family="-apple-system, BlinkMacSystemFont, 'Segoe UI', Helvetica, Arial, sans-serif">20,000</text>
    <line x1="60" y1="124.22672653839402" x2="770" y2="124.22672653839402" class="chart-grid" stroke-opacity="0.3" />
    <text x="52" y="128.22672653839402" text-anchor="end" class="chart-muted" font-size="11" font-family="-apple-system, BlinkMacSystemFont, 'Segoe UI', Helvetica, Arial, sans-serif">30,000</text>
    <line x1="60" y1="48.96896871785867" x2="770" y2="48.96896871785867" class="chart-grid" stroke-opacity="0.3" />
    <text x="52" y="52.96896871785867" text-anchor="end" class="chart-muted" font-size="11" font-family="-apple-system, BlinkMacSystemFont, 'Segoe UI', Helvetica, Arial, sans-serif">40,000</text>
  </g>
  <g class="milestones">
    
  </g>
  <g class="x-axis">
    <text x="60" y="370" text-anchor="middle" class="chart-muted" font-size="11" font-family="-apple-system, BlinkMacSystemFont, 'Segoe UI', Helvetica, Arial, sans-serif">Feb 13</text>
    <text x="134.73684210526315" y="370" text-anchor="middle" class="chart-muted" font-size="11" font-family="-apple-system, BlinkMacSystemFont, 'Segoe UI', Helvetica, Arial, sans-serif">Feb 13</text>
    <text x="209.4736842105263" y="370" text-anchor="middle" class="chart-muted" font-size="11" font-family="-apple-system, BlinkMacSystemFont, 'Segoe UI', Helvetica, Arial, sans-serif">Feb 13</text>
    <text x="284.2105263157895" y="370" text-anchor="middle" class="chart-muted" font-size="11" font-family="-apple-system, BlinkMacSystemFont, 'Segoe UI', Helvetica, Arial, sans-serif">Feb 13</text>
    <text x="358.9473684210526" y="370" text-anchor="middle" class="chart-muted" font-size="11" font-family="-apple-system, BlinkMacSystemFont, 'Segoe UI', Helvetica, Arial, sans-serif">Feb 14</text>
    <text x="433.6842105263158" y="370" text-anchor="middle" class="chart-muted" font-size="11" font-family="-apple-system, BlinkMacSystemFont, 'Segoe UI', Helvetica, Arial, sans-serif">Feb 15</text>
    <text x="508.4210526315789" y="370" text-anchor="middle" class="chart-muted" font-size="11" font-family="-apple-system, BlinkMacSystemFont, 'Segoe UI', Helvetica, Arial, sans-serif">Feb 15</text>
    <text x="583.1578947368421" y="370" text-anchor="middle" class="chart-muted" font-size="11" font-family="-apple-system, BlinkMacSystemFont, 'Segoe UI', Helvetica, Arial, sans-serif">Mar 1</text>
    <text x="657.8947368421052" y="370" text-anchor="middle" class="chart-muted" font-size="11" font-family="-apple-system, BlinkMacSystemFont, 'Segoe UI', Helvetica, Arial, sans-serif">Week 1</text>
    <text x="732.6315789473684" y="370" text-anchor="middle" class="chart-muted" font-size="11" font-family="-apple-system, BlinkMacSystemFont, 'Segoe UI', Helvetica, Arial, sans-serif">Week 3</text>
    <text x="770" y="370" text-anchor="middle" class="chart-muted" font-size="11" font-family="-apple-system, BlinkMacSystemFont, 'Segoe UI', Helvetica, Arial, sans-serif">Week 4</text>
  </g>
  <line x1="60" y1="50" x2="60" y2="350" class="chart-axis" stroke-width="1" />
  <line x1="60" y1="350" x2="770" y2="350" class="chart-axis" stroke-width="1" />
  <path d="M60,349.87958758748715 C64.98245614035088,349.87958758748715 87.40350877192982,349.87958758748715 97.36842105263158,349.87958758748715 C107.33333333333333,349.87958758748715 124.7719298245614,349.87958758748715 134.73684210526315,349.87958758748715 C144.7017543859649,349.87958758748715 162.140350877193,349.87958758748715 172.10526315789474,349.87958758748715 C182.0701754385965,349.87958758748715 199.50877192982455,349.87958758748715 209.4736842105263,349.87958758748715 C219.43859649122805,349.87958758748715 236.87719298245614,349.87958758748715 246.8421052631579,349.87958758748715 C256.8070175438597,349.87958758748715 274.2456140350877,386.2270777412638 284.2105263157895,349.87958758748715 C294.17543859649123,313.5320974337105 311.6140350877193,77.27341143416203 321.57894736842104,77.27341143416203 C331.5438596491228,77.27341143416203 348.98245614035085,313.5320974337105 358.9473684210526,349.87958758748715 C368.91228070175436,386.2270777412638 386.35087719298247,349.87958758748715 396.3157894736842,349.87958758748715 C406.280701754386,349.87958758748715 423.719298245614,349.8775807139453 433.6842105263158,349.87958758748715 C443.64912280701753,349.881594461029 461.08771929824564,349.8926322655094 471.0526315789474,349.89463913905126 C481.01754385964915,349.8966460125931 498.45614035087715,349.8956425758222 508.4210526315789,349.89463913905126 C518.3859649122807,349.89363570228033 535.8245614035087,349.8871133632692 545.7894736842105,349.8871133632692 C555.7543859649123,349.8871133632692 573.1929824561404,349.89363570228033 583.1578947368421,349.89463913905126 C593.1228070175438,349.8956425758222 615.5438596491227,349.89463913905126 620.5263157894736,349.89463913905126 L620.5263157894736,350 L60,350 Z" fill="#dfb317" fill-opacity="0.1" />
  
  
  <path d="M60,349.87958758748715 C64.98245614035088,349.87958758748715 87.40350877192982,349.87958758748715 97.36842105263158,349.87958758748715 C107.33333333333333,349.87958758748715 124.7719298245614,349.87958758748715 134.73684210526315,349.87958758748715 C144.7017543859649,349.87958758748715 162.140350877193,349.87958758748715 172.10526315789474,349.87958758748715 C182.0701754385965,349.87958758748715 199.50877192982455,349.87958758748715 209.4736842105263,349.87958758748715 C219.43859649122805,349.87958758748715 236.87719298245614,349.87958758748715 246.8421052631579,349.87958758748715 C256.8070175438597,349.87958758748715 274.2456140350877,386.2270777412638 284.2105263157895,349.87958758748715 C294.17543859649123,313.5320974337105 311.6140350877193,77.27341143416203 321.57894736842104,77.27341143416203 C331.5438596491228,77.27341143416203 348.98245614035085,313.5320974337105 358.9473684210526,349.87958758748715 C368.91228070175436,386.2270777412638 386.35087719298247,349.87958758748715 396.3157894736842,349.87958758748715 C406.280701754386,349.87958758748715 423.719298245614,349.8775807139453 433.6842105263158,349.87958758748715 C443.64912280701753,349.881594461029 461.08771929824564,349.8926322655094 471.0526315789474,349.89463913905126 C481.01754385964915,349.8966460125931 498.45614035087715,349.8956425758222 508.4210526315789,349.89463913905126 C518.3859649122807,349.89363570228033 535.8245614035087,349.8871133632692 545.7894736842105,349.8871133632692 C555.7543859649123,349.8871133632692 573.1929824561404,349.89363570228033 583.1578947368421,349.89463913905126 C593.1228070175438,349.8956425758222 615.5438596491227,349.89463913905126 620.5263157894736,349.89463913905126" fill="none" stroke="#dfb317" stroke-width="2.5" class="data-line-0" />
  <path d="M620.5263157894736,349.89463913905126 C625.5087719298245,348.0774151468781 647.9298245614034,338.02950104106566 657.8947368421052,336.2654591977523 C667.859649122807,334.50141735443896 685.2982456140351,336.5579610164815 695.2631578947369,336.66432531420116 C705.2280701754387,336.77068961192083 722.6666666666667,336.9558236961593 732.6315789473684,337.06319143064997 C742.5964912280701,337.1705591651406 765.0175438596491,337.4153977372501 770,337.46958332288085" fill="none" stroke="#28a745" stroke-width="2.5" stroke-dasharray="8,4" />
  <path d="M620.5263157894736,349.89463913905126 C625.5087719298245,349.90868725384445 647.9298245614034,349.9859518852068 657.8947368421052,350 C667.859649122807,350.0140481147932 685.2982456140351,350 695.2631578947369,350 C705.2280701754387,350 722.6666666666667,350 732.6315789473684,350 C742.5964912280701,350 765.0175438596491,350 770,350" fill="none" stroke="#d73a49" stroke-width="2.5" stroke-dasharray="8,4" />
  <g class="points">
    
    <circle cx="60" cy="349.87958758748715" r="4" fill="#dfb317" class="data-point" style="animation-delay: 1.50s" />
    <circle cx="97.36842105263158" cy="349.87958758748715" r="4" fill="#dfb317" class="data-point" style="animation-delay: 1.55s" />
    <circle cx="134.73684210526315" cy="349.87958758748715" r="4" fill="#dfb317" class="data-point" style="animation-delay: 1.60s" />
    <circle cx="172.10526315789474" cy="349.87958758748715" r="4" fill="#dfb317" class="data-point" style="animation-delay: 1.65s" />
    <circle cx="209.4736842105263" cy="349.87958758748715" r="4" fill="#dfb317" class="data-point" style="animation-delay: 1.70s" />
    <circle cx="246.8421052631579" cy="349.87958758748715" r="4" fill="#dfb317" class="data-point" style="animation-delay: 1.75s" />
    <circle cx="284.2105263157895" cy="349.87958758748715" r="4" fill="#dfb317" class="data-point" style="animation-delay: 1.80s" />
    <circle cx="321.57894736842104" cy="77.27341143416203" r="4" fill="#dfb317" class="data-point" style="animation-delay: 1.85s" />
    <circle cx="358.9473684210526" cy="349.87958758748715" r="4" fill="#dfb317" class="data-point" style="animation-delay: 1.90s" />
    <circle cx="396.3157894736842" cy="349.87958758748715" r="4" fill="#dfb317" class="data-point" style="animation-delay: 1.95s" />
    <circle cx="433.6842105263158" cy="349.87958758748715" r="4" fill="#dfb317" class="data-point" style="animation-delay: 2.00s" />
    <circle cx="471.0526315789474" cy="349.89463913905126" r="4" fill="#dfb317" class="data-point" style="animation-delay: 2.05s" />
    <circle cx="508.4210526315789" cy="349.89463913905126" r="4" fill="#dfb317" class="data-point" style="animation-delay: 2.10s" />
    <circle cx="545.7894736842105" cy="349.8871133632692" r="4" fill="#dfb317" class="data-point" style="animation-delay: 2.15s" />
    <circle cx="583.1578947368421" cy="349.89463913905126" r="4" fill="#dfb317" class="data-point" style="animation-delay: 2.20s" />
    <circle cx="620.5263157894736" cy="349.89463913905126" r="4" fill="#dfb317" class="data-point" style="animation-delay: 2.25s" />
  </g>
</svg>