<svg xmlns="http://www.w3.org/2000/svg" viewBox="0 0 800 400" width="800" height="400">
  <style>
    @keyframes drawLine {
      to { stroke-dashoffset: 0; }
    }
    @keyframes fadeInPoint {
      from { opacity: 0; }
      to { opacity: 1; }
    }
    .data-line-0 {
      stroke-dasharray: 1659;
      stroke-dashoffset: 1659;
      animation: drawLine 2s ease-out forwards;
    }
    .data-point {
      opacity: 0;
      animation: fadeInPoint 0.5s ease-out forwards;
    }
    .chart-bg { fill: #fff; }
    .chart-text { fill: #24292e; }
    .chart-muted { fill: #6a737d; }
    .chart-grid { stroke: #eee; }
    .chart-axis { stroke: #6a737d; }
    @media (prefers-color-scheme: dark) {
      .chart-bg { fill: #0d1117; }
      .chart-text { fill: #e6edf3; }
      .chart-muted { fill: #8b949e; }
      .chart-grid { stroke: #21262d; }
      .chart-axis { stroke: #8b949e; }
    }
  </style>
  <rect width="800" height="400" class="chart-bg" />
  <text x="400" y="14" text-anchor="middle" class="chart-text" font-size="16" font-weight="bold" font-family="-apple-system, BlinkMacSystemFont, 'Segoe UI', Helvetica, Arial, sans-serif">Growth Forecast</text>
  <g class="legend">
    <rect x="220" y="25" width="12" height="3" fill="#dfb317" />
    <line x1="220" y1="26.5" x2="232" y2="26.5" stroke="#dfb317" stroke-width="2" />
    <text x="236" y="30" class="chart-text" font-size="10" font-family="-apple-system, BlinkMacSystemFont, 'Segoe UI', Helvetica, Arial, sans-serif">Star History</text>
    <rect x="340" y="25" width="12" height="3" fill="#28a745" rx="1" />
    <line x1="340" y1="26.5" x2="352" y2="26.5" stroke="#28a745" stroke-width="2" stroke-dasharray="4,2" />
    <text x="356" y="30" class="chart-text" font-size="10" font-family="-apple-system, BlinkMacSystemFont, 'Segoe UI', Helvetica, Arial, sans-serif">Linear Regression</text>
    <rect x="460" y="25" width="12" height="3" fill="#d73a49" rx="1" />
    <line x1="460" y1="26.5" x2="472" y2="26.5" stroke="#d73a49" stroke-width="2" stroke-dasharray="4,2" />
    <text x="476" y="30" class="chart-text" font-size="10" font-family="-apple-system, BlinkMacSystemFont, 'Segoe UI', Helvetica, Arial, sans-serif">Weighted Moving Average</text>
  </g>
  <g class="grid">
    <line x1="60" y1="350" x2="770" y2="350" class="chart-grid" stroke-opacity="0.3" />
    <text x="52" y="354" text-anchor="end" class="chart-muted" font-size="11" font-family="-apple-system, BlinkMacSystemFont, 'Segoe UI', Helvetica, Arial, sans-serif">0</text>
    <line x1="60" y1="274.74224217946465" x2="770" y2="274.74224217946465" class="chart-grid" stroke-opacity="0.3" />
    <text x="52" y="278.74224217946465" text-anchor="end" class="chart-muted" font-size="11" font-family="-apple-system, BlinkMacSystemFont, 'Segoe UI', Helvetica, Arial, sans-serif">10,000</text>
    <line x1="60" y1="199.48448435892934" x2="770" y2="199.48448435892934" class="chart-grid" stroke-opacity="0.3" />
    <text x="52" y="203.48448435892934" text-anchor="end" class="chart-muted" font-size="11" font-family="-apple-system, BlinkMacSystemFont, 'Segoe UI', Helvetica, Arial, sans-serif">20,000</text>
    <line x1="60" y1="124.22672653839402" x2="770" y2="124.22672653839402" class="chart-grid" stroke-opacity="0.3" />
    <text x="52" y="128.22672653839402" text-anchor="end" class="chart-muted" font-size="11" font-family="-apple-system, BlinkMacSystemFont, 'Segoe UI', Helvetica, Arial, sans-serif">30,000</text>
    <line x1="60" y1="48.96896871785867" x2="770" y2="48.96896871785867" class="chart-grid" stroke-opacity="0.3" />
    <text x="52" y="52.96896871785867" text-anchor="end" class="chart-muted" font-size="11" font-family="-apple-system, BlinkMacSystemFont, 'Segoe UI', Helvetica, Arial, sans-serif">40,000</text>
  </g>
  <g class="milestones">
    
  </g>
  <g class="x-axis">
    <text x="60" y="370" text-anchor="middle" class="chart-muted" font-size="11" font-family="-apple-system, BlinkMacSystemFont, 'Segoe UI', Helvetica, Arial, sans-serif">Feb 13</text>
    <text x="136.07142857142856" y="370" text-anchor="middle" class="chart-muted" font-size="11" font-family="-apple-system, BlinkMacSystemFont, 'Segoe UI', Helvetica, Arial, sans-serif">Feb 13</text>
    <text x="212.14285714285714" y="370" text-anchor="middle" class="chart-muted" font-size="11" font-family="-apple-system, BlinkMacSystemFont, 'Segoe UI', Helvetica, Arial, sans-serif">Feb 13</text>
    <text x="288.2142857142857" y="370" text-anchor="middle" class="chart-muted" font-size="11" font-family="-apple-system, BlinkMacSystemFont, 'Segoe UI', Helvetica, Arial, sans-serif">Feb 14</text>
    <text x="364.2857142857143" y="370" text-anchor="middle" class="chart-muted" font-size="11" font-family="-apple-system, BlinkMacSystemFont, 'Segoe UI', Helvetica, Arial, sans-serif">Feb 15</text>
    <text x="440.35714285714283" y="370" text-anchor="middle" class="chart-muted" font-size="11" font-family="-apple-system, BlinkMacSystemFont, 'Segoe UI', Helvetica, Arial, sans-serif">Mar 8</text>
    <text x="516.4285714285714" y="370" text-anchor="middle" class="chart-muted" font-size="11" font-family="-apple-system, BlinkMacSystemFont, 'Segoe UI', Helvetica, Arial, sans-serif">Mar 29</text>
    <text x="592.5" y="370" text-anchor="middle" class="chart-muted" font-size="11" font-family="-apple-system, BlinkMacSystemFont, 'Segoe UI', Helvetica, Arial, sans-serif">Apr 19</text>
    <text x="668.5714285714286" y="370" text-anchor="middle" class="chart-muted" font-size="11" font-family="-apple-system, BlinkMacSystemFont, 'Segoe UI', Helvetica, Arial, sans-serif">May 10</text>
    <text x="744.6428571428571" y="370" text-anchor="middle" class="chart-muted" font-size="11" font-family="-apple-system, BlinkMacSystemFont, 'Segoe UI', Helvetica, Arial, sans-serif">Week 3</text>
    <text x="770" y="370" text-anchor="middle" class="chart-muted" font-size="11" font-family="-apple-system, BlinkMacSystemFont, 'Segoe UI', Helvetica, Arial, sans-serif">Week 4</text>
  </g>
  <line x1="60" y1="50" x2="60" y2="350" class="chart-axis" stroke-width="1" />
  <line x1="60" y1="350" x2="770" y2="350" class="chart-axis" stroke-width="1" />
  <path d="M60,349.87958758748715 C63.38095238095238,349.87958758748715 78.5952380952381,349.87958758748715 85.35714285714286,349.87958758748715 C92.11904761904762,349.87958758748715 103.95238095238095,349.87958758748715 110.71428571428571,349.87958758748715 C117.47619047619047,349.87958758748715 129.3095238095238,349.87958758748715 136.07142857142856,349.87958758748715 C142.83333333333331,349.87958758748715 154.66666666666666,349.87958758748715 161.42857142857142,349.87958758748715 C168.19047619047618,349.87958758748715 180.02380952380952,349.87958758748715 186.78571428571428,349.87958758748715 C193.54761904761904,349.87958758748715 205.38095238095238,386.2270777412638 212.14285714285714,349.87958758748715 C218.9047619047619,313.5320974337105 230.73809523809524,77.27341143416203 237.5,77.27341143416203 C244.26190476190476,77.27341143416203 256.0952380952381,313.5320974337105 262.85714285714283,349.87958758748715 C269.6190476190476,386.2270777412638 281.45238095238096,349.87958758748715 288.2142857142857,349.87958758748715 C294.9761904761905,349.87958758748715 306.8095238095238,349.8775807139453 313.57142857142856,349.87958758748715 C320.3333333333333,349.881594461029 332.1666666666667,349.8926322655094 338.92857142857144,349.89463913905126 C345.6904761904762,349.8966460125931 357.5238095238095,349.8956425758222 364.2857142857143,349.89463913905126 C371.04761904761904,349.89363570228033 382.8809523809524,349.8871133632692 389.64285714285717,349.8871133632692 C396.4047619047619,349.8871133632692 408.23809523809524,349.89363570228033 415,349.89463913905126 C421.76190476190476,349.8956425758222 433.5952380952381,349.89463913905126 440.35714285714283,349.89463913905126 C447.1190476190476,349.89463913905126 458.9523809523809,349.89463913905126 465.71428571428567,349.89463913905126 C472.4761904761904,349.89463913905126 484.3095238095238,349.89463913905126 491.07142857142856,349.89463913905126 C497.8333333333333,349.89463913905126 509.6666666666667,349.89463913905126 516.4285714285714,349.89463913905126 C523.1904761904763,349.89463913905126 535.0238095238096,349.89463913905126 541.7857142857143,349.89463913905126 C548.547619047619,349.89463913905126 560.3809523809524,349.8956425758222 567.1428571428571,349.89463913905126 C573.9047619047618,349.89363570228033 585.7380952380952,349.8881168000401 592.5,349.8871133632692 C599.2619047619048,349.88610992649825 611.0952380952382,349.8871133632692 617.8571428571429,349.8871133632692 C624.6190476190476,349.8871133632692 636.452380952381,349.8871133632692 643.2142857142857,349.8871133632692 C649.9761904761904,349.8871133632692 665.1904761904761,349.8871133632692 668.5714285714286,349.8871133632692 L668.5714285714286,350 L60,350 Z" fill="#dfb317" fill-opacity="0.1" />
  
  
  <path d="M60,349.87958758748715 C63.38095238095238,349.87958758748715 78.5952380952381,349.87958758748715 85.35714285714286,349.87958758748715 C92.11904761904762,349.87958758748715 103.95238095238095,349.87958758748715 110.71428571428571,349.87958758748715 C117.47619047619047,349.87958758748715 129.3095238095238,349.87958758748715 136.07142857142856,349.87958758748715 C142.83333333333331,349.87958758748715 154.66666666666666,349.87958758748715 161.42857142857142,349.87958758748715 C168.19047619047618,349.87958758748715 180.02380952380952,349.87958758748715 186.78571428571428,349.87958758748715 C193.54761904761904,349.87958758748715 205.38095238095238,386.2270777412638 212.14285714285714,349.87958758748715 C218.9047619047619,313.5320974337105 230.73809523809524,77.27341143416203 237.5,77.27341143416203 C244.26190476190476,77.27341143416203 256.0952380952381,313.5320974337105 262.85714285714283,349.87958758748715 C269.6190476190476,386.2270777412638 281.45238095238096,349.87958758748715 288.2142857142857,349.87958758748715 C294.9761904761905,349.87958758748715 306.8095238095238,349.8775807139453 313.57142857142856,349.87958758748715 C320.3333333333333,349.881594461029 332.1666666666667,349.8926322655094 338.92857142857144,349.89463913905126 C345.6904761904762,349.8966460125931 357.5238095238095,349.8956425758222 364.2857142857143,349.89463913905126 C371.04761904761904,349.89363570228033 382.8809523809524,349.8871133632692 389.64285714285717,349.8871133632692 C396.4047619047619,349.8871133632692 408.23809523809524,349.89363570228033 415,349.89463913905126 C421.76190476190476,349.8956425758222 433.5952380952381,349.89463913905126 440.35714285714283,349.89463913905126 C447.1190476190476,349.89463913905126 458.9523809523809,349.89463913905126 465.71428571428567,349.89463913905126 C472.4761904761904,349.89463913905126 484.3095238095238,349.89463913905126 491.07142857142856,349.89463913905126 C497.8333333333333,349.89463913905126 509.6666666666667,349.89463913905126 516.4285714285714,349.89463913905126 C523.1904761904763,349.89463913905126 535.0238095238096,349.89463913905126 541.7857142857143,349.89463913905126 C548.547619047619,349.89463913905126 560.3809523809524,349.8956425758222 567.1428571428571,349.89463913905126 C573.9047619047618,349.89363570228033 585.7380952380952,349.8881168000401 592.5,349.8871133632692 C599.2619047619048,349.88610992649825 611.0952380952382,349.8871133632692 617.8571428571429,349.8871133632692 C624.6190476190476,349.8871133632692 636.452380952381,349.8871133632692 643.2142857142857,349.8871133632692 C649.9761904761904,349.8871133632692 665.1904761904761,349.8871133632692 668.5714285714286,349.8871133632692" fill="none" stroke="#dfb317" stroke-width="2.5" class="data-line-0" />
  <path d="M668.5714285714286,349.8871133632692 C671.952380952381,349.9021649148333 687.1666666666666,349.9849484484359 693.9285714285714,350 C700.6904761904763,350.0150515515641 712.5238095238096,350 719.2857142857143,350 C726.047619047619,350 737.8809523809524,350 744.6428571428571,350 C751.4047619047618,350 766.6190476190476,350 770,350" fill="none" stroke="#28a745" stroke-width="2.5" stroke-dasharray="8,4" />
  <path d="M668.5714285714286,349.8871133632692 C671.952380952381,349.9021649148333 687.1666666666666,349.9849484484359 693.9285714285714,350 C700.6904761904763,350.0150515515641 712.5238095238096,350 719.2857142857143,350 C726.047619047619,350 737.8809523809524,350 744.6428571428571,350 C751.4047619047618,350 766.6190476190476,350 770,350" fill="none" stroke="#d73a49" stroke-width="2.5" stroke-dasharray="8,4" />
  <g class="points">
    
    <circle cx="60" cy="349.87958758748715" r="4" fill="#dfb317" class="data-point" style="animation-delay: 1.50s" />
    <circle cx="85.35714285714286" cy="349.87958758748715" r="4" fill="#dfb317" class="data-point" style="animation-delay: 1.55s" />
    <circle cx="110.71428571428571" cy="349.87958758748715" r="4" fill="#dfb317" class="data-point" style="animation-delay: 1.60s" />
    <circle cx="136.07142857142856" cy="349.87958758748715" r="4" fill="#dfb317" class="data-point" style="animation-delay: 1.65s" />
    <circle cx="161.42857142857142" cy="349.87958758748715" r="4" fill="#dfb317" class="data-point" style="animation-delay: 1.70s" />
    <circle cx="186.78571428571428" cy="349.87958758748715" r="4" fill="#dfb317" class="data-point" style="animation-delay: 1.75s" />
    <circle cx="212.14285714285714" cy="349.87958758748715" r="4" fill="#dfb317" class="data-point" style="animation-delay: 1.80s" />
    <circle cx="237.5" cy="77.27341143416203" r="4" fill="#dfb317" class="data-point" style="animation-delay: 1.85s" />
    <circle cx="262.85714285714283" cy="349.87958758748715" r="4" fill="#dfb317" class="data-point" style="animation-delay: 1.90s" />
    <circle cx="288.2142857142857" cy="349.87958758748715" r="4" fill="#dfb317" class="data-point" style="animation-delay: 1.95s" />
    <circle cx="313.57142857142856" cy="349.87958758748715" r="4" fill="#dfb317" class="data-point" style="animation-delay: 2.00s" />
    <circle cx="338.92857142857144" cy="349.89463913905126" r="4" fill="#dfb317" class="data-point" style="animation-delay: 2.05s" />
    <circle cx="364.2857142857143" cy="349.89463913905126" r="4" fill="#dfb317" class="data-point" style="animation-delay: 2.10s" />
    <circle cx="389.64285714285717" cy="349.8871133632692" r="4" fill="#dfb317" class="data-point" style="animation-delay: 2.15s" />
    <circle cx="415" cy="349.89463913905126" r="4" fill="#dfb317" class="data-point" style="animation-delay: 2.20s" />
    <circle cx="440.35714285714283" cy="349.89463913905126" r="4" fill="#dfb317" class="data-point" style="animation-delay: 2.25s" />
    <circle cx="465.71428571428567" cy="349.89463913905126" r="4" fill="#dfb317" class="data-point" style="animation-delay: 2.30s" />
    <circle cx="491.07142857142856" cy="349.89463913905126" r="4" fill="#dfb317" class="data-point" style="animation-delay: 2.35s" />
    <circle cx="516.4285714285714" cy="349.89463913905126" r="4" fill="#dfb317" class="data-point" style="animation-delay: 2.40s" />
    <circle cx="541.7857142857143" cy="349.89463913905126" r="4" fill="#dfb317" class="data-point" style="animation-delay: 2.45s" />
    <circle cx="567.1428571428571" cy="349.89463913905126" r="4" fill="#dfb317" class="data-point" style="animation-delay: 2.50s" />
    <circle cx="592.5" cy="349.8871133632692" r="4" fill="#dfb317" class="data-point" style="animation-delay: 2.55s" />
    <circle cx="617.8571428571429" cy="349.8871133632692" r="4" fill="#dfb317" class="data-point" style="animation-delay: 2.60s" />
    <circle cx="643.2142857142857" cy="349.8871133632692" r="4" fill="#dfb317" class="data-point" style="animation-delay: 2.65s" />
    <circle cx="668.5714285714286" cy="349.8871133632692" r="4" fill="#dfb317" class="data-point" style="animation-delay: 2.70s" />
  </g>
</svg>