<svg xmlns="http://www.w3.org/2000/svg" viewBox="0 0 800 400" width="800" height="400">
  <style>
    @keyframes drawLine {
      to { stroke-dashoffset: 0; }
    }
    @keyframes fadeInPoint {
      from { opacity: 0; }
      to { opacity: 1; }
    }
    .data-line-0 {
      stroke-dasharray: 1666;
      stroke-dashoffset: 1666;
      animation: drawLine 2s ease-out forwards;
    }
    .data-point {
      opacity: 0;
      animation: fadeInPoint 0.5s ease-out forwards;
    }
    .chart-bg { fill: #fff; }
    .chart-text { fill: #24292e; }
    .chart-muted { fill: #6a737d; }
    .chart-grid { stroke: #eee; }
    .chart-axis { stroke: #6a737d; }
    @media (prefers-color-scheme: dark) {
      .chart-bg { fill: #0d1117; }
      .chart-text { fill: #e6edf3; }
      .chart-muted { fill: #8b949e; }
      .chart-grid { stroke: #21262d; }
      .chart-axis { stroke: #8b949e; }
    }
  </style>
  <rect width="800" height="400" class="chart-bg" />
  <text x="400" y="14" text-anchor="middle" class="chart-text" font-size="16" font-weight="bold" font-family="-apple-system, BlinkMacSystemFont, 'Segoe UI', Helvetica, Arial, sans-serif">Growth Forecast</text>
  <g class="legend">
    <rect x="220" y="25" width="12" height="3" fill="#dfb317" />
    <line x1="220" y1="26.5" x2="232" y2="26.5" stroke="#dfb317" stroke-width="2" />
    <text x="236" y="30" class="chart-text" font-size="10" font-family="-apple-system, BlinkMacSystemFont, 'Segoe UI', Helvetica, Arial, sans-serif">Star History</text>
    <rect x="340" y="25" width="12" height="3" fill="#28a745" rx="1" />
    <line x1="340" y1="26.5" x2="352" y2="26.5" stroke="#28a745" stroke-width="2" stroke-dasharray="4,2" />
    <text x="356" y="30" class="chart-text" font-size="10" font-family="-apple-system, BlinkMacSystemFont, 'Segoe UI', Helvetica, Arial, sans-serif">Linear Regression</text>
    <rect x="460" y="25" width="12" height="3" fill="#d73a49" rx="1" />
    <line x1="460" y1="26.5" x2="472" y2="26.5" stroke="#d73a49" stroke-width="2" stroke-dasharray="4,2" />
    <text x="476" y="30" class="chart-text" font-size="10" font-family="-apple-system, BlinkMacSystemFont, 'Segoe UI', Helvetica, Arial, sans-serif">Weighted Moving Average</text>
  </g>
  <g class="grid">
    <line x1="60" y1="350" x2="770" y2="350" class="chart-grid" stroke-opacity="0.3" />
    <text x="52" y="354" text-anchor="end" class="chart-muted" font-size="11" font-family="-apple-system, BlinkMacSystemFont, 'Segoe UI', Helvetica, Arial, sans-serif">0</text>
    <line x1="60" y1="274.74224217946465" x2="770" y2="274.74224217946465" class="chart-grid" stroke-opacity="0.3" />
    <text x="52" y="278.74224217946465" text-anchor="end" class="chart-muted" font-size="11" font-family="-apple-system, BlinkMacSystemFont, 'Segoe UI', Helvetica, Arial, sans-serif">10,000</text>
    <line x1="60" y1="199.48448435892934" x2="770" y2="199.48448435892934" class="chart-grid" stroke-opacity="0.3" />
    <text x="52" y="203.48448435892934" text-anchor="end" class="chart-muted" font-size="11" font-family="-apple-system, BlinkMacSystemFont, 'Segoe UI', Helvetica, Arial, sans-serif">20,000</text>
    <line x1="60" y1="124.22672653839402" x2="770" y2="124.22672653839402" class="chart-grid" stroke-opacity="0.3" />
    <text x="52" y="128.22672653839402" text-anchor="end" class="chart-muted" font-size="11" font-family="-apple-system, BlinkMacSystemFont, 'Segoe UI', Helvetica, Arial, sans-serif">30,000</text>
    <line x1="60" y1="48.96896871785867" x2="770" y2="48.96896871785867" class="chart-grid" stroke-opacity="0.3" />
    <text x="52" y="52.96896871785867" text-anchor="end" class="chart-muted" font-size="11" font-family="-apple-system, BlinkMacSystemFont, 'Segoe UI', Helvetica, Arial, sans-serif">40,000</text>
  </g>
  <g class="milestones">
    
  </g>
  <g class="x-axis">
    <text x="60" y="370" text-anchor="middle" class="chart-muted" font-size="11" font-family="-apple-system, BlinkMacSystemFont, 'Segoe UI', Helvetica, Arial, sans-serif">Feb 13</text>
    <text x="133.44827586206895" y="370" text-anchor="middle" class="chart-muted" font-size="11" font-family="-apple-system, BlinkMacSystemFont, 'Segoe UI', Helvetica, Arial, sans-serif">Feb 13</text>
    <text x="206.89655172413794" y="370" text-anchor="middle" class="chart-muted" font-size="11" font-family="-apple-system, BlinkMacSystemFont, 'Segoe UI', Helvetica, Arial, sans-serif">Feb 13</text>
    <text x="280.34482758620686" y="370" text-anchor="middle" class="chart-muted" font-size="11" font-family="-apple-system, BlinkMacSystemFont, 'Segoe UI', Helvetica, Arial, sans-serif">Feb 14</text>
    <text x="353.7931034482759" y="370" text-anchor="middle" class="chart-muted" font-size="11" font-family="-apple-system, BlinkMacSystemFont, 'Segoe UI', Helvetica, Arial, sans-serif">Feb 15</text>
    <text x="427.2413793103448" y="370" text-anchor="middle" class="chart-muted" font-size="11" font-family="-apple-system, BlinkMacSystemFont, 'Segoe UI', Helvetica, Arial, sans-serif">Mar 8</text>
    <text x="500.6896551724138" y="370" text-anchor="middle" class="chart-muted" font-size="11" font-family="-apple-system, BlinkMacSystemFont, 'Segoe UI', Helvetica, Arial, sans-serif">Mar 29</text>
    <text x="574.1379310344828" y="370" text-anchor="middle" class="chart-muted" font-size="11" font-family="-apple-system, BlinkMacSystemFont, 'Segoe UI', Helvetica, Arial, sans-serif">Apr 19</text>
    <text x="647.5862068965517" y="370" text-anchor="middle" class="chart-muted" font-size="11" font-family="-apple-system, BlinkMacSystemFont, 'Segoe UI', Helvetica, Arial, sans-serif">May 10</text>
    <text x="721.0344827586207" y="370" text-anchor="middle" class="chart-muted" font-size="11" font-family="-apple-system, BlinkMacSystemFont, 'Segoe UI', Helvetica, Arial, sans-serif">Week 2</text>
    <text x="770" y="370" text-anchor="middle" class="chart-muted" font-size="11" font-family="-apple-system, BlinkMacSystemFont, 'Segoe UI', Helvetica, Arial, sans-serif">Week 4</text>
  </g>
  <line x1="60" y1="50" x2="60" y2="350" class="chart-axis" stroke-width="1" />
  <line x1="60" y1="350" x2="770" y2="350" class="chart-axis" stroke-width="1" />
  <path d="M60,349.87958758748715 C63.264367816091955,349.87958758748715 77.95402298850574,349.87958758748715 84.48275862068965,349.87958758748715 C91.01149425287356,349.87958758748715 102.43678160919539,349.87958758748715 108.9655172413793,349.87958758748715 C115.49425287356321,349.87958758748715 126.91954022988504,349.87958758748715 133.44827586206895,349.87958758748715 C139.97701149425285,349.87958758748715 151.40229885057468,349.87958758748715 157.9310344827586,349.87958758748715 C164.45977011494253,349.87958758748715 175.88505747126436,349.87958758748715 182.41379310344828,349.87958758748715 C188.9425287356322,349.87958758748715 200.36781609195404,386.2270777412638 206.89655172413794,349.87958758748715 C213.42528735632183,313.5320974337105 224.8505747126437,77.27341143416203 231.3793103448276,77.27341143416203 C237.90804597701148,77.27341143416203 249.33333333333334,313.5320974337105 255.86206896551724,349.87958758748715 C262.39080459770116,386.2270777412638 273.81609195402297,349.87958758748715 280.34482758620686,349.87958758748715 C286.87356321839076,349.87958758748715 298.2988505747127,349.8775807139453 304.82758620689657,349.87958758748715 C311.35632183908046,349.881594461029 322.7816091954023,349.8926322655094 329.3103448275862,349.89463913905126 C335.8390804597701,349.8966460125931 347.264367816092,349.8956425758222 353.7931034482759,349.89463913905126 C360.32183908045977,349.89363570228033 371.7471264367816,349.8871133632692 378.2758620689655,349.8871133632692 C384.8045977011494,349.8871133632692 396.2298850574713,349.89363570228033 402.7586206896552,349.89463913905126 C409.28735632183907,349.8956425758222 420.71264367816093,349.89463913905126 427.2413793103448,349.89463913905126 C433.7701149425287,349.89463913905126 445.1954022988506,349.89463913905126 451.7241379310345,349.89463913905126 C458.2528735632184,349.89463913905126 469.67816091954023,349.89463913905126 476.2068965517241,349.89463913905126 C482.735632183908,349.89463913905126 494.1609195402299,349.89463913905126 500.6896551724138,349.89463913905126 C507.2183908045977,349.89463913905126 518.6436781609195,349.89463913905126 525.1724137931035,349.89463913905126 C531.7011494252874,349.89463913905126 543.1264367816092,349.8956425758222 549.6551724137931,349.89463913905126 C556.1839080459771,349.89363570228033 567.6091954022988,349.8881168000401 574.1379310344828,349.8871133632692 C580.6666666666667,349.88610992649825 592.0919540229885,349.8871133632692 598.6206896551724,349.8871133632692 C605.1494252873564,349.8871133632692 616.5747126436781,349.8871133632692 623.1034482758621,349.8871133632692 C629.632183908046,349.8871133632692 641.0574712643678,349.8871133632692 647.5862068965517,349.8871133632692 C654.1149425287357,349.8871133632692 668.8045977011494,349.8871133632692 672.0689655172414,349.8871133632692 L672.0689655172414,350 L60,350 Z" fill="#dfb317" fill-opacity="0.1" />
  
  
  <path d="M60,349.87958758748715 C63.264367816091955,349.87958758748715 77.95402298850574,349.87958758748715 84.48275862068965,349.87958758748715 C91.01149425287356,349.87958758748715 102.43678160919539,349.87958758748715 108.9655172413793,349.87958758748715 C115.49425287356321,349.87958758748715 126.91954022988504,349.87958758748715 133.44827586206895,349.87958758748715 C139.97701149425285,349.87958758748715 151.40229885057468,349.87958758748715 157.9310344827586,349.87958758748715 C164.45977011494253,349.87958758748715 175.88505747126436,349.87958758748715 182.41379310344828,349.87958758748715 C188.9425287356322,349.87958758748715 200.36781609195404,386.2270777412638 206.89655172413794,349.87958758748715 C213.42528735632183,313.5320974337105 224.8505747126437,77.27341143416203 231.3793103448276,77.27341143416203 C237.90804597701148,77.27341143416203 249.33333333333334,313.5320974337105 255.86206896551724,349.87958758748715 C262.39080459770116,386.2270777412638 273.81609195402297,349.87958758748715 280.34482758620686,349.87958758748715 C286.87356321839076,349.87958758748715 298.2988505747127,349.8775807139453 304.82758620689657,349.87958758748715 C311.35632183908046,349.881594461029 322.7816091954023,349.8926322655094 329.3103448275862,349.89463913905126 C335.8390804597701,349.8966460125931 347.264367816092,349.8956425758222 353.7931034482759,349.89463913905126 C360.32183908045977,349.89363570228033 371.7471264367816,349.8871133632692 378.2758620689655,349.8871133632692 C384.8045977011494,349.8871133632692 396.2298850574713,349.89363570228033 402.7586206896552,349.89463913905126 C409.28735632183907,349.8956425758222 420.71264367816093,349.89463913905126 427.2413793103448,349.89463913905126 C433.7701149425287,349.89463913905126 445.1954022988506,349.89463913905126 451.7241379310345,349.89463913905126 C458.2528735632184,349.89463913905126 469.67816091954023,349.89463913905126 476.2068965517241,349.89463913905126 C482.735632183908,349.89463913905126 494.1609195402299,349.89463913905126 500.6896551724138,349.89463913905126 C507.2183908045977,349.89463913905126 518.6436781609195,349.89463913905126 525.1724137931035,349.89463913905126 C531.7011494252874,349.89463913905126 543.1264367816092,349.8956425758222 549.6551724137931,349.89463913905126 C556.1839080459771,349.89363570228033 567.6091954022988,349.8881168000401 574.1379310344828,349.8871133632692 C580.6666666666667,349.88610992649825 592.0919540229885,349.8871133632692 598.6206896551724,349.8871133632692 C605.1494252873564,349.8871133632692 616.5747126436781,349.8871133632692 623.1034482758621,349.8871133632692 C629.632183908046,349.8871133632692 641.0574712643678,349.8871133632692 647.5862068965517,349.8871133632692 C654.1149425287357,349.8871133632692 668.8045977011494,349.8871133632692 672.0689655172414,349.8871133632692" fill="none" stroke="#dfb317" stroke-width="2.5" class="data-line-0" />
  <path d="M672.0689655172414,349.8871133632692 C675.3333333333334,349.9021649148333 690.0229885057471,349.9849484484359 696.551724137931,350 C703.080459770115,350.0150515515641 714.5057471264367,350 721.0344827586207,350 C727.5632183908046,350 738.9885057471264,350 745.5172413793103,350 C752.0459770114943,350 766.735632183908,350 770,350" fill="none" stroke="#28a745" stroke-width="2.5" stroke-dasharray="8,4" />
  <path d="M672.0689655172414,349.8871133632692 C675.3333333333334,349.9021649148333 690.0229885057471,349.9849484484359 696.551724137931,350 C703.080459770115,350.0150515515641 714.5057471264367,350 721.0344827586207,350 C727.5632183908046,350 738.9885057471264,350 745.5172413793103,350 C752.0459770114943,350 766.735632183908,350 770,350" fill="none" stroke="#d73a49" stroke-width="2.5" stroke-dasharray="8,4" />
  <g class="points">
    
    <circle cx="60" cy="349.87958758748715" r="4" fill="#dfb317" class="data-point" style="animation-delay: 1.50s" />
    <circle cx="84.48275862068965" cy="349.87958758748715" r="4" fill="#dfb317" class="data-point" style="animation-delay: 1.55s" />
    <circle cx="108.9655172413793" cy="349.87958758748715" r="4" fill="#dfb317" class="data-point" style="animation-delay: 1.60s" />
    <circle cx="133.44827586206895" cy="349.87958758748715" r="4" fill="#dfb317" class="data-point" style="animation-delay: 1.65s" />
    <circle cx="157.9310344827586" cy="349.87958758748715" r="4" fill="#dfb317" class="data-point" style="animation-delay: 1.70s" />
    <circle cx="182.41379310344828" cy="349.87958758748715" r="4" fill="#dfb317" class="data-point" style="animation-delay: 1.75s" />
    <circle cx="206.89655172413794" cy="349.87958758748715" r="4" fill="#dfb317" class="data-point" style="animation-delay: 1.80s" />
    <circle cx="231.3793103448276" cy="77.27341143416203" r="4" fill="#dfb317" class="data-point" style="animation-delay: 1.85s" />
    <circle cx="255.86206896551724" cy="349.87958758748715" r="4" fill="#dfb317" class="data-point" style="animation-delay: 1.90s" />
    <circle cx="280.34482758620686" cy="349.87958758748715" r="4" fill="#dfb317" class="data-point" style="animation-delay: 1.95s" />
    <circle cx="304.82758620689657" cy="349.87958758748715" r="4" fill="#dfb317" class="data-point" style="animation-delay: 2.00s" />
    <circle cx="329.3103448275862" cy="349.89463913905126" r="4" fill="#dfb317" class="data-point" style="animation-delay: 2.05s" />
    <circle cx="353.7931034482759" cy="349.89463913905126" r="4" fill="#dfb317" class="data-point" style="animation-delay: 2.10s" />
    <circle cx="378.2758620689655" cy="349.8871133632692" r="4" fill="#dfb317" class="data-point" style="animation-delay: 2.15s" />
    <circle cx="402.7586206896552" cy="349.89463913905126" r="4" fill="#dfb317" class="data-point" style="animation-delay: 2.20s" />
    <circle cx="427.2413793103448" cy="349.89463913905126" r="4" fill="#dfb317" class="data-point" style="animation-delay: 2.25s" />
    <circle cx="451.7241379310345" cy="349.89463913905126" r="4" fill="#dfb317" class="data-point" style="animation-delay: 2.30s" />
    <circle cx="476.2068965517241" cy="349.89463913905126" r="4" fill="#dfb317" class="data-point" style="animation-delay: 2.35s" />
    <circle cx="500.6896551724138" cy="349.89463913905126" r="4" fill="#dfb317" class="data-point" style="animation-delay: 2.40s" />
    <circle cx="525.1724137931035" cy="349.89463913905126" r="4" fill="#dfb317" class="data-point" style="animation-delay: 2.45s" />
    <circle cx="549.6551724137931" cy="349.89463913905126" r="4" fill="#dfb317" class="data-point" style="animation-delay: 2.50s" />
    <circle cx="574.1379310344828" cy="349.8871133632692" r="4" fill="#dfb317" class="data-point" style="animation-delay: 2.55s" />
    <circle cx="598.6206896551724" cy="349.8871133632692" r="4" fill="#dfb317" class="data-point" style="animation-delay: 2.60s" />
    <circle cx="623.1034482758621" cy="349.8871133632692" r="4" fill="#dfb317" class="data-point" style="animation-delay: 2.65s" />
    <circle cx="647.5862068965517" cy="349.8871133632692" r="4" fill="#dfb317" class="data-point" style="animation-delay: 2.70s" />
    <circle cx="672.0689655172414" cy="349.8871133632692" r="4" fill="#dfb317" class="data-point" style="animation-delay: 2.75s" />
  </g>
</svg>