<svg xmlns="http://www.w3.org/2000/svg" viewBox="0 0 800 400" width="800" height="400">
  <style>
    @keyframes drawLine {
      to { stroke-dashoffset: 0; }
    }
    @keyframes fadeInPoint {
      from { opacity: 0; }
      to { opacity: 1; }
    }
    .data-line-0 {
      stroke-dasharray: 1176;
      stroke-dashoffset: 1176;
      animation: drawLine 2s ease-out forwards;
    }
    .data-point {
      opacity: 0;
      animation: fadeInPoint 0.5s ease-out forwards;
    }
    .chart-bg { fill: #fff; }
    .chart-text { fill: #24292e; }
    .chart-muted { fill: #6a737d; }
    .chart-grid { stroke: #eee; }
    .chart-axis { stroke: #6a737d; }
    @media (prefers-color-scheme: dark) {
      .chart-bg { fill: #0d1117; }
      .chart-text { fill: #e6edf3; }
      .chart-muted { fill: #8b949e; }
      .chart-grid { stroke: #21262d; }
      .chart-axis { stroke: #8b949e; }
    }
  </style>
  <rect width="800" height="400" class="chart-bg" />
  <text x="400" y="14" text-anchor="middle" class="chart-text" font-size="16" font-weight="bold" font-family="-apple-system, BlinkMacSystemFont, 'Segoe UI', Helvetica, Arial, sans-serif">Growth Forecast</text>
  <g class="legend">
    <rect x="220" y="31" width="12" height="3" fill="#dfb317" />
    <line x1="220" y1="32.5" x2="232" y2="32.5" stroke="#dfb317" stroke-width="2" />
    <text x="236" y="36" class="chart-text" font-size="10" font-family="-apple-system, BlinkMacSystemFont, 'Segoe UI', Helvetica, Arial, sans-serif">Star History</text>
    <rect x="340" y="31" width="12" height="3" fill="#28a745" rx="1" />
    <line x1="340" y1="32.5" x2="352" y2="32.5" stroke="#28a745" stroke-width="2" stroke-dasharray="4,2" />
    <text x="356" y="36" class="chart-text" font-size="10" font-family="-apple-system, BlinkMacSystemFont, 'Segoe UI', Helvetica, Arial, sans-serif">Linear Regression</text>
    <rect x="460" y="31" width="12" height="3" fill="#d73a49" rx="1" />
    <line x1="460" y1="32.5" x2="472" y2="32.5" stroke="#d73a49" stroke-width="2" stroke-dasharray="4,2" />
    <text x="476" y="36" class="chart-text" font-size="10" font-family="-apple-system, BlinkMacSystemFont, 'Segoe UI', Helvetica, Arial, sans-serif">Weighted Moving Average</text>
  </g>
  <g class="grid">
    <line x1="60" y1="350" x2="770" y2="350" class="chart-grid" stroke-opacity="0.3" />
    <text x="52" y="354" text-anchor="end" class="chart-muted" font-size="11" font-family="-apple-system, BlinkMacSystemFont, 'Segoe UI', Helvetica, Arial, sans-serif">0</text>
    <line x1="60" y1="300" x2="770" y2="300" class="chart-grid" stroke-opacity="0.3" />
    <text x="52" y="304" text-anchor="end" class="chart-muted" font-size="11" font-family="-apple-system, BlinkMacSystemFont, 'Segoe UI', Helvetica, Arial, sans-serif">5</text>
    <line x1="60" y1="250" x2="770" y2="250" class="chart-grid" stroke-opacity="0.3" />
    <text x="52" y="254" text-anchor="end" class="chart-muted" font-size="11" font-family="-apple-system, BlinkMacSystemFont, 'Segoe UI', Helvetica, Arial, sans-serif">10</text>
    <line x1="60" y1="200" x2="770" y2="200" class="chart-grid" stroke-opacity="0.3" />
    <text x="52" y="204" text-anchor="end" class="chart-muted" font-size="11" font-family="-apple-system, BlinkMacSystemFont, 'Segoe UI', Helvetica, Arial, sans-serif">15</text>
    <line x1="60" y1="150" x2="770" y2="150" class="chart-grid" stroke-opacity="0.3" />
    <text x="52" y="154" text-anchor="end" class="chart-muted" font-size="11" font-family="-apple-system, BlinkMacSystemFont, 'Segoe UI', Helvetica, Arial, sans-serif">20</text>
    <line x1="60" y1="100" x2="770" y2="100" class="chart-grid" stroke-opacity="0.3" />
    <text x="52" y="104" text-anchor="end" class="chart-muted" font-size="11" font-family="-apple-system, BlinkMacSystemFont, 'Segoe UI', Helvetica, Arial, sans-serif">25</text>
    <line x1="60" y1="50" x2="770" y2="50" class="chart-grid" stroke-opacity="0.3" />
    <text x="52" y="54" text-anchor="end" class="chart-muted" font-size="11" font-family="-apple-system, BlinkMacSystemFont, 'Segoe UI', Helvetica, Arial, sans-serif">30</text>
  </g>
  <g class="milestones">
    
  </g>
  <g class="x-axis">
    <text x="60" y="370" text-anchor="middle" class="chart-muted" font-size="11" font-family="-apple-system, BlinkMacSystemFont, 'Segoe UI', Helvetica, Arial, sans-serif">Mar 5</text>
    <text x="146.06060606060606" y="370" text-anchor="middle" class="chart-muted" font-size="11" font-family="-apple-system, BlinkMacSystemFont, 'Segoe UI', Helvetica, Arial, sans-serif">Jan 24</text>
    <text x="232.12121212121212" y="370" text-anchor="middle" class="chart-muted" font-size="11" font-family="-apple-system, BlinkMacSystemFont, 'Segoe UI', Helvetica, Arial, sans-serif">Dec 15</text>
    <text x="318.1818181818182" y="370" text-anchor="middle" class="chart-muted" font-size="11" font-family="-apple-system, BlinkMacSystemFont, 'Segoe UI', Helvetica, Arial, sans-serif">Nov 4</text>
    <text x="404.24242424242425" y="370" text-anchor="middle" class="chart-muted" font-size="11" font-family="-apple-system, BlinkMacSystemFont, 'Segoe UI', Helvetica, Arial, sans-serif">Sep 25</text>
    <text x="490.3030303030303" y="370" text-anchor="middle" class="chart-muted" font-size="11" font-family="-apple-system, BlinkMacSystemFont, 'Segoe UI', Helvetica, Arial, sans-serif">Aug 15</text>
    <text x="576.3636363636364" y="370" text-anchor="middle" class="chart-muted" font-size="11" font-family="-apple-system, BlinkMacSystemFont, 'Segoe UI', Helvetica, Arial, sans-serif">Jul 6</text>
    <text x="662.4242424242425" y="370" text-anchor="middle" class="chart-muted" font-size="11" font-family="-apple-system, BlinkMacSystemFont, 'Segoe UI', Helvetica, Arial, sans-serif">May 26</text>
    <text x="748.4848484848485" y="370" text-anchor="middle" class="chart-muted" font-size="11" font-family="-apple-system, BlinkMacSystemFont, 'Segoe UI', Helvetica, Arial, sans-serif">Week 3</text>
    <text x="770" y="370" text-anchor="middle" class="chart-muted" font-size="11" font-family="-apple-system, BlinkMacSystemFont, 'Segoe UI', Helvetica, Arial, sans-serif">Week 4</text>
  </g>
  <line x1="60" y1="50" x2="60" y2="350" class="chart-axis" stroke-width="1" />
  <line x1="60" y1="350" x2="770" y2="350" class="chart-axis" stroke-width="1" />
  <path d="M60,350 L60,340 C67.17171717171718,340 74.34343434343434,340 81.51515151515152,340 C88.68686868686869,340 95.85858585858585,340 103.03030303030303,340 C110.20202020202021,340 117.37373737373737,340 124.54545454545455,340 C131.7171717171717,340 138.88888888888889,340 146.06060606060606,340 C153.23232323232324,340 160.4040404040404,340 167.57575757575756,340 C174.74747474747474,340 181.91919191919192,340 189.0909090909091,340 C196.26262626262627,340 203.43434343434345,330 210.60606060606062,330 C217.7777777777778,330 224.94949494949495,330 232.12121212121212,330 C239.2929292929293,330 246.46464646464645,330 253.63636363636363,330 C260.8080808080808,330 267.979797979798,323.3333333333333 275.1515151515151,320 C282.3232323232323,316.6666666666667 289.4949494949495,310 296.66666666666663,310 C303.83838383838383,310 311.010101010101,310 318.1818181818182,310 C325.35353535353534,310 332.52525252525254,310 339.6969696969697,310 C346.8686868686869,310 354.04040404040404,278.3333333333333 361.21212121212125,270 C368.3838383838384,261.6666666666667 375.55555555555554,260 382.7272727272727,260 C389.8989898989899,260 397.07070707070704,260 404.24242424242425,260 C411.4141414141414,260 418.5858585858586,260 425.75757575757575,260 C432.9292929292929,260 440.1010101010101,260 447.27272727272725,260 C454.44444444444446,260 461.6161616161616,250 468.7878787878788,250 C475.95959595959596,250 483.13131313131316,250 490.3030303030303,250 C497.47474747474746,250 504.64646464646466,250 511.8181818181818,250 C518.989898989899,250 526.1616161616162,235 533.3333333333333,230 C540.5050505050505,224.99999999999997 547.6767676767677,220 554.8484848484849,220 C562.0202020202021,220 569.1919191919192,220 576.3636363636364,220 C583.5353535353536,220 590.7070707070707,210 597.8787878787879,210 C605.0505050505051,210 612.2222222222222,210 619.3939393939394,210 C626.5656565656566,210 633.7373737373738,210 640.909090909091,210 C648.0808080808082,210 655.2525252525253,210 662.4242424242425,200 C669.5959595959596,190.00000000000006 676.7676767676768,120 683.9393939393939,80 L683.9393939393939,350 L60,350 Z" fill="#dfb317" fill-opacity="0.1" />
  
  
  <path d="M60,350 L60,340 C67.17171717171718,340 74.34343434343434,340 81.51515151515152,340 C88.68686868686869,340 95.85858585858585,340 103.03030303030303,340 C110.20202020202021,340 117.37373737373737,340 124.54545454545455,340 C131.7171717171717,340 138.88888888888889,340 146.06060606060606,340 C153.23232323232324,340 160.4040404040404,340 167.57575757575756,340 C174.74747474747474,340 181.91919191919192,340 189.0909090909091,340 C196.26262626262627,340 203.43434343434345,330 210.60606060606062,330 C217.7777777777778,330 224.94949494949495,330 232.12121212121212,330 C239.2929292929293,330 246.46464646464645,330 253.63636363636363,330 C260.8080808080808,330 267.979797979798,323.3333333333333 275.1515151515151,320 C282.3232323232323,316.6666666666667 289.4949494949495,310 296.66666666666663,310 C303.83838383838383,310 311.010101010101,310 318.1818181818182,310 C325.35353535353534,310 332.52525252525254,310 339.6969696969697,310 C346.8686868686869,310 354.04040404040404,278.3333333333333 361.21212121212125,270 C368.3838383838384,261.6666666666667 375.55555555555554,260 382.7272727272727,260 C389.8989898989899,260 397.07070707070704,260 404.24242424242425,260 C411.4141414141414,260 418.5858585858586,260 425.75757575757575,260 C432.9292929292929,260 440.1010101010101,260 447.27272727272725,260 C454.44444444444446,260 461.6161616161616,250 468.7878787878788,250 C475.95959595959596,250 483.13131313131316,250 490.3030303030303,250 C497.47474747474746,250 504.64646464646466,250 511.8181818181818,250 C518.989898989899,250 526.1616161616162,235 533.3333333333333,230 C540.5050505050505,224.99999999999997 547.6767676767677,220 554.8484848484849,220 C562.0202020202021,220 569.1919191919192,220 576.3636363636364,220 C583.5353535353536,220 590.7070707070707,210 597.8787878787879,210 C605.0505050505051,210 612.2222222222222,210 619.3939393939394,210 C626.5656565656566,210 633.7373737373738,210 640.909090909091,210 C648.0808080808082,210 655.2525252525253,210 662.4242424242425,200 C669.5959595959596,190.00000000000006 676.7676767676768,120 683.9393939393939,80" fill="none" stroke="#dfb317" stroke-width="2.5" class="data-line-0" />
  <path d="M683.9393939393939,80 C691.1111111111111,80 698.2828282828282,80 705.4545454545454,80 C712.6262626262626,80 719.7979797979798,80 726.969696969697,80 C734.1414141414142,80 741.3131313131313,80 748.4848484848485,80 C755.6565656565657,80 762.8282828282828,80 770,80" fill="none" stroke="#28a745" stroke-width="2.5" stroke-dasharray="8,4" />
  <path d="M683.9393939393939,80 C691.1111111111111,80 698.2828282828282,80 705.4545454545454,80 C712.6262626262626,80 719.7979797979798,80 726.969696969697,80 C734.1414141414142,80 741.3131313131313,80 748.4848484848485,80 C755.6565656565657,80 762.8282828282828,80 770,80" fill="none" stroke="#d73a49" stroke-width="2.5" stroke-dasharray="8,4" />
  <g class="points">
    
    <circle cx="60" cy="340" r="4" fill="#dfb317" class="data-point" style="animation-delay: 1.50s" />
    <circle cx="81.51515151515152" cy="340" r="4" fill="#dfb317" class="data-point" style="animation-delay: 1.55s" />
    <circle cx="103.03030303030303" cy="340" r="4" fill="#dfb317" class="data-point" style="animation-delay: 1.60s" />
    <circle cx="124.54545454545455" cy="340" r="4" fill="#dfb317" class="data-point" style="animation-delay: 1.65s" />
    <circle cx="146.06060606060606" cy="340" r="4" fill="#dfb317" class="data-point" style="animation-delay: 1.70s" />
    <circle cx="167.57575757575756" cy="340" r="4" fill="#dfb317" class="data-point" style="animation-delay: 1.75s" />
    <circle cx="189.0909090909091" cy="340" r="4" fill="#dfb317" class="data-point" style="animation-delay: 1.80s" />
    <circle cx="210.60606060606062" cy="330" r="4" fill="#dfb317" class="data-point" style="animation-delay: 1.85s" />
    <circle cx="232.12121212121212" cy="330" r="4" fill="#dfb317" class="data-point" style="animation-delay: 1.90s" />
    <circle cx="253.63636363636363" cy="330" r="4" fill="#dfb317" class="data-point" style="animation-delay: 1.95s" />
    <circle cx="275.1515151515151" cy="320" r="4" fill="#dfb317" class="data-point" style="animation-delay: 2.00s" />
    <circle cx="296.66666666666663" cy="310" r="4" fill="#dfb317" class="data-point" style="animation-delay: 2.05s" />
    <circle cx="318.1818181818182" cy="310" r="4" fill="#dfb317" class="data-point" style="animation-delay: 2.10s" />
    <circle cx="339.6969696969697" cy="310" r="4" fill="#dfb317" class="data-point" style="animation-delay: 2.15s" />
    <circle cx="361.21212121212125" cy="270" r="4" fill="#dfb317" class="data-point" style="animation-delay: 2.20s" />
    <circle cx="382.7272727272727" cy="260" r="4" fill="#dfb317" class="data-point" style="animation-delay: 2.25s" />
    <circle cx="404.24242424242425" cy="260" r="4" fill="#dfb317" class="data-point" style="animation-delay: 2.30s" />
    <circle cx="425.75757575757575" cy="260" r="4" fill="#dfb317" class="data-point" style="animation-delay: 2.35s" />
    <circle cx="447.27272727272725" cy="260" r="4" fill="#dfb317" class="data-point" style="animation-delay: 2.40s" />
    <circle cx="468.7878787878788" cy="250" r="4" fill="#dfb317" class="data-point" style="animation-delay: 2.45s" />
    <circle cx="490.3030303030303" cy="250" r="4" fill="#dfb317" class="data-point" style="animation-delay: 2.50s" />
    <circle cx="511.8181818181818" cy="250" r="4" fill="#dfb317" class="data-point" style="animation-delay: 2.55s" />
    <circle cx="533.3333333333333" cy="230" r="4" fill="#dfb317" class="data-point" style="animation-delay: 2.60s" />
    <circle cx="554.8484848484849" cy="220" r="4" fill="#dfb317" class="data-point" style="animation-delay: 2.65s" />
    <circle cx="576.3636363636364" cy="220" r="4" fill="#dfb317" class="data-point" style="animation-delay: 2.70s" />
    <circle cx="597.8787878787879" cy="210" r="4" fill="#dfb317" class="data-point" style="animation-delay: 2.75s" />
    <circle cx="619.3939393939394" cy="210" r="4" fill="#dfb317" class="data-point" style="animation-delay: 2.80s" />
    <circle cx="640.909090909091" cy="210" r="4" fill="#dfb317" class="data-point" style="animation-delay: 2.85s" />
    <circle cx="662.4242424242425" cy="200" r="4" fill="#dfb317" class="data-point" style="animation-delay: 2.90s" />
    <circle cx="683.9393939393939" cy="80" r="4" fill="#dfb317" class="data-point" style="animation-delay: 2.95s" />
  </g>
</svg>