<svg xmlns="http://www.w3.org/2000/svg" viewBox="0 0 800 400" width="800" height="400">
  <style>
    @keyframes drawLine {
      to { stroke-dashoffset: 0; }
    }
    @keyframes fadeInPoint {
      from { opacity: 0; }
      to { opacity: 1; }
    }
    .data-line-0 {
      stroke-dasharray: 1517;
      stroke-dashoffset: 1517;
      animation: drawLine 2s ease-out forwards;
    }
    .data-point {
      opacity: 0;
      animation: fadeInPoint 0.5s ease-out forwards;
    }
    .chart-bg { fill: #fff; }
    .chart-text { fill: #24292e; }
    .chart-muted { fill: #6a737d; }
    .chart-grid { stroke: #eee; }
    .chart-axis { stroke: #6a737d; }
    @media (prefers-color-scheme: dark) {
      .chart-bg { fill: #0d1117; }
      .chart-text { fill: #e6edf3; }
      .chart-muted { fill: #8b949e; }
      .chart-grid { stroke: #21262d; }
      .chart-axis { stroke: #8b949e; }
    }
  </style>
  <rect width="800" height="400" class="chart-bg" />
  <text x="400" y="14" text-anchor="middle" class="chart-text" font-size="16" font-weight="bold" font-family="-apple-system, BlinkMacSystemFont, 'Segoe UI', Helvetica, Arial, sans-serif">Growth Forecast</text>
  <g class="legend">
    <rect x="220" y="25" width="12" height="3" fill="#dfb317" />
    <line x1="220" y1="26.5" x2="232" y2="26.5" stroke="#dfb317" stroke-width="2" />
    <text x="236" y="30" class="chart-text" font-size="10" font-family="-apple-system, BlinkMacSystemFont, 'Segoe UI', Helvetica, Arial, sans-serif">Star History</text>
    <rect x="340" y="25" width="12" height="3" fill="#28a745" rx="1" />
    <line x1="340" y1="26.5" x2="352" y2="26.5" stroke="#28a745" stroke-width="2" stroke-dasharray="4,2" />
    <text x="356" y="30" class="chart-text" font-size="10" font-family="-apple-system, BlinkMacSystemFont, 'Segoe UI', Helvetica, Arial, sans-serif">Linear Regression</text>
    <rect x="460" y="25" width="12" height="3" fill="#d73a49" rx="1" />
    <line x1="460" y1="26.5" x2="472" y2="26.5" stroke="#d73a49" stroke-width="2" stroke-dasharray="4,2" />
    <text x="476" y="30" class="chart-text" font-size="10" font-family="-apple-system, BlinkMacSystemFont, 'Segoe UI', Helvetica, Arial, sans-serif">Weighted Moving Average</text>
  </g>
  <g class="grid">
    <line x1="60" y1="350" x2="770" y2="350" class="chart-grid" stroke-opacity="0.3" />
    <text x="52" y="354" text-anchor="end" class="chart-muted" font-size="11" font-family="-apple-system, BlinkMacSystemFont, 'Segoe UI', Helvetica, Arial, sans-serif">0</text>
    <line x1="60" y1="274.74224217946465" x2="770" y2="274.74224217946465" class="chart-grid" stroke-opacity="0.3" />
    <text x="52" y="278.74224217946465" text-anchor="end" class="chart-muted" font-size="11" font-family="-apple-system, BlinkMacSystemFont, 'Segoe UI', Helvetica, Arial, sans-serif">10,000</text>
    <line x1="60" y1="199.48448435892934" x2="770" y2="199.48448435892934" class="chart-grid" stroke-opacity="0.3" />
    <text x="52" y="203.48448435892934" text-anchor="end" class="chart-muted" font-size="11" font-family="-apple-system, BlinkMacSystemFont, 'Segoe UI', Helvetica, Arial, sans-serif">20,000</text>
    <line x1="60" y1="124.22672653839402" x2="770" y2="124.22672653839402" class="chart-grid" stroke-opacity="0.3" />
    <text x="52" y="128.22672653839402" text-anchor="end" class="chart-muted" font-size="11" font-family="-apple-system, BlinkMacSystemFont, 'Segoe UI', Helvetica, Arial, sans-serif">30,000</text>
    <line x1="60" y1="48.96896871785867" x2="770" y2="48.96896871785867" class="chart-grid" stroke-opacity="0.3" />
    <text x="52" y="52.96896871785867" text-anchor="end" class="chart-muted" font-size="11" font-family="-apple-system, BlinkMacSystemFont, 'Segoe UI', Helvetica, Arial, sans-serif">40,000</text>
  </g>
  <g class="milestones">
    
  </g>
  <g class="x-axis">
    <text x="60" y="370" text-anchor="middle" class="chart-muted" font-size="11" font-family="-apple-system, BlinkMacSystemFont, 'Segoe UI', Helvetica, Arial, sans-serif">Feb 13</text>
    <text x="143.52941176470588" y="370" text-anchor="middle" class="chart-muted" font-size="11" font-family="-apple-system, BlinkMacSystemFont, 'Segoe UI', Helvetica, Arial, sans-serif">Feb 13</text>
    <text x="227.05882352941177" y="370" text-anchor="middle" class="chart-muted" font-size="11" font-family="-apple-system, BlinkMacSystemFont, 'Segoe UI', Helvetica, Arial, sans-serif">Feb 13</text>
    <text x="310.5882352941177" y="370" text-anchor="middle" class="chart-muted" font-size="11" font-family="-apple-system, BlinkMacSystemFont, 'Segoe UI', Helvetica, Arial, sans-serif">Feb 13</text>
    <text x="394.11764705882354" y="370" text-anchor="middle" class="chart-muted" font-size="11" font-family="-apple-system, BlinkMacSystemFont, 'Segoe UI', Helvetica, Arial, sans-serif">Feb 14</text>
    <text x="477.64705882352945" y="370" text-anchor="middle" class="chart-muted" font-size="11" font-family="-apple-system, BlinkMacSystemFont, 'Segoe UI', Helvetica, Arial, sans-serif">Feb 15</text>
    <text x="561.1764705882354" y="370" text-anchor="middle" class="chart-muted" font-size="11" font-family="-apple-system, BlinkMacSystemFont, 'Segoe UI', Helvetica, Arial, sans-serif">Feb 15</text>
    <text x="644.7058823529411" y="370" text-anchor="middle" class="chart-muted" font-size="11" font-family="-apple-system, BlinkMacSystemFont, 'Segoe UI', Helvetica, Arial, sans-serif">Week 1</text>
    <text x="728.2352941176471" y="370" text-anchor="middle" class="chart-muted" font-size="11" font-family="-apple-system, BlinkMacSystemFont, 'Segoe UI', Helvetica, Arial, sans-serif">Week 3</text>
    <text x="770" y="370" text-anchor="middle" class="chart-muted" font-size="11" font-family="-apple-system, BlinkMacSystemFont, 'Segoe UI', Helvetica, Arial, sans-serif">Week 4</text>
  </g>
  <line x1="60" y1="50" x2="60" y2="350" class="chart-axis" stroke-width="1" />
  <line x1="60" y1="350" x2="770" y2="350" class="chart-axis" stroke-width="1" />
  <path d="M60,349.87958758748715 C65.56862745098039,349.87958758748715 90.62745098039215,349.87958758748715 101.76470588235294,349.87958758748715 C112.90196078431373,349.87958758748715 132.39215686274508,349.87958758748715 143.52941176470588,349.87958758748715 C154.66666666666669,349.87958758748715 174.15686274509807,349.87958758748715 185.29411764705884,349.87958758748715 C196.4313725490196,349.87958758748715 215.92156862745097,349.87958758748715 227.05882352941177,349.87958758748715 C238.19607843137257,349.87958758748715 257.686274509804,349.87958758748715 268.82352941176475,349.87958758748715 C279.9607843137255,349.87958758748715 299.4509803921569,386.2270777412638 310.5882352941177,349.87958758748715 C321.72549019607845,313.5320974337105 341.2156862745098,77.27341143416203 352.35294117647055,77.27341143416203 C363.4901960784313,77.27341143416203 382.98039215686276,313.5320974337105 394.11764705882354,349.87958758748715 C405.2549019607843,386.2270777412638 424.7450980392157,349.87958758748715 435.88235294117646,349.87958758748715 C447.01960784313724,349.87958758748715 466.5098039215687,349.8775807139453 477.64705882352945,349.87958758748715 C488.7843137254902,349.881594461029 508.27450980392166,349.8926322655094 519.4117647058824,349.89463913905126 C530.5490196078432,349.8966460125931 550.0392156862746,349.8956425758222 561.1764705882354,349.89463913905126 C572.3137254901961,349.89363570228033 597.3725490196078,349.8881168000401 602.9411764705882,349.8871133632692 L602.9411764705882,350 L60,350 Z" fill="#dfb317" fill-opacity="0.1" />
  
  
  <path d="M60,349.87958758748715 C65.56862745098039,349.87958758748715 90.62745098039215,349.87958758748715 101.76470588235294,349.87958758748715 C112.90196078431373,349.87958758748715 132.39215686274508,349.87958758748715 143.52941176470588,349.87958758748715 C154.66666666666669,349.87958758748715 174.15686274509807,349.87958758748715 185.29411764705884,349.87958758748715 C196.4313725490196,349.87958758748715 215.92156862745097,349.87958758748715 227.05882352941177,349.87958758748715 C238.19607843137257,349.87958758748715 257.686274509804,349.87958758748715 268.82352941176475,349.87958758748715 C279.9607843137255,349.87958758748715 299.4509803921569,386.2270777412638 310.5882352941177,349.87958758748715 C321.72549019607845,313.5320974337105 341.2156862745098,77.27341143416203 352.35294117647055,77.27341143416203 C363.4901960784313,77.27341143416203 382.98039215686276,313.5320974337105 394.11764705882354,349.87958758748715 C405.2549019607843,386.2270777412638 424.7450980392157,349.87958758748715 435.88235294117646,349.87958758748715 C447.01960784313724,349.87958758748715 466.5098039215687,349.8775807139453 477.64705882352945,349.87958758748715 C488.7843137254902,349.881594461029 508.27450980392166,349.8926322655094 519.4117647058824,349.89463913905126 C530.5490196078432,349.8966460125931 550.0392156862746,349.8956425758222 561.1764705882354,349.89463913905126 C572.3137254901961,349.89363570228033 597.3725490196078,349.8881168000401 602.9411764705882,349.8871133632692" fill="none" stroke="#dfb317" stroke-width="2.5" class="data-line-0" />
  <path d="M602.9411764705882,349.8871133632692 C608.5098039215686,346.6921706845947 633.5686274509803,329.2002608935604 644.7058823529411,325.92504327321075 C655.8431372549019,322.64982565286107 675.3333333333334,325.482527657226 686.4705882352941,325.32298121064645 C697.6078431372549,325.1634347640669 717.0980392156863,324.8879913704438 728.2352941176471,324.72844492386423 C739.3725490196078,324.5688984772847 764.4313725490196,324.20665780297514 770,324.12638286129993" fill="none" stroke="#28a745" stroke-width="2.5" stroke-dasharray="8,4" />
  <path d="M602.9411764705882,349.8871133632692 C608.5098039215686,349.9021649148333 633.5686274509803,349.9849484484359 644.7058823529411,350 C655.8431372549019,350.0150515515641 675.3333333333334,350 686.4705882352941,350 C697.6078431372549,350 717.0980392156863,350 728.2352941176471,350 C739.3725490196078,350 764.4313725490196,350 770,350" fill="none" stroke="#d73a49" stroke-width="2.5" stroke-dasharray="8,4" />
  <g class="points">
    
    <circle cx="60" cy="349.87958758748715" r="4" fill="#dfb317" class="data-point" style="animation-delay: 1.50s" />
    <circle cx="101.76470588235294" cy="349.87958758748715" r="4" fill="#dfb317" class="data-point" style="animation-delay: 1.55s" />
    <circle cx="143.52941176470588" cy="349.87958758748715" r="4" fill="#dfb317" class="data-point" style="animation-delay: 1.60s" />
    <circle cx="185.29411764705884" cy="349.87958758748715" r="4" fill="#dfb317" class="data-point" style="animation-delay: 1.65s" />
    <circle cx="227.05882352941177" cy="349.87958758748715" r="4" fill="#dfb317" class="data-point" style="animation-delay: 1.70s" />
    <circle cx="268.82352941176475" cy="349.87958758748715" r="4" fill="#dfb317" class="data-point" style="animation-delay: 1.75s" />
    <circle cx="310.5882352941177" cy="349.87958758748715" r="4" fill="#dfb317" class="data-point" style="animation-delay: 1.80s" />
    <circle cx="352.35294117647055" cy="77.27341143416203" r="4" fill="#dfb317" class="data-point" style="animation-delay: 1.85s" />
    <circle cx="394.11764705882354" cy="349.87958758748715" r="4" fill="#dfb317" class="data-point" style="animation-delay: 1.90s" />
    <circle cx="435.88235294117646" cy="349.87958758748715" r="4" fill="#dfb317" class="data-point" style="animation-delay: 1.95s" />
    <circle cx="477.64705882352945" cy="349.87958758748715" r="4" fill="#dfb317" class="data-point" style="animation-delay: 2.00s" />
    <circle cx="519.4117647058824" cy="349.89463913905126" r="4" fill="#dfb317" class="data-point" style="animation-delay: 2.05s" />
    <circle cx="561.1764705882354" cy="349.89463913905126" r="4" fill="#dfb317" class="data-point" style="animation-delay: 2.10s" />
    <circle cx="602.9411764705882" cy="349.8871133632692" r="4" fill="#dfb317" class="data-point" style="animation-delay: 2.15s" />
  </g>
</svg>