<svg xmlns="http://www.w3.org/2000/svg" viewBox="0 0 800 400" width="800" height="400">
  <style>
    @keyframes drawLine {
      to { stroke-dashoffset: 0; }
    }
    @keyframes fadeInPoint {
      from { opacity: 0; }
      to { opacity: 1; }
    }
    .data-line-0 {
      stroke-dasharray: 1585;
      stroke-dashoffset: 1585;
      animation: drawLine 2s ease-out forwards;
    }
    .data-point {
      opacity: 0;
      animation: fadeInPoint 0.5s ease-out forwards;
    }
    .chart-bg { fill: #fff; }
    .chart-text { fill: #24292e; }
    .chart-muted { fill: #6a737d; }
    .chart-grid { stroke: #eee; }
    .chart-axis { stroke: #6a737d; }
    @media (prefers-color-scheme: dark) {
      .chart-bg { fill: #0d1117; }
      .chart-text { fill: #e6edf3; }
      .chart-muted { fill: #8b949e; }
      .chart-grid { stroke: #21262d; }
      .chart-axis { stroke: #8b949e; }
    }
  </style>
  <rect width="800" height="400" class="chart-bg" />
  <text x="400" y="14" text-anchor="middle" class="chart-text" font-size="16" font-weight="bold" font-family="-apple-system, BlinkMacSystemFont, 'Segoe UI', Helvetica, Arial, sans-serif">Growth Forecast</text>
  <g class="legend">
    <rect x="220" y="25" width="12" height="3" fill="#dfb317" />
    <line x1="220" y1="26.5" x2="232" y2="26.5" stroke="#dfb317" stroke-width="2" />
    <text x="236" y="30" class="chart-text" font-size="10" font-family="-apple-system, BlinkMacSystemFont, 'Segoe UI', Helvetica, Arial, sans-serif">Star History</text>
    <rect x="340" y="25" width="12" height="3" fill="#28a745" rx="1" />
    <line x1="340" y1="26.5" x2="352" y2="26.5" stroke="#28a745" stroke-width="2" stroke-dasharray="4,2" />
    <text x="356" y="30" class="chart-text" font-size="10" font-family="-apple-system, BlinkMacSystemFont, 'Segoe UI', Helvetica, Arial, sans-serif">Linear Regression</text>
    <rect x="460" y="25" width="12" height="3" fill="#d73a49" rx="1" />
    <line x1="460" y1="26.5" x2="472" y2="26.5" stroke="#d73a49" stroke-width="2" stroke-dasharray="4,2" />
    <text x="476" y="30" class="chart-text" font-size="10" font-family="-apple-system, BlinkMacSystemFont, 'Segoe UI', Helvetica, Arial, sans-serif">Weighted Moving Average</text>
  </g>
  <g class="grid">
    <line x1="60" y1="350" x2="770" y2="350" class="chart-grid" stroke-opacity="0.3" />
    <text x="52" y="354" text-anchor="end" class="chart-muted" font-size="11" font-family="-apple-system, BlinkMacSystemFont, 'Segoe UI', Helvetica, Arial, sans-serif">0</text>
    <line x1="60" y1="274.74224217946465" x2="770" y2="274.74224217946465" class="chart-grid" stroke-opacity="0.3" />
    <text x="52" y="278.74224217946465" text-anchor="end" class="chart-muted" font-size="11" font-family="-apple-system, BlinkMacSystemFont, 'Segoe UI', Helvetica, Arial, sans-serif">10,000</text>
    <line x1="60" y1="199.48448435892934" x2="770" y2="199.48448435892934" class="chart-grid" stroke-opacity="0.3" />
    <text x="52" y="203.48448435892934" text-anchor="end" class="chart-muted" font-size="11" font-family="-apple-system, BlinkMacSystemFont, 'Segoe UI', Helvetica, Arial, sans-serif">20,000</text>
    <line x1="60" y1="124.22672653839402" x2="770" y2="124.22672653839402" class="chart-grid" stroke-opacity="0.3" />
    <text x="52" y="128.22672653839402" text-anchor="end" class="chart-muted" font-size="11" font-family="-apple-system, BlinkMacSystemFont, 'Segoe UI', Helvetica, Arial, sans-serif">30,000</text>
    <line x1="60" y1="48.96896871785867" x2="770" y2="48.96896871785867" class="chart-grid" stroke-opacity="0.3" />
    <text x="52" y="52.96896871785867" text-anchor="end" class="chart-muted" font-size="11" font-family="-apple-system, BlinkMacSystemFont, 'Segoe UI', Helvetica, Arial, sans-serif">40,000</text>
  </g>
  <g class="milestones">
    
  </g>
  <g class="x-axis">
    <text x="60" y="370" text-anchor="middle" class="chart-muted" font-size="11" font-family="-apple-system, BlinkMacSystemFont, 'Segoe UI', Helvetica, Arial, sans-serif">Feb 13</text>
    <text x="161.42857142857142" y="370" text-anchor="middle" class="chart-muted" font-size="11" font-family="-apple-system, BlinkMacSystemFont, 'Segoe UI', Helvetica, Arial, sans-serif">Feb 13</text>
    <text x="262.85714285714283" y="370" text-anchor="middle" class="chart-muted" font-size="11" font-family="-apple-system, BlinkMacSystemFont, 'Segoe UI', Helvetica, Arial, sans-serif">Feb 13</text>
    <text x="364.2857142857143" y="370" text-anchor="middle" class="chart-muted" font-size="11" font-family="-apple-system, BlinkMacSystemFont, 'Segoe UI', Helvetica, Arial, sans-serif">Feb 14</text>
    <text x="465.71428571428567" y="370" text-anchor="middle" class="chart-muted" font-size="11" font-family="-apple-system, BlinkMacSystemFont, 'Segoe UI', Helvetica, Arial, sans-serif">Feb 15</text>
    <text x="567.1428571428571" y="370" text-anchor="middle" class="chart-muted" font-size="11" font-family="-apple-system, BlinkMacSystemFont, 'Segoe UI', Helvetica, Arial, sans-serif">Mar 8</text>
    <text x="668.5714285714286" y="370" text-anchor="middle" class="chart-muted" font-size="11" font-family="-apple-system, BlinkMacSystemFont, 'Segoe UI', Helvetica, Arial, sans-serif">Week 1</text>
    <text x="770" y="370" text-anchor="middle" class="chart-muted" font-size="11" font-family="-apple-system, BlinkMacSystemFont, 'Segoe UI', Helvetica, Arial, sans-serif">Week 4</text>
  </g>
  <line x1="60" y1="50" x2="60" y2="350" class="chart-axis" stroke-width="1" />
  <line x1="60" y1="350" x2="770" y2="350" class="chart-axis" stroke-width="1" />
  <path d="M60,349.87958758748715 C64.5079365079365,349.87958758748715 84.7936507936508,349.87958758748715 93.80952380952381,349.87958758748715 C102.82539682539682,349.87958758748715 118.60317460317461,349.87958758748715 127.61904761904762,349.87958758748715 C136.63492063492063,349.87958758748715 152.4126984126984,349.87958758748715 161.42857142857142,349.87958758748715 C170.44444444444443,349.87958758748715 186.22222222222223,349.87958758748715 195.23809523809524,349.87958758748715 C204.25396825396825,349.87958758748715 220.03174603174602,349.87958758748715 229.04761904761904,349.87958758748715 C238.06349206349205,349.87958758748715 253.84126984126982,386.2270777412638 262.85714285714283,349.87958758748715 C271.87301587301585,313.5320974337105 287.6507936507936,77.27341143416203 296.66666666666663,77.27341143416203 C305.68253968253964,77.27341143416203 321.46031746031747,313.5320974337105 330.4761904761905,349.87958758748715 C339.4920634920635,386.2270777412638 355.26984126984127,349.87958758748715 364.2857142857143,349.87958758748715 C373.3015873015873,349.87958758748715 389.07936507936506,349.8775807139453 398.0952380952381,349.87958758748715 C407.1111111111111,349.881594461029 422.8888888888889,349.8926322655094 431.9047619047619,349.89463913905126 C440.92063492063494,349.8966460125931 456.69841269841265,349.8956425758222 465.71428571428567,349.89463913905126 C474.7301587301587,349.89363570228033 490.5079365079365,349.8871133632692 499.5238095238095,349.8871133632692 C508.53968253968253,349.8871133632692 524.3174603174602,349.89363570228033 533.3333333333333,349.89463913905126 C542.3492063492063,349.8956425758222 558.1269841269841,349.89463913905126 567.1428571428571,349.89463913905126 C576.1587301587301,349.89463913905126 591.936507936508,349.89463913905126 600.952380952381,349.89463913905126 C609.968253968254,349.89463913905126 630.2539682539683,349.89463913905126 634.7619047619048,349.89463913905126 L634.7619047619048,350 L60,350 Z" fill="#dfb317" fill-opacity="0.1" />
  
  
  <path d="M60,349.87958758748715 C64.5079365079365,349.87958758748715 84.7936507936508,349.87958758748715 93.80952380952381,349.87958758748715 C102.82539682539682,349.87958758748715 118.60317460317461,349.87958758748715 127.61904761904762,349.87958758748715 C136.63492063492063,349.87958758748715 152.4126984126984,349.87958758748715 161.42857142857142,349.87958758748715 C170.44444444444443,349.87958758748715 186.22222222222223,349.87958758748715 195.23809523809524,349.87958758748715 C204.25396825396825,349.87958758748715 220.03174603174602,349.87958758748715 229.04761904761904,349.87958758748715 C238.06349206349205,349.87958758748715 253.84126984126982,386.2270777412638 262.85714285714283,349.87958758748715 C271.87301587301585,313.5320974337105 287.6507936507936,77.27341143416203 296.66666666666663,77.27341143416203 C305.68253968253964,77.27341143416203 321.46031746031747,313.5320974337105 330.4761904761905,349.87958758748715 C339.4920634920635,386.2270777412638 355.26984126984127,349.87958758748715 364.2857142857143,349.87958758748715 C373.3015873015873,349.87958758748715 389.07936507936506,349.8775807139453 398.0952380952381,349.87958758748715 C407.1111111111111,349.881594461029 422.8888888888889,349.8926322655094 431.9047619047619,349.89463913905126 C440.92063492063494,349.8966460125931 456.69841269841265,349.8956425758222 465.71428571428567,349.89463913905126 C474.7301587301587,349.89363570228033 490.5079365079365,349.8871133632692 499.5238095238095,349.8871133632692 C508.53968253968253,349.8871133632692 524.3174603174602,349.89363570228033 533.3333333333333,349.89463913905126 C542.3492063492063,349.8956425758222 558.1269841269841,349.89463913905126 567.1428571428571,349.89463913905126 C576.1587301587301,349.89463913905126 591.936507936508,349.89463913905126 600.952380952381,349.89463913905126 C609.968253968254,349.89463913905126 630.2539682539683,349.89463913905126 634.7619047619048,349.89463913905126" fill="none" stroke="#dfb317" stroke-width="2.5" class="data-line-0" />
  <path d="M634.7619047619048,349.89463913905126 C639.2698412698413,348.9443845169706 659.5555555555555,343.60559917718183 668.5714285714286,342.76772947344654 C677.5873015873016,341.92985976971124 693.3650793650794,343.38484308757495 702.3809523809524,343.61061636103653 C711.3968253968254,343.8363896344981 727.1746031746031,344.23525575094703 736.1904761904761,344.4610290244086 C745.2063492063492,344.6868022978702 765.4920634920635,345.19153099365326 770,345.3039159119986" fill="none" stroke="#28a745" stroke-width="2.5" stroke-dasharray="8,4" />
  <path d="M634.7619047619048,349.89463913905126 C639.2698412698413,349.90868725384445 659.5555555555555,349.9859518852068 668.5714285714286,350 C677.5873015873016,350.0140481147932 693.3650793650794,350 702.3809523809524,350 C711.3968253968254,350 727.1746031746031,350 736.1904761904761,350 C745.2063492063492,350 765.4920634920635,350 770,350" fill="none" stroke="#d73a49" stroke-width="2.5" stroke-dasharray="8,4" />
  <g class="points">
    
    <circle cx="60" cy="349.87958758748715" r="4" fill="#dfb317" class="data-point" style="animation-delay: 1.50s" />
    <circle cx="93.80952380952381" cy="349.87958758748715" r="4" fill="#dfb317" class="data-point" style="animation-delay: 1.55s" />
    <circle cx="127.61904761904762" cy="349.87958758748715" r="4" fill="#dfb317" class="data-point" style="animation-delay: 1.60s" />
    <circle cx="161.42857142857142" cy="349.87958758748715" r="4" fill="#dfb317" class="data-point" style="animation-delay: 1.65s" />
    <circle cx="195.23809523809524" cy="349.87958758748715" r="4" fill="#dfb317" class="data-point" style="animation-delay: 1.70s" />
    <circle cx="229.04761904761904" cy="349.87958758748715" r="4" fill="#dfb317" class="data-point" style="animation-delay: 1.75s" />
    <circle cx="262.85714285714283" cy="349.87958758748715" r="4" fill="#dfb317" class="data-point" style="animation-delay: 1.80s" />
    <circle cx="296.66666666666663" cy="77.27341143416203" r="4" fill="#dfb317" class="data-point" style="animation-delay: 1.85s" />
    <circle cx="330.4761904761905" cy="349.87958758748715" r="4" fill="#dfb317" class="data-point" style="animation-delay: 1.90s" />
    <circle cx="364.2857142857143" cy="349.87958758748715" r="4" fill="#dfb317" class="data-point" style="animation-delay: 1.95s" />
    <circle cx="398.0952380952381" cy="349.87958758748715" r="4" fill="#dfb317" class="data-point" style="animation-delay: 2.00s" />
    <circle cx="431.9047619047619" cy="349.89463913905126" r="4" fill="#dfb317" class="data-point" style="animation-delay: 2.05s" />
    <circle cx="465.71428571428567" cy="349.89463913905126" r="4" fill="#dfb317" class="data-point" style="animation-delay: 2.10s" />
    <circle cx="499.5238095238095" cy="349.8871133632692" r="4" fill="#dfb317" class="data-point" style="animation-delay: 2.15s" />
    <circle cx="533.3333333333333" cy="349.89463913905126" r="4" fill="#dfb317" class="data-point" style="animation-delay: 2.20s" />
    <circle cx="567.1428571428571" cy="349.89463913905126" r="4" fill="#dfb317" class="data-point" style="animation-delay: 2.25s" />
    <circle cx="600.952380952381" cy="349.89463913905126" r="4" fill="#dfb317" class="data-point" style="animation-delay: 2.30s" />
    <circle cx="634.7619047619048" cy="349.89463913905126" r="4" fill="#dfb317" class="data-point" style="animation-delay: 2.35s" />
  </g>
</svg>