<svg xmlns="http://www.w3.org/2000/svg" viewBox="0 0 800 400" width="800" height="400">
  <style>
    @keyframes drawLine {
      to { stroke-dashoffset: 0; }
    }
    @keyframes fadeInPoint {
      from { opacity: 0; }
      to { opacity: 1; }
    }
    .data-line-0 {
      stroke-dasharray: 1537;
      stroke-dashoffset: 1537;
      animation: drawLine 2s ease-out forwards;
    }
    .data-point {
      opacity: 0;
      animation: fadeInPoint 0.5s ease-out forwards;
    }
    .chart-bg { fill: #fff; }
    .chart-text { fill: #24292e; }
    .chart-muted { fill: #6a737d; }
    .chart-grid { stroke: #eee; }
    .chart-axis { stroke: #6a737d; }
    @media (prefers-color-scheme: dark) {
      .chart-bg { fill: #0d1117; }
      .chart-text { fill: #e6edf3; }
      .chart-muted { fill: #8b949e; }
      .chart-grid { stroke: #21262d; }
      .chart-axis { stroke: #8b949e; }
    }
  </style>
  <rect width="800" height="400" class="chart-bg" />
  <text x="400" y="14" text-anchor="middle" class="chart-text" font-size="16" font-weight="bold" font-family="-apple-system, BlinkMacSystemFont, 'Segoe UI', Helvetica, Arial, sans-serif">Growth Forecast</text>
  <g class="legend">
    <rect x="220" y="25" width="12" height="3" fill="#dfb317" />
    <line x1="220" y1="26.5" x2="232" y2="26.5" stroke="#dfb317" stroke-width="2" />
    <text x="236" y="30" class="chart-text" font-size="10" font-family="-apple-system, BlinkMacSystemFont, 'Segoe UI', Helvetica, Arial, sans-serif">Star History</text>
    <rect x="340" y="25" width="12" height="3" fill="#28a745" rx="1" />
    <line x1="340" y1="26.5" x2="352" y2="26.5" stroke="#28a745" stroke-width="2" stroke-dasharray="4,2" />
    <text x="356" y="30" class="chart-text" font-size="10" font-family="-apple-system, BlinkMacSystemFont, 'Segoe UI', Helvetica, Arial, sans-serif">Linear Regression</text>
    <rect x="460" y="25" width="12" height="3" fill="#d73a49" rx="1" />
    <line x1="460" y1="26.5" x2="472" y2="26.5" stroke="#d73a49" stroke-width="2" stroke-dasharray="4,2" />
    <text x="476" y="30" class="chart-text" font-size="10" font-family="-apple-system, BlinkMacSystemFont, 'Segoe UI', Helvetica, Arial, sans-serif">Weighted Moving Average</text>
  </g>
  <g class="grid">
    <line x1="60" y1="350" x2="770" y2="350" class="chart-grid" stroke-opacity="0.3" />
    <text x="52" y="354" text-anchor="end" class="chart-muted" font-size="11" font-family="-apple-system, BlinkMacSystemFont, 'Segoe UI', Helvetica, Arial, sans-serif">0</text>
    <line x1="60" y1="274.74224217946465" x2="770" y2="274.74224217946465" class="chart-grid" stroke-opacity="0.3" />
    <text x="52" y="278.74224217946465" text-anchor="end" class="chart-muted" font-size="11" font-family="-apple-system, BlinkMacSystemFont, 'Segoe UI', Helvetica, Arial, sans-serif">10,000</text>
    <line x1="60" y1="199.48448435892934" x2="770" y2="199.48448435892934" class="chart-grid" stroke-opacity="0.3" />
    <text x="52" y="203.48448435892934" text-anchor="end" class="chart-muted" font-size="11" font-family="-apple-system, BlinkMacSystemFont, 'Segoe UI', Helvetica, Arial, sans-serif">20,000</text>
    <line x1="60" y1="124.22672653839402" x2="770" y2="124.22672653839402" class="chart-grid" stroke-opacity="0.3" />
    <text x="52" y="128.22672653839402" text-anchor="end" class="chart-muted" font-size="11" font-family="-apple-system, BlinkMacSystemFont, 'Segoe UI', Helvetica, Arial, sans-serif">30,000</text>
    <line x1="60" y1="48.96896871785867" x2="770" y2="48.96896871785867" class="chart-grid" stroke-opacity="0.3" />
    <text x="52" y="52.96896871785867" text-anchor="end" class="chart-muted" font-size="11" font-family="-apple-system, BlinkMacSystemFont, 'Segoe UI', Helvetica, Arial, sans-serif">40,000</text>
  </g>
  <g class="milestones">
    
  </g>
  <g class="x-axis">
    <text x="60" y="370" text-anchor="middle" class="chart-muted" font-size="11" font-family="-apple-system, BlinkMacSystemFont, 'Segoe UI', Helvetica, Arial, sans-serif">Feb 13</text>
    <text x="138.88888888888889" y="370" text-anchor="middle" class="chart-muted" font-size="11" font-family="-apple-system, BlinkMacSystemFont, 'Segoe UI', Helvetica, Arial, sans-serif">Feb 13</text>
    <text x="217.77777777777777" y="370" text-anchor="middle" class="chart-muted" font-size="11" font-family="-apple-system, BlinkMacSystemFont, 'Segoe UI', Helvetica, Arial, sans-serif">Feb 13</text>
    <text x="296.66666666666663" y="370" text-anchor="middle" class="chart-muted" font-size="11" font-family="-apple-system, BlinkMacSystemFont, 'Segoe UI', Helvetica, Arial, sans-serif">Feb 13</text>
    <text x="375.55555555555554" y="370" text-anchor="middle" class="chart-muted" font-size="11" font-family="-apple-system, BlinkMacSystemFont, 'Segoe UI', Helvetica, Arial, sans-serif">Feb 14</text>
    <text x="454.44444444444446" y="370" text-anchor="middle" class="chart-muted" font-size="11" font-family="-apple-system, BlinkMacSystemFont, 'Segoe UI', Helvetica, Arial, sans-serif">Feb 15</text>
    <text x="533.3333333333333" y="370" text-anchor="middle" class="chart-muted" font-size="11" font-family="-apple-system, BlinkMacSystemFont, 'Segoe UI', Helvetica, Arial, sans-serif">Feb 15</text>
    <text x="612.2222222222223" y="370" text-anchor="middle" class="chart-muted" font-size="11" font-family="-apple-system, BlinkMacSystemFont, 'Segoe UI', Helvetica, Arial, sans-serif">Mar 1</text>
    <text x="691.1111111111111" y="370" text-anchor="middle" class="chart-muted" font-size="11" font-family="-apple-system, BlinkMacSystemFont, 'Segoe UI', Helvetica, Arial, sans-serif">Week 2</text>
    <text x="770" y="370" text-anchor="middle" class="chart-muted" font-size="11" font-family="-apple-system, BlinkMacSystemFont, 'Segoe UI', Helvetica, Arial, sans-serif">Week 4</text>
  </g>
  <line x1="60" y1="50" x2="60" y2="350" class="chart-axis" stroke-width="1" />
  <line x1="60" y1="350" x2="770" y2="350" class="chart-axis" stroke-width="1" />
  <path d="M60,349.87958758748715 C65.25925925925927,349.87958758748715 88.92592592592592,349.87958758748715 99.44444444444444,349.87958758748715 C109.96296296296296,349.87958758748715 128.37037037037038,349.87958758748715 138.88888888888889,349.87958758748715 C149.4074074074074,349.87958758748715 167.81481481481478,349.87958758748715 178.33333333333331,349.87958758748715 C188.85185185185185,349.87958758748715 207.25925925925924,349.87958758748715 217.77777777777777,349.87958758748715 C228.2962962962963,349.87958758748715 246.70370370370372,349.87958758748715 257.22222222222223,349.87958758748715 C267.74074074074076,349.87958758748715 286.1481481481481,386.2270777412638 296.66666666666663,349.87958758748715 C307.18518518518516,313.5320974337105 325.5925925925926,77.27341143416203 336.11111111111114,77.27341143416203 C346.6296296296297,77.27341143416203 365.037037037037,313.5320974337105 375.55555555555554,349.87958758748715 C386.0740740740741,386.2270777412638 404.48148148148147,349.87958758748715 415,349.87958758748715 C425.51851851851853,349.87958758748715 443.9259259259259,349.8775807139453 454.44444444444446,349.87958758748715 C464.962962962963,349.881594461029 483.3703703703704,349.8926322655094 493.8888888888889,349.89463913905126 C504.40740740740745,349.8966460125931 522.8148148148148,349.8956425758222 533.3333333333333,349.89463913905126 C543.8518518518517,349.89363570228033 562.2592592592591,349.8871133632692 572.7777777777777,349.8871133632692 C583.2962962962963,349.8871133632692 606.962962962963,349.89363570228033 612.2222222222223,349.89463913905126 L612.2222222222223,350 L60,350 Z" fill="#dfb317" fill-opacity="0.1" />
  
  
  <path d="M60,349.87958758748715 C65.25925925925927,349.87958758748715 88.92592592592592,349.87958758748715 99.44444444444444,349.87958758748715 C109.96296296296296,349.87958758748715 128.37037037037038,349.87958758748715 138.88888888888889,349.87958758748715 C149.4074074074074,349.87958758748715 167.81481481481478,349.87958758748715 178.33333333333331,349.87958758748715 C188.85185185185185,349.87958758748715 207.25925925925924,349.87958758748715 217.77777777777777,349.87958758748715 C228.2962962962963,349.87958758748715 246.70370370370372,349.87958758748715 257.22222222222223,349.87958758748715 C267.74074074074076,349.87958758748715 286.1481481481481,386.2270777412638 296.66666666666663,349.87958758748715 C307.18518518518516,313.5320974337105 325.5925925925926,77.27341143416203 336.11111111111114,77.27341143416203 C346.6296296296297,77.27341143416203 365.037037037037,313.5320974337105 375.55555555555554,349.87958758748715 C386.0740740740741,386.2270777412638 404.48148148148147,349.87958758748715 415,349.87958758748715 C425.51851851851853,349.87958758748715 443.9259259259259,349.8775807139453 454.44444444444446,349.87958758748715 C464.962962962963,349.881594461029 483.3703703703704,349.8926322655094 493.8888888888889,349.89463913905126 C504.40740740740745,349.8966460125931 522.8148148148148,349.8956425758222 533.3333333333333,349.89463913905126 C543.8518518518517,349.89363570228033 562.2592592592591,349.8871133632692 572.7777777777777,349.8871133632692 C583.2962962962963,349.8871133632692 606.962962962963,349.89363570228033 612.2222222222223,349.89463913905126" fill="none" stroke="#dfb317" stroke-width="2.5" class="data-line-0" />
  <path d="M612.2222222222223,349.89463913905126 C617.4814814814815,347.47133933723 641.1481481481483,334.1431904272132 651.6666666666667,331.71989062539194 C662.1851851851852,329.2965908235707 680.5925925925926,331.71989062539194 691.1111111111111,331.71989062539194 C701.6296296296296,331.71989062539194 720.0370370370371,331.71989062539194 730.5555555555555,331.71989062539194 C741.074074074074,331.71989062539194 764.7407407407408,331.71989062539194 770,331.71989062539194" fill="none" stroke="#28a745" stroke-width="2.5" stroke-dasharray="8,4" />
  <path d="M612.2222222222223,349.89463913905126 C617.4814814814815,349.90868725384445 641.1481481481483,349.9859518852068 651.6666666666667,350 C662.1851851851852,350.0140481147932 680.5925925925926,350 691.1111111111111,350 C701.6296296296296,350 720.0370370370371,350 730.5555555555555,350 C741.074074074074,350 764.7407407407408,350 770,350" fill="none" stroke="#d73a49" stroke-width="2.5" stroke-dasharray="8,4" />
  <g class="points">
    
    <circle cx="60" cy="349.87958758748715" r="4" fill="#dfb317" class="data-point" style="animation-delay: 1.50s" />
    <circle cx="99.44444444444444" cy="349.87958758748715" r="4" fill="#dfb317" class="data-point" style="animation-delay: 1.55s" />
    <circle cx="138.88888888888889" cy="349.87958758748715" r="4" fill="#dfb317" class="data-point" style="animation-delay: 1.60s" />
    <circle cx="178.33333333333331" cy="349.87958758748715" r="4" fill="#dfb317" class="data-point" style="animation-delay: 1.65s" />
    <circle cx="217.77777777777777" cy="349.87958758748715" r="4" fill="#dfb317" class="data-point" style="animation-delay: 1.70s" />
    <circle cx="257.22222222222223" cy="349.87958758748715" r="4" fill="#dfb317" class="data-point" style="animation-delay: 1.75s" />
    <circle cx="296.66666666666663" cy="349.87958758748715" r="4" fill="#dfb317" class="data-point" style="animation-delay: 1.80s" />
    <circle cx="336.11111111111114" cy="77.27341143416203" r="4" fill="#dfb317" class="data-point" style="animation-delay: 1.85s" />
    <circle cx="375.55555555555554" cy="349.87958758748715" r="4" fill="#dfb317" class="data-point" style="animation-delay: 1.90s" />
    <circle cx="415" cy="349.87958758748715" r="4" fill="#dfb317" class="data-point" style="animation-delay: 1.95s" />
    <circle cx="454.44444444444446" cy="349.87958758748715" r="4" fill="#dfb317" class="data-point" style="animation-delay: 2.00s" />
    <circle cx="493.8888888888889" cy="349.89463913905126" r="4" fill="#dfb317" class="data-point" style="animation-delay: 2.05s" />
    <circle cx="533.3333333333333" cy="349.89463913905126" r="4" fill="#dfb317" class="data-point" style="animation-delay: 2.10s" />
    <circle cx="572.7777777777777" cy="349.8871133632692" r="4" fill="#dfb317" class="data-point" style="animation-delay: 2.15s" />
    <circle cx="612.2222222222223" cy="349.89463913905126" r="4" fill="#dfb317" class="data-point" style="animation-delay: 2.20s" />
  </g>
</svg>