<svg xmlns="http://www.w3.org/2000/svg" viewBox="0 0 800 400" width="800" height="400">
  <style>
    @keyframes drawLine {
      to { stroke-dashoffset: 0; }
    }
    @keyframes fadeInPoint {
      from { opacity: 0; }
      to { opacity: 1; }
    }
    .data-line-0 {
      stroke-dasharray: 1622;
      stroke-dashoffset: 1622;
      animation: drawLine 2s ease-out forwards;
    }
    .data-point {
      opacity: 0;
      animation: fadeInPoint 0.5s ease-out forwards;
    }
    .chart-bg { fill: #fff; }
    .chart-text { fill: #24292e; }
    .chart-muted { fill: #6a737d; }
    .chart-grid { stroke: #eee; }
    .chart-axis { stroke: #6a737d; }
    @media (prefers-color-scheme: dark) {
      .chart-bg { fill: #0d1117; }
      .chart-text { fill: #e6edf3; }
      .chart-muted { fill: #8b949e; }
      .chart-grid { stroke: #21262d; }
      .chart-axis { stroke: #8b949e; }
    }
  </style>
  <rect width="800" height="400" class="chart-bg" />
  <text x="400" y="14" text-anchor="middle" class="chart-text" font-size="16" font-weight="bold" font-family="-apple-system, BlinkMacSystemFont, 'Segoe UI', Helvetica, Arial, sans-serif">Growth Forecast</text>
  <g class="legend">
    <rect x="220" y="25" width="12" height="3" fill="#dfb317" />
    <line x1="220" y1="26.5" x2="232" y2="26.5" stroke="#dfb317" stroke-width="2" />
    <text x="236" y="30" class="chart-text" font-size="10" font-family="-apple-system, BlinkMacSystemFont, 'Segoe UI', Helvetica, Arial, sans-serif">Star History</text>
    <rect x="340" y="25" width="12" height="3" fill="#28a745" rx="1" />
    <line x1="340" y1="26.5" x2="352" y2="26.5" stroke="#28a745" stroke-width="2" stroke-dasharray="4,2" />
    <text x="356" y="30" class="chart-text" font-size="10" font-family="-apple-system, BlinkMacSystemFont, 'Segoe UI', Helvetica, Arial, sans-serif">Linear Regression</text>
    <rect x="460" y="25" width="12" height="3" fill="#d73a49" rx="1" />
    <line x1="460" y1="26.5" x2="472" y2="26.5" stroke="#d73a49" stroke-width="2" stroke-dasharray="4,2" />
    <text x="476" y="30" class="chart-text" font-size="10" font-family="-apple-system, BlinkMacSystemFont, 'Segoe UI', Helvetica, Arial, sans-serif">Weighted Moving Average</text>
  </g>
  <g class="grid">
    <line x1="60" y1="350" x2="770" y2="350" class="chart-grid" stroke-opacity="0.3" />
    <text x="52" y="354" text-anchor="end" class="chart-muted" font-size="11" font-family="-apple-system, BlinkMacSystemFont, 'Segoe UI', Helvetica, Arial, sans-serif">0</text>
    <line x1="60" y1="274.74224217946465" x2="770" y2="274.74224217946465" class="chart-grid" stroke-opacity="0.3" />
    <text x="52" y="278.74224217946465" text-anchor="end" class="chart-muted" font-size="11" font-family="-apple-system, BlinkMacSystemFont, 'Segoe UI', Helvetica, Arial, sans-serif">10,000</text>
    <line x1="60" y1="199.48448435892934" x2="770" y2="199.48448435892934" class="chart-grid" stroke-opacity="0.3" />
    <text x="52" y="203.48448435892934" text-anchor="end" class="chart-muted" font-size="11" font-family="-apple-system, BlinkMacSystemFont, 'Segoe UI', Helvetica, Arial, sans-serif">20,000</text>
    <line x1="60" y1="124.22672653839402" x2="770" y2="124.22672653839402" class="chart-grid" stroke-opacity="0.3" />
    <text x="52" y="128.22672653839402" text-anchor="end" class="chart-muted" font-size="11" font-family="-apple-system, BlinkMacSystemFont, 'Segoe UI', Helvetica, Arial, sans-serif">30,000</text>
    <line x1="60" y1="48.96896871785867" x2="770" y2="48.96896871785867" class="chart-grid" stroke-opacity="0.3" />
    <text x="52" y="52.96896871785867" text-anchor="end" class="chart-muted" font-size="11" font-family="-apple-system, BlinkMacSystemFont, 'Segoe UI', Helvetica, Arial, sans-serif">40,000</text>
  </g>
  <g class="milestones">
    
  </g>
  <g class="x-axis">
    <text x="60" y="370" text-anchor="middle" class="chart-muted" font-size="11" font-family="-apple-system, BlinkMacSystemFont, 'Segoe UI', Helvetica, Arial, sans-serif">Feb 13</text>
    <text x="148.75" y="370" text-anchor="middle" class="chart-muted" font-size="11" font-family="-apple-system, BlinkMacSystemFont, 'Segoe UI', Helvetica, Arial, sans-serif">Feb 13</text>
    <text x="237.5" y="370" text-anchor="middle" class="chart-muted" font-size="11" font-family="-apple-system, BlinkMacSystemFont, 'Segoe UI', Helvetica, Arial, sans-serif">Feb 13</text>
    <text x="326.25" y="370" text-anchor="middle" class="chart-muted" font-size="11" font-family="-apple-system, BlinkMacSystemFont, 'Segoe UI', Helvetica, Arial, sans-serif">Feb 14</text>
    <text x="415" y="370" text-anchor="middle" class="chart-muted" font-size="11" font-family="-apple-system, BlinkMacSystemFont, 'Segoe UI', Helvetica, Arial, sans-serif">Feb 15</text>
    <text x="503.75" y="370" text-anchor="middle" class="chart-muted" font-size="11" font-family="-apple-system, BlinkMacSystemFont, 'Segoe UI', Helvetica, Arial, sans-serif">Mar 8</text>
    <text x="592.5" y="370" text-anchor="middle" class="chart-muted" font-size="11" font-family="-apple-system, BlinkMacSystemFont, 'Segoe UI', Helvetica, Arial, sans-serif">Mar 29</text>
    <text x="681.25" y="370" text-anchor="middle" class="chart-muted" font-size="11" font-family="-apple-system, BlinkMacSystemFont, 'Segoe UI', Helvetica, Arial, sans-serif">Week 1</text>
    <text x="770" y="370" text-anchor="middle" class="chart-muted" font-size="11" font-family="-apple-system, BlinkMacSystemFont, 'Segoe UI', Helvetica, Arial, sans-serif">Week 4</text>
  </g>
  <line x1="60" y1="50" x2="60" y2="350" class="chart-axis" stroke-width="1" />
  <line x1="60" y1="350" x2="770" y2="350" class="chart-axis" stroke-width="1" />
  <path d="M60,349.87958758748715 C63.94444444444444,349.87958758748715 81.69444444444444,349.87958758748715 89.58333333333333,349.87958758748715 C97.47222222222221,349.87958758748715 111.27777777777777,349.87958758748715 119.16666666666666,349.87958758748715 C127.05555555555554,349.87958758748715 140.86111111111111,349.87958758748715 148.75,349.87958758748715 C156.63888888888889,349.87958758748715 170.44444444444443,349.87958758748715 178.33333333333331,349.87958758748715 C186.2222222222222,349.87958758748715 200.0277777777778,349.87958758748715 207.91666666666669,349.87958758748715 C215.80555555555557,349.87958758748715 229.61111111111111,386.2270777412638 237.5,349.87958758748715 C245.38888888888889,313.5320974337105 259.1944444444445,77.27341143416203 267.08333333333337,77.27341143416203 C274.97222222222223,77.27341143416203 288.77777777777777,313.5320974337105 296.66666666666663,349.87958758748715 C304.5555555555555,386.2270777412638 318.3611111111111,349.87958758748715 326.25,349.87958758748715 C334.1388888888889,349.87958758748715 347.9444444444445,349.8775807139453 355.83333333333337,349.87958758748715 C363.72222222222223,349.881594461029 377.52777777777777,349.8926322655094 385.41666666666663,349.89463913905126 C393.3055555555555,349.8966460125931 407.1111111111111,349.8956425758222 415,349.89463913905126 C422.8888888888889,349.89363570228033 436.6944444444444,349.8871133632692 444.5833333333333,349.8871133632692 C452.47222222222223,349.8871133632692 466.27777777777777,349.89363570228033 474.1666666666667,349.89463913905126 C482.0555555555556,349.8956425758222 495.86111111111114,349.89463913905126 503.75,349.89463913905126 C511.63888888888886,349.89463913905126 525.4444444444443,349.89463913905126 533.3333333333333,349.89463913905126 C541.2222222222222,349.89463913905126 555.0277777777778,349.89463913905126 562.9166666666667,349.89463913905126 C570.8055555555557,349.89463913905126 584.6111111111111,349.89463913905126 592.5,349.89463913905126 C600.3888888888889,349.89463913905126 614.1944444444443,349.89463913905126 622.0833333333333,349.89463913905126 C629.9722222222222,349.89463913905126 647.7222222222223,349.89463913905126 651.6666666666667,349.89463913905126 L651.6666666666667,350 L60,350 Z" fill="#dfb317" fill-opacity="0.1" />
  
  
  <path d="M60,349.87958758748715 C63.94444444444444,349.87958758748715 81.69444444444444,349.87958758748715 89.58333333333333,349.87958758748715 C97.47222222222221,349.87958758748715 111.27777777777777,349.87958758748715 119.16666666666666,349.87958758748715 C127.05555555555554,349.87958758748715 140.86111111111111,349.87958758748715 148.75,349.87958758748715 C156.63888888888889,349.87958758748715 170.44444444444443,349.87958758748715 178.33333333333331,349.87958758748715 C186.2222222222222,349.87958758748715 200.0277777777778,349.87958758748715 207.91666666666669,349.87958758748715 C215.80555555555557,349.87958758748715 229.61111111111111,386.2270777412638 237.5,349.87958758748715 C245.38888888888889,313.5320974337105 259.1944444444445,77.27341143416203 267.08333333333337,77.27341143416203 C274.97222222222223,77.27341143416203 288.77777777777777,313.5320974337105 296.66666666666663,349.87958758748715 C304.5555555555555,386.2270777412638 318.3611111111111,349.87958758748715 326.25,349.87958758748715 C334.1388888888889,349.87958758748715 347.9444444444445,349.8775807139453 355.83333333333337,349.87958758748715 C363.72222222222223,349.881594461029 377.52777777777777,349.8926322655094 385.41666666666663,349.89463913905126 C393.3055555555555,349.8966460125931 407.1111111111111,349.8956425758222 415,349.89463913905126 C422.8888888888889,349.89363570228033 436.6944444444444,349.8871133632692 444.5833333333333,349.8871133632692 C452.47222222222223,349.8871133632692 466.27777777777777,349.89363570228033 474.1666666666667,349.89463913905126 C482.0555555555556,349.8956425758222 495.86111111111114,349.89463913905126 503.75,349.89463913905126 C511.63888888888886,349.89463913905126 525.4444444444443,349.89463913905126 533.3333333333333,349.89463913905126 C541.2222222222222,349.89463913905126 555.0277777777778,349.89463913905126 562.9166666666667,349.89463913905126 C570.8055555555557,349.89463913905126 584.6111111111111,349.89463913905126 592.5,349.89463913905126 C600.3888888888889,349.89463913905126 614.1944444444443,349.89463913905126 622.0833333333333,349.89463913905126 C629.9722222222222,349.89463913905126 647.7222222222223,349.89463913905126 651.6666666666667,349.89463913905126" fill="none" stroke="#dfb317" stroke-width="2.5" class="data-line-0" />
  <path d="M651.6666666666667,349.89463913905126 C655.6111111111112,349.7220480144495 673.3611111111111,348.6313122444372 681.25,348.60020570453804 C689.1388888888889,348.5690991646389 702.9444444444443,349.47470085041266 710.8333333333333,349.6613400898076 C718.7222222222222,349.84797932920253 732.5277777777778,349.95484534530766 740.4166666666667,350 C748.3055555555557,350.04515465469234 766.0555555555555,350 770,350" fill="none" stroke="#28a745" stroke-width="2.5" stroke-dasharray="8,4" />
  <path d="M651.6666666666667,349.89463913905126 C655.6111111111112,349.90868725384445 673.3611111111111,349.9859518852068 681.25,350 C689.1388888888889,350.0140481147932 702.9444444444443,350 710.8333333333333,350 C718.7222222222222,350 732.5277777777778,350 740.4166666666667,350 C748.3055555555557,350 766.0555555555555,350 770,350" fill="none" stroke="#d73a49" stroke-width="2.5" stroke-dasharray="8,4" />
  <g class="points">
    
    <circle cx="60" cy="349.87958758748715" r="4" fill="#dfb317" class="data-point" style="animation-delay: 1.50s" />
    <circle cx="89.58333333333333" cy="349.87958758748715" r="4" fill="#dfb317" class="data-point" style="animation-delay: 1.55s" />
    <circle cx="119.16666666666666" cy="349.87958758748715" r="4" fill="#dfb317" class="data-point" style="animation-delay: 1.60s" />
    <circle cx="148.75" cy="349.87958758748715" r="4" fill="#dfb317" class="data-point" style="animation-delay: 1.65s" />
    <circle cx="178.33333333333331" cy="349.87958758748715" r="4" fill="#dfb317" class="data-point" style="animation-delay: 1.70s" />
    <circle cx="207.91666666666669" cy="349.87958758748715" r="4" fill="#dfb317" class="data-point" style="animation-delay: 1.75s" />
    <circle cx="237.5" cy="349.87958758748715" r="4" fill="#dfb317" class="data-point" style="animation-delay: 1.80s" />
    <circle cx="267.08333333333337" cy="77.27341143416203" r="4" fill="#dfb317" class="data-point" style="animation-delay: 1.85s" />
    <circle cx="296.66666666666663" cy="349.87958758748715" r="4" fill="#dfb317" class="data-point" style="animation-delay: 1.90s" />
    <circle cx="326.25" cy="349.87958758748715" r="4" fill="#dfb317" class="data-point" style="animation-delay: 1.95s" />
    <circle cx="355.83333333333337" cy="349.87958758748715" r="4" fill="#dfb317" class="data-point" style="animation-delay: 2.00s" />
    <circle cx="385.41666666666663" cy="349.89463913905126" r="4" fill="#dfb317" class="data-point" style="animation-delay: 2.05s" />
    <circle cx="415" cy="349.89463913905126" r="4" fill="#dfb317" class="data-point" style="animation-delay: 2.10s" />
    <circle cx="444.5833333333333" cy="349.8871133632692" r="4" fill="#dfb317" class="data-point" style="animation-delay: 2.15s" />
    <circle cx="474.1666666666667" cy="349.89463913905126" r="4" fill="#dfb317" class="data-point" style="animation-delay: 2.20s" />
    <circle cx="503.75" cy="349.89463913905126" r="4" fill="#dfb317" class="data-point" style="animation-delay: 2.25s" />
    <circle cx="533.3333333333333" cy="349.89463913905126" r="4" fill="#dfb317" class="data-point" style="animation-delay: 2.30s" />
    <circle cx="562.9166666666667" cy="349.89463913905126" r="4" fill="#dfb317" class="data-point" style="animation-delay: 2.35s" />
    <circle cx="592.5" cy="349.89463913905126" r="4" fill="#dfb317" class="data-point" style="animation-delay: 2.40s" />
    <circle cx="622.0833333333333" cy="349.89463913905126" r="4" fill="#dfb317" class="data-point" style="animation-delay: 2.45s" />
    <circle cx="651.6666666666667" cy="349.89463913905126" r="4" fill="#dfb317" class="data-point" style="animation-delay: 2.50s" />
  </g>
</svg>