<svg xmlns="http://www.w3.org/2000/svg" viewBox="0 0 800 400" width="800" height="400">
  <style>
    @keyframes drawLine {
      to { stroke-dashoffset: 0; }
    }
    @keyframes fadeInPoint {
      from { opacity: 0; }
      to { opacity: 1; }
    }
    .data-line-0 {
      stroke-dasharray: 1611;
      stroke-dashoffset: 1611;
      animation: drawLine 2s ease-out forwards;
    }
    .data-point {
      opacity: 0;
      animation: fadeInPoint 0.5s ease-out forwards;
    }
    .chart-bg { fill: #fff; }
    .chart-text { fill: #24292e; }
    .chart-muted { fill: #6a737d; }
    .chart-grid { stroke: #eee; }
    .chart-axis { stroke: #6a737d; }
    @media (prefers-color-scheme: dark) {
      .chart-bg { fill: #0d1117; }
      .chart-text { fill: #e6edf3; }
      .chart-muted { fill: #8b949e; }
      .chart-grid { stroke: #21262d; }
      .chart-axis { stroke: #8b949e; }
    }
  </style>
  <rect width="800" height="400" class="chart-bg" />
  <text x="400" y="14" text-anchor="middle" class="chart-text" font-size="16" font-weight="bold" font-family="-apple-system, BlinkMacSystemFont, 'Segoe UI', Helvetica, Arial, sans-serif">Growth Forecast</text>
  <g class="legend">
    <rect x="220" y="25" width="12" height="3" fill="#dfb317" />
    <line x1="220" y1="26.5" x2="232" y2="26.5" stroke="#dfb317" stroke-width="2" />
    <text x="236" y="30" class="chart-text" font-size="10" font-family="-apple-system, BlinkMacSystemFont, 'Segoe UI', Helvetica, Arial, sans-serif">Star History</text>
    <rect x="340" y="25" width="12" height="3" fill="#28a745" rx="1" />
    <line x1="340" y1="26.5" x2="352" y2="26.5" stroke="#28a745" stroke-width="2" stroke-dasharray="4,2" />
    <text x="356" y="30" class="chart-text" font-size="10" font-family="-apple-system, BlinkMacSystemFont, 'Segoe UI', Helvetica, Arial, sans-serif">Linear Regression</text>
    <rect x="460" y="25" width="12" height="3" fill="#d73a49" rx="1" />
    <line x1="460" y1="26.5" x2="472" y2="26.5" stroke="#d73a49" stroke-width="2" stroke-dasharray="4,2" />
    <text x="476" y="30" class="chart-text" font-size="10" font-family="-apple-system, BlinkMacSystemFont, 'Segoe UI', Helvetica, Arial, sans-serif">Weighted Moving Average</text>
  </g>
  <g class="grid">
    <line x1="60" y1="350" x2="770" y2="350" class="chart-grid" stroke-opacity="0.3" />
    <text x="52" y="354" text-anchor="end" class="chart-muted" font-size="11" font-family="-apple-system, BlinkMacSystemFont, 'Segoe UI', Helvetica, Arial, sans-serif">0</text>
    <line x1="60" y1="274.74224217946465" x2="770" y2="274.74224217946465" class="chart-grid" stroke-opacity="0.3" />
    <text x="52" y="278.74224217946465" text-anchor="end" class="chart-muted" font-size="11" font-family="-apple-system, BlinkMacSystemFont, 'Segoe UI', Helvetica, Arial, sans-serif">10,000</text>
    <line x1="60" y1="199.48448435892934" x2="770" y2="199.48448435892934" class="chart-grid" stroke-opacity="0.3" />
    <text x="52" y="203.48448435892934" text-anchor="end" class="chart-muted" font-size="11" font-family="-apple-system, BlinkMacSystemFont, 'Segoe UI', Helvetica, Arial, sans-serif">20,000</text>
    <line x1="60" y1="124.22672653839402" x2="770" y2="124.22672653839402" class="chart-grid" stroke-opacity="0.3" />
    <text x="52" y="128.22672653839402" text-anchor="end" class="chart-muted" font-size="11" font-family="-apple-system, BlinkMacSystemFont, 'Segoe UI', Helvetica, Arial, sans-serif">30,000</text>
    <line x1="60" y1="48.96896871785867" x2="770" y2="48.96896871785867" class="chart-grid" stroke-opacity="0.3" />
    <text x="52" y="52.96896871785867" text-anchor="end" class="chart-muted" font-size="11" font-family="-apple-system, BlinkMacSystemFont, 'Segoe UI', Helvetica, Arial, sans-serif">40,000</text>
  </g>
  <g class="milestones">
    
  </g>
  <g class="x-axis">
    <text x="60" y="370" text-anchor="middle" class="chart-muted" font-size="11" font-family="-apple-system, BlinkMacSystemFont, 'Segoe UI', Helvetica, Arial, sans-serif">Feb 13</text>
    <text x="152.6086956521739" y="370" text-anchor="middle" class="chart-muted" font-size="11" font-family="-apple-system, BlinkMacSystemFont, 'Segoe UI', Helvetica, Arial, sans-serif">Feb 13</text>
    <text x="245.2173913043478" y="370" text-anchor="middle" class="chart-muted" font-size="11" font-family="-apple-system, BlinkMacSystemFont, 'Segoe UI', Helvetica, Arial, sans-serif">Feb 13</text>
    <text x="337.82608695652175" y="370" text-anchor="middle" class="chart-muted" font-size="11" font-family="-apple-system, BlinkMacSystemFont, 'Segoe UI', Helvetica, Arial, sans-serif">Feb 14</text>
    <text x="430.4347826086956" y="370" text-anchor="middle" class="chart-muted" font-size="11" font-family="-apple-system, BlinkMacSystemFont, 'Segoe UI', Helvetica, Arial, sans-serif">Feb 15</text>
    <text x="523.0434782608695" y="370" text-anchor="middle" class="chart-muted" font-size="11" font-family="-apple-system, BlinkMacSystemFont, 'Segoe UI', Helvetica, Arial, sans-serif">Mar 8</text>
    <text x="615.6521739130435" y="370" text-anchor="middle" class="chart-muted" font-size="11" font-family="-apple-system, BlinkMacSystemFont, 'Segoe UI', Helvetica, Arial, sans-serif">Mar 29</text>
    <text x="708.2608695652174" y="370" text-anchor="middle" class="chart-muted" font-size="11" font-family="-apple-system, BlinkMacSystemFont, 'Segoe UI', Helvetica, Arial, sans-serif">Week 2</text>
    <text x="770" y="370" text-anchor="middle" class="chart-muted" font-size="11" font-family="-apple-system, BlinkMacSystemFont, 'Segoe UI', Helvetica, Arial, sans-serif">Week 4</text>
  </g>
  <line x1="60" y1="50" x2="60" y2="350" class="chart-axis" stroke-width="1" />
  <line x1="60" y1="350" x2="770" y2="350" class="chart-axis" stroke-width="1" />
  <path d="M60,349.87958758748715 C64.11594202898551,349.87958758748715 82.6376811594203,349.87958758748715 90.86956521739131,349.87958758748715 C99.10144927536233,349.87958758748715 113.5072463768116,349.87958758748715 121.73913043478261,349.87958758748715 C129.97101449275362,349.87958758748715 144.37681159420288,349.87958758748715 152.6086956521739,349.87958758748715 C160.84057971014494,349.87958758748715 175.2463768115942,349.87958758748715 183.47826086956522,349.87958758748715 C191.71014492753625,349.87958758748715 206.11594202898553,349.87958758748715 214.34782608695653,349.87958758748715 C222.57971014492753,349.87958758748715 236.9855072463768,386.2270777412638 245.2173913043478,349.87958758748715 C253.44927536231882,313.5320974337105 267.8550724637681,77.27341143416203 276.0869565217391,77.27341143416203 C284.3188405797101,77.27341143416203 298.72463768115944,313.5320974337105 306.95652173913044,349.87958758748715 C315.18840579710144,386.2270777412638 329.59420289855075,349.87958758748715 337.82608695652175,349.87958758748715 C346.05797101449275,349.87958758748715 360.46376811594206,349.8775807139453 368.69565217391306,349.87958758748715 C376.92753623188406,349.881594461029 391.33333333333337,349.8926322655094 399.5652173913044,349.89463913905126 C407.7971014492754,349.8966460125931 422.2028985507246,349.8956425758222 430.4347826086956,349.89463913905126 C438.66666666666663,349.89363570228033 453.07246376811594,349.8871133632692 461.30434782608694,349.8871133632692 C469.53623188405794,349.8871133632692 483.9420289855073,349.89363570228033 492.1739130434783,349.89463913905126 C500.4057971014493,349.8956425758222 514.8115942028985,349.89463913905126 523.0434782608695,349.89463913905126 C531.2753623188405,349.89463913905126 545.6811594202899,349.89463913905126 553.9130434782609,349.89463913905126 C562.1449275362319,349.89463913905126 576.5507246376811,349.89463913905126 584.7826086956521,349.89463913905126 C593.0144927536231,349.89463913905126 607.4202898550725,349.89463913905126 615.6521739130435,349.89463913905126 C623.8840579710145,349.89463913905126 642.4057971014493,349.89463913905126 646.5217391304348,349.89463913905126 L646.5217391304348,350 L60,350 Z" fill="#dfb317" fill-opacity="0.1" />
  
  
  <path d="M60,349.87958758748715 C64.11594202898551,349.87958758748715 82.6376811594203,349.87958758748715 90.86956521739131,349.87958758748715 C99.10144927536233,349.87958758748715 113.5072463768116,349.87958758748715 121.73913043478261,349.87958758748715 C129.97101449275362,349.87958758748715 144.37681159420288,349.87958758748715 152.6086956521739,349.87958758748715 C160.84057971014494,349.87958758748715 175.2463768115942,349.87958758748715 183.47826086956522,349.87958758748715 C191.71014492753625,349.87958758748715 206.11594202898553,349.87958758748715 214.34782608695653,349.87958758748715 C222.57971014492753,349.87958758748715 236.9855072463768,386.2270777412638 245.2173913043478,349.87958758748715 C253.44927536231882,313.5320974337105 267.8550724637681,77.27341143416203 276.0869565217391,77.27341143416203 C284.3188405797101,77.27341143416203 298.72463768115944,313.5320974337105 306.95652173913044,349.87958758748715 C315.18840579710144,386.2270777412638 329.59420289855075,349.87958758748715 337.82608695652175,349.87958758748715 C346.05797101449275,349.87958758748715 360.46376811594206,349.8775807139453 368.69565217391306,349.87958758748715 C376.92753623188406,349.881594461029 391.33333333333337,349.8926322655094 399.5652173913044,349.89463913905126 C407.7971014492754,349.8966460125931 422.2028985507246,349.8956425758222 430.4347826086956,349.89463913905126 C438.66666666666663,349.89363570228033 453.07246376811594,349.8871133632692 461.30434782608694,349.8871133632692 C469.53623188405794,349.8871133632692 483.9420289855073,349.89363570228033 492.1739130434783,349.89463913905126 C500.4057971014493,349.8956425758222 514.8115942028985,349.89463913905126 523.0434782608695,349.89463913905126 C531.2753623188405,349.89463913905126 545.6811594202899,349.89463913905126 553.9130434782609,349.89463913905126 C562.1449275362319,349.89463913905126 576.5507246376811,349.89463913905126 584.7826086956521,349.89463913905126 C593.0144927536231,349.89463913905126 607.4202898550725,349.89463913905126 615.6521739130435,349.89463913905126 C623.8840579710145,349.89463913905126 642.4057971014493,349.89463913905126 646.5217391304348,349.89463913905126" fill="none" stroke="#dfb317" stroke-width="2.5" class="data-line-0" />
  <path d="M646.5217391304348,349.89463913905126 C650.6376811594203,349.51232972932297 669.1594202898551,347.27316057496927 677.3913043478261,347.02731856608887 C685.6231884057971,346.78147655720846 700.0289855072464,347.77688583398134 708.2608695652174,348.0508240724481 C716.4927536231884,348.3247623109149 730.8985507246377,348.8219652309159 739.1304347826087,349.0818553545895 C747.3623188405797,349.3417454782631 765.8840579710145,349.8775807139453 770,350" fill="none" stroke="#28a745" stroke-width="2.5" stroke-dasharray="8,4" />
  <path d="M646.5217391304348,349.89463913905126 C650.6376811594203,349.90868725384445 669.1594202898551,349.9859518852068 677.3913043478261,350 C685.6231884057971,350.0140481147932 700.0289855072464,350 708.2608695652174,350 C716.4927536231884,350 730.8985507246377,350 739.1304347826087,350 C747.3623188405797,350 765.8840579710145,350 770,350" fill="none" stroke="#d73a49" stroke-width="2.5" stroke-dasharray="8,4" />
  <g class="points">
    
    <circle cx="60" cy="349.87958758748715" r="4" fill="#dfb317" class="data-point" style="animation-delay: 1.50s" />
    <circle cx="90.86956521739131" cy="349.87958758748715" r="4" fill="#dfb317" class="data-point" style="animation-delay: 1.55s" />
    <circle cx="121.73913043478261" cy="349.87958758748715" r="4" fill="#dfb317" class="data-point" style="animation-delay: 1.60s" />
    <circle cx="152.6086956521739" cy="349.87958758748715" r="4" fill="#dfb317" class="data-point" style="animation-delay: 1.65s" />
    <circle cx="183.47826086956522" cy="349.87958758748715" r="4" fill="#dfb317" class="data-point" style="animation-delay: 1.70s" />
    <circle cx="214.34782608695653" cy="349.87958758748715" r="4" fill="#dfb317" class="data-point" style="animation-delay: 1.75s" />
    <circle cx="245.2173913043478" cy="349.87958758748715" r="4" fill="#dfb317" class="data-point" style="animation-delay: 1.80s" />
    <circle cx="276.0869565217391" cy="77.27341143416203" r="4" fill="#dfb317" class="data-point" style="animation-delay: 1.85s" />
    <circle cx="306.95652173913044" cy="349.87958758748715" r="4" fill="#dfb317" class="data-point" style="animation-delay: 1.90s" />
    <circle cx="337.82608695652175" cy="349.87958758748715" r="4" fill="#dfb317" class="data-point" style="animation-delay: 1.95s" />
    <circle cx="368.69565217391306" cy="349.87958758748715" r="4" fill="#dfb317" class="data-point" style="animation-delay: 2.00s" />
    <circle cx="399.5652173913044" cy="349.89463913905126" r="4" fill="#dfb317" class="data-point" style="animation-delay: 2.05s" />
    <circle cx="430.4347826086956" cy="349.89463913905126" r="4" fill="#dfb317" class="data-point" style="animation-delay: 2.10s" />
    <circle cx="461.30434782608694" cy="349.8871133632692" r="4" fill="#dfb317" class="data-point" style="animation-delay: 2.15s" />
    <circle cx="492.1739130434783" cy="349.89463913905126" r="4" fill="#dfb317" class="data-point" style="animation-delay: 2.20s" />
    <circle cx="523.0434782608695" cy="349.89463913905126" r="4" fill="#dfb317" class="data-point" style="animation-delay: 2.25s" />
    <circle cx="553.9130434782609" cy="349.89463913905126" r="4" fill="#dfb317" class="data-point" style="animation-delay: 2.30s" />
    <circle cx="584.7826086956521" cy="349.89463913905126" r="4" fill="#dfb317" class="data-point" style="animation-delay: 2.35s" />
    <circle cx="615.6521739130435" cy="349.89463913905126" r="4" fill="#dfb317" class="data-point" style="animation-delay: 2.40s" />
    <circle cx="646.5217391304348" cy="349.89463913905126" r="4" fill="#dfb317" class="data-point" style="animation-delay: 2.45s" />
  </g>
</svg>